%TF.GenerationSoftware,KiCad,Pcbnew,10.0.4*%
%TF.CreationDate,2026-06-30T00:06:30+02:00*%
%TF.ProjectId,reflow,7265666c-6f77-42e6-9b69-6361645f7063,rev?*%
%TF.SameCoordinates,Original*%
%TF.FileFunction,AssemblyDrawing,Top*%
%FSLAX46Y46*%
G04 Gerber Fmt 4.6, Leading zero omitted, Abs format (unit mm)*
G04 Created by KiCad (PCBNEW 10.0.4) date 2026-06-30 00:06:30*
%MOMM*%
%LPD*%
G01*
G04 APERTURE LIST*
%ADD10C,0.150000*%
%ADD11C,0.120000*%
%ADD12C,0.100000*%
G04 APERTURE END LIST*
D10*
X27060476Y-92734819D02*
X27060476Y-91734819D01*
X28108094Y-92734819D02*
X27774761Y-92258628D01*
X27536666Y-92734819D02*
X27536666Y-91734819D01*
X27536666Y-91734819D02*
X27917618Y-91734819D01*
X27917618Y-91734819D02*
X28012856Y-91782438D01*
X28012856Y-91782438D02*
X28060475Y-91830057D01*
X28060475Y-91830057D02*
X28108094Y-91925295D01*
X28108094Y-91925295D02*
X28108094Y-92068152D01*
X28108094Y-92068152D02*
X28060475Y-92163390D01*
X28060475Y-92163390D02*
X28012856Y-92211009D01*
X28012856Y-92211009D02*
X27917618Y-92258628D01*
X27917618Y-92258628D02*
X27536666Y-92258628D01*
X28869999Y-92211009D02*
X28536666Y-92211009D01*
X28536666Y-92734819D02*
X28536666Y-91734819D01*
X28536666Y-91734819D02*
X29012856Y-91734819D01*
X29346190Y-92687200D02*
X29489047Y-92734819D01*
X29489047Y-92734819D02*
X29727142Y-92734819D01*
X29727142Y-92734819D02*
X29822380Y-92687200D01*
X29822380Y-92687200D02*
X29869999Y-92639580D01*
X29869999Y-92639580D02*
X29917618Y-92544342D01*
X29917618Y-92544342D02*
X29917618Y-92449104D01*
X29917618Y-92449104D02*
X29869999Y-92353866D01*
X29869999Y-92353866D02*
X29822380Y-92306247D01*
X29822380Y-92306247D02*
X29727142Y-92258628D01*
X29727142Y-92258628D02*
X29536666Y-92211009D01*
X29536666Y-92211009D02*
X29441428Y-92163390D01*
X29441428Y-92163390D02*
X29393809Y-92115771D01*
X29393809Y-92115771D02*
X29346190Y-92020533D01*
X29346190Y-92020533D02*
X29346190Y-91925295D01*
X29346190Y-91925295D02*
X29393809Y-91830057D01*
X29393809Y-91830057D02*
X29441428Y-91782438D01*
X29441428Y-91782438D02*
X29536666Y-91734819D01*
X29536666Y-91734819D02*
X29774761Y-91734819D01*
X29774761Y-91734819D02*
X29917618Y-91782438D01*
X30774761Y-92068152D02*
X30774761Y-92734819D01*
X30536666Y-91687200D02*
X30298571Y-92401485D01*
X30298571Y-92401485D02*
X30917618Y-92401485D01*
X31203333Y-91734819D02*
X31869999Y-91734819D01*
X31869999Y-91734819D02*
X31441428Y-92734819D01*
X32774761Y-92734819D02*
X32203333Y-92734819D01*
X32489047Y-92734819D02*
X32489047Y-91734819D01*
X32489047Y-91734819D02*
X32393809Y-91877676D01*
X32393809Y-91877676D02*
X32298571Y-91972914D01*
X32298571Y-91972914D02*
X32203333Y-92020533D01*
X33393809Y-91734819D02*
X33489047Y-91734819D01*
X33489047Y-91734819D02*
X33584285Y-91782438D01*
X33584285Y-91782438D02*
X33631904Y-91830057D01*
X33631904Y-91830057D02*
X33679523Y-91925295D01*
X33679523Y-91925295D02*
X33727142Y-92115771D01*
X33727142Y-92115771D02*
X33727142Y-92353866D01*
X33727142Y-92353866D02*
X33679523Y-92544342D01*
X33679523Y-92544342D02*
X33631904Y-92639580D01*
X33631904Y-92639580D02*
X33584285Y-92687200D01*
X33584285Y-92687200D02*
X33489047Y-92734819D01*
X33489047Y-92734819D02*
X33393809Y-92734819D01*
X33393809Y-92734819D02*
X33298571Y-92687200D01*
X33298571Y-92687200D02*
X33250952Y-92639580D01*
X33250952Y-92639580D02*
X33203333Y-92544342D01*
X33203333Y-92544342D02*
X33155714Y-92353866D01*
X33155714Y-92353866D02*
X33155714Y-92115771D01*
X33155714Y-92115771D02*
X33203333Y-91925295D01*
X33203333Y-91925295D02*
X33250952Y-91830057D01*
X33250952Y-91830057D02*
X33298571Y-91782438D01*
X33298571Y-91782438D02*
X33393809Y-91734819D01*
X30274761Y-89680057D02*
X30179523Y-89632438D01*
X30179523Y-89632438D02*
X30084285Y-89537200D01*
X30084285Y-89537200D02*
X29941428Y-89394342D01*
X29941428Y-89394342D02*
X29846190Y-89346723D01*
X29846190Y-89346723D02*
X29750952Y-89346723D01*
X29798571Y-89584819D02*
X29703333Y-89537200D01*
X29703333Y-89537200D02*
X29608095Y-89441961D01*
X29608095Y-89441961D02*
X29560476Y-89251485D01*
X29560476Y-89251485D02*
X29560476Y-88918152D01*
X29560476Y-88918152D02*
X29608095Y-88727676D01*
X29608095Y-88727676D02*
X29703333Y-88632438D01*
X29703333Y-88632438D02*
X29798571Y-88584819D01*
X29798571Y-88584819D02*
X29989047Y-88584819D01*
X29989047Y-88584819D02*
X30084285Y-88632438D01*
X30084285Y-88632438D02*
X30179523Y-88727676D01*
X30179523Y-88727676D02*
X30227142Y-88918152D01*
X30227142Y-88918152D02*
X30227142Y-89251485D01*
X30227142Y-89251485D02*
X30179523Y-89441961D01*
X30179523Y-89441961D02*
X30084285Y-89537200D01*
X30084285Y-89537200D02*
X29989047Y-89584819D01*
X29989047Y-89584819D02*
X29798571Y-89584819D01*
X31179523Y-89584819D02*
X30608095Y-89584819D01*
X30893809Y-89584819D02*
X30893809Y-88584819D01*
X30893809Y-88584819D02*
X30798571Y-88727676D01*
X30798571Y-88727676D02*
X30703333Y-88822914D01*
X30703333Y-88822914D02*
X30608095Y-88870533D01*
X59517618Y-32134819D02*
X59517618Y-31134819D01*
X59517618Y-31134819D02*
X59898570Y-31134819D01*
X59898570Y-31134819D02*
X59993808Y-31182438D01*
X59993808Y-31182438D02*
X60041427Y-31230057D01*
X60041427Y-31230057D02*
X60089046Y-31325295D01*
X60089046Y-31325295D02*
X60089046Y-31468152D01*
X60089046Y-31468152D02*
X60041427Y-31563390D01*
X60041427Y-31563390D02*
X59993808Y-31611009D01*
X59993808Y-31611009D02*
X59898570Y-31658628D01*
X59898570Y-31658628D02*
X59517618Y-31658628D01*
X60946189Y-31468152D02*
X60946189Y-32134819D01*
X60517618Y-31468152D02*
X60517618Y-31991961D01*
X60517618Y-31991961D02*
X60565237Y-32087200D01*
X60565237Y-32087200D02*
X60660475Y-32134819D01*
X60660475Y-32134819D02*
X60803332Y-32134819D01*
X60803332Y-32134819D02*
X60898570Y-32087200D01*
X60898570Y-32087200D02*
X60946189Y-32039580D01*
X61374761Y-32087200D02*
X61469999Y-32134819D01*
X61469999Y-32134819D02*
X61660475Y-32134819D01*
X61660475Y-32134819D02*
X61755713Y-32087200D01*
X61755713Y-32087200D02*
X61803332Y-31991961D01*
X61803332Y-31991961D02*
X61803332Y-31944342D01*
X61803332Y-31944342D02*
X61755713Y-31849104D01*
X61755713Y-31849104D02*
X61660475Y-31801485D01*
X61660475Y-31801485D02*
X61517618Y-31801485D01*
X61517618Y-31801485D02*
X61422380Y-31753866D01*
X61422380Y-31753866D02*
X61374761Y-31658628D01*
X61374761Y-31658628D02*
X61374761Y-31611009D01*
X61374761Y-31611009D02*
X61422380Y-31515771D01*
X61422380Y-31515771D02*
X61517618Y-31468152D01*
X61517618Y-31468152D02*
X61660475Y-31468152D01*
X61660475Y-31468152D02*
X61755713Y-31515771D01*
X62231904Y-32134819D02*
X62231904Y-31134819D01*
X62660475Y-32134819D02*
X62660475Y-31611009D01*
X62660475Y-31611009D02*
X62612856Y-31515771D01*
X62612856Y-31515771D02*
X62517618Y-31468152D01*
X62517618Y-31468152D02*
X62374761Y-31468152D01*
X62374761Y-31468152D02*
X62279523Y-31515771D01*
X62279523Y-31515771D02*
X62231904Y-31563390D01*
X63136666Y-32134819D02*
X63136666Y-31134819D01*
X63136666Y-31515771D02*
X63231904Y-31468152D01*
X63231904Y-31468152D02*
X63422380Y-31468152D01*
X63422380Y-31468152D02*
X63517618Y-31515771D01*
X63517618Y-31515771D02*
X63565237Y-31563390D01*
X63565237Y-31563390D02*
X63612856Y-31658628D01*
X63612856Y-31658628D02*
X63612856Y-31944342D01*
X63612856Y-31944342D02*
X63565237Y-32039580D01*
X63565237Y-32039580D02*
X63517618Y-32087200D01*
X63517618Y-32087200D02*
X63422380Y-32134819D01*
X63422380Y-32134819D02*
X63231904Y-32134819D01*
X63231904Y-32134819D02*
X63136666Y-32087200D01*
X64469999Y-31468152D02*
X64469999Y-32134819D01*
X64041428Y-31468152D02*
X64041428Y-31991961D01*
X64041428Y-31991961D02*
X64089047Y-32087200D01*
X64089047Y-32087200D02*
X64184285Y-32134819D01*
X64184285Y-32134819D02*
X64327142Y-32134819D01*
X64327142Y-32134819D02*
X64422380Y-32087200D01*
X64422380Y-32087200D02*
X64469999Y-32039580D01*
X64803333Y-31468152D02*
X65184285Y-31468152D01*
X64946190Y-31134819D02*
X64946190Y-31991961D01*
X64946190Y-31991961D02*
X64993809Y-32087200D01*
X64993809Y-32087200D02*
X65089047Y-32134819D01*
X65089047Y-32134819D02*
X65184285Y-32134819D01*
X65374762Y-31468152D02*
X65755714Y-31468152D01*
X65517619Y-31134819D02*
X65517619Y-31991961D01*
X65517619Y-31991961D02*
X65565238Y-32087200D01*
X65565238Y-32087200D02*
X65660476Y-32134819D01*
X65660476Y-32134819D02*
X65755714Y-32134819D01*
X66231905Y-32134819D02*
X66136667Y-32087200D01*
X66136667Y-32087200D02*
X66089048Y-32039580D01*
X66089048Y-32039580D02*
X66041429Y-31944342D01*
X66041429Y-31944342D02*
X66041429Y-31658628D01*
X66041429Y-31658628D02*
X66089048Y-31563390D01*
X66089048Y-31563390D02*
X66136667Y-31515771D01*
X66136667Y-31515771D02*
X66231905Y-31468152D01*
X66231905Y-31468152D02*
X66374762Y-31468152D01*
X66374762Y-31468152D02*
X66470000Y-31515771D01*
X66470000Y-31515771D02*
X66517619Y-31563390D01*
X66517619Y-31563390D02*
X66565238Y-31658628D01*
X66565238Y-31658628D02*
X66565238Y-31944342D01*
X66565238Y-31944342D02*
X66517619Y-32039580D01*
X66517619Y-32039580D02*
X66470000Y-32087200D01*
X66470000Y-32087200D02*
X66374762Y-32134819D01*
X66374762Y-32134819D02*
X66231905Y-32134819D01*
X66993810Y-31468152D02*
X66993810Y-32134819D01*
X66993810Y-31563390D02*
X67041429Y-31515771D01*
X67041429Y-31515771D02*
X67136667Y-31468152D01*
X67136667Y-31468152D02*
X67279524Y-31468152D01*
X67279524Y-31468152D02*
X67374762Y-31515771D01*
X67374762Y-31515771D02*
X67422381Y-31611009D01*
X67422381Y-31611009D02*
X67422381Y-32134819D01*
X61636667Y-27637200D02*
X61779524Y-27684819D01*
X61779524Y-27684819D02*
X62017619Y-27684819D01*
X62017619Y-27684819D02*
X62112857Y-27637200D01*
X62112857Y-27637200D02*
X62160476Y-27589580D01*
X62160476Y-27589580D02*
X62208095Y-27494342D01*
X62208095Y-27494342D02*
X62208095Y-27399104D01*
X62208095Y-27399104D02*
X62160476Y-27303866D01*
X62160476Y-27303866D02*
X62112857Y-27256247D01*
X62112857Y-27256247D02*
X62017619Y-27208628D01*
X62017619Y-27208628D02*
X61827143Y-27161009D01*
X61827143Y-27161009D02*
X61731905Y-27113390D01*
X61731905Y-27113390D02*
X61684286Y-27065771D01*
X61684286Y-27065771D02*
X61636667Y-26970533D01*
X61636667Y-26970533D02*
X61636667Y-26875295D01*
X61636667Y-26875295D02*
X61684286Y-26780057D01*
X61684286Y-26780057D02*
X61731905Y-26732438D01*
X61731905Y-26732438D02*
X61827143Y-26684819D01*
X61827143Y-26684819D02*
X62065238Y-26684819D01*
X62065238Y-26684819D02*
X62208095Y-26732438D01*
X62541429Y-26684819D02*
X62779524Y-27684819D01*
X62779524Y-27684819D02*
X62970000Y-26970533D01*
X62970000Y-26970533D02*
X63160476Y-27684819D01*
X63160476Y-27684819D02*
X63398572Y-26684819D01*
X63731905Y-26780057D02*
X63779524Y-26732438D01*
X63779524Y-26732438D02*
X63874762Y-26684819D01*
X63874762Y-26684819D02*
X64112857Y-26684819D01*
X64112857Y-26684819D02*
X64208095Y-26732438D01*
X64208095Y-26732438D02*
X64255714Y-26780057D01*
X64255714Y-26780057D02*
X64303333Y-26875295D01*
X64303333Y-26875295D02*
X64303333Y-26970533D01*
X64303333Y-26970533D02*
X64255714Y-27113390D01*
X64255714Y-27113390D02*
X63684286Y-27684819D01*
X63684286Y-27684819D02*
X64303333Y-27684819D01*
X25417619Y-34824819D02*
X25608095Y-34824819D01*
X25608095Y-34824819D02*
X25703333Y-34872438D01*
X25703333Y-34872438D02*
X25798571Y-34967676D01*
X25798571Y-34967676D02*
X25846190Y-35158152D01*
X25846190Y-35158152D02*
X25846190Y-35491485D01*
X25846190Y-35491485D02*
X25798571Y-35681961D01*
X25798571Y-35681961D02*
X25703333Y-35777200D01*
X25703333Y-35777200D02*
X25608095Y-35824819D01*
X25608095Y-35824819D02*
X25417619Y-35824819D01*
X25417619Y-35824819D02*
X25322381Y-35777200D01*
X25322381Y-35777200D02*
X25227143Y-35681961D01*
X25227143Y-35681961D02*
X25179524Y-35491485D01*
X25179524Y-35491485D02*
X25179524Y-35158152D01*
X25179524Y-35158152D02*
X25227143Y-34967676D01*
X25227143Y-34967676D02*
X25322381Y-34872438D01*
X25322381Y-34872438D02*
X25417619Y-34824819D01*
X26750952Y-35824819D02*
X26274762Y-35824819D01*
X26274762Y-35824819D02*
X26274762Y-34824819D01*
X27084286Y-35301009D02*
X27417619Y-35301009D01*
X27560476Y-35824819D02*
X27084286Y-35824819D01*
X27084286Y-35824819D02*
X27084286Y-34824819D01*
X27084286Y-34824819D02*
X27560476Y-34824819D01*
X27989048Y-35824819D02*
X27989048Y-34824819D01*
X27989048Y-34824819D02*
X28227143Y-34824819D01*
X28227143Y-34824819D02*
X28370000Y-34872438D01*
X28370000Y-34872438D02*
X28465238Y-34967676D01*
X28465238Y-34967676D02*
X28512857Y-35062914D01*
X28512857Y-35062914D02*
X28560476Y-35253390D01*
X28560476Y-35253390D02*
X28560476Y-35396247D01*
X28560476Y-35396247D02*
X28512857Y-35586723D01*
X28512857Y-35586723D02*
X28465238Y-35681961D01*
X28465238Y-35681961D02*
X28370000Y-35777200D01*
X28370000Y-35777200D02*
X28227143Y-35824819D01*
X28227143Y-35824819D02*
X27989048Y-35824819D01*
X68693571Y-31044819D02*
X68217381Y-31044819D01*
X68217381Y-31044819D02*
X68217381Y-30044819D01*
X69026905Y-30521009D02*
X69360238Y-30521009D01*
X69503095Y-31044819D02*
X69026905Y-31044819D01*
X69026905Y-31044819D02*
X69026905Y-30044819D01*
X69026905Y-30044819D02*
X69503095Y-30044819D01*
X69931667Y-31044819D02*
X69931667Y-30044819D01*
X69931667Y-30044819D02*
X70169762Y-30044819D01*
X70169762Y-30044819D02*
X70312619Y-30092438D01*
X70312619Y-30092438D02*
X70407857Y-30187676D01*
X70407857Y-30187676D02*
X70455476Y-30282914D01*
X70455476Y-30282914D02*
X70503095Y-30473390D01*
X70503095Y-30473390D02*
X70503095Y-30616247D01*
X70503095Y-30616247D02*
X70455476Y-30806723D01*
X70455476Y-30806723D02*
X70407857Y-30901961D01*
X70407857Y-30901961D02*
X70312619Y-30997200D01*
X70312619Y-30997200D02*
X70169762Y-31044819D01*
X70169762Y-31044819D02*
X69931667Y-31044819D01*
X72169762Y-30044819D02*
X71693572Y-30044819D01*
X71693572Y-30044819D02*
X71645953Y-30521009D01*
X71645953Y-30521009D02*
X71693572Y-30473390D01*
X71693572Y-30473390D02*
X71788810Y-30425771D01*
X71788810Y-30425771D02*
X72026905Y-30425771D01*
X72026905Y-30425771D02*
X72122143Y-30473390D01*
X72122143Y-30473390D02*
X72169762Y-30521009D01*
X72169762Y-30521009D02*
X72217381Y-30616247D01*
X72217381Y-30616247D02*
X72217381Y-30854342D01*
X72217381Y-30854342D02*
X72169762Y-30949580D01*
X72169762Y-30949580D02*
X72122143Y-30997200D01*
X72122143Y-30997200D02*
X72026905Y-31044819D01*
X72026905Y-31044819D02*
X71788810Y-31044819D01*
X71788810Y-31044819D02*
X71693572Y-30997200D01*
X71693572Y-30997200D02*
X71645953Y-30949580D01*
X72645953Y-31044819D02*
X72645953Y-30044819D01*
X72645953Y-30044819D02*
X72979286Y-30759104D01*
X72979286Y-30759104D02*
X73312619Y-30044819D01*
X73312619Y-30044819D02*
X73312619Y-31044819D01*
X73788810Y-31044819D02*
X73788810Y-30044819D01*
X73788810Y-30044819D02*
X74122143Y-30759104D01*
X74122143Y-30759104D02*
X74455476Y-30044819D01*
X74455476Y-30044819D02*
X74455476Y-31044819D01*
X76217381Y-30092438D02*
X76122143Y-30044819D01*
X76122143Y-30044819D02*
X75979286Y-30044819D01*
X75979286Y-30044819D02*
X75836429Y-30092438D01*
X75836429Y-30092438D02*
X75741191Y-30187676D01*
X75741191Y-30187676D02*
X75693572Y-30282914D01*
X75693572Y-30282914D02*
X75645953Y-30473390D01*
X75645953Y-30473390D02*
X75645953Y-30616247D01*
X75645953Y-30616247D02*
X75693572Y-30806723D01*
X75693572Y-30806723D02*
X75741191Y-30901961D01*
X75741191Y-30901961D02*
X75836429Y-30997200D01*
X75836429Y-30997200D02*
X75979286Y-31044819D01*
X75979286Y-31044819D02*
X76074524Y-31044819D01*
X76074524Y-31044819D02*
X76217381Y-30997200D01*
X76217381Y-30997200D02*
X76265000Y-30949580D01*
X76265000Y-30949580D02*
X76265000Y-30616247D01*
X76265000Y-30616247D02*
X76074524Y-30616247D01*
X77265000Y-31044819D02*
X76931667Y-30568628D01*
X76693572Y-31044819D02*
X76693572Y-30044819D01*
X76693572Y-30044819D02*
X77074524Y-30044819D01*
X77074524Y-30044819D02*
X77169762Y-30092438D01*
X77169762Y-30092438D02*
X77217381Y-30140057D01*
X77217381Y-30140057D02*
X77265000Y-30235295D01*
X77265000Y-30235295D02*
X77265000Y-30378152D01*
X77265000Y-30378152D02*
X77217381Y-30473390D01*
X77217381Y-30473390D02*
X77169762Y-30521009D01*
X77169762Y-30521009D02*
X77074524Y-30568628D01*
X77074524Y-30568628D02*
X76693572Y-30568628D01*
X78360238Y-30044819D02*
X77598334Y-31044819D01*
X77884048Y-31044819D02*
X77788810Y-30997200D01*
X77788810Y-30997200D02*
X77693572Y-30901961D01*
X77693572Y-30901961D02*
X77645953Y-30711485D01*
X77645953Y-30711485D02*
X77645953Y-30378152D01*
X77645953Y-30378152D02*
X77693572Y-30187676D01*
X77693572Y-30187676D02*
X77788810Y-30092438D01*
X77788810Y-30092438D02*
X77884048Y-30044819D01*
X77884048Y-30044819D02*
X78074524Y-30044819D01*
X78074524Y-30044819D02*
X78169762Y-30092438D01*
X78169762Y-30092438D02*
X78265000Y-30187676D01*
X78265000Y-30187676D02*
X78312619Y-30378152D01*
X78312619Y-30378152D02*
X78312619Y-30711485D01*
X78312619Y-30711485D02*
X78265000Y-30901961D01*
X78265000Y-30901961D02*
X78169762Y-30997200D01*
X78169762Y-30997200D02*
X78074524Y-31044819D01*
X78074524Y-31044819D02*
X77884048Y-31044819D01*
X78741191Y-31044819D02*
X78741191Y-30044819D01*
X78741191Y-30044819D02*
X79312619Y-31044819D01*
X79312619Y-31044819D02*
X79312619Y-30044819D01*
D11*
X73174524Y-26993855D02*
X73174524Y-26193855D01*
X73174524Y-26193855D02*
X73365000Y-26193855D01*
X73365000Y-26193855D02*
X73479286Y-26231950D01*
X73479286Y-26231950D02*
X73555476Y-26308140D01*
X73555476Y-26308140D02*
X73593571Y-26384331D01*
X73593571Y-26384331D02*
X73631667Y-26536712D01*
X73631667Y-26536712D02*
X73631667Y-26650998D01*
X73631667Y-26650998D02*
X73593571Y-26803379D01*
X73593571Y-26803379D02*
X73555476Y-26879569D01*
X73555476Y-26879569D02*
X73479286Y-26955760D01*
X73479286Y-26955760D02*
X73365000Y-26993855D01*
X73365000Y-26993855D02*
X73174524Y-26993855D01*
X74393571Y-26993855D02*
X73936428Y-26993855D01*
X74165000Y-26993855D02*
X74165000Y-26193855D01*
X74165000Y-26193855D02*
X74088809Y-26308140D01*
X74088809Y-26308140D02*
X74012619Y-26384331D01*
X74012619Y-26384331D02*
X73936428Y-26422426D01*
D10*
X29374761Y-99554819D02*
X28803333Y-99554819D01*
X29089047Y-99554819D02*
X29089047Y-98554819D01*
X29089047Y-98554819D02*
X28993809Y-98697676D01*
X28993809Y-98697676D02*
X28898571Y-98792914D01*
X28898571Y-98792914D02*
X28803333Y-98840533D01*
X29993809Y-98554819D02*
X30089047Y-98554819D01*
X30089047Y-98554819D02*
X30184285Y-98602438D01*
X30184285Y-98602438D02*
X30231904Y-98650057D01*
X30231904Y-98650057D02*
X30279523Y-98745295D01*
X30279523Y-98745295D02*
X30327142Y-98935771D01*
X30327142Y-98935771D02*
X30327142Y-99173866D01*
X30327142Y-99173866D02*
X30279523Y-99364342D01*
X30279523Y-99364342D02*
X30231904Y-99459580D01*
X30231904Y-99459580D02*
X30184285Y-99507200D01*
X30184285Y-99507200D02*
X30089047Y-99554819D01*
X30089047Y-99554819D02*
X29993809Y-99554819D01*
X29993809Y-99554819D02*
X29898571Y-99507200D01*
X29898571Y-99507200D02*
X29850952Y-99459580D01*
X29850952Y-99459580D02*
X29803333Y-99364342D01*
X29803333Y-99364342D02*
X29755714Y-99173866D01*
X29755714Y-99173866D02*
X29755714Y-98935771D01*
X29755714Y-98935771D02*
X29803333Y-98745295D01*
X29803333Y-98745295D02*
X29850952Y-98650057D01*
X29850952Y-98650057D02*
X29898571Y-98602438D01*
X29898571Y-98602438D02*
X29993809Y-98554819D01*
X30755714Y-99554819D02*
X30755714Y-98554819D01*
X30850952Y-99173866D02*
X31136666Y-99554819D01*
X31136666Y-98888152D02*
X30755714Y-99269104D01*
X29803333Y-97184819D02*
X29470000Y-96708628D01*
X29231905Y-97184819D02*
X29231905Y-96184819D01*
X29231905Y-96184819D02*
X29612857Y-96184819D01*
X29612857Y-96184819D02*
X29708095Y-96232438D01*
X29708095Y-96232438D02*
X29755714Y-96280057D01*
X29755714Y-96280057D02*
X29803333Y-96375295D01*
X29803333Y-96375295D02*
X29803333Y-96518152D01*
X29803333Y-96518152D02*
X29755714Y-96613390D01*
X29755714Y-96613390D02*
X29708095Y-96661009D01*
X29708095Y-96661009D02*
X29612857Y-96708628D01*
X29612857Y-96708628D02*
X29231905Y-96708628D01*
X30660476Y-96518152D02*
X30660476Y-97184819D01*
X30422381Y-96137200D02*
X30184286Y-96851485D01*
X30184286Y-96851485D02*
X30803333Y-96851485D01*
X57022380Y-45884819D02*
X56450952Y-45884819D01*
X56736666Y-45884819D02*
X56736666Y-44884819D01*
X56736666Y-44884819D02*
X56641428Y-45027676D01*
X56641428Y-45027676D02*
X56546190Y-45122914D01*
X56546190Y-45122914D02*
X56450952Y-45170533D01*
X57641428Y-44884819D02*
X57736666Y-44884819D01*
X57736666Y-44884819D02*
X57831904Y-44932438D01*
X57831904Y-44932438D02*
X57879523Y-44980057D01*
X57879523Y-44980057D02*
X57927142Y-45075295D01*
X57927142Y-45075295D02*
X57974761Y-45265771D01*
X57974761Y-45265771D02*
X57974761Y-45503866D01*
X57974761Y-45503866D02*
X57927142Y-45694342D01*
X57927142Y-45694342D02*
X57879523Y-45789580D01*
X57879523Y-45789580D02*
X57831904Y-45837200D01*
X57831904Y-45837200D02*
X57736666Y-45884819D01*
X57736666Y-45884819D02*
X57641428Y-45884819D01*
X57641428Y-45884819D02*
X57546190Y-45837200D01*
X57546190Y-45837200D02*
X57498571Y-45789580D01*
X57498571Y-45789580D02*
X57450952Y-45694342D01*
X57450952Y-45694342D02*
X57403333Y-45503866D01*
X57403333Y-45503866D02*
X57403333Y-45265771D01*
X57403333Y-45265771D02*
X57450952Y-45075295D01*
X57450952Y-45075295D02*
X57498571Y-44980057D01*
X57498571Y-44980057D02*
X57546190Y-44932438D01*
X57546190Y-44932438D02*
X57641428Y-44884819D01*
X58593809Y-44884819D02*
X58689047Y-44884819D01*
X58689047Y-44884819D02*
X58784285Y-44932438D01*
X58784285Y-44932438D02*
X58831904Y-44980057D01*
X58831904Y-44980057D02*
X58879523Y-45075295D01*
X58879523Y-45075295D02*
X58927142Y-45265771D01*
X58927142Y-45265771D02*
X58927142Y-45503866D01*
X58927142Y-45503866D02*
X58879523Y-45694342D01*
X58879523Y-45694342D02*
X58831904Y-45789580D01*
X58831904Y-45789580D02*
X58784285Y-45837200D01*
X58784285Y-45837200D02*
X58689047Y-45884819D01*
X58689047Y-45884819D02*
X58593809Y-45884819D01*
X58593809Y-45884819D02*
X58498571Y-45837200D01*
X58498571Y-45837200D02*
X58450952Y-45789580D01*
X58450952Y-45789580D02*
X58403333Y-45694342D01*
X58403333Y-45694342D02*
X58355714Y-45503866D01*
X58355714Y-45503866D02*
X58355714Y-45265771D01*
X58355714Y-45265771D02*
X58403333Y-45075295D01*
X58403333Y-45075295D02*
X58450952Y-44980057D01*
X58450952Y-44980057D02*
X58498571Y-44932438D01*
X58498571Y-44932438D02*
X58593809Y-44884819D01*
X59355714Y-45218152D02*
X59355714Y-45884819D01*
X59355714Y-45313390D02*
X59403333Y-45265771D01*
X59403333Y-45265771D02*
X59498571Y-45218152D01*
X59498571Y-45218152D02*
X59641428Y-45218152D01*
X59641428Y-45218152D02*
X59736666Y-45265771D01*
X59736666Y-45265771D02*
X59784285Y-45361009D01*
X59784285Y-45361009D02*
X59784285Y-45884819D01*
X60593809Y-45361009D02*
X60260476Y-45361009D01*
X60260476Y-45884819D02*
X60260476Y-44884819D01*
X60260476Y-44884819D02*
X60736666Y-44884819D01*
X58403333Y-43289580D02*
X58355714Y-43337200D01*
X58355714Y-43337200D02*
X58212857Y-43384819D01*
X58212857Y-43384819D02*
X58117619Y-43384819D01*
X58117619Y-43384819D02*
X57974762Y-43337200D01*
X57974762Y-43337200D02*
X57879524Y-43241961D01*
X57879524Y-43241961D02*
X57831905Y-43146723D01*
X57831905Y-43146723D02*
X57784286Y-42956247D01*
X57784286Y-42956247D02*
X57784286Y-42813390D01*
X57784286Y-42813390D02*
X57831905Y-42622914D01*
X57831905Y-42622914D02*
X57879524Y-42527676D01*
X57879524Y-42527676D02*
X57974762Y-42432438D01*
X57974762Y-42432438D02*
X58117619Y-42384819D01*
X58117619Y-42384819D02*
X58212857Y-42384819D01*
X58212857Y-42384819D02*
X58355714Y-42432438D01*
X58355714Y-42432438D02*
X58403333Y-42480057D01*
X59308095Y-42384819D02*
X58831905Y-42384819D01*
X58831905Y-42384819D02*
X58784286Y-42861009D01*
X58784286Y-42861009D02*
X58831905Y-42813390D01*
X58831905Y-42813390D02*
X58927143Y-42765771D01*
X58927143Y-42765771D02*
X59165238Y-42765771D01*
X59165238Y-42765771D02*
X59260476Y-42813390D01*
X59260476Y-42813390D02*
X59308095Y-42861009D01*
X59308095Y-42861009D02*
X59355714Y-42956247D01*
X59355714Y-42956247D02*
X59355714Y-43194342D01*
X59355714Y-43194342D02*
X59308095Y-43289580D01*
X59308095Y-43289580D02*
X59260476Y-43337200D01*
X59260476Y-43337200D02*
X59165238Y-43384819D01*
X59165238Y-43384819D02*
X58927143Y-43384819D01*
X58927143Y-43384819D02*
X58831905Y-43337200D01*
X58831905Y-43337200D02*
X58784286Y-43289580D01*
X107027142Y-69154819D02*
X106455714Y-69154819D01*
X106741428Y-69154819D02*
X106741428Y-68154819D01*
X106741428Y-68154819D02*
X106646190Y-68297676D01*
X106646190Y-68297676D02*
X106550952Y-68392914D01*
X106550952Y-68392914D02*
X106455714Y-68440533D01*
X107455714Y-69154819D02*
X107455714Y-68154819D01*
X107455714Y-68154819D02*
X108027142Y-69154819D01*
X108027142Y-69154819D02*
X108027142Y-68154819D01*
X108979523Y-68154819D02*
X108503333Y-68154819D01*
X108503333Y-68154819D02*
X108455714Y-68631009D01*
X108455714Y-68631009D02*
X108503333Y-68583390D01*
X108503333Y-68583390D02*
X108598571Y-68535771D01*
X108598571Y-68535771D02*
X108836666Y-68535771D01*
X108836666Y-68535771D02*
X108931904Y-68583390D01*
X108931904Y-68583390D02*
X108979523Y-68631009D01*
X108979523Y-68631009D02*
X109027142Y-68726247D01*
X109027142Y-68726247D02*
X109027142Y-68964342D01*
X109027142Y-68964342D02*
X108979523Y-69059580D01*
X108979523Y-69059580D02*
X108931904Y-69107200D01*
X108931904Y-69107200D02*
X108836666Y-69154819D01*
X108836666Y-69154819D02*
X108598571Y-69154819D01*
X108598571Y-69154819D02*
X108503333Y-69107200D01*
X108503333Y-69107200D02*
X108455714Y-69059580D01*
X109598571Y-68583390D02*
X109503333Y-68535771D01*
X109503333Y-68535771D02*
X109455714Y-68488152D01*
X109455714Y-68488152D02*
X109408095Y-68392914D01*
X109408095Y-68392914D02*
X109408095Y-68345295D01*
X109408095Y-68345295D02*
X109455714Y-68250057D01*
X109455714Y-68250057D02*
X109503333Y-68202438D01*
X109503333Y-68202438D02*
X109598571Y-68154819D01*
X109598571Y-68154819D02*
X109789047Y-68154819D01*
X109789047Y-68154819D02*
X109884285Y-68202438D01*
X109884285Y-68202438D02*
X109931904Y-68250057D01*
X109931904Y-68250057D02*
X109979523Y-68345295D01*
X109979523Y-68345295D02*
X109979523Y-68392914D01*
X109979523Y-68392914D02*
X109931904Y-68488152D01*
X109931904Y-68488152D02*
X109884285Y-68535771D01*
X109884285Y-68535771D02*
X109789047Y-68583390D01*
X109789047Y-68583390D02*
X109598571Y-68583390D01*
X109598571Y-68583390D02*
X109503333Y-68631009D01*
X109503333Y-68631009D02*
X109455714Y-68678628D01*
X109455714Y-68678628D02*
X109408095Y-68773866D01*
X109408095Y-68773866D02*
X109408095Y-68964342D01*
X109408095Y-68964342D02*
X109455714Y-69059580D01*
X109455714Y-69059580D02*
X109503333Y-69107200D01*
X109503333Y-69107200D02*
X109598571Y-69154819D01*
X109598571Y-69154819D02*
X109789047Y-69154819D01*
X109789047Y-69154819D02*
X109884285Y-69107200D01*
X109884285Y-69107200D02*
X109931904Y-69059580D01*
X109931904Y-69059580D02*
X109979523Y-68964342D01*
X109979523Y-68964342D02*
X109979523Y-68773866D01*
X109979523Y-68773866D02*
X109931904Y-68678628D01*
X109931904Y-68678628D02*
X109884285Y-68631009D01*
X109884285Y-68631009D02*
X109789047Y-68583390D01*
X110931904Y-69154819D02*
X110360476Y-69154819D01*
X110646190Y-69154819D02*
X110646190Y-68154819D01*
X110646190Y-68154819D02*
X110550952Y-68297676D01*
X110550952Y-68297676D02*
X110455714Y-68392914D01*
X110455714Y-68392914D02*
X110360476Y-68440533D01*
X111265238Y-68154819D02*
X111931904Y-68154819D01*
X111931904Y-68154819D02*
X111503333Y-69154819D01*
X103828095Y-64584819D02*
X103828095Y-63584819D01*
X104399523Y-64584819D02*
X103970952Y-64013390D01*
X104399523Y-63584819D02*
X103828095Y-64156247D01*
X108821905Y-66684819D02*
X108821905Y-65684819D01*
X108821905Y-65684819D02*
X109060000Y-65684819D01*
X109060000Y-65684819D02*
X109202857Y-65732438D01*
X109202857Y-65732438D02*
X109298095Y-65827676D01*
X109298095Y-65827676D02*
X109345714Y-65922914D01*
X109345714Y-65922914D02*
X109393333Y-66113390D01*
X109393333Y-66113390D02*
X109393333Y-66256247D01*
X109393333Y-66256247D02*
X109345714Y-66446723D01*
X109345714Y-66446723D02*
X109298095Y-66541961D01*
X109298095Y-66541961D02*
X109202857Y-66637200D01*
X109202857Y-66637200D02*
X109060000Y-66684819D01*
X109060000Y-66684819D02*
X108821905Y-66684819D01*
X109774286Y-65780057D02*
X109821905Y-65732438D01*
X109821905Y-65732438D02*
X109917143Y-65684819D01*
X109917143Y-65684819D02*
X110155238Y-65684819D01*
X110155238Y-65684819D02*
X110250476Y-65732438D01*
X110250476Y-65732438D02*
X110298095Y-65780057D01*
X110298095Y-65780057D02*
X110345714Y-65875295D01*
X110345714Y-65875295D02*
X110345714Y-65970533D01*
X110345714Y-65970533D02*
X110298095Y-66113390D01*
X110298095Y-66113390D02*
X109726667Y-66684819D01*
X109726667Y-66684819D02*
X110345714Y-66684819D01*
X83384286Y-26754819D02*
X84003333Y-26754819D01*
X84003333Y-26754819D02*
X83670000Y-27135771D01*
X83670000Y-27135771D02*
X83812857Y-27135771D01*
X83812857Y-27135771D02*
X83908095Y-27183390D01*
X83908095Y-27183390D02*
X83955714Y-27231009D01*
X83955714Y-27231009D02*
X84003333Y-27326247D01*
X84003333Y-27326247D02*
X84003333Y-27564342D01*
X84003333Y-27564342D02*
X83955714Y-27659580D01*
X83955714Y-27659580D02*
X83908095Y-27707200D01*
X83908095Y-27707200D02*
X83812857Y-27754819D01*
X83812857Y-27754819D02*
X83527143Y-27754819D01*
X83527143Y-27754819D02*
X83431905Y-27707200D01*
X83431905Y-27707200D02*
X83384286Y-27659580D01*
X84336667Y-26754819D02*
X84955714Y-26754819D01*
X84955714Y-26754819D02*
X84622381Y-27135771D01*
X84622381Y-27135771D02*
X84765238Y-27135771D01*
X84765238Y-27135771D02*
X84860476Y-27183390D01*
X84860476Y-27183390D02*
X84908095Y-27231009D01*
X84908095Y-27231009D02*
X84955714Y-27326247D01*
X84955714Y-27326247D02*
X84955714Y-27564342D01*
X84955714Y-27564342D02*
X84908095Y-27659580D01*
X84908095Y-27659580D02*
X84860476Y-27707200D01*
X84860476Y-27707200D02*
X84765238Y-27754819D01*
X84765238Y-27754819D02*
X84479524Y-27754819D01*
X84479524Y-27754819D02*
X84384286Y-27707200D01*
X84384286Y-27707200D02*
X84336667Y-27659580D01*
X85574762Y-26754819D02*
X85670000Y-26754819D01*
X85670000Y-26754819D02*
X85765238Y-26802438D01*
X85765238Y-26802438D02*
X85812857Y-26850057D01*
X85812857Y-26850057D02*
X85860476Y-26945295D01*
X85860476Y-26945295D02*
X85908095Y-27135771D01*
X85908095Y-27135771D02*
X85908095Y-27373866D01*
X85908095Y-27373866D02*
X85860476Y-27564342D01*
X85860476Y-27564342D02*
X85812857Y-27659580D01*
X85812857Y-27659580D02*
X85765238Y-27707200D01*
X85765238Y-27707200D02*
X85670000Y-27754819D01*
X85670000Y-27754819D02*
X85574762Y-27754819D01*
X85574762Y-27754819D02*
X85479524Y-27707200D01*
X85479524Y-27707200D02*
X85431905Y-27659580D01*
X85431905Y-27659580D02*
X85384286Y-27564342D01*
X85384286Y-27564342D02*
X85336667Y-27373866D01*
X85336667Y-27373866D02*
X85336667Y-27135771D01*
X85336667Y-27135771D02*
X85384286Y-26945295D01*
X85384286Y-26945295D02*
X85431905Y-26850057D01*
X85431905Y-26850057D02*
X85479524Y-26802438D01*
X85479524Y-26802438D02*
X85574762Y-26754819D01*
X84027142Y-25384819D02*
X83693809Y-24908628D01*
X83455714Y-25384819D02*
X83455714Y-24384819D01*
X83455714Y-24384819D02*
X83836666Y-24384819D01*
X83836666Y-24384819D02*
X83931904Y-24432438D01*
X83931904Y-24432438D02*
X83979523Y-24480057D01*
X83979523Y-24480057D02*
X84027142Y-24575295D01*
X84027142Y-24575295D02*
X84027142Y-24718152D01*
X84027142Y-24718152D02*
X83979523Y-24813390D01*
X83979523Y-24813390D02*
X83931904Y-24861009D01*
X83931904Y-24861009D02*
X83836666Y-24908628D01*
X83836666Y-24908628D02*
X83455714Y-24908628D01*
X84979523Y-25384819D02*
X84408095Y-25384819D01*
X84693809Y-25384819D02*
X84693809Y-24384819D01*
X84693809Y-24384819D02*
X84598571Y-24527676D01*
X84598571Y-24527676D02*
X84503333Y-24622914D01*
X84503333Y-24622914D02*
X84408095Y-24670533D01*
X85312857Y-24384819D02*
X85931904Y-24384819D01*
X85931904Y-24384819D02*
X85598571Y-24765771D01*
X85598571Y-24765771D02*
X85741428Y-24765771D01*
X85741428Y-24765771D02*
X85836666Y-24813390D01*
X85836666Y-24813390D02*
X85884285Y-24861009D01*
X85884285Y-24861009D02*
X85931904Y-24956247D01*
X85931904Y-24956247D02*
X85931904Y-25194342D01*
X85931904Y-25194342D02*
X85884285Y-25289580D01*
X85884285Y-25289580D02*
X85836666Y-25337200D01*
X85836666Y-25337200D02*
X85741428Y-25384819D01*
X85741428Y-25384819D02*
X85455714Y-25384819D01*
X85455714Y-25384819D02*
X85360476Y-25337200D01*
X85360476Y-25337200D02*
X85312857Y-25289580D01*
X90522380Y-82484819D02*
X89950952Y-82484819D01*
X90236666Y-82484819D02*
X90236666Y-81484819D01*
X90236666Y-81484819D02*
X90141428Y-81627676D01*
X90141428Y-81627676D02*
X90046190Y-81722914D01*
X90046190Y-81722914D02*
X89950952Y-81770533D01*
X91141428Y-81484819D02*
X91236666Y-81484819D01*
X91236666Y-81484819D02*
X91331904Y-81532438D01*
X91331904Y-81532438D02*
X91379523Y-81580057D01*
X91379523Y-81580057D02*
X91427142Y-81675295D01*
X91427142Y-81675295D02*
X91474761Y-81865771D01*
X91474761Y-81865771D02*
X91474761Y-82103866D01*
X91474761Y-82103866D02*
X91427142Y-82294342D01*
X91427142Y-82294342D02*
X91379523Y-82389580D01*
X91379523Y-82389580D02*
X91331904Y-82437200D01*
X91331904Y-82437200D02*
X91236666Y-82484819D01*
X91236666Y-82484819D02*
X91141428Y-82484819D01*
X91141428Y-82484819D02*
X91046190Y-82437200D01*
X91046190Y-82437200D02*
X90998571Y-82389580D01*
X90998571Y-82389580D02*
X90950952Y-82294342D01*
X90950952Y-82294342D02*
X90903333Y-82103866D01*
X90903333Y-82103866D02*
X90903333Y-81865771D01*
X90903333Y-81865771D02*
X90950952Y-81675295D01*
X90950952Y-81675295D02*
X90998571Y-81580057D01*
X90998571Y-81580057D02*
X91046190Y-81532438D01*
X91046190Y-81532438D02*
X91141428Y-81484819D01*
X92093809Y-81484819D02*
X92189047Y-81484819D01*
X92189047Y-81484819D02*
X92284285Y-81532438D01*
X92284285Y-81532438D02*
X92331904Y-81580057D01*
X92331904Y-81580057D02*
X92379523Y-81675295D01*
X92379523Y-81675295D02*
X92427142Y-81865771D01*
X92427142Y-81865771D02*
X92427142Y-82103866D01*
X92427142Y-82103866D02*
X92379523Y-82294342D01*
X92379523Y-82294342D02*
X92331904Y-82389580D01*
X92331904Y-82389580D02*
X92284285Y-82437200D01*
X92284285Y-82437200D02*
X92189047Y-82484819D01*
X92189047Y-82484819D02*
X92093809Y-82484819D01*
X92093809Y-82484819D02*
X91998571Y-82437200D01*
X91998571Y-82437200D02*
X91950952Y-82389580D01*
X91950952Y-82389580D02*
X91903333Y-82294342D01*
X91903333Y-82294342D02*
X91855714Y-82103866D01*
X91855714Y-82103866D02*
X91855714Y-81865771D01*
X91855714Y-81865771D02*
X91903333Y-81675295D01*
X91903333Y-81675295D02*
X91950952Y-81580057D01*
X91950952Y-81580057D02*
X91998571Y-81532438D01*
X91998571Y-81532438D02*
X92093809Y-81484819D01*
X92855714Y-81818152D02*
X92855714Y-82484819D01*
X92855714Y-81913390D02*
X92903333Y-81865771D01*
X92903333Y-81865771D02*
X92998571Y-81818152D01*
X92998571Y-81818152D02*
X93141428Y-81818152D01*
X93141428Y-81818152D02*
X93236666Y-81865771D01*
X93236666Y-81865771D02*
X93284285Y-81961009D01*
X93284285Y-81961009D02*
X93284285Y-82484819D01*
X94093809Y-81961009D02*
X93760476Y-81961009D01*
X93760476Y-82484819D02*
X93760476Y-81484819D01*
X93760476Y-81484819D02*
X94236666Y-81484819D01*
X91903333Y-79889580D02*
X91855714Y-79937200D01*
X91855714Y-79937200D02*
X91712857Y-79984819D01*
X91712857Y-79984819D02*
X91617619Y-79984819D01*
X91617619Y-79984819D02*
X91474762Y-79937200D01*
X91474762Y-79937200D02*
X91379524Y-79841961D01*
X91379524Y-79841961D02*
X91331905Y-79746723D01*
X91331905Y-79746723D02*
X91284286Y-79556247D01*
X91284286Y-79556247D02*
X91284286Y-79413390D01*
X91284286Y-79413390D02*
X91331905Y-79222914D01*
X91331905Y-79222914D02*
X91379524Y-79127676D01*
X91379524Y-79127676D02*
X91474762Y-79032438D01*
X91474762Y-79032438D02*
X91617619Y-78984819D01*
X91617619Y-78984819D02*
X91712857Y-78984819D01*
X91712857Y-78984819D02*
X91855714Y-79032438D01*
X91855714Y-79032438D02*
X91903333Y-79080057D01*
X92760476Y-79318152D02*
X92760476Y-79984819D01*
X92522381Y-78937200D02*
X92284286Y-79651485D01*
X92284286Y-79651485D02*
X92903333Y-79651485D01*
X73627143Y-71704819D02*
X73627143Y-70704819D01*
X73627143Y-70704819D02*
X74008095Y-70704819D01*
X74008095Y-70704819D02*
X74103333Y-70752438D01*
X74103333Y-70752438D02*
X74150952Y-70800057D01*
X74150952Y-70800057D02*
X74198571Y-70895295D01*
X74198571Y-70895295D02*
X74198571Y-71038152D01*
X74198571Y-71038152D02*
X74150952Y-71133390D01*
X74150952Y-71133390D02*
X74103333Y-71181009D01*
X74103333Y-71181009D02*
X74008095Y-71228628D01*
X74008095Y-71228628D02*
X73627143Y-71228628D01*
X75055714Y-70704819D02*
X74865238Y-70704819D01*
X74865238Y-70704819D02*
X74770000Y-70752438D01*
X74770000Y-70752438D02*
X74722381Y-70800057D01*
X74722381Y-70800057D02*
X74627143Y-70942914D01*
X74627143Y-70942914D02*
X74579524Y-71133390D01*
X74579524Y-71133390D02*
X74579524Y-71514342D01*
X74579524Y-71514342D02*
X74627143Y-71609580D01*
X74627143Y-71609580D02*
X74674762Y-71657200D01*
X74674762Y-71657200D02*
X74770000Y-71704819D01*
X74770000Y-71704819D02*
X74960476Y-71704819D01*
X74960476Y-71704819D02*
X75055714Y-71657200D01*
X75055714Y-71657200D02*
X75103333Y-71609580D01*
X75103333Y-71609580D02*
X75150952Y-71514342D01*
X75150952Y-71514342D02*
X75150952Y-71276247D01*
X75150952Y-71276247D02*
X75103333Y-71181009D01*
X75103333Y-71181009D02*
X75055714Y-71133390D01*
X75055714Y-71133390D02*
X74960476Y-71085771D01*
X74960476Y-71085771D02*
X74770000Y-71085771D01*
X74770000Y-71085771D02*
X74674762Y-71133390D01*
X74674762Y-71133390D02*
X74627143Y-71181009D01*
X74627143Y-71181009D02*
X74579524Y-71276247D01*
X75579524Y-71704819D02*
X75579524Y-70704819D01*
X76150952Y-71704819D02*
X75722381Y-71133390D01*
X76150952Y-70704819D02*
X75579524Y-71276247D01*
X76579524Y-71181009D02*
X76912857Y-71181009D01*
X77055714Y-71704819D02*
X76579524Y-71704819D01*
X76579524Y-71704819D02*
X76579524Y-70704819D01*
X76579524Y-70704819D02*
X77055714Y-70704819D01*
X77436667Y-70800057D02*
X77484286Y-70752438D01*
X77484286Y-70752438D02*
X77579524Y-70704819D01*
X77579524Y-70704819D02*
X77817619Y-70704819D01*
X77817619Y-70704819D02*
X77912857Y-70752438D01*
X77912857Y-70752438D02*
X77960476Y-70800057D01*
X77960476Y-70800057D02*
X78008095Y-70895295D01*
X78008095Y-70895295D02*
X78008095Y-70990533D01*
X78008095Y-70990533D02*
X77960476Y-71133390D01*
X77960476Y-71133390D02*
X77389048Y-71704819D01*
X77389048Y-71704819D02*
X78008095Y-71704819D01*
X78865238Y-71038152D02*
X78865238Y-71704819D01*
X78627143Y-70657200D02*
X78389048Y-71371485D01*
X78389048Y-71371485D02*
X79008095Y-71371485D01*
X79389048Y-71704819D02*
X79389048Y-70704819D01*
X79389048Y-70704819D02*
X79770000Y-70704819D01*
X79770000Y-70704819D02*
X79865238Y-70752438D01*
X79865238Y-70752438D02*
X79912857Y-70800057D01*
X79912857Y-70800057D02*
X79960476Y-70895295D01*
X79960476Y-70895295D02*
X79960476Y-71038152D01*
X79960476Y-71038152D02*
X79912857Y-71133390D01*
X79912857Y-71133390D02*
X79865238Y-71181009D01*
X79865238Y-71181009D02*
X79770000Y-71228628D01*
X79770000Y-71228628D02*
X79389048Y-71228628D01*
X68888095Y-65384819D02*
X68888095Y-64384819D01*
X69459523Y-65384819D02*
X69030952Y-64813390D01*
X69459523Y-64384819D02*
X68888095Y-64956247D01*
X76744405Y-67984819D02*
X76744405Y-66984819D01*
X76744405Y-66984819D02*
X76982500Y-66984819D01*
X76982500Y-66984819D02*
X77125357Y-67032438D01*
X77125357Y-67032438D02*
X77220595Y-67127676D01*
X77220595Y-67127676D02*
X77268214Y-67222914D01*
X77268214Y-67222914D02*
X77315833Y-67413390D01*
X77315833Y-67413390D02*
X77315833Y-67556247D01*
X77315833Y-67556247D02*
X77268214Y-67746723D01*
X77268214Y-67746723D02*
X77220595Y-67841961D01*
X77220595Y-67841961D02*
X77125357Y-67937200D01*
X77125357Y-67937200D02*
X76982500Y-67984819D01*
X76982500Y-67984819D02*
X76744405Y-67984819D01*
X77649167Y-66984819D02*
X78268214Y-66984819D01*
X78268214Y-66984819D02*
X77934881Y-67365771D01*
X77934881Y-67365771D02*
X78077738Y-67365771D01*
X78077738Y-67365771D02*
X78172976Y-67413390D01*
X78172976Y-67413390D02*
X78220595Y-67461009D01*
X78220595Y-67461009D02*
X78268214Y-67556247D01*
X78268214Y-67556247D02*
X78268214Y-67794342D01*
X78268214Y-67794342D02*
X78220595Y-67889580D01*
X78220595Y-67889580D02*
X78172976Y-67937200D01*
X78172976Y-67937200D02*
X78077738Y-67984819D01*
X78077738Y-67984819D02*
X77792024Y-67984819D01*
X77792024Y-67984819D02*
X77696786Y-67937200D01*
X77696786Y-67937200D02*
X77649167Y-67889580D01*
X81503333Y-81484819D02*
X82122380Y-81484819D01*
X82122380Y-81484819D02*
X81789047Y-81865771D01*
X81789047Y-81865771D02*
X81931904Y-81865771D01*
X81931904Y-81865771D02*
X82027142Y-81913390D01*
X82027142Y-81913390D02*
X82074761Y-81961009D01*
X82074761Y-81961009D02*
X82122380Y-82056247D01*
X82122380Y-82056247D02*
X82122380Y-82294342D01*
X82122380Y-82294342D02*
X82074761Y-82389580D01*
X82074761Y-82389580D02*
X82027142Y-82437200D01*
X82027142Y-82437200D02*
X81931904Y-82484819D01*
X81931904Y-82484819D02*
X81646190Y-82484819D01*
X81646190Y-82484819D02*
X81550952Y-82437200D01*
X81550952Y-82437200D02*
X81503333Y-82389580D01*
X82455714Y-81484819D02*
X83074761Y-81484819D01*
X83074761Y-81484819D02*
X82741428Y-81865771D01*
X82741428Y-81865771D02*
X82884285Y-81865771D01*
X82884285Y-81865771D02*
X82979523Y-81913390D01*
X82979523Y-81913390D02*
X83027142Y-81961009D01*
X83027142Y-81961009D02*
X83074761Y-82056247D01*
X83074761Y-82056247D02*
X83074761Y-82294342D01*
X83074761Y-82294342D02*
X83027142Y-82389580D01*
X83027142Y-82389580D02*
X82979523Y-82437200D01*
X82979523Y-82437200D02*
X82884285Y-82484819D01*
X82884285Y-82484819D02*
X82598571Y-82484819D01*
X82598571Y-82484819D02*
X82503333Y-82437200D01*
X82503333Y-82437200D02*
X82455714Y-82389580D01*
X83693809Y-81484819D02*
X83789047Y-81484819D01*
X83789047Y-81484819D02*
X83884285Y-81532438D01*
X83884285Y-81532438D02*
X83931904Y-81580057D01*
X83931904Y-81580057D02*
X83979523Y-81675295D01*
X83979523Y-81675295D02*
X84027142Y-81865771D01*
X84027142Y-81865771D02*
X84027142Y-82103866D01*
X84027142Y-82103866D02*
X83979523Y-82294342D01*
X83979523Y-82294342D02*
X83931904Y-82389580D01*
X83931904Y-82389580D02*
X83884285Y-82437200D01*
X83884285Y-82437200D02*
X83789047Y-82484819D01*
X83789047Y-82484819D02*
X83693809Y-82484819D01*
X83693809Y-82484819D02*
X83598571Y-82437200D01*
X83598571Y-82437200D02*
X83550952Y-82389580D01*
X83550952Y-82389580D02*
X83503333Y-82294342D01*
X83503333Y-82294342D02*
X83455714Y-82103866D01*
X83455714Y-82103866D02*
X83455714Y-81865771D01*
X83455714Y-81865771D02*
X83503333Y-81675295D01*
X83503333Y-81675295D02*
X83550952Y-81580057D01*
X83550952Y-81580057D02*
X83598571Y-81532438D01*
X83598571Y-81532438D02*
X83693809Y-81484819D01*
X84455714Y-81818152D02*
X84455714Y-82484819D01*
X84455714Y-81913390D02*
X84503333Y-81865771D01*
X84503333Y-81865771D02*
X84598571Y-81818152D01*
X84598571Y-81818152D02*
X84741428Y-81818152D01*
X84741428Y-81818152D02*
X84836666Y-81865771D01*
X84836666Y-81865771D02*
X84884285Y-81961009D01*
X84884285Y-81961009D02*
X84884285Y-82484819D01*
X85693809Y-81961009D02*
X85360476Y-81961009D01*
X85360476Y-82484819D02*
X85360476Y-81484819D01*
X85360476Y-81484819D02*
X85836666Y-81484819D01*
X83503333Y-79889580D02*
X83455714Y-79937200D01*
X83455714Y-79937200D02*
X83312857Y-79984819D01*
X83312857Y-79984819D02*
X83217619Y-79984819D01*
X83217619Y-79984819D02*
X83074762Y-79937200D01*
X83074762Y-79937200D02*
X82979524Y-79841961D01*
X82979524Y-79841961D02*
X82931905Y-79746723D01*
X82931905Y-79746723D02*
X82884286Y-79556247D01*
X82884286Y-79556247D02*
X82884286Y-79413390D01*
X82884286Y-79413390D02*
X82931905Y-79222914D01*
X82931905Y-79222914D02*
X82979524Y-79127676D01*
X82979524Y-79127676D02*
X83074762Y-79032438D01*
X83074762Y-79032438D02*
X83217619Y-78984819D01*
X83217619Y-78984819D02*
X83312857Y-78984819D01*
X83312857Y-78984819D02*
X83455714Y-79032438D01*
X83455714Y-79032438D02*
X83503333Y-79080057D01*
X83836667Y-78984819D02*
X84455714Y-78984819D01*
X84455714Y-78984819D02*
X84122381Y-79365771D01*
X84122381Y-79365771D02*
X84265238Y-79365771D01*
X84265238Y-79365771D02*
X84360476Y-79413390D01*
X84360476Y-79413390D02*
X84408095Y-79461009D01*
X84408095Y-79461009D02*
X84455714Y-79556247D01*
X84455714Y-79556247D02*
X84455714Y-79794342D01*
X84455714Y-79794342D02*
X84408095Y-79889580D01*
X84408095Y-79889580D02*
X84360476Y-79937200D01*
X84360476Y-79937200D02*
X84265238Y-79984819D01*
X84265238Y-79984819D02*
X83979524Y-79984819D01*
X83979524Y-79984819D02*
X83884286Y-79937200D01*
X83884286Y-79937200D02*
X83836667Y-79889580D01*
X74836666Y-92126009D02*
X74979523Y-92173628D01*
X74979523Y-92173628D02*
X75027142Y-92221247D01*
X75027142Y-92221247D02*
X75074761Y-92316485D01*
X75074761Y-92316485D02*
X75074761Y-92459342D01*
X75074761Y-92459342D02*
X75027142Y-92554580D01*
X75027142Y-92554580D02*
X74979523Y-92602200D01*
X74979523Y-92602200D02*
X74884285Y-92649819D01*
X74884285Y-92649819D02*
X74503333Y-92649819D01*
X74503333Y-92649819D02*
X74503333Y-91649819D01*
X74503333Y-91649819D02*
X74836666Y-91649819D01*
X74836666Y-91649819D02*
X74931904Y-91697438D01*
X74931904Y-91697438D02*
X74979523Y-91745057D01*
X74979523Y-91745057D02*
X75027142Y-91840295D01*
X75027142Y-91840295D02*
X75027142Y-91935533D01*
X75027142Y-91935533D02*
X74979523Y-92030771D01*
X74979523Y-92030771D02*
X74931904Y-92078390D01*
X74931904Y-92078390D02*
X74836666Y-92126009D01*
X74836666Y-92126009D02*
X74503333Y-92126009D01*
X75455714Y-92602200D02*
X75598571Y-92649819D01*
X75598571Y-92649819D02*
X75836666Y-92649819D01*
X75836666Y-92649819D02*
X75931904Y-92602200D01*
X75931904Y-92602200D02*
X75979523Y-92554580D01*
X75979523Y-92554580D02*
X76027142Y-92459342D01*
X76027142Y-92459342D02*
X76027142Y-92364104D01*
X76027142Y-92364104D02*
X75979523Y-92268866D01*
X75979523Y-92268866D02*
X75931904Y-92221247D01*
X75931904Y-92221247D02*
X75836666Y-92173628D01*
X75836666Y-92173628D02*
X75646190Y-92126009D01*
X75646190Y-92126009D02*
X75550952Y-92078390D01*
X75550952Y-92078390D02*
X75503333Y-92030771D01*
X75503333Y-92030771D02*
X75455714Y-91935533D01*
X75455714Y-91935533D02*
X75455714Y-91840295D01*
X75455714Y-91840295D02*
X75503333Y-91745057D01*
X75503333Y-91745057D02*
X75550952Y-91697438D01*
X75550952Y-91697438D02*
X75646190Y-91649819D01*
X75646190Y-91649819D02*
X75884285Y-91649819D01*
X75884285Y-91649819D02*
X76027142Y-91697438D01*
X76979523Y-92649819D02*
X76408095Y-92649819D01*
X76693809Y-92649819D02*
X76693809Y-91649819D01*
X76693809Y-91649819D02*
X76598571Y-91792676D01*
X76598571Y-91792676D02*
X76503333Y-91887914D01*
X76503333Y-91887914D02*
X76408095Y-91935533D01*
X77312857Y-91649819D02*
X77979523Y-91649819D01*
X77979523Y-91649819D02*
X77550952Y-92649819D01*
X78550952Y-91649819D02*
X78646190Y-91649819D01*
X78646190Y-91649819D02*
X78741428Y-91697438D01*
X78741428Y-91697438D02*
X78789047Y-91745057D01*
X78789047Y-91745057D02*
X78836666Y-91840295D01*
X78836666Y-91840295D02*
X78884285Y-92030771D01*
X78884285Y-92030771D02*
X78884285Y-92268866D01*
X78884285Y-92268866D02*
X78836666Y-92459342D01*
X78836666Y-92459342D02*
X78789047Y-92554580D01*
X78789047Y-92554580D02*
X78741428Y-92602200D01*
X78741428Y-92602200D02*
X78646190Y-92649819D01*
X78646190Y-92649819D02*
X78550952Y-92649819D01*
X78550952Y-92649819D02*
X78455714Y-92602200D01*
X78455714Y-92602200D02*
X78408095Y-92554580D01*
X78408095Y-92554580D02*
X78360476Y-92459342D01*
X78360476Y-92459342D02*
X78312857Y-92268866D01*
X78312857Y-92268866D02*
X78312857Y-92030771D01*
X78312857Y-92030771D02*
X78360476Y-91840295D01*
X78360476Y-91840295D02*
X78408095Y-91745057D01*
X78408095Y-91745057D02*
X78455714Y-91697438D01*
X78455714Y-91697438D02*
X78550952Y-91649819D01*
X76574761Y-89955057D02*
X76479523Y-89907438D01*
X76479523Y-89907438D02*
X76384285Y-89812200D01*
X76384285Y-89812200D02*
X76241428Y-89669342D01*
X76241428Y-89669342D02*
X76146190Y-89621723D01*
X76146190Y-89621723D02*
X76050952Y-89621723D01*
X76098571Y-89859819D02*
X76003333Y-89812200D01*
X76003333Y-89812200D02*
X75908095Y-89716961D01*
X75908095Y-89716961D02*
X75860476Y-89526485D01*
X75860476Y-89526485D02*
X75860476Y-89193152D01*
X75860476Y-89193152D02*
X75908095Y-89002676D01*
X75908095Y-89002676D02*
X76003333Y-88907438D01*
X76003333Y-88907438D02*
X76098571Y-88859819D01*
X76098571Y-88859819D02*
X76289047Y-88859819D01*
X76289047Y-88859819D02*
X76384285Y-88907438D01*
X76384285Y-88907438D02*
X76479523Y-89002676D01*
X76479523Y-89002676D02*
X76527142Y-89193152D01*
X76527142Y-89193152D02*
X76527142Y-89526485D01*
X76527142Y-89526485D02*
X76479523Y-89716961D01*
X76479523Y-89716961D02*
X76384285Y-89812200D01*
X76384285Y-89812200D02*
X76289047Y-89859819D01*
X76289047Y-89859819D02*
X76098571Y-89859819D01*
X76860476Y-88859819D02*
X77479523Y-88859819D01*
X77479523Y-88859819D02*
X77146190Y-89240771D01*
X77146190Y-89240771D02*
X77289047Y-89240771D01*
X77289047Y-89240771D02*
X77384285Y-89288390D01*
X77384285Y-89288390D02*
X77431904Y-89336009D01*
X77431904Y-89336009D02*
X77479523Y-89431247D01*
X77479523Y-89431247D02*
X77479523Y-89669342D01*
X77479523Y-89669342D02*
X77431904Y-89764580D01*
X77431904Y-89764580D02*
X77384285Y-89812200D01*
X77384285Y-89812200D02*
X77289047Y-89859819D01*
X77289047Y-89859819D02*
X77003333Y-89859819D01*
X77003333Y-89859819D02*
X76908095Y-89812200D01*
X76908095Y-89812200D02*
X76860476Y-89764580D01*
X74198571Y-45884819D02*
X73627143Y-45884819D01*
X73912857Y-45884819D02*
X73912857Y-44884819D01*
X73912857Y-44884819D02*
X73817619Y-45027676D01*
X73817619Y-45027676D02*
X73722381Y-45122914D01*
X73722381Y-45122914D02*
X73627143Y-45170533D01*
X74817619Y-44884819D02*
X74912857Y-44884819D01*
X74912857Y-44884819D02*
X75008095Y-44932438D01*
X75008095Y-44932438D02*
X75055714Y-44980057D01*
X75055714Y-44980057D02*
X75103333Y-45075295D01*
X75103333Y-45075295D02*
X75150952Y-45265771D01*
X75150952Y-45265771D02*
X75150952Y-45503866D01*
X75150952Y-45503866D02*
X75103333Y-45694342D01*
X75103333Y-45694342D02*
X75055714Y-45789580D01*
X75055714Y-45789580D02*
X75008095Y-45837200D01*
X75008095Y-45837200D02*
X74912857Y-45884819D01*
X74912857Y-45884819D02*
X74817619Y-45884819D01*
X74817619Y-45884819D02*
X74722381Y-45837200D01*
X74722381Y-45837200D02*
X74674762Y-45789580D01*
X74674762Y-45789580D02*
X74627143Y-45694342D01*
X74627143Y-45694342D02*
X74579524Y-45503866D01*
X74579524Y-45503866D02*
X74579524Y-45265771D01*
X74579524Y-45265771D02*
X74627143Y-45075295D01*
X74627143Y-45075295D02*
X74674762Y-44980057D01*
X74674762Y-44980057D02*
X74722381Y-44932438D01*
X74722381Y-44932438D02*
X74817619Y-44884819D01*
X75579524Y-45218152D02*
X75579524Y-45884819D01*
X75579524Y-45313390D02*
X75627143Y-45265771D01*
X75627143Y-45265771D02*
X75722381Y-45218152D01*
X75722381Y-45218152D02*
X75865238Y-45218152D01*
X75865238Y-45218152D02*
X75960476Y-45265771D01*
X75960476Y-45265771D02*
X76008095Y-45361009D01*
X76008095Y-45361009D02*
X76008095Y-45884819D01*
X76817619Y-45361009D02*
X76484286Y-45361009D01*
X76484286Y-45884819D02*
X76484286Y-44884819D01*
X76484286Y-44884819D02*
X76960476Y-44884819D01*
X75103333Y-43289580D02*
X75055714Y-43337200D01*
X75055714Y-43337200D02*
X74912857Y-43384819D01*
X74912857Y-43384819D02*
X74817619Y-43384819D01*
X74817619Y-43384819D02*
X74674762Y-43337200D01*
X74674762Y-43337200D02*
X74579524Y-43241961D01*
X74579524Y-43241961D02*
X74531905Y-43146723D01*
X74531905Y-43146723D02*
X74484286Y-42956247D01*
X74484286Y-42956247D02*
X74484286Y-42813390D01*
X74484286Y-42813390D02*
X74531905Y-42622914D01*
X74531905Y-42622914D02*
X74579524Y-42527676D01*
X74579524Y-42527676D02*
X74674762Y-42432438D01*
X74674762Y-42432438D02*
X74817619Y-42384819D01*
X74817619Y-42384819D02*
X74912857Y-42384819D01*
X74912857Y-42384819D02*
X75055714Y-42432438D01*
X75055714Y-42432438D02*
X75103333Y-42480057D01*
X75436667Y-42384819D02*
X76103333Y-42384819D01*
X76103333Y-42384819D02*
X75674762Y-43384819D01*
X29650952Y-38394819D02*
X29650952Y-37394819D01*
X29650952Y-37394819D02*
X29984285Y-38109104D01*
X29984285Y-38109104D02*
X30317618Y-37394819D01*
X30317618Y-37394819D02*
X30317618Y-38394819D01*
X30746190Y-38109104D02*
X31222380Y-38109104D01*
X30650952Y-38394819D02*
X30984285Y-37394819D01*
X30984285Y-37394819D02*
X31317618Y-38394819D01*
X31555714Y-37394819D02*
X32222380Y-38394819D01*
X32222380Y-37394819D02*
X31555714Y-38394819D01*
X32508095Y-37394819D02*
X33127142Y-37394819D01*
X33127142Y-37394819D02*
X32793809Y-37775771D01*
X32793809Y-37775771D02*
X32936666Y-37775771D01*
X32936666Y-37775771D02*
X33031904Y-37823390D01*
X33031904Y-37823390D02*
X33079523Y-37871009D01*
X33079523Y-37871009D02*
X33127142Y-37966247D01*
X33127142Y-37966247D02*
X33127142Y-38204342D01*
X33127142Y-38204342D02*
X33079523Y-38299580D01*
X33079523Y-38299580D02*
X33031904Y-38347200D01*
X33031904Y-38347200D02*
X32936666Y-38394819D01*
X32936666Y-38394819D02*
X32650952Y-38394819D01*
X32650952Y-38394819D02*
X32555714Y-38347200D01*
X32555714Y-38347200D02*
X32508095Y-38299580D01*
X34079523Y-38394819D02*
X33508095Y-38394819D01*
X33793809Y-38394819D02*
X33793809Y-37394819D01*
X33793809Y-37394819D02*
X33698571Y-37537676D01*
X33698571Y-37537676D02*
X33603333Y-37632914D01*
X33603333Y-37632914D02*
X33508095Y-37680533D01*
X34650952Y-37823390D02*
X34555714Y-37775771D01*
X34555714Y-37775771D02*
X34508095Y-37728152D01*
X34508095Y-37728152D02*
X34460476Y-37632914D01*
X34460476Y-37632914D02*
X34460476Y-37585295D01*
X34460476Y-37585295D02*
X34508095Y-37490057D01*
X34508095Y-37490057D02*
X34555714Y-37442438D01*
X34555714Y-37442438D02*
X34650952Y-37394819D01*
X34650952Y-37394819D02*
X34841428Y-37394819D01*
X34841428Y-37394819D02*
X34936666Y-37442438D01*
X34936666Y-37442438D02*
X34984285Y-37490057D01*
X34984285Y-37490057D02*
X35031904Y-37585295D01*
X35031904Y-37585295D02*
X35031904Y-37632914D01*
X35031904Y-37632914D02*
X34984285Y-37728152D01*
X34984285Y-37728152D02*
X34936666Y-37775771D01*
X34936666Y-37775771D02*
X34841428Y-37823390D01*
X34841428Y-37823390D02*
X34650952Y-37823390D01*
X34650952Y-37823390D02*
X34555714Y-37871009D01*
X34555714Y-37871009D02*
X34508095Y-37918628D01*
X34508095Y-37918628D02*
X34460476Y-38013866D01*
X34460476Y-38013866D02*
X34460476Y-38204342D01*
X34460476Y-38204342D02*
X34508095Y-38299580D01*
X34508095Y-38299580D02*
X34555714Y-38347200D01*
X34555714Y-38347200D02*
X34650952Y-38394819D01*
X34650952Y-38394819D02*
X34841428Y-38394819D01*
X34841428Y-38394819D02*
X34936666Y-38347200D01*
X34936666Y-38347200D02*
X34984285Y-38299580D01*
X34984285Y-38299580D02*
X35031904Y-38204342D01*
X35031904Y-38204342D02*
X35031904Y-38013866D01*
X35031904Y-38013866D02*
X34984285Y-37918628D01*
X34984285Y-37918628D02*
X34936666Y-37871009D01*
X34936666Y-37871009D02*
X34841428Y-37823390D01*
X35936666Y-37394819D02*
X35460476Y-37394819D01*
X35460476Y-37394819D02*
X35412857Y-37871009D01*
X35412857Y-37871009D02*
X35460476Y-37823390D01*
X35460476Y-37823390D02*
X35555714Y-37775771D01*
X35555714Y-37775771D02*
X35793809Y-37775771D01*
X35793809Y-37775771D02*
X35889047Y-37823390D01*
X35889047Y-37823390D02*
X35936666Y-37871009D01*
X35936666Y-37871009D02*
X35984285Y-37966247D01*
X35984285Y-37966247D02*
X35984285Y-38204342D01*
X35984285Y-38204342D02*
X35936666Y-38299580D01*
X35936666Y-38299580D02*
X35889047Y-38347200D01*
X35889047Y-38347200D02*
X35793809Y-38394819D01*
X35793809Y-38394819D02*
X35555714Y-38394819D01*
X35555714Y-38394819D02*
X35460476Y-38347200D01*
X35460476Y-38347200D02*
X35412857Y-38299580D01*
X36889047Y-37394819D02*
X36412857Y-37394819D01*
X36412857Y-37394819D02*
X36365238Y-37871009D01*
X36365238Y-37871009D02*
X36412857Y-37823390D01*
X36412857Y-37823390D02*
X36508095Y-37775771D01*
X36508095Y-37775771D02*
X36746190Y-37775771D01*
X36746190Y-37775771D02*
X36841428Y-37823390D01*
X36841428Y-37823390D02*
X36889047Y-37871009D01*
X36889047Y-37871009D02*
X36936666Y-37966247D01*
X36936666Y-37966247D02*
X36936666Y-38204342D01*
X36936666Y-38204342D02*
X36889047Y-38299580D01*
X36889047Y-38299580D02*
X36841428Y-38347200D01*
X36841428Y-38347200D02*
X36746190Y-38394819D01*
X36746190Y-38394819D02*
X36508095Y-38394819D01*
X36508095Y-38394819D02*
X36412857Y-38347200D01*
X36412857Y-38347200D02*
X36365238Y-38299580D01*
X99527142Y-63219819D02*
X98955714Y-63219819D01*
X99241428Y-63219819D02*
X99241428Y-62219819D01*
X99241428Y-62219819D02*
X99146190Y-62362676D01*
X99146190Y-62362676D02*
X99050952Y-62457914D01*
X99050952Y-62457914D02*
X98955714Y-62505533D01*
X99908095Y-62315057D02*
X99955714Y-62267438D01*
X99955714Y-62267438D02*
X100050952Y-62219819D01*
X100050952Y-62219819D02*
X100289047Y-62219819D01*
X100289047Y-62219819D02*
X100384285Y-62267438D01*
X100384285Y-62267438D02*
X100431904Y-62315057D01*
X100431904Y-62315057D02*
X100479523Y-62410295D01*
X100479523Y-62410295D02*
X100479523Y-62505533D01*
X100479523Y-62505533D02*
X100431904Y-62648390D01*
X100431904Y-62648390D02*
X99860476Y-63219819D01*
X99860476Y-63219819D02*
X100479523Y-63219819D01*
X101098571Y-62219819D02*
X101193809Y-62219819D01*
X101193809Y-62219819D02*
X101289047Y-62267438D01*
X101289047Y-62267438D02*
X101336666Y-62315057D01*
X101336666Y-62315057D02*
X101384285Y-62410295D01*
X101384285Y-62410295D02*
X101431904Y-62600771D01*
X101431904Y-62600771D02*
X101431904Y-62838866D01*
X101431904Y-62838866D02*
X101384285Y-63029342D01*
X101384285Y-63029342D02*
X101336666Y-63124580D01*
X101336666Y-63124580D02*
X101289047Y-63172200D01*
X101289047Y-63172200D02*
X101193809Y-63219819D01*
X101193809Y-63219819D02*
X101098571Y-63219819D01*
X101098571Y-63219819D02*
X101003333Y-63172200D01*
X101003333Y-63172200D02*
X100955714Y-63124580D01*
X100955714Y-63124580D02*
X100908095Y-63029342D01*
X100908095Y-63029342D02*
X100860476Y-62838866D01*
X100860476Y-62838866D02*
X100860476Y-62600771D01*
X100860476Y-62600771D02*
X100908095Y-62410295D01*
X100908095Y-62410295D02*
X100955714Y-62315057D01*
X100955714Y-62315057D02*
X101003333Y-62267438D01*
X101003333Y-62267438D02*
X101098571Y-62219819D01*
X102289047Y-62553152D02*
X102289047Y-63219819D01*
X101860476Y-62553152D02*
X101860476Y-63076961D01*
X101860476Y-63076961D02*
X101908095Y-63172200D01*
X101908095Y-63172200D02*
X102003333Y-63219819D01*
X102003333Y-63219819D02*
X102146190Y-63219819D01*
X102146190Y-63219819D02*
X102241428Y-63172200D01*
X102241428Y-63172200D02*
X102289047Y-63124580D01*
X102765238Y-63219819D02*
X102765238Y-62219819D01*
X102765238Y-62696009D02*
X103336666Y-62696009D01*
X103336666Y-63219819D02*
X103336666Y-62219819D01*
X106083333Y-49904819D02*
X105607143Y-49904819D01*
X105607143Y-49904819D02*
X105607143Y-48904819D01*
X106940476Y-49904819D02*
X106369048Y-49904819D01*
X106654762Y-49904819D02*
X106654762Y-48904819D01*
X106654762Y-48904819D02*
X106559524Y-49047676D01*
X106559524Y-49047676D02*
X106464286Y-49142914D01*
X106464286Y-49142914D02*
X106369048Y-49190533D01*
X101450952Y-90954819D02*
X100879524Y-90954819D01*
X101165238Y-90954819D02*
X101165238Y-89954819D01*
X101165238Y-89954819D02*
X101070000Y-90097676D01*
X101070000Y-90097676D02*
X100974762Y-90192914D01*
X100974762Y-90192914D02*
X100879524Y-90240533D01*
X101879524Y-90954819D02*
X101879524Y-89954819D01*
X101974762Y-90573866D02*
X102260476Y-90954819D01*
X102260476Y-90288152D02*
X101879524Y-90669104D01*
X101403333Y-88584819D02*
X101070000Y-88108628D01*
X100831905Y-88584819D02*
X100831905Y-87584819D01*
X100831905Y-87584819D02*
X101212857Y-87584819D01*
X101212857Y-87584819D02*
X101308095Y-87632438D01*
X101308095Y-87632438D02*
X101355714Y-87680057D01*
X101355714Y-87680057D02*
X101403333Y-87775295D01*
X101403333Y-87775295D02*
X101403333Y-87918152D01*
X101403333Y-87918152D02*
X101355714Y-88013390D01*
X101355714Y-88013390D02*
X101308095Y-88061009D01*
X101308095Y-88061009D02*
X101212857Y-88108628D01*
X101212857Y-88108628D02*
X100831905Y-88108628D01*
X101784286Y-87680057D02*
X101831905Y-87632438D01*
X101831905Y-87632438D02*
X101927143Y-87584819D01*
X101927143Y-87584819D02*
X102165238Y-87584819D01*
X102165238Y-87584819D02*
X102260476Y-87632438D01*
X102260476Y-87632438D02*
X102308095Y-87680057D01*
X102308095Y-87680057D02*
X102355714Y-87775295D01*
X102355714Y-87775295D02*
X102355714Y-87870533D01*
X102355714Y-87870533D02*
X102308095Y-88013390D01*
X102308095Y-88013390D02*
X101736667Y-88584819D01*
X101736667Y-88584819D02*
X102355714Y-88584819D01*
X87898571Y-90954819D02*
X87327143Y-90954819D01*
X87612857Y-90954819D02*
X87612857Y-89954819D01*
X87612857Y-89954819D02*
X87517619Y-90097676D01*
X87517619Y-90097676D02*
X87422381Y-90192914D01*
X87422381Y-90192914D02*
X87327143Y-90240533D01*
X88517619Y-89954819D02*
X88612857Y-89954819D01*
X88612857Y-89954819D02*
X88708095Y-90002438D01*
X88708095Y-90002438D02*
X88755714Y-90050057D01*
X88755714Y-90050057D02*
X88803333Y-90145295D01*
X88803333Y-90145295D02*
X88850952Y-90335771D01*
X88850952Y-90335771D02*
X88850952Y-90573866D01*
X88850952Y-90573866D02*
X88803333Y-90764342D01*
X88803333Y-90764342D02*
X88755714Y-90859580D01*
X88755714Y-90859580D02*
X88708095Y-90907200D01*
X88708095Y-90907200D02*
X88612857Y-90954819D01*
X88612857Y-90954819D02*
X88517619Y-90954819D01*
X88517619Y-90954819D02*
X88422381Y-90907200D01*
X88422381Y-90907200D02*
X88374762Y-90859580D01*
X88374762Y-90859580D02*
X88327143Y-90764342D01*
X88327143Y-90764342D02*
X88279524Y-90573866D01*
X88279524Y-90573866D02*
X88279524Y-90335771D01*
X88279524Y-90335771D02*
X88327143Y-90145295D01*
X88327143Y-90145295D02*
X88374762Y-90050057D01*
X88374762Y-90050057D02*
X88422381Y-90002438D01*
X88422381Y-90002438D02*
X88517619Y-89954819D01*
X89470000Y-89954819D02*
X89565238Y-89954819D01*
X89565238Y-89954819D02*
X89660476Y-90002438D01*
X89660476Y-90002438D02*
X89708095Y-90050057D01*
X89708095Y-90050057D02*
X89755714Y-90145295D01*
X89755714Y-90145295D02*
X89803333Y-90335771D01*
X89803333Y-90335771D02*
X89803333Y-90573866D01*
X89803333Y-90573866D02*
X89755714Y-90764342D01*
X89755714Y-90764342D02*
X89708095Y-90859580D01*
X89708095Y-90859580D02*
X89660476Y-90907200D01*
X89660476Y-90907200D02*
X89565238Y-90954819D01*
X89565238Y-90954819D02*
X89470000Y-90954819D01*
X89470000Y-90954819D02*
X89374762Y-90907200D01*
X89374762Y-90907200D02*
X89327143Y-90859580D01*
X89327143Y-90859580D02*
X89279524Y-90764342D01*
X89279524Y-90764342D02*
X89231905Y-90573866D01*
X89231905Y-90573866D02*
X89231905Y-90335771D01*
X89231905Y-90335771D02*
X89279524Y-90145295D01*
X89279524Y-90145295D02*
X89327143Y-90050057D01*
X89327143Y-90050057D02*
X89374762Y-90002438D01*
X89374762Y-90002438D02*
X89470000Y-89954819D01*
X90231905Y-90954819D02*
X90231905Y-89954819D01*
X90327143Y-90573866D02*
X90612857Y-90954819D01*
X90612857Y-90288152D02*
X90231905Y-90669104D01*
X88803333Y-88584819D02*
X88470000Y-88108628D01*
X88231905Y-88584819D02*
X88231905Y-87584819D01*
X88231905Y-87584819D02*
X88612857Y-87584819D01*
X88612857Y-87584819D02*
X88708095Y-87632438D01*
X88708095Y-87632438D02*
X88755714Y-87680057D01*
X88755714Y-87680057D02*
X88803333Y-87775295D01*
X88803333Y-87775295D02*
X88803333Y-87918152D01*
X88803333Y-87918152D02*
X88755714Y-88013390D01*
X88755714Y-88013390D02*
X88708095Y-88061009D01*
X88708095Y-88061009D02*
X88612857Y-88108628D01*
X88612857Y-88108628D02*
X88231905Y-88108628D01*
X89755714Y-88584819D02*
X89184286Y-88584819D01*
X89470000Y-88584819D02*
X89470000Y-87584819D01*
X89470000Y-87584819D02*
X89374762Y-87727676D01*
X89374762Y-87727676D02*
X89279524Y-87822914D01*
X89279524Y-87822914D02*
X89184286Y-87870533D01*
X58719680Y-74634819D02*
X58148252Y-74634819D01*
X58433966Y-74634819D02*
X58433966Y-73634819D01*
X58433966Y-73634819D02*
X58338728Y-73777676D01*
X58338728Y-73777676D02*
X58243490Y-73872914D01*
X58243490Y-73872914D02*
X58148252Y-73920533D01*
X59338728Y-73634819D02*
X59433966Y-73634819D01*
X59433966Y-73634819D02*
X59529204Y-73682438D01*
X59529204Y-73682438D02*
X59576823Y-73730057D01*
X59576823Y-73730057D02*
X59624442Y-73825295D01*
X59624442Y-73825295D02*
X59672061Y-74015771D01*
X59672061Y-74015771D02*
X59672061Y-74253866D01*
X59672061Y-74253866D02*
X59624442Y-74444342D01*
X59624442Y-74444342D02*
X59576823Y-74539580D01*
X59576823Y-74539580D02*
X59529204Y-74587200D01*
X59529204Y-74587200D02*
X59433966Y-74634819D01*
X59433966Y-74634819D02*
X59338728Y-74634819D01*
X59338728Y-74634819D02*
X59243490Y-74587200D01*
X59243490Y-74587200D02*
X59195871Y-74539580D01*
X59195871Y-74539580D02*
X59148252Y-74444342D01*
X59148252Y-74444342D02*
X59100633Y-74253866D01*
X59100633Y-74253866D02*
X59100633Y-74015771D01*
X59100633Y-74015771D02*
X59148252Y-73825295D01*
X59148252Y-73825295D02*
X59195871Y-73730057D01*
X59195871Y-73730057D02*
X59243490Y-73682438D01*
X59243490Y-73682438D02*
X59338728Y-73634819D01*
X60291109Y-73634819D02*
X60386347Y-73634819D01*
X60386347Y-73634819D02*
X60481585Y-73682438D01*
X60481585Y-73682438D02*
X60529204Y-73730057D01*
X60529204Y-73730057D02*
X60576823Y-73825295D01*
X60576823Y-73825295D02*
X60624442Y-74015771D01*
X60624442Y-74015771D02*
X60624442Y-74253866D01*
X60624442Y-74253866D02*
X60576823Y-74444342D01*
X60576823Y-74444342D02*
X60529204Y-74539580D01*
X60529204Y-74539580D02*
X60481585Y-74587200D01*
X60481585Y-74587200D02*
X60386347Y-74634819D01*
X60386347Y-74634819D02*
X60291109Y-74634819D01*
X60291109Y-74634819D02*
X60195871Y-74587200D01*
X60195871Y-74587200D02*
X60148252Y-74539580D01*
X60148252Y-74539580D02*
X60100633Y-74444342D01*
X60100633Y-74444342D02*
X60053014Y-74253866D01*
X60053014Y-74253866D02*
X60053014Y-74015771D01*
X60053014Y-74015771D02*
X60100633Y-73825295D01*
X60100633Y-73825295D02*
X60148252Y-73730057D01*
X60148252Y-73730057D02*
X60195871Y-73682438D01*
X60195871Y-73682438D02*
X60291109Y-73634819D01*
X61481585Y-73968152D02*
X61481585Y-74634819D01*
X61053014Y-73968152D02*
X61053014Y-74491961D01*
X61053014Y-74491961D02*
X61100633Y-74587200D01*
X61100633Y-74587200D02*
X61195871Y-74634819D01*
X61195871Y-74634819D02*
X61338728Y-74634819D01*
X61338728Y-74634819D02*
X61433966Y-74587200D01*
X61433966Y-74587200D02*
X61481585Y-74539580D01*
X62291109Y-74111009D02*
X61957776Y-74111009D01*
X61957776Y-74634819D02*
X61957776Y-73634819D01*
X61957776Y-73634819D02*
X62433966Y-73634819D01*
X60100633Y-69289580D02*
X60053014Y-69337200D01*
X60053014Y-69337200D02*
X59910157Y-69384819D01*
X59910157Y-69384819D02*
X59814919Y-69384819D01*
X59814919Y-69384819D02*
X59672062Y-69337200D01*
X59672062Y-69337200D02*
X59576824Y-69241961D01*
X59576824Y-69241961D02*
X59529205Y-69146723D01*
X59529205Y-69146723D02*
X59481586Y-68956247D01*
X59481586Y-68956247D02*
X59481586Y-68813390D01*
X59481586Y-68813390D02*
X59529205Y-68622914D01*
X59529205Y-68622914D02*
X59576824Y-68527676D01*
X59576824Y-68527676D02*
X59672062Y-68432438D01*
X59672062Y-68432438D02*
X59814919Y-68384819D01*
X59814919Y-68384819D02*
X59910157Y-68384819D01*
X59910157Y-68384819D02*
X60053014Y-68432438D01*
X60053014Y-68432438D02*
X60100633Y-68480057D01*
X61053014Y-69384819D02*
X60481586Y-69384819D01*
X60767300Y-69384819D02*
X60767300Y-68384819D01*
X60767300Y-68384819D02*
X60672062Y-68527676D01*
X60672062Y-68527676D02*
X60576824Y-68622914D01*
X60576824Y-68622914D02*
X60481586Y-68670533D01*
X92678490Y-76634819D02*
X92107062Y-76634819D01*
X92392776Y-76634819D02*
X92392776Y-75634819D01*
X92392776Y-75634819D02*
X92297538Y-75777676D01*
X92297538Y-75777676D02*
X92202300Y-75872914D01*
X92202300Y-75872914D02*
X92107062Y-75920533D01*
X93297538Y-75634819D02*
X93392776Y-75634819D01*
X93392776Y-75634819D02*
X93488014Y-75682438D01*
X93488014Y-75682438D02*
X93535633Y-75730057D01*
X93535633Y-75730057D02*
X93583252Y-75825295D01*
X93583252Y-75825295D02*
X93630871Y-76015771D01*
X93630871Y-76015771D02*
X93630871Y-76253866D01*
X93630871Y-76253866D02*
X93583252Y-76444342D01*
X93583252Y-76444342D02*
X93535633Y-76539580D01*
X93535633Y-76539580D02*
X93488014Y-76587200D01*
X93488014Y-76587200D02*
X93392776Y-76634819D01*
X93392776Y-76634819D02*
X93297538Y-76634819D01*
X93297538Y-76634819D02*
X93202300Y-76587200D01*
X93202300Y-76587200D02*
X93154681Y-76539580D01*
X93154681Y-76539580D02*
X93107062Y-76444342D01*
X93107062Y-76444342D02*
X93059443Y-76253866D01*
X93059443Y-76253866D02*
X93059443Y-76015771D01*
X93059443Y-76015771D02*
X93107062Y-75825295D01*
X93107062Y-75825295D02*
X93154681Y-75730057D01*
X93154681Y-75730057D02*
X93202300Y-75682438D01*
X93202300Y-75682438D02*
X93297538Y-75634819D01*
X94249919Y-75634819D02*
X94345157Y-75634819D01*
X94345157Y-75634819D02*
X94440395Y-75682438D01*
X94440395Y-75682438D02*
X94488014Y-75730057D01*
X94488014Y-75730057D02*
X94535633Y-75825295D01*
X94535633Y-75825295D02*
X94583252Y-76015771D01*
X94583252Y-76015771D02*
X94583252Y-76253866D01*
X94583252Y-76253866D02*
X94535633Y-76444342D01*
X94535633Y-76444342D02*
X94488014Y-76539580D01*
X94488014Y-76539580D02*
X94440395Y-76587200D01*
X94440395Y-76587200D02*
X94345157Y-76634819D01*
X94345157Y-76634819D02*
X94249919Y-76634819D01*
X94249919Y-76634819D02*
X94154681Y-76587200D01*
X94154681Y-76587200D02*
X94107062Y-76539580D01*
X94107062Y-76539580D02*
X94059443Y-76444342D01*
X94059443Y-76444342D02*
X94011824Y-76253866D01*
X94011824Y-76253866D02*
X94011824Y-76015771D01*
X94011824Y-76015771D02*
X94059443Y-75825295D01*
X94059443Y-75825295D02*
X94107062Y-75730057D01*
X94107062Y-75730057D02*
X94154681Y-75682438D01*
X94154681Y-75682438D02*
X94249919Y-75634819D01*
X95202300Y-75634819D02*
X95297538Y-75634819D01*
X95297538Y-75634819D02*
X95392776Y-75682438D01*
X95392776Y-75682438D02*
X95440395Y-75730057D01*
X95440395Y-75730057D02*
X95488014Y-75825295D01*
X95488014Y-75825295D02*
X95535633Y-76015771D01*
X95535633Y-76015771D02*
X95535633Y-76253866D01*
X95535633Y-76253866D02*
X95488014Y-76444342D01*
X95488014Y-76444342D02*
X95440395Y-76539580D01*
X95440395Y-76539580D02*
X95392776Y-76587200D01*
X95392776Y-76587200D02*
X95297538Y-76634819D01*
X95297538Y-76634819D02*
X95202300Y-76634819D01*
X95202300Y-76634819D02*
X95107062Y-76587200D01*
X95107062Y-76587200D02*
X95059443Y-76539580D01*
X95059443Y-76539580D02*
X95011824Y-76444342D01*
X95011824Y-76444342D02*
X94964205Y-76253866D01*
X94964205Y-76253866D02*
X94964205Y-76015771D01*
X94964205Y-76015771D02*
X95011824Y-75825295D01*
X95011824Y-75825295D02*
X95059443Y-75730057D01*
X95059443Y-75730057D02*
X95107062Y-75682438D01*
X95107062Y-75682438D02*
X95202300Y-75634819D01*
X96392776Y-75968152D02*
X96392776Y-76634819D01*
X95964205Y-75968152D02*
X95964205Y-76491961D01*
X95964205Y-76491961D02*
X96011824Y-76587200D01*
X96011824Y-76587200D02*
X96107062Y-76634819D01*
X96107062Y-76634819D02*
X96249919Y-76634819D01*
X96249919Y-76634819D02*
X96345157Y-76587200D01*
X96345157Y-76587200D02*
X96392776Y-76539580D01*
X97202300Y-76111009D02*
X96868967Y-76111009D01*
X96868967Y-76634819D02*
X96868967Y-75634819D01*
X96868967Y-75634819D02*
X97345157Y-75634819D01*
X94535633Y-70289580D02*
X94488014Y-70337200D01*
X94488014Y-70337200D02*
X94345157Y-70384819D01*
X94345157Y-70384819D02*
X94249919Y-70384819D01*
X94249919Y-70384819D02*
X94107062Y-70337200D01*
X94107062Y-70337200D02*
X94011824Y-70241961D01*
X94011824Y-70241961D02*
X93964205Y-70146723D01*
X93964205Y-70146723D02*
X93916586Y-69956247D01*
X93916586Y-69956247D02*
X93916586Y-69813390D01*
X93916586Y-69813390D02*
X93964205Y-69622914D01*
X93964205Y-69622914D02*
X94011824Y-69527676D01*
X94011824Y-69527676D02*
X94107062Y-69432438D01*
X94107062Y-69432438D02*
X94249919Y-69384819D01*
X94249919Y-69384819D02*
X94345157Y-69384819D01*
X94345157Y-69384819D02*
X94488014Y-69432438D01*
X94488014Y-69432438D02*
X94535633Y-69480057D01*
X94916586Y-69480057D02*
X94964205Y-69432438D01*
X94964205Y-69432438D02*
X95059443Y-69384819D01*
X95059443Y-69384819D02*
X95297538Y-69384819D01*
X95297538Y-69384819D02*
X95392776Y-69432438D01*
X95392776Y-69432438D02*
X95440395Y-69480057D01*
X95440395Y-69480057D02*
X95488014Y-69575295D01*
X95488014Y-69575295D02*
X95488014Y-69670533D01*
X95488014Y-69670533D02*
X95440395Y-69813390D01*
X95440395Y-69813390D02*
X94868967Y-70384819D01*
X94868967Y-70384819D02*
X95488014Y-70384819D01*
X41419998Y-38884819D02*
X41086665Y-38408628D01*
X40848570Y-38884819D02*
X40848570Y-37884819D01*
X40848570Y-37884819D02*
X41229522Y-37884819D01*
X41229522Y-37884819D02*
X41324760Y-37932438D01*
X41324760Y-37932438D02*
X41372379Y-37980057D01*
X41372379Y-37980057D02*
X41419998Y-38075295D01*
X41419998Y-38075295D02*
X41419998Y-38218152D01*
X41419998Y-38218152D02*
X41372379Y-38313390D01*
X41372379Y-38313390D02*
X41324760Y-38361009D01*
X41324760Y-38361009D02*
X41229522Y-38408628D01*
X41229522Y-38408628D02*
X40848570Y-38408628D01*
X41991427Y-38884819D02*
X41896189Y-38837200D01*
X41896189Y-38837200D02*
X41848570Y-38789580D01*
X41848570Y-38789580D02*
X41800951Y-38694342D01*
X41800951Y-38694342D02*
X41800951Y-38408628D01*
X41800951Y-38408628D02*
X41848570Y-38313390D01*
X41848570Y-38313390D02*
X41896189Y-38265771D01*
X41896189Y-38265771D02*
X41991427Y-38218152D01*
X41991427Y-38218152D02*
X42134284Y-38218152D01*
X42134284Y-38218152D02*
X42229522Y-38265771D01*
X42229522Y-38265771D02*
X42277141Y-38313390D01*
X42277141Y-38313390D02*
X42324760Y-38408628D01*
X42324760Y-38408628D02*
X42324760Y-38694342D01*
X42324760Y-38694342D02*
X42277141Y-38789580D01*
X42277141Y-38789580D02*
X42229522Y-38837200D01*
X42229522Y-38837200D02*
X42134284Y-38884819D01*
X42134284Y-38884819D02*
X41991427Y-38884819D01*
X42610475Y-38218152D02*
X42991427Y-38218152D01*
X42753332Y-37884819D02*
X42753332Y-38741961D01*
X42753332Y-38741961D02*
X42800951Y-38837200D01*
X42800951Y-38837200D02*
X42896189Y-38884819D01*
X42896189Y-38884819D02*
X42991427Y-38884819D01*
X43753332Y-38884819D02*
X43753332Y-38361009D01*
X43753332Y-38361009D02*
X43705713Y-38265771D01*
X43705713Y-38265771D02*
X43610475Y-38218152D01*
X43610475Y-38218152D02*
X43419999Y-38218152D01*
X43419999Y-38218152D02*
X43324761Y-38265771D01*
X43753332Y-38837200D02*
X43658094Y-38884819D01*
X43658094Y-38884819D02*
X43419999Y-38884819D01*
X43419999Y-38884819D02*
X43324761Y-38837200D01*
X43324761Y-38837200D02*
X43277142Y-38741961D01*
X43277142Y-38741961D02*
X43277142Y-38646723D01*
X43277142Y-38646723D02*
X43324761Y-38551485D01*
X43324761Y-38551485D02*
X43419999Y-38503866D01*
X43419999Y-38503866D02*
X43658094Y-38503866D01*
X43658094Y-38503866D02*
X43753332Y-38456247D01*
X44229523Y-38884819D02*
X44229523Y-38218152D01*
X44229523Y-38408628D02*
X44277142Y-38313390D01*
X44277142Y-38313390D02*
X44324761Y-38265771D01*
X44324761Y-38265771D02*
X44419999Y-38218152D01*
X44419999Y-38218152D02*
X44515237Y-38218152D01*
X44753333Y-38218152D02*
X44991428Y-38884819D01*
X45229523Y-38218152D02*
X44991428Y-38884819D01*
X44991428Y-38884819D02*
X44896190Y-39122914D01*
X44896190Y-39122914D02*
X44848571Y-39170533D01*
X44848571Y-39170533D02*
X44753333Y-39218152D01*
X46896190Y-38884819D02*
X46324762Y-38884819D01*
X46610476Y-38884819D02*
X46610476Y-37884819D01*
X46610476Y-37884819D02*
X46515238Y-38027676D01*
X46515238Y-38027676D02*
X46420000Y-38122914D01*
X46420000Y-38122914D02*
X46324762Y-38170533D01*
X47229524Y-38884819D02*
X47753333Y-38218152D01*
X47229524Y-38218152D02*
X47753333Y-38884819D01*
X48658095Y-38884819D02*
X48086667Y-38884819D01*
X48372381Y-38884819D02*
X48372381Y-37884819D01*
X48372381Y-37884819D02*
X48277143Y-38027676D01*
X48277143Y-38027676D02*
X48181905Y-38122914D01*
X48181905Y-38122914D02*
X48086667Y-38170533D01*
X49039048Y-37980057D02*
X49086667Y-37932438D01*
X49086667Y-37932438D02*
X49181905Y-37884819D01*
X49181905Y-37884819D02*
X49420000Y-37884819D01*
X49420000Y-37884819D02*
X49515238Y-37932438D01*
X49515238Y-37932438D02*
X49562857Y-37980057D01*
X49562857Y-37980057D02*
X49610476Y-38075295D01*
X49610476Y-38075295D02*
X49610476Y-38170533D01*
X49610476Y-38170533D02*
X49562857Y-38313390D01*
X49562857Y-38313390D02*
X48991429Y-38884819D01*
X48991429Y-38884819D02*
X49610476Y-38884819D01*
X50800953Y-38361009D02*
X51134286Y-38361009D01*
X51277143Y-38884819D02*
X50800953Y-38884819D01*
X50800953Y-38884819D02*
X50800953Y-37884819D01*
X50800953Y-37884819D02*
X51277143Y-37884819D01*
X51896191Y-38408628D02*
X51896191Y-38884819D01*
X51562858Y-37884819D02*
X51896191Y-38408628D01*
X51896191Y-38408628D02*
X52229524Y-37884819D01*
X52562858Y-38361009D02*
X52896191Y-38361009D01*
X53039048Y-38884819D02*
X52562858Y-38884819D01*
X52562858Y-38884819D02*
X52562858Y-37884819D01*
X52562858Y-37884819D02*
X53039048Y-37884819D01*
X49186667Y-34737200D02*
X49329524Y-34784819D01*
X49329524Y-34784819D02*
X49567619Y-34784819D01*
X49567619Y-34784819D02*
X49662857Y-34737200D01*
X49662857Y-34737200D02*
X49710476Y-34689580D01*
X49710476Y-34689580D02*
X49758095Y-34594342D01*
X49758095Y-34594342D02*
X49758095Y-34499104D01*
X49758095Y-34499104D02*
X49710476Y-34403866D01*
X49710476Y-34403866D02*
X49662857Y-34356247D01*
X49662857Y-34356247D02*
X49567619Y-34308628D01*
X49567619Y-34308628D02*
X49377143Y-34261009D01*
X49377143Y-34261009D02*
X49281905Y-34213390D01*
X49281905Y-34213390D02*
X49234286Y-34165771D01*
X49234286Y-34165771D02*
X49186667Y-34070533D01*
X49186667Y-34070533D02*
X49186667Y-33975295D01*
X49186667Y-33975295D02*
X49234286Y-33880057D01*
X49234286Y-33880057D02*
X49281905Y-33832438D01*
X49281905Y-33832438D02*
X49377143Y-33784819D01*
X49377143Y-33784819D02*
X49615238Y-33784819D01*
X49615238Y-33784819D02*
X49758095Y-33832438D01*
X50091429Y-33784819D02*
X50329524Y-34784819D01*
X50329524Y-34784819D02*
X50520000Y-34070533D01*
X50520000Y-34070533D02*
X50710476Y-34784819D01*
X50710476Y-34784819D02*
X50948572Y-33784819D01*
X51853333Y-34784819D02*
X51281905Y-34784819D01*
X51567619Y-34784819D02*
X51567619Y-33784819D01*
X51567619Y-33784819D02*
X51472381Y-33927676D01*
X51472381Y-33927676D02*
X51377143Y-34022914D01*
X51377143Y-34022914D02*
X51281905Y-34070533D01*
X113474761Y-90954819D02*
X112903333Y-90954819D01*
X113189047Y-90954819D02*
X113189047Y-89954819D01*
X113189047Y-89954819D02*
X113093809Y-90097676D01*
X113093809Y-90097676D02*
X112998571Y-90192914D01*
X112998571Y-90192914D02*
X112903333Y-90240533D01*
X114093809Y-89954819D02*
X114189047Y-89954819D01*
X114189047Y-89954819D02*
X114284285Y-90002438D01*
X114284285Y-90002438D02*
X114331904Y-90050057D01*
X114331904Y-90050057D02*
X114379523Y-90145295D01*
X114379523Y-90145295D02*
X114427142Y-90335771D01*
X114427142Y-90335771D02*
X114427142Y-90573866D01*
X114427142Y-90573866D02*
X114379523Y-90764342D01*
X114379523Y-90764342D02*
X114331904Y-90859580D01*
X114331904Y-90859580D02*
X114284285Y-90907200D01*
X114284285Y-90907200D02*
X114189047Y-90954819D01*
X114189047Y-90954819D02*
X114093809Y-90954819D01*
X114093809Y-90954819D02*
X113998571Y-90907200D01*
X113998571Y-90907200D02*
X113950952Y-90859580D01*
X113950952Y-90859580D02*
X113903333Y-90764342D01*
X113903333Y-90764342D02*
X113855714Y-90573866D01*
X113855714Y-90573866D02*
X113855714Y-90335771D01*
X113855714Y-90335771D02*
X113903333Y-90145295D01*
X113903333Y-90145295D02*
X113950952Y-90050057D01*
X113950952Y-90050057D02*
X113998571Y-90002438D01*
X113998571Y-90002438D02*
X114093809Y-89954819D01*
X114855714Y-90954819D02*
X114855714Y-89954819D01*
X114950952Y-90573866D02*
X115236666Y-90954819D01*
X115236666Y-90288152D02*
X114855714Y-90669104D01*
X113903333Y-88584819D02*
X113570000Y-88108628D01*
X113331905Y-88584819D02*
X113331905Y-87584819D01*
X113331905Y-87584819D02*
X113712857Y-87584819D01*
X113712857Y-87584819D02*
X113808095Y-87632438D01*
X113808095Y-87632438D02*
X113855714Y-87680057D01*
X113855714Y-87680057D02*
X113903333Y-87775295D01*
X113903333Y-87775295D02*
X113903333Y-87918152D01*
X113903333Y-87918152D02*
X113855714Y-88013390D01*
X113855714Y-88013390D02*
X113808095Y-88061009D01*
X113808095Y-88061009D02*
X113712857Y-88108628D01*
X113712857Y-88108628D02*
X113331905Y-88108628D01*
X114236667Y-87584819D02*
X114855714Y-87584819D01*
X114855714Y-87584819D02*
X114522381Y-87965771D01*
X114522381Y-87965771D02*
X114665238Y-87965771D01*
X114665238Y-87965771D02*
X114760476Y-88013390D01*
X114760476Y-88013390D02*
X114808095Y-88061009D01*
X114808095Y-88061009D02*
X114855714Y-88156247D01*
X114855714Y-88156247D02*
X114855714Y-88394342D01*
X114855714Y-88394342D02*
X114808095Y-88489580D01*
X114808095Y-88489580D02*
X114760476Y-88537200D01*
X114760476Y-88537200D02*
X114665238Y-88584819D01*
X114665238Y-88584819D02*
X114379524Y-88584819D01*
X114379524Y-88584819D02*
X114284286Y-88537200D01*
X114284286Y-88537200D02*
X114236667Y-88489580D01*
X82498571Y-45884819D02*
X81927143Y-45884819D01*
X82212857Y-45884819D02*
X82212857Y-44884819D01*
X82212857Y-44884819D02*
X82117619Y-45027676D01*
X82117619Y-45027676D02*
X82022381Y-45122914D01*
X82022381Y-45122914D02*
X81927143Y-45170533D01*
X83117619Y-44884819D02*
X83212857Y-44884819D01*
X83212857Y-44884819D02*
X83308095Y-44932438D01*
X83308095Y-44932438D02*
X83355714Y-44980057D01*
X83355714Y-44980057D02*
X83403333Y-45075295D01*
X83403333Y-45075295D02*
X83450952Y-45265771D01*
X83450952Y-45265771D02*
X83450952Y-45503866D01*
X83450952Y-45503866D02*
X83403333Y-45694342D01*
X83403333Y-45694342D02*
X83355714Y-45789580D01*
X83355714Y-45789580D02*
X83308095Y-45837200D01*
X83308095Y-45837200D02*
X83212857Y-45884819D01*
X83212857Y-45884819D02*
X83117619Y-45884819D01*
X83117619Y-45884819D02*
X83022381Y-45837200D01*
X83022381Y-45837200D02*
X82974762Y-45789580D01*
X82974762Y-45789580D02*
X82927143Y-45694342D01*
X82927143Y-45694342D02*
X82879524Y-45503866D01*
X82879524Y-45503866D02*
X82879524Y-45265771D01*
X82879524Y-45265771D02*
X82927143Y-45075295D01*
X82927143Y-45075295D02*
X82974762Y-44980057D01*
X82974762Y-44980057D02*
X83022381Y-44932438D01*
X83022381Y-44932438D02*
X83117619Y-44884819D01*
X83879524Y-45218152D02*
X83879524Y-45884819D01*
X83879524Y-45313390D02*
X83927143Y-45265771D01*
X83927143Y-45265771D02*
X84022381Y-45218152D01*
X84022381Y-45218152D02*
X84165238Y-45218152D01*
X84165238Y-45218152D02*
X84260476Y-45265771D01*
X84260476Y-45265771D02*
X84308095Y-45361009D01*
X84308095Y-45361009D02*
X84308095Y-45884819D01*
X85117619Y-45361009D02*
X84784286Y-45361009D01*
X84784286Y-45884819D02*
X84784286Y-44884819D01*
X84784286Y-44884819D02*
X85260476Y-44884819D01*
X83403333Y-43289580D02*
X83355714Y-43337200D01*
X83355714Y-43337200D02*
X83212857Y-43384819D01*
X83212857Y-43384819D02*
X83117619Y-43384819D01*
X83117619Y-43384819D02*
X82974762Y-43337200D01*
X82974762Y-43337200D02*
X82879524Y-43241961D01*
X82879524Y-43241961D02*
X82831905Y-43146723D01*
X82831905Y-43146723D02*
X82784286Y-42956247D01*
X82784286Y-42956247D02*
X82784286Y-42813390D01*
X82784286Y-42813390D02*
X82831905Y-42622914D01*
X82831905Y-42622914D02*
X82879524Y-42527676D01*
X82879524Y-42527676D02*
X82974762Y-42432438D01*
X82974762Y-42432438D02*
X83117619Y-42384819D01*
X83117619Y-42384819D02*
X83212857Y-42384819D01*
X83212857Y-42384819D02*
X83355714Y-42432438D01*
X83355714Y-42432438D02*
X83403333Y-42480057D01*
X83974762Y-42813390D02*
X83879524Y-42765771D01*
X83879524Y-42765771D02*
X83831905Y-42718152D01*
X83831905Y-42718152D02*
X83784286Y-42622914D01*
X83784286Y-42622914D02*
X83784286Y-42575295D01*
X83784286Y-42575295D02*
X83831905Y-42480057D01*
X83831905Y-42480057D02*
X83879524Y-42432438D01*
X83879524Y-42432438D02*
X83974762Y-42384819D01*
X83974762Y-42384819D02*
X84165238Y-42384819D01*
X84165238Y-42384819D02*
X84260476Y-42432438D01*
X84260476Y-42432438D02*
X84308095Y-42480057D01*
X84308095Y-42480057D02*
X84355714Y-42575295D01*
X84355714Y-42575295D02*
X84355714Y-42622914D01*
X84355714Y-42622914D02*
X84308095Y-42718152D01*
X84308095Y-42718152D02*
X84260476Y-42765771D01*
X84260476Y-42765771D02*
X84165238Y-42813390D01*
X84165238Y-42813390D02*
X83974762Y-42813390D01*
X83974762Y-42813390D02*
X83879524Y-42861009D01*
X83879524Y-42861009D02*
X83831905Y-42908628D01*
X83831905Y-42908628D02*
X83784286Y-43003866D01*
X83784286Y-43003866D02*
X83784286Y-43194342D01*
X83784286Y-43194342D02*
X83831905Y-43289580D01*
X83831905Y-43289580D02*
X83879524Y-43337200D01*
X83879524Y-43337200D02*
X83974762Y-43384819D01*
X83974762Y-43384819D02*
X84165238Y-43384819D01*
X84165238Y-43384819D02*
X84260476Y-43337200D01*
X84260476Y-43337200D02*
X84308095Y-43289580D01*
X84308095Y-43289580D02*
X84355714Y-43194342D01*
X84355714Y-43194342D02*
X84355714Y-43003866D01*
X84355714Y-43003866D02*
X84308095Y-42908628D01*
X84308095Y-42908628D02*
X84260476Y-42861009D01*
X84260476Y-42861009D02*
X84165238Y-42813390D01*
X44600057Y-113639524D02*
X44552438Y-113591905D01*
X44552438Y-113591905D02*
X44504819Y-113496667D01*
X44504819Y-113496667D02*
X44504819Y-113258572D01*
X44504819Y-113258572D02*
X44552438Y-113163334D01*
X44552438Y-113163334D02*
X44600057Y-113115715D01*
X44600057Y-113115715D02*
X44695295Y-113068096D01*
X44695295Y-113068096D02*
X44790533Y-113068096D01*
X44790533Y-113068096D02*
X44933390Y-113115715D01*
X44933390Y-113115715D02*
X45504819Y-113687143D01*
X45504819Y-113687143D02*
X45504819Y-113068096D01*
X44838152Y-111877619D02*
X45838152Y-111877619D01*
X44885771Y-111877619D02*
X44838152Y-111782381D01*
X44838152Y-111782381D02*
X44838152Y-111591905D01*
X44838152Y-111591905D02*
X44885771Y-111496667D01*
X44885771Y-111496667D02*
X44933390Y-111449048D01*
X44933390Y-111449048D02*
X45028628Y-111401429D01*
X45028628Y-111401429D02*
X45314342Y-111401429D01*
X45314342Y-111401429D02*
X45409580Y-111449048D01*
X45409580Y-111449048D02*
X45457200Y-111496667D01*
X45457200Y-111496667D02*
X45504819Y-111591905D01*
X45504819Y-111591905D02*
X45504819Y-111782381D01*
X45504819Y-111782381D02*
X45457200Y-111877619D01*
X45504819Y-110830000D02*
X45457200Y-110925238D01*
X45457200Y-110925238D02*
X45409580Y-110972857D01*
X45409580Y-110972857D02*
X45314342Y-111020476D01*
X45314342Y-111020476D02*
X45028628Y-111020476D01*
X45028628Y-111020476D02*
X44933390Y-110972857D01*
X44933390Y-110972857D02*
X44885771Y-110925238D01*
X44885771Y-110925238D02*
X44838152Y-110830000D01*
X44838152Y-110830000D02*
X44838152Y-110687143D01*
X44838152Y-110687143D02*
X44885771Y-110591905D01*
X44885771Y-110591905D02*
X44933390Y-110544286D01*
X44933390Y-110544286D02*
X45028628Y-110496667D01*
X45028628Y-110496667D02*
X45314342Y-110496667D01*
X45314342Y-110496667D02*
X45409580Y-110544286D01*
X45409580Y-110544286D02*
X45457200Y-110591905D01*
X45457200Y-110591905D02*
X45504819Y-110687143D01*
X45504819Y-110687143D02*
X45504819Y-110830000D01*
X45504819Y-109925238D02*
X45457200Y-110020476D01*
X45457200Y-110020476D02*
X45361961Y-110068095D01*
X45361961Y-110068095D02*
X44504819Y-110068095D01*
X45457200Y-108829999D02*
X45504819Y-108734761D01*
X45504819Y-108734761D02*
X45504819Y-108544285D01*
X45504819Y-108544285D02*
X45457200Y-108449047D01*
X45457200Y-108449047D02*
X45361961Y-108401428D01*
X45361961Y-108401428D02*
X45314342Y-108401428D01*
X45314342Y-108401428D02*
X45219104Y-108449047D01*
X45219104Y-108449047D02*
X45171485Y-108544285D01*
X45171485Y-108544285D02*
X45171485Y-108687142D01*
X45171485Y-108687142D02*
X45123866Y-108782380D01*
X45123866Y-108782380D02*
X45028628Y-108829999D01*
X45028628Y-108829999D02*
X44981009Y-108829999D01*
X44981009Y-108829999D02*
X44885771Y-108782380D01*
X44885771Y-108782380D02*
X44838152Y-108687142D01*
X44838152Y-108687142D02*
X44838152Y-108544285D01*
X44838152Y-108544285D02*
X44885771Y-108449047D01*
X45504819Y-107972856D02*
X44504819Y-107972856D01*
X45123866Y-107877618D02*
X45504819Y-107591904D01*
X44838152Y-107591904D02*
X45219104Y-107972856D01*
X45504819Y-107163332D02*
X44838152Y-107163332D01*
X45028628Y-107163332D02*
X44933390Y-107115713D01*
X44933390Y-107115713D02*
X44885771Y-107068094D01*
X44885771Y-107068094D02*
X44838152Y-106972856D01*
X44838152Y-106972856D02*
X44838152Y-106877618D01*
X44838152Y-106115713D02*
X45504819Y-106115713D01*
X44838152Y-106544284D02*
X45361961Y-106544284D01*
X45361961Y-106544284D02*
X45457200Y-106496665D01*
X45457200Y-106496665D02*
X45504819Y-106401427D01*
X45504819Y-106401427D02*
X45504819Y-106258570D01*
X45504819Y-106258570D02*
X45457200Y-106163332D01*
X45457200Y-106163332D02*
X45409580Y-106115713D01*
X45457200Y-105258570D02*
X45504819Y-105353808D01*
X45504819Y-105353808D02*
X45504819Y-105544284D01*
X45504819Y-105544284D02*
X45457200Y-105639522D01*
X45457200Y-105639522D02*
X45361961Y-105687141D01*
X45361961Y-105687141D02*
X44981009Y-105687141D01*
X44981009Y-105687141D02*
X44885771Y-105639522D01*
X44885771Y-105639522D02*
X44838152Y-105544284D01*
X44838152Y-105544284D02*
X44838152Y-105353808D01*
X44838152Y-105353808D02*
X44885771Y-105258570D01*
X44885771Y-105258570D02*
X44981009Y-105210951D01*
X44981009Y-105210951D02*
X45076247Y-105210951D01*
X45076247Y-105210951D02*
X45171485Y-105687141D01*
X44838152Y-104925236D02*
X44838152Y-104544284D01*
X44504819Y-104782379D02*
X45361961Y-104782379D01*
X45361961Y-104782379D02*
X45457200Y-104734760D01*
X45457200Y-104734760D02*
X45504819Y-104639522D01*
X45504819Y-104639522D02*
X45504819Y-104544284D01*
X45457200Y-103829998D02*
X45504819Y-103925236D01*
X45504819Y-103925236D02*
X45504819Y-104115712D01*
X45504819Y-104115712D02*
X45457200Y-104210950D01*
X45457200Y-104210950D02*
X45361961Y-104258569D01*
X45361961Y-104258569D02*
X44981009Y-104258569D01*
X44981009Y-104258569D02*
X44885771Y-104210950D01*
X44885771Y-104210950D02*
X44838152Y-104115712D01*
X44838152Y-104115712D02*
X44838152Y-103925236D01*
X44838152Y-103925236D02*
X44885771Y-103829998D01*
X44885771Y-103829998D02*
X44981009Y-103782379D01*
X44981009Y-103782379D02*
X45076247Y-103782379D01*
X45076247Y-103782379D02*
X45171485Y-104258569D01*
X45504819Y-103353807D02*
X44838152Y-103353807D01*
X45028628Y-103353807D02*
X44933390Y-103306188D01*
X44933390Y-103306188D02*
X44885771Y-103258569D01*
X44885771Y-103258569D02*
X44838152Y-103163331D01*
X44838152Y-103163331D02*
X44838152Y-103068093D01*
X45504819Y-102734759D02*
X44838152Y-102734759D01*
X44933390Y-102734759D02*
X44885771Y-102687140D01*
X44885771Y-102687140D02*
X44838152Y-102591902D01*
X44838152Y-102591902D02*
X44838152Y-102449045D01*
X44838152Y-102449045D02*
X44885771Y-102353807D01*
X44885771Y-102353807D02*
X44981009Y-102306188D01*
X44981009Y-102306188D02*
X45504819Y-102306188D01*
X44981009Y-102306188D02*
X44885771Y-102258569D01*
X44885771Y-102258569D02*
X44838152Y-102163331D01*
X44838152Y-102163331D02*
X44838152Y-102020474D01*
X44838152Y-102020474D02*
X44885771Y-101925235D01*
X44885771Y-101925235D02*
X44981009Y-101877616D01*
X44981009Y-101877616D02*
X45504819Y-101877616D01*
X45504819Y-101401426D02*
X44838152Y-101401426D01*
X44504819Y-101401426D02*
X44552438Y-101449045D01*
X44552438Y-101449045D02*
X44600057Y-101401426D01*
X44600057Y-101401426D02*
X44552438Y-101353807D01*
X44552438Y-101353807D02*
X44504819Y-101401426D01*
X44504819Y-101401426D02*
X44600057Y-101401426D01*
X44838152Y-100925236D02*
X45504819Y-100925236D01*
X44933390Y-100925236D02*
X44885771Y-100877617D01*
X44885771Y-100877617D02*
X44838152Y-100782379D01*
X44838152Y-100782379D02*
X44838152Y-100639522D01*
X44838152Y-100639522D02*
X44885771Y-100544284D01*
X44885771Y-100544284D02*
X44981009Y-100496665D01*
X44981009Y-100496665D02*
X45504819Y-100496665D01*
X45504819Y-99591903D02*
X44981009Y-99591903D01*
X44981009Y-99591903D02*
X44885771Y-99639522D01*
X44885771Y-99639522D02*
X44838152Y-99734760D01*
X44838152Y-99734760D02*
X44838152Y-99925236D01*
X44838152Y-99925236D02*
X44885771Y-100020474D01*
X45457200Y-99591903D02*
X45504819Y-99687141D01*
X45504819Y-99687141D02*
X45504819Y-99925236D01*
X45504819Y-99925236D02*
X45457200Y-100020474D01*
X45457200Y-100020474D02*
X45361961Y-100068093D01*
X45361961Y-100068093D02*
X45266723Y-100068093D01*
X45266723Y-100068093D02*
X45171485Y-100020474D01*
X45171485Y-100020474D02*
X45123866Y-99925236D01*
X45123866Y-99925236D02*
X45123866Y-99687141D01*
X45123866Y-99687141D02*
X45076247Y-99591903D01*
X45504819Y-98972855D02*
X45457200Y-99068093D01*
X45457200Y-99068093D02*
X45361961Y-99115712D01*
X45361961Y-99115712D02*
X44504819Y-99115712D01*
X39424819Y-106663333D02*
X40139104Y-106663333D01*
X40139104Y-106663333D02*
X40281961Y-106710952D01*
X40281961Y-106710952D02*
X40377200Y-106806190D01*
X40377200Y-106806190D02*
X40424819Y-106949047D01*
X40424819Y-106949047D02*
X40424819Y-107044285D01*
X39520057Y-106234761D02*
X39472438Y-106187142D01*
X39472438Y-106187142D02*
X39424819Y-106091904D01*
X39424819Y-106091904D02*
X39424819Y-105853809D01*
X39424819Y-105853809D02*
X39472438Y-105758571D01*
X39472438Y-105758571D02*
X39520057Y-105710952D01*
X39520057Y-105710952D02*
X39615295Y-105663333D01*
X39615295Y-105663333D02*
X39710533Y-105663333D01*
X39710533Y-105663333D02*
X39853390Y-105710952D01*
X39853390Y-105710952D02*
X40424819Y-106282380D01*
X40424819Y-106282380D02*
X40424819Y-105663333D01*
X67364760Y-122034819D02*
X66793332Y-122034819D01*
X67079046Y-122034819D02*
X67079046Y-121034819D01*
X67079046Y-121034819D02*
X66983808Y-121177676D01*
X66983808Y-121177676D02*
X66888570Y-121272914D01*
X66888570Y-121272914D02*
X66793332Y-121320533D01*
X68269522Y-121034819D02*
X67793332Y-121034819D01*
X67793332Y-121034819D02*
X67745713Y-121511009D01*
X67745713Y-121511009D02*
X67793332Y-121463390D01*
X67793332Y-121463390D02*
X67888570Y-121415771D01*
X67888570Y-121415771D02*
X68126665Y-121415771D01*
X68126665Y-121415771D02*
X68221903Y-121463390D01*
X68221903Y-121463390D02*
X68269522Y-121511009D01*
X68269522Y-121511009D02*
X68317141Y-121606247D01*
X68317141Y-121606247D02*
X68317141Y-121844342D01*
X68317141Y-121844342D02*
X68269522Y-121939580D01*
X68269522Y-121939580D02*
X68221903Y-121987200D01*
X68221903Y-121987200D02*
X68126665Y-122034819D01*
X68126665Y-122034819D02*
X67888570Y-122034819D01*
X67888570Y-122034819D02*
X67793332Y-121987200D01*
X67793332Y-121987200D02*
X67745713Y-121939580D01*
X68698094Y-121749104D02*
X69174284Y-121749104D01*
X68602856Y-122034819D02*
X68936189Y-121034819D01*
X68936189Y-121034819D02*
X69269522Y-122034819D01*
X70650475Y-122415771D02*
X70602856Y-122368152D01*
X70602856Y-122368152D02*
X70507618Y-122225295D01*
X70507618Y-122225295D02*
X70459999Y-122130057D01*
X70459999Y-122130057D02*
X70412380Y-121987200D01*
X70412380Y-121987200D02*
X70364761Y-121749104D01*
X70364761Y-121749104D02*
X70364761Y-121558628D01*
X70364761Y-121558628D02*
X70412380Y-121320533D01*
X70412380Y-121320533D02*
X70459999Y-121177676D01*
X70459999Y-121177676D02*
X70507618Y-121082438D01*
X70507618Y-121082438D02*
X70602856Y-120939580D01*
X70602856Y-120939580D02*
X70650475Y-120891961D01*
X71031428Y-122034819D02*
X71031428Y-121034819D01*
X71459999Y-122034819D02*
X71459999Y-121511009D01*
X71459999Y-121511009D02*
X71412380Y-121415771D01*
X71412380Y-121415771D02*
X71317142Y-121368152D01*
X71317142Y-121368152D02*
X71174285Y-121368152D01*
X71174285Y-121368152D02*
X71079047Y-121415771D01*
X71079047Y-121415771D02*
X71031428Y-121463390D01*
X72079047Y-122034819D02*
X71983809Y-121987200D01*
X71983809Y-121987200D02*
X71936190Y-121939580D01*
X71936190Y-121939580D02*
X71888571Y-121844342D01*
X71888571Y-121844342D02*
X71888571Y-121558628D01*
X71888571Y-121558628D02*
X71936190Y-121463390D01*
X71936190Y-121463390D02*
X71983809Y-121415771D01*
X71983809Y-121415771D02*
X72079047Y-121368152D01*
X72079047Y-121368152D02*
X72221904Y-121368152D01*
X72221904Y-121368152D02*
X72317142Y-121415771D01*
X72317142Y-121415771D02*
X72364761Y-121463390D01*
X72364761Y-121463390D02*
X72412380Y-121558628D01*
X72412380Y-121558628D02*
X72412380Y-121844342D01*
X72412380Y-121844342D02*
X72364761Y-121939580D01*
X72364761Y-121939580D02*
X72317142Y-121987200D01*
X72317142Y-121987200D02*
X72221904Y-122034819D01*
X72221904Y-122034819D02*
X72079047Y-122034819D01*
X72983809Y-122034819D02*
X72888571Y-121987200D01*
X72888571Y-121987200D02*
X72840952Y-121891961D01*
X72840952Y-121891961D02*
X72840952Y-121034819D01*
X73793333Y-122034819D02*
X73793333Y-121034819D01*
X73793333Y-121987200D02*
X73698095Y-122034819D01*
X73698095Y-122034819D02*
X73507619Y-122034819D01*
X73507619Y-122034819D02*
X73412381Y-121987200D01*
X73412381Y-121987200D02*
X73364762Y-121939580D01*
X73364762Y-121939580D02*
X73317143Y-121844342D01*
X73317143Y-121844342D02*
X73317143Y-121558628D01*
X73317143Y-121558628D02*
X73364762Y-121463390D01*
X73364762Y-121463390D02*
X73412381Y-121415771D01*
X73412381Y-121415771D02*
X73507619Y-121368152D01*
X73507619Y-121368152D02*
X73698095Y-121368152D01*
X73698095Y-121368152D02*
X73793333Y-121415771D01*
X74650476Y-121987200D02*
X74555238Y-122034819D01*
X74555238Y-122034819D02*
X74364762Y-122034819D01*
X74364762Y-122034819D02*
X74269524Y-121987200D01*
X74269524Y-121987200D02*
X74221905Y-121891961D01*
X74221905Y-121891961D02*
X74221905Y-121511009D01*
X74221905Y-121511009D02*
X74269524Y-121415771D01*
X74269524Y-121415771D02*
X74364762Y-121368152D01*
X74364762Y-121368152D02*
X74555238Y-121368152D01*
X74555238Y-121368152D02*
X74650476Y-121415771D01*
X74650476Y-121415771D02*
X74698095Y-121511009D01*
X74698095Y-121511009D02*
X74698095Y-121606247D01*
X74698095Y-121606247D02*
X74221905Y-121701485D01*
X75126667Y-122034819D02*
X75126667Y-121368152D01*
X75126667Y-121558628D02*
X75174286Y-121463390D01*
X75174286Y-121463390D02*
X75221905Y-121415771D01*
X75221905Y-121415771D02*
X75317143Y-121368152D01*
X75317143Y-121368152D02*
X75412381Y-121368152D01*
X75793334Y-121987200D02*
X75793334Y-122034819D01*
X75793334Y-122034819D02*
X75745715Y-122130057D01*
X75745715Y-122130057D02*
X75698096Y-122177676D01*
X77317143Y-121511009D02*
X77460000Y-121558628D01*
X77460000Y-121558628D02*
X77507619Y-121606247D01*
X77507619Y-121606247D02*
X77555238Y-121701485D01*
X77555238Y-121701485D02*
X77555238Y-121844342D01*
X77555238Y-121844342D02*
X77507619Y-121939580D01*
X77507619Y-121939580D02*
X77460000Y-121987200D01*
X77460000Y-121987200D02*
X77364762Y-122034819D01*
X77364762Y-122034819D02*
X76983810Y-122034819D01*
X76983810Y-122034819D02*
X76983810Y-121034819D01*
X76983810Y-121034819D02*
X77317143Y-121034819D01*
X77317143Y-121034819D02*
X77412381Y-121082438D01*
X77412381Y-121082438D02*
X77460000Y-121130057D01*
X77460000Y-121130057D02*
X77507619Y-121225295D01*
X77507619Y-121225295D02*
X77507619Y-121320533D01*
X77507619Y-121320533D02*
X77460000Y-121415771D01*
X77460000Y-121415771D02*
X77412381Y-121463390D01*
X77412381Y-121463390D02*
X77317143Y-121511009D01*
X77317143Y-121511009D02*
X76983810Y-121511009D01*
X78174286Y-121558628D02*
X78174286Y-122034819D01*
X77840953Y-121034819D02*
X78174286Y-121558628D01*
X78174286Y-121558628D02*
X78507619Y-121034819D01*
X79031429Y-121034819D02*
X79221905Y-121034819D01*
X79221905Y-121034819D02*
X79317143Y-121082438D01*
X79317143Y-121082438D02*
X79412381Y-121177676D01*
X79412381Y-121177676D02*
X79460000Y-121368152D01*
X79460000Y-121368152D02*
X79460000Y-121701485D01*
X79460000Y-121701485D02*
X79412381Y-121891961D01*
X79412381Y-121891961D02*
X79317143Y-121987200D01*
X79317143Y-121987200D02*
X79221905Y-122034819D01*
X79221905Y-122034819D02*
X79031429Y-122034819D01*
X79031429Y-122034819D02*
X78936191Y-121987200D01*
X78936191Y-121987200D02*
X78840953Y-121891961D01*
X78840953Y-121891961D02*
X78793334Y-121701485D01*
X78793334Y-121701485D02*
X78793334Y-121368152D01*
X78793334Y-121368152D02*
X78840953Y-121177676D01*
X78840953Y-121177676D02*
X78936191Y-121082438D01*
X78936191Y-121082438D02*
X79031429Y-121034819D01*
X79793334Y-122415771D02*
X79840953Y-122368152D01*
X79840953Y-122368152D02*
X79936191Y-122225295D01*
X79936191Y-122225295D02*
X79983810Y-122130057D01*
X79983810Y-122130057D02*
X80031429Y-121987200D01*
X80031429Y-121987200D02*
X80079048Y-121749104D01*
X80079048Y-121749104D02*
X80079048Y-121558628D01*
X80079048Y-121558628D02*
X80031429Y-121320533D01*
X80031429Y-121320533D02*
X79983810Y-121177676D01*
X79983810Y-121177676D02*
X79936191Y-121082438D01*
X79936191Y-121082438D02*
X79840953Y-120939580D01*
X79840953Y-120939580D02*
X79793334Y-120891961D01*
X72876666Y-110761009D02*
X72543333Y-110761009D01*
X72543333Y-111284819D02*
X72543333Y-110284819D01*
X72543333Y-110284819D02*
X73019523Y-110284819D01*
X73924285Y-111284819D02*
X73352857Y-111284819D01*
X73638571Y-111284819D02*
X73638571Y-110284819D01*
X73638571Y-110284819D02*
X73543333Y-110427676D01*
X73543333Y-110427676D02*
X73448095Y-110522914D01*
X73448095Y-110522914D02*
X73352857Y-110570533D01*
X65322380Y-45884819D02*
X64750952Y-45884819D01*
X65036666Y-45884819D02*
X65036666Y-44884819D01*
X65036666Y-44884819D02*
X64941428Y-45027676D01*
X64941428Y-45027676D02*
X64846190Y-45122914D01*
X64846190Y-45122914D02*
X64750952Y-45170533D01*
X65941428Y-44884819D02*
X66036666Y-44884819D01*
X66036666Y-44884819D02*
X66131904Y-44932438D01*
X66131904Y-44932438D02*
X66179523Y-44980057D01*
X66179523Y-44980057D02*
X66227142Y-45075295D01*
X66227142Y-45075295D02*
X66274761Y-45265771D01*
X66274761Y-45265771D02*
X66274761Y-45503866D01*
X66274761Y-45503866D02*
X66227142Y-45694342D01*
X66227142Y-45694342D02*
X66179523Y-45789580D01*
X66179523Y-45789580D02*
X66131904Y-45837200D01*
X66131904Y-45837200D02*
X66036666Y-45884819D01*
X66036666Y-45884819D02*
X65941428Y-45884819D01*
X65941428Y-45884819D02*
X65846190Y-45837200D01*
X65846190Y-45837200D02*
X65798571Y-45789580D01*
X65798571Y-45789580D02*
X65750952Y-45694342D01*
X65750952Y-45694342D02*
X65703333Y-45503866D01*
X65703333Y-45503866D02*
X65703333Y-45265771D01*
X65703333Y-45265771D02*
X65750952Y-45075295D01*
X65750952Y-45075295D02*
X65798571Y-44980057D01*
X65798571Y-44980057D02*
X65846190Y-44932438D01*
X65846190Y-44932438D02*
X65941428Y-44884819D01*
X66893809Y-44884819D02*
X66989047Y-44884819D01*
X66989047Y-44884819D02*
X67084285Y-44932438D01*
X67084285Y-44932438D02*
X67131904Y-44980057D01*
X67131904Y-44980057D02*
X67179523Y-45075295D01*
X67179523Y-45075295D02*
X67227142Y-45265771D01*
X67227142Y-45265771D02*
X67227142Y-45503866D01*
X67227142Y-45503866D02*
X67179523Y-45694342D01*
X67179523Y-45694342D02*
X67131904Y-45789580D01*
X67131904Y-45789580D02*
X67084285Y-45837200D01*
X67084285Y-45837200D02*
X66989047Y-45884819D01*
X66989047Y-45884819D02*
X66893809Y-45884819D01*
X66893809Y-45884819D02*
X66798571Y-45837200D01*
X66798571Y-45837200D02*
X66750952Y-45789580D01*
X66750952Y-45789580D02*
X66703333Y-45694342D01*
X66703333Y-45694342D02*
X66655714Y-45503866D01*
X66655714Y-45503866D02*
X66655714Y-45265771D01*
X66655714Y-45265771D02*
X66703333Y-45075295D01*
X66703333Y-45075295D02*
X66750952Y-44980057D01*
X66750952Y-44980057D02*
X66798571Y-44932438D01*
X66798571Y-44932438D02*
X66893809Y-44884819D01*
X67655714Y-45218152D02*
X67655714Y-45884819D01*
X67655714Y-45313390D02*
X67703333Y-45265771D01*
X67703333Y-45265771D02*
X67798571Y-45218152D01*
X67798571Y-45218152D02*
X67941428Y-45218152D01*
X67941428Y-45218152D02*
X68036666Y-45265771D01*
X68036666Y-45265771D02*
X68084285Y-45361009D01*
X68084285Y-45361009D02*
X68084285Y-45884819D01*
X68893809Y-45361009D02*
X68560476Y-45361009D01*
X68560476Y-45884819D02*
X68560476Y-44884819D01*
X68560476Y-44884819D02*
X69036666Y-44884819D01*
X66703333Y-43289580D02*
X66655714Y-43337200D01*
X66655714Y-43337200D02*
X66512857Y-43384819D01*
X66512857Y-43384819D02*
X66417619Y-43384819D01*
X66417619Y-43384819D02*
X66274762Y-43337200D01*
X66274762Y-43337200D02*
X66179524Y-43241961D01*
X66179524Y-43241961D02*
X66131905Y-43146723D01*
X66131905Y-43146723D02*
X66084286Y-42956247D01*
X66084286Y-42956247D02*
X66084286Y-42813390D01*
X66084286Y-42813390D02*
X66131905Y-42622914D01*
X66131905Y-42622914D02*
X66179524Y-42527676D01*
X66179524Y-42527676D02*
X66274762Y-42432438D01*
X66274762Y-42432438D02*
X66417619Y-42384819D01*
X66417619Y-42384819D02*
X66512857Y-42384819D01*
X66512857Y-42384819D02*
X66655714Y-42432438D01*
X66655714Y-42432438D02*
X66703333Y-42480057D01*
X67560476Y-42384819D02*
X67370000Y-42384819D01*
X67370000Y-42384819D02*
X67274762Y-42432438D01*
X67274762Y-42432438D02*
X67227143Y-42480057D01*
X67227143Y-42480057D02*
X67131905Y-42622914D01*
X67131905Y-42622914D02*
X67084286Y-42813390D01*
X67084286Y-42813390D02*
X67084286Y-43194342D01*
X67084286Y-43194342D02*
X67131905Y-43289580D01*
X67131905Y-43289580D02*
X67179524Y-43337200D01*
X67179524Y-43337200D02*
X67274762Y-43384819D01*
X67274762Y-43384819D02*
X67465238Y-43384819D01*
X67465238Y-43384819D02*
X67560476Y-43337200D01*
X67560476Y-43337200D02*
X67608095Y-43289580D01*
X67608095Y-43289580D02*
X67655714Y-43194342D01*
X67655714Y-43194342D02*
X67655714Y-42956247D01*
X67655714Y-42956247D02*
X67608095Y-42861009D01*
X67608095Y-42861009D02*
X67560476Y-42813390D01*
X67560476Y-42813390D02*
X67465238Y-42765771D01*
X67465238Y-42765771D02*
X67274762Y-42765771D01*
X67274762Y-42765771D02*
X67179524Y-42813390D01*
X67179524Y-42813390D02*
X67131905Y-42861009D01*
X67131905Y-42861009D02*
X67084286Y-42956247D01*
X77303333Y-53334819D02*
X76827143Y-53334819D01*
X76827143Y-53334819D02*
X76827143Y-52334819D01*
X77636667Y-53334819D02*
X77636667Y-52334819D01*
X77636667Y-52334819D02*
X77970000Y-53049104D01*
X77970000Y-53049104D02*
X78303333Y-52334819D01*
X78303333Y-52334819D02*
X78303333Y-53334819D01*
X78684286Y-52334819D02*
X79350952Y-52334819D01*
X79350952Y-52334819D02*
X78922381Y-53334819D01*
X79874762Y-52763390D02*
X79779524Y-52715771D01*
X79779524Y-52715771D02*
X79731905Y-52668152D01*
X79731905Y-52668152D02*
X79684286Y-52572914D01*
X79684286Y-52572914D02*
X79684286Y-52525295D01*
X79684286Y-52525295D02*
X79731905Y-52430057D01*
X79731905Y-52430057D02*
X79779524Y-52382438D01*
X79779524Y-52382438D02*
X79874762Y-52334819D01*
X79874762Y-52334819D02*
X80065238Y-52334819D01*
X80065238Y-52334819D02*
X80160476Y-52382438D01*
X80160476Y-52382438D02*
X80208095Y-52430057D01*
X80208095Y-52430057D02*
X80255714Y-52525295D01*
X80255714Y-52525295D02*
X80255714Y-52572914D01*
X80255714Y-52572914D02*
X80208095Y-52668152D01*
X80208095Y-52668152D02*
X80160476Y-52715771D01*
X80160476Y-52715771D02*
X80065238Y-52763390D01*
X80065238Y-52763390D02*
X79874762Y-52763390D01*
X79874762Y-52763390D02*
X79779524Y-52811009D01*
X79779524Y-52811009D02*
X79731905Y-52858628D01*
X79731905Y-52858628D02*
X79684286Y-52953866D01*
X79684286Y-52953866D02*
X79684286Y-53144342D01*
X79684286Y-53144342D02*
X79731905Y-53239580D01*
X79731905Y-53239580D02*
X79779524Y-53287200D01*
X79779524Y-53287200D02*
X79874762Y-53334819D01*
X79874762Y-53334819D02*
X80065238Y-53334819D01*
X80065238Y-53334819D02*
X80160476Y-53287200D01*
X80160476Y-53287200D02*
X80208095Y-53239580D01*
X80208095Y-53239580D02*
X80255714Y-53144342D01*
X80255714Y-53144342D02*
X80255714Y-52953866D01*
X80255714Y-52953866D02*
X80208095Y-52858628D01*
X80208095Y-52858628D02*
X80160476Y-52811009D01*
X80160476Y-52811009D02*
X80065238Y-52763390D01*
X81208095Y-53334819D02*
X80636667Y-53334819D01*
X80922381Y-53334819D02*
X80922381Y-52334819D01*
X80922381Y-52334819D02*
X80827143Y-52477676D01*
X80827143Y-52477676D02*
X80731905Y-52572914D01*
X80731905Y-52572914D02*
X80636667Y-52620533D01*
X81589048Y-52430057D02*
X81636667Y-52382438D01*
X81636667Y-52382438D02*
X81731905Y-52334819D01*
X81731905Y-52334819D02*
X81970000Y-52334819D01*
X81970000Y-52334819D02*
X82065238Y-52382438D01*
X82065238Y-52382438D02*
X82112857Y-52430057D01*
X82112857Y-52430057D02*
X82160476Y-52525295D01*
X82160476Y-52525295D02*
X82160476Y-52620533D01*
X82160476Y-52620533D02*
X82112857Y-52763390D01*
X82112857Y-52763390D02*
X81541429Y-53334819D01*
X81541429Y-53334819D02*
X82160476Y-53334819D01*
X78708095Y-49184819D02*
X78708095Y-49994342D01*
X78708095Y-49994342D02*
X78755714Y-50089580D01*
X78755714Y-50089580D02*
X78803333Y-50137200D01*
X78803333Y-50137200D02*
X78898571Y-50184819D01*
X78898571Y-50184819D02*
X79089047Y-50184819D01*
X79089047Y-50184819D02*
X79184285Y-50137200D01*
X79184285Y-50137200D02*
X79231904Y-50089580D01*
X79231904Y-50089580D02*
X79279523Y-49994342D01*
X79279523Y-49994342D02*
X79279523Y-49184819D01*
X79660476Y-49184819D02*
X80279523Y-49184819D01*
X80279523Y-49184819D02*
X79946190Y-49565771D01*
X79946190Y-49565771D02*
X80089047Y-49565771D01*
X80089047Y-49565771D02*
X80184285Y-49613390D01*
X80184285Y-49613390D02*
X80231904Y-49661009D01*
X80231904Y-49661009D02*
X80279523Y-49756247D01*
X80279523Y-49756247D02*
X80279523Y-49994342D01*
X80279523Y-49994342D02*
X80231904Y-50089580D01*
X80231904Y-50089580D02*
X80184285Y-50137200D01*
X80184285Y-50137200D02*
X80089047Y-50184819D01*
X80089047Y-50184819D02*
X79803333Y-50184819D01*
X79803333Y-50184819D02*
X79708095Y-50137200D01*
X79708095Y-50137200D02*
X79660476Y-50089580D01*
X45108095Y-93704819D02*
X44536667Y-93704819D01*
X44822381Y-93704819D02*
X44822381Y-92704819D01*
X44822381Y-92704819D02*
X44727143Y-92847676D01*
X44727143Y-92847676D02*
X44631905Y-92942914D01*
X44631905Y-92942914D02*
X44536667Y-92990533D01*
X45536667Y-93609580D02*
X45584286Y-93657200D01*
X45584286Y-93657200D02*
X45536667Y-93704819D01*
X45536667Y-93704819D02*
X45489048Y-93657200D01*
X45489048Y-93657200D02*
X45536667Y-93609580D01*
X45536667Y-93609580D02*
X45536667Y-93704819D01*
X46489047Y-92704819D02*
X46012857Y-92704819D01*
X46012857Y-92704819D02*
X45965238Y-93181009D01*
X45965238Y-93181009D02*
X46012857Y-93133390D01*
X46012857Y-93133390D02*
X46108095Y-93085771D01*
X46108095Y-93085771D02*
X46346190Y-93085771D01*
X46346190Y-93085771D02*
X46441428Y-93133390D01*
X46441428Y-93133390D02*
X46489047Y-93181009D01*
X46489047Y-93181009D02*
X46536666Y-93276247D01*
X46536666Y-93276247D02*
X46536666Y-93514342D01*
X46536666Y-93514342D02*
X46489047Y-93609580D01*
X46489047Y-93609580D02*
X46441428Y-93657200D01*
X46441428Y-93657200D02*
X46346190Y-93704819D01*
X46346190Y-93704819D02*
X46108095Y-93704819D01*
X46108095Y-93704819D02*
X46012857Y-93657200D01*
X46012857Y-93657200D02*
X45965238Y-93609580D01*
X46965238Y-93704819D02*
X46965238Y-92704819D01*
X47536666Y-93704819D02*
X47108095Y-93133390D01*
X47536666Y-92704819D02*
X46965238Y-93276247D01*
X47965238Y-93181009D02*
X48298571Y-93181009D01*
X48441428Y-93704819D02*
X47965238Y-93704819D01*
X47965238Y-93704819D02*
X47965238Y-92704819D01*
X47965238Y-92704819D02*
X48441428Y-92704819D01*
X48774762Y-92704819D02*
X49393809Y-92704819D01*
X49393809Y-92704819D02*
X49060476Y-93085771D01*
X49060476Y-93085771D02*
X49203333Y-93085771D01*
X49203333Y-93085771D02*
X49298571Y-93133390D01*
X49298571Y-93133390D02*
X49346190Y-93181009D01*
X49346190Y-93181009D02*
X49393809Y-93276247D01*
X49393809Y-93276247D02*
X49393809Y-93514342D01*
X49393809Y-93514342D02*
X49346190Y-93609580D01*
X49346190Y-93609580D02*
X49298571Y-93657200D01*
X49298571Y-93657200D02*
X49203333Y-93704819D01*
X49203333Y-93704819D02*
X48917619Y-93704819D01*
X48917619Y-93704819D02*
X48822381Y-93657200D01*
X48822381Y-93657200D02*
X48774762Y-93609580D01*
X50250952Y-92704819D02*
X50060476Y-92704819D01*
X50060476Y-92704819D02*
X49965238Y-92752438D01*
X49965238Y-92752438D02*
X49917619Y-92800057D01*
X49917619Y-92800057D02*
X49822381Y-92942914D01*
X49822381Y-92942914D02*
X49774762Y-93133390D01*
X49774762Y-93133390D02*
X49774762Y-93514342D01*
X49774762Y-93514342D02*
X49822381Y-93609580D01*
X49822381Y-93609580D02*
X49870000Y-93657200D01*
X49870000Y-93657200D02*
X49965238Y-93704819D01*
X49965238Y-93704819D02*
X50155714Y-93704819D01*
X50155714Y-93704819D02*
X50250952Y-93657200D01*
X50250952Y-93657200D02*
X50298571Y-93609580D01*
X50298571Y-93609580D02*
X50346190Y-93514342D01*
X50346190Y-93514342D02*
X50346190Y-93276247D01*
X50346190Y-93276247D02*
X50298571Y-93181009D01*
X50298571Y-93181009D02*
X50250952Y-93133390D01*
X50250952Y-93133390D02*
X50155714Y-93085771D01*
X50155714Y-93085771D02*
X49965238Y-93085771D01*
X49965238Y-93085771D02*
X49870000Y-93133390D01*
X49870000Y-93133390D02*
X49822381Y-93181009D01*
X49822381Y-93181009D02*
X49774762Y-93276247D01*
X50727143Y-93419104D02*
X51203333Y-93419104D01*
X50631905Y-93704819D02*
X50965238Y-92704819D01*
X50965238Y-92704819D02*
X51298571Y-93704819D01*
X39988095Y-87384819D02*
X39988095Y-86384819D01*
X40559523Y-87384819D02*
X40130952Y-86813390D01*
X40559523Y-86384819D02*
X39988095Y-86956247D01*
X47844405Y-89984819D02*
X47844405Y-88984819D01*
X47844405Y-88984819D02*
X48082500Y-88984819D01*
X48082500Y-88984819D02*
X48225357Y-89032438D01*
X48225357Y-89032438D02*
X48320595Y-89127676D01*
X48320595Y-89127676D02*
X48368214Y-89222914D01*
X48368214Y-89222914D02*
X48415833Y-89413390D01*
X48415833Y-89413390D02*
X48415833Y-89556247D01*
X48415833Y-89556247D02*
X48368214Y-89746723D01*
X48368214Y-89746723D02*
X48320595Y-89841961D01*
X48320595Y-89841961D02*
X48225357Y-89937200D01*
X48225357Y-89937200D02*
X48082500Y-89984819D01*
X48082500Y-89984819D02*
X47844405Y-89984819D01*
X49272976Y-89318152D02*
X49272976Y-89984819D01*
X49034881Y-88937200D02*
X48796786Y-89651485D01*
X48796786Y-89651485D02*
X49415833Y-89651485D01*
X41903333Y-99554819D02*
X41331905Y-99554819D01*
X41617619Y-99554819D02*
X41617619Y-98554819D01*
X41617619Y-98554819D02*
X41522381Y-98697676D01*
X41522381Y-98697676D02*
X41427143Y-98792914D01*
X41427143Y-98792914D02*
X41331905Y-98840533D01*
X42522381Y-98554819D02*
X42617619Y-98554819D01*
X42617619Y-98554819D02*
X42712857Y-98602438D01*
X42712857Y-98602438D02*
X42760476Y-98650057D01*
X42760476Y-98650057D02*
X42808095Y-98745295D01*
X42808095Y-98745295D02*
X42855714Y-98935771D01*
X42855714Y-98935771D02*
X42855714Y-99173866D01*
X42855714Y-99173866D02*
X42808095Y-99364342D01*
X42808095Y-99364342D02*
X42760476Y-99459580D01*
X42760476Y-99459580D02*
X42712857Y-99507200D01*
X42712857Y-99507200D02*
X42617619Y-99554819D01*
X42617619Y-99554819D02*
X42522381Y-99554819D01*
X42522381Y-99554819D02*
X42427143Y-99507200D01*
X42427143Y-99507200D02*
X42379524Y-99459580D01*
X42379524Y-99459580D02*
X42331905Y-99364342D01*
X42331905Y-99364342D02*
X42284286Y-99173866D01*
X42284286Y-99173866D02*
X42284286Y-98935771D01*
X42284286Y-98935771D02*
X42331905Y-98745295D01*
X42331905Y-98745295D02*
X42379524Y-98650057D01*
X42379524Y-98650057D02*
X42427143Y-98602438D01*
X42427143Y-98602438D02*
X42522381Y-98554819D01*
X43474762Y-98554819D02*
X43570000Y-98554819D01*
X43570000Y-98554819D02*
X43665238Y-98602438D01*
X43665238Y-98602438D02*
X43712857Y-98650057D01*
X43712857Y-98650057D02*
X43760476Y-98745295D01*
X43760476Y-98745295D02*
X43808095Y-98935771D01*
X43808095Y-98935771D02*
X43808095Y-99173866D01*
X43808095Y-99173866D02*
X43760476Y-99364342D01*
X43760476Y-99364342D02*
X43712857Y-99459580D01*
X43712857Y-99459580D02*
X43665238Y-99507200D01*
X43665238Y-99507200D02*
X43570000Y-99554819D01*
X43570000Y-99554819D02*
X43474762Y-99554819D01*
X43474762Y-99554819D02*
X43379524Y-99507200D01*
X43379524Y-99507200D02*
X43331905Y-99459580D01*
X43331905Y-99459580D02*
X43284286Y-99364342D01*
X43284286Y-99364342D02*
X43236667Y-99173866D01*
X43236667Y-99173866D02*
X43236667Y-98935771D01*
X43236667Y-98935771D02*
X43284286Y-98745295D01*
X43284286Y-98745295D02*
X43331905Y-98650057D01*
X43331905Y-98650057D02*
X43379524Y-98602438D01*
X43379524Y-98602438D02*
X43474762Y-98554819D01*
X42403333Y-97184819D02*
X42070000Y-96708628D01*
X41831905Y-97184819D02*
X41831905Y-96184819D01*
X41831905Y-96184819D02*
X42212857Y-96184819D01*
X42212857Y-96184819D02*
X42308095Y-96232438D01*
X42308095Y-96232438D02*
X42355714Y-96280057D01*
X42355714Y-96280057D02*
X42403333Y-96375295D01*
X42403333Y-96375295D02*
X42403333Y-96518152D01*
X42403333Y-96518152D02*
X42355714Y-96613390D01*
X42355714Y-96613390D02*
X42308095Y-96661009D01*
X42308095Y-96661009D02*
X42212857Y-96708628D01*
X42212857Y-96708628D02*
X41831905Y-96708628D01*
X43308095Y-96184819D02*
X42831905Y-96184819D01*
X42831905Y-96184819D02*
X42784286Y-96661009D01*
X42784286Y-96661009D02*
X42831905Y-96613390D01*
X42831905Y-96613390D02*
X42927143Y-96565771D01*
X42927143Y-96565771D02*
X43165238Y-96565771D01*
X43165238Y-96565771D02*
X43260476Y-96613390D01*
X43260476Y-96613390D02*
X43308095Y-96661009D01*
X43308095Y-96661009D02*
X43355714Y-96756247D01*
X43355714Y-96756247D02*
X43355714Y-96994342D01*
X43355714Y-96994342D02*
X43308095Y-97089580D01*
X43308095Y-97089580D02*
X43260476Y-97137200D01*
X43260476Y-97137200D02*
X43165238Y-97184819D01*
X43165238Y-97184819D02*
X42927143Y-97184819D01*
X42927143Y-97184819D02*
X42831905Y-97137200D01*
X42831905Y-97137200D02*
X42784286Y-97089580D01*
X54474761Y-99554819D02*
X53903333Y-99554819D01*
X54189047Y-99554819D02*
X54189047Y-98554819D01*
X54189047Y-98554819D02*
X54093809Y-98697676D01*
X54093809Y-98697676D02*
X53998571Y-98792914D01*
X53998571Y-98792914D02*
X53903333Y-98840533D01*
X55093809Y-98554819D02*
X55189047Y-98554819D01*
X55189047Y-98554819D02*
X55284285Y-98602438D01*
X55284285Y-98602438D02*
X55331904Y-98650057D01*
X55331904Y-98650057D02*
X55379523Y-98745295D01*
X55379523Y-98745295D02*
X55427142Y-98935771D01*
X55427142Y-98935771D02*
X55427142Y-99173866D01*
X55427142Y-99173866D02*
X55379523Y-99364342D01*
X55379523Y-99364342D02*
X55331904Y-99459580D01*
X55331904Y-99459580D02*
X55284285Y-99507200D01*
X55284285Y-99507200D02*
X55189047Y-99554819D01*
X55189047Y-99554819D02*
X55093809Y-99554819D01*
X55093809Y-99554819D02*
X54998571Y-99507200D01*
X54998571Y-99507200D02*
X54950952Y-99459580D01*
X54950952Y-99459580D02*
X54903333Y-99364342D01*
X54903333Y-99364342D02*
X54855714Y-99173866D01*
X54855714Y-99173866D02*
X54855714Y-98935771D01*
X54855714Y-98935771D02*
X54903333Y-98745295D01*
X54903333Y-98745295D02*
X54950952Y-98650057D01*
X54950952Y-98650057D02*
X54998571Y-98602438D01*
X54998571Y-98602438D02*
X55093809Y-98554819D01*
X55855714Y-99554819D02*
X55855714Y-98554819D01*
X55950952Y-99173866D02*
X56236666Y-99554819D01*
X56236666Y-98888152D02*
X55855714Y-99269104D01*
X54903333Y-97184819D02*
X54570000Y-96708628D01*
X54331905Y-97184819D02*
X54331905Y-96184819D01*
X54331905Y-96184819D02*
X54712857Y-96184819D01*
X54712857Y-96184819D02*
X54808095Y-96232438D01*
X54808095Y-96232438D02*
X54855714Y-96280057D01*
X54855714Y-96280057D02*
X54903333Y-96375295D01*
X54903333Y-96375295D02*
X54903333Y-96518152D01*
X54903333Y-96518152D02*
X54855714Y-96613390D01*
X54855714Y-96613390D02*
X54808095Y-96661009D01*
X54808095Y-96661009D02*
X54712857Y-96708628D01*
X54712857Y-96708628D02*
X54331905Y-96708628D01*
X55760476Y-96184819D02*
X55570000Y-96184819D01*
X55570000Y-96184819D02*
X55474762Y-96232438D01*
X55474762Y-96232438D02*
X55427143Y-96280057D01*
X55427143Y-96280057D02*
X55331905Y-96422914D01*
X55331905Y-96422914D02*
X55284286Y-96613390D01*
X55284286Y-96613390D02*
X55284286Y-96994342D01*
X55284286Y-96994342D02*
X55331905Y-97089580D01*
X55331905Y-97089580D02*
X55379524Y-97137200D01*
X55379524Y-97137200D02*
X55474762Y-97184819D01*
X55474762Y-97184819D02*
X55665238Y-97184819D01*
X55665238Y-97184819D02*
X55760476Y-97137200D01*
X55760476Y-97137200D02*
X55808095Y-97089580D01*
X55808095Y-97089580D02*
X55855714Y-96994342D01*
X55855714Y-96994342D02*
X55855714Y-96756247D01*
X55855714Y-96756247D02*
X55808095Y-96661009D01*
X55808095Y-96661009D02*
X55760476Y-96613390D01*
X55760476Y-96613390D02*
X55665238Y-96565771D01*
X55665238Y-96565771D02*
X55474762Y-96565771D01*
X55474762Y-96565771D02*
X55379524Y-96613390D01*
X55379524Y-96613390D02*
X55331905Y-96661009D01*
X55331905Y-96661009D02*
X55284286Y-96756247D01*
X33700057Y-113639524D02*
X33652438Y-113591905D01*
X33652438Y-113591905D02*
X33604819Y-113496667D01*
X33604819Y-113496667D02*
X33604819Y-113258572D01*
X33604819Y-113258572D02*
X33652438Y-113163334D01*
X33652438Y-113163334D02*
X33700057Y-113115715D01*
X33700057Y-113115715D02*
X33795295Y-113068096D01*
X33795295Y-113068096D02*
X33890533Y-113068096D01*
X33890533Y-113068096D02*
X34033390Y-113115715D01*
X34033390Y-113115715D02*
X34604819Y-113687143D01*
X34604819Y-113687143D02*
X34604819Y-113068096D01*
X33938152Y-111877619D02*
X34938152Y-111877619D01*
X33985771Y-111877619D02*
X33938152Y-111782381D01*
X33938152Y-111782381D02*
X33938152Y-111591905D01*
X33938152Y-111591905D02*
X33985771Y-111496667D01*
X33985771Y-111496667D02*
X34033390Y-111449048D01*
X34033390Y-111449048D02*
X34128628Y-111401429D01*
X34128628Y-111401429D02*
X34414342Y-111401429D01*
X34414342Y-111401429D02*
X34509580Y-111449048D01*
X34509580Y-111449048D02*
X34557200Y-111496667D01*
X34557200Y-111496667D02*
X34604819Y-111591905D01*
X34604819Y-111591905D02*
X34604819Y-111782381D01*
X34604819Y-111782381D02*
X34557200Y-111877619D01*
X34604819Y-110830000D02*
X34557200Y-110925238D01*
X34557200Y-110925238D02*
X34509580Y-110972857D01*
X34509580Y-110972857D02*
X34414342Y-111020476D01*
X34414342Y-111020476D02*
X34128628Y-111020476D01*
X34128628Y-111020476D02*
X34033390Y-110972857D01*
X34033390Y-110972857D02*
X33985771Y-110925238D01*
X33985771Y-110925238D02*
X33938152Y-110830000D01*
X33938152Y-110830000D02*
X33938152Y-110687143D01*
X33938152Y-110687143D02*
X33985771Y-110591905D01*
X33985771Y-110591905D02*
X34033390Y-110544286D01*
X34033390Y-110544286D02*
X34128628Y-110496667D01*
X34128628Y-110496667D02*
X34414342Y-110496667D01*
X34414342Y-110496667D02*
X34509580Y-110544286D01*
X34509580Y-110544286D02*
X34557200Y-110591905D01*
X34557200Y-110591905D02*
X34604819Y-110687143D01*
X34604819Y-110687143D02*
X34604819Y-110830000D01*
X34604819Y-109925238D02*
X34557200Y-110020476D01*
X34557200Y-110020476D02*
X34461961Y-110068095D01*
X34461961Y-110068095D02*
X33604819Y-110068095D01*
X34557200Y-108829999D02*
X34604819Y-108734761D01*
X34604819Y-108734761D02*
X34604819Y-108544285D01*
X34604819Y-108544285D02*
X34557200Y-108449047D01*
X34557200Y-108449047D02*
X34461961Y-108401428D01*
X34461961Y-108401428D02*
X34414342Y-108401428D01*
X34414342Y-108401428D02*
X34319104Y-108449047D01*
X34319104Y-108449047D02*
X34271485Y-108544285D01*
X34271485Y-108544285D02*
X34271485Y-108687142D01*
X34271485Y-108687142D02*
X34223866Y-108782380D01*
X34223866Y-108782380D02*
X34128628Y-108829999D01*
X34128628Y-108829999D02*
X34081009Y-108829999D01*
X34081009Y-108829999D02*
X33985771Y-108782380D01*
X33985771Y-108782380D02*
X33938152Y-108687142D01*
X33938152Y-108687142D02*
X33938152Y-108544285D01*
X33938152Y-108544285D02*
X33985771Y-108449047D01*
X34604819Y-107972856D02*
X33604819Y-107972856D01*
X34223866Y-107877618D02*
X34604819Y-107591904D01*
X33938152Y-107591904D02*
X34319104Y-107972856D01*
X34604819Y-107163332D02*
X33938152Y-107163332D01*
X34128628Y-107163332D02*
X34033390Y-107115713D01*
X34033390Y-107115713D02*
X33985771Y-107068094D01*
X33985771Y-107068094D02*
X33938152Y-106972856D01*
X33938152Y-106972856D02*
X33938152Y-106877618D01*
X33938152Y-106115713D02*
X34604819Y-106115713D01*
X33938152Y-106544284D02*
X34461961Y-106544284D01*
X34461961Y-106544284D02*
X34557200Y-106496665D01*
X34557200Y-106496665D02*
X34604819Y-106401427D01*
X34604819Y-106401427D02*
X34604819Y-106258570D01*
X34604819Y-106258570D02*
X34557200Y-106163332D01*
X34557200Y-106163332D02*
X34509580Y-106115713D01*
X34557200Y-105258570D02*
X34604819Y-105353808D01*
X34604819Y-105353808D02*
X34604819Y-105544284D01*
X34604819Y-105544284D02*
X34557200Y-105639522D01*
X34557200Y-105639522D02*
X34461961Y-105687141D01*
X34461961Y-105687141D02*
X34081009Y-105687141D01*
X34081009Y-105687141D02*
X33985771Y-105639522D01*
X33985771Y-105639522D02*
X33938152Y-105544284D01*
X33938152Y-105544284D02*
X33938152Y-105353808D01*
X33938152Y-105353808D02*
X33985771Y-105258570D01*
X33985771Y-105258570D02*
X34081009Y-105210951D01*
X34081009Y-105210951D02*
X34176247Y-105210951D01*
X34176247Y-105210951D02*
X34271485Y-105687141D01*
X33938152Y-104925236D02*
X33938152Y-104544284D01*
X33604819Y-104782379D02*
X34461961Y-104782379D01*
X34461961Y-104782379D02*
X34557200Y-104734760D01*
X34557200Y-104734760D02*
X34604819Y-104639522D01*
X34604819Y-104639522D02*
X34604819Y-104544284D01*
X34557200Y-103829998D02*
X34604819Y-103925236D01*
X34604819Y-103925236D02*
X34604819Y-104115712D01*
X34604819Y-104115712D02*
X34557200Y-104210950D01*
X34557200Y-104210950D02*
X34461961Y-104258569D01*
X34461961Y-104258569D02*
X34081009Y-104258569D01*
X34081009Y-104258569D02*
X33985771Y-104210950D01*
X33985771Y-104210950D02*
X33938152Y-104115712D01*
X33938152Y-104115712D02*
X33938152Y-103925236D01*
X33938152Y-103925236D02*
X33985771Y-103829998D01*
X33985771Y-103829998D02*
X34081009Y-103782379D01*
X34081009Y-103782379D02*
X34176247Y-103782379D01*
X34176247Y-103782379D02*
X34271485Y-104258569D01*
X34604819Y-103353807D02*
X33938152Y-103353807D01*
X34128628Y-103353807D02*
X34033390Y-103306188D01*
X34033390Y-103306188D02*
X33985771Y-103258569D01*
X33985771Y-103258569D02*
X33938152Y-103163331D01*
X33938152Y-103163331D02*
X33938152Y-103068093D01*
X34604819Y-102734759D02*
X33938152Y-102734759D01*
X34033390Y-102734759D02*
X33985771Y-102687140D01*
X33985771Y-102687140D02*
X33938152Y-102591902D01*
X33938152Y-102591902D02*
X33938152Y-102449045D01*
X33938152Y-102449045D02*
X33985771Y-102353807D01*
X33985771Y-102353807D02*
X34081009Y-102306188D01*
X34081009Y-102306188D02*
X34604819Y-102306188D01*
X34081009Y-102306188D02*
X33985771Y-102258569D01*
X33985771Y-102258569D02*
X33938152Y-102163331D01*
X33938152Y-102163331D02*
X33938152Y-102020474D01*
X33938152Y-102020474D02*
X33985771Y-101925235D01*
X33985771Y-101925235D02*
X34081009Y-101877616D01*
X34081009Y-101877616D02*
X34604819Y-101877616D01*
X34604819Y-101401426D02*
X33938152Y-101401426D01*
X33604819Y-101401426D02*
X33652438Y-101449045D01*
X33652438Y-101449045D02*
X33700057Y-101401426D01*
X33700057Y-101401426D02*
X33652438Y-101353807D01*
X33652438Y-101353807D02*
X33604819Y-101401426D01*
X33604819Y-101401426D02*
X33700057Y-101401426D01*
X33938152Y-100925236D02*
X34604819Y-100925236D01*
X34033390Y-100925236D02*
X33985771Y-100877617D01*
X33985771Y-100877617D02*
X33938152Y-100782379D01*
X33938152Y-100782379D02*
X33938152Y-100639522D01*
X33938152Y-100639522D02*
X33985771Y-100544284D01*
X33985771Y-100544284D02*
X34081009Y-100496665D01*
X34081009Y-100496665D02*
X34604819Y-100496665D01*
X34604819Y-99591903D02*
X34081009Y-99591903D01*
X34081009Y-99591903D02*
X33985771Y-99639522D01*
X33985771Y-99639522D02*
X33938152Y-99734760D01*
X33938152Y-99734760D02*
X33938152Y-99925236D01*
X33938152Y-99925236D02*
X33985771Y-100020474D01*
X34557200Y-99591903D02*
X34604819Y-99687141D01*
X34604819Y-99687141D02*
X34604819Y-99925236D01*
X34604819Y-99925236D02*
X34557200Y-100020474D01*
X34557200Y-100020474D02*
X34461961Y-100068093D01*
X34461961Y-100068093D02*
X34366723Y-100068093D01*
X34366723Y-100068093D02*
X34271485Y-100020474D01*
X34271485Y-100020474D02*
X34223866Y-99925236D01*
X34223866Y-99925236D02*
X34223866Y-99687141D01*
X34223866Y-99687141D02*
X34176247Y-99591903D01*
X34604819Y-98972855D02*
X34557200Y-99068093D01*
X34557200Y-99068093D02*
X34461961Y-99115712D01*
X34461961Y-99115712D02*
X33604819Y-99115712D01*
X28524819Y-106663333D02*
X29239104Y-106663333D01*
X29239104Y-106663333D02*
X29381961Y-106710952D01*
X29381961Y-106710952D02*
X29477200Y-106806190D01*
X29477200Y-106806190D02*
X29524819Y-106949047D01*
X29524819Y-106949047D02*
X29524819Y-107044285D01*
X29524819Y-105663333D02*
X29524819Y-106234761D01*
X29524819Y-105949047D02*
X28524819Y-105949047D01*
X28524819Y-105949047D02*
X28667676Y-106044285D01*
X28667676Y-106044285D02*
X28762914Y-106139523D01*
X28762914Y-106139523D02*
X28810533Y-106234761D01*
X62936666Y-92126009D02*
X63079523Y-92173628D01*
X63079523Y-92173628D02*
X63127142Y-92221247D01*
X63127142Y-92221247D02*
X63174761Y-92316485D01*
X63174761Y-92316485D02*
X63174761Y-92459342D01*
X63174761Y-92459342D02*
X63127142Y-92554580D01*
X63127142Y-92554580D02*
X63079523Y-92602200D01*
X63079523Y-92602200D02*
X62984285Y-92649819D01*
X62984285Y-92649819D02*
X62603333Y-92649819D01*
X62603333Y-92649819D02*
X62603333Y-91649819D01*
X62603333Y-91649819D02*
X62936666Y-91649819D01*
X62936666Y-91649819D02*
X63031904Y-91697438D01*
X63031904Y-91697438D02*
X63079523Y-91745057D01*
X63079523Y-91745057D02*
X63127142Y-91840295D01*
X63127142Y-91840295D02*
X63127142Y-91935533D01*
X63127142Y-91935533D02*
X63079523Y-92030771D01*
X63079523Y-92030771D02*
X63031904Y-92078390D01*
X63031904Y-92078390D02*
X62936666Y-92126009D01*
X62936666Y-92126009D02*
X62603333Y-92126009D01*
X63555714Y-92602200D02*
X63698571Y-92649819D01*
X63698571Y-92649819D02*
X63936666Y-92649819D01*
X63936666Y-92649819D02*
X64031904Y-92602200D01*
X64031904Y-92602200D02*
X64079523Y-92554580D01*
X64079523Y-92554580D02*
X64127142Y-92459342D01*
X64127142Y-92459342D02*
X64127142Y-92364104D01*
X64127142Y-92364104D02*
X64079523Y-92268866D01*
X64079523Y-92268866D02*
X64031904Y-92221247D01*
X64031904Y-92221247D02*
X63936666Y-92173628D01*
X63936666Y-92173628D02*
X63746190Y-92126009D01*
X63746190Y-92126009D02*
X63650952Y-92078390D01*
X63650952Y-92078390D02*
X63603333Y-92030771D01*
X63603333Y-92030771D02*
X63555714Y-91935533D01*
X63555714Y-91935533D02*
X63555714Y-91840295D01*
X63555714Y-91840295D02*
X63603333Y-91745057D01*
X63603333Y-91745057D02*
X63650952Y-91697438D01*
X63650952Y-91697438D02*
X63746190Y-91649819D01*
X63746190Y-91649819D02*
X63984285Y-91649819D01*
X63984285Y-91649819D02*
X64127142Y-91697438D01*
X65079523Y-92649819D02*
X64508095Y-92649819D01*
X64793809Y-92649819D02*
X64793809Y-91649819D01*
X64793809Y-91649819D02*
X64698571Y-91792676D01*
X64698571Y-91792676D02*
X64603333Y-91887914D01*
X64603333Y-91887914D02*
X64508095Y-91935533D01*
X65412857Y-91649819D02*
X66079523Y-91649819D01*
X66079523Y-91649819D02*
X65650952Y-92649819D01*
X66650952Y-91649819D02*
X66746190Y-91649819D01*
X66746190Y-91649819D02*
X66841428Y-91697438D01*
X66841428Y-91697438D02*
X66889047Y-91745057D01*
X66889047Y-91745057D02*
X66936666Y-91840295D01*
X66936666Y-91840295D02*
X66984285Y-92030771D01*
X66984285Y-92030771D02*
X66984285Y-92268866D01*
X66984285Y-92268866D02*
X66936666Y-92459342D01*
X66936666Y-92459342D02*
X66889047Y-92554580D01*
X66889047Y-92554580D02*
X66841428Y-92602200D01*
X66841428Y-92602200D02*
X66746190Y-92649819D01*
X66746190Y-92649819D02*
X66650952Y-92649819D01*
X66650952Y-92649819D02*
X66555714Y-92602200D01*
X66555714Y-92602200D02*
X66508095Y-92554580D01*
X66508095Y-92554580D02*
X66460476Y-92459342D01*
X66460476Y-92459342D02*
X66412857Y-92268866D01*
X66412857Y-92268866D02*
X66412857Y-92030771D01*
X66412857Y-92030771D02*
X66460476Y-91840295D01*
X66460476Y-91840295D02*
X66508095Y-91745057D01*
X66508095Y-91745057D02*
X66555714Y-91697438D01*
X66555714Y-91697438D02*
X66650952Y-91649819D01*
X64674761Y-89955057D02*
X64579523Y-89907438D01*
X64579523Y-89907438D02*
X64484285Y-89812200D01*
X64484285Y-89812200D02*
X64341428Y-89669342D01*
X64341428Y-89669342D02*
X64246190Y-89621723D01*
X64246190Y-89621723D02*
X64150952Y-89621723D01*
X64198571Y-89859819D02*
X64103333Y-89812200D01*
X64103333Y-89812200D02*
X64008095Y-89716961D01*
X64008095Y-89716961D02*
X63960476Y-89526485D01*
X63960476Y-89526485D02*
X63960476Y-89193152D01*
X63960476Y-89193152D02*
X64008095Y-89002676D01*
X64008095Y-89002676D02*
X64103333Y-88907438D01*
X64103333Y-88907438D02*
X64198571Y-88859819D01*
X64198571Y-88859819D02*
X64389047Y-88859819D01*
X64389047Y-88859819D02*
X64484285Y-88907438D01*
X64484285Y-88907438D02*
X64579523Y-89002676D01*
X64579523Y-89002676D02*
X64627142Y-89193152D01*
X64627142Y-89193152D02*
X64627142Y-89526485D01*
X64627142Y-89526485D02*
X64579523Y-89716961D01*
X64579523Y-89716961D02*
X64484285Y-89812200D01*
X64484285Y-89812200D02*
X64389047Y-89859819D01*
X64389047Y-89859819D02*
X64198571Y-89859819D01*
X65008095Y-88955057D02*
X65055714Y-88907438D01*
X65055714Y-88907438D02*
X65150952Y-88859819D01*
X65150952Y-88859819D02*
X65389047Y-88859819D01*
X65389047Y-88859819D02*
X65484285Y-88907438D01*
X65484285Y-88907438D02*
X65531904Y-88955057D01*
X65531904Y-88955057D02*
X65579523Y-89050295D01*
X65579523Y-89050295D02*
X65579523Y-89145533D01*
X65579523Y-89145533D02*
X65531904Y-89288390D01*
X65531904Y-89288390D02*
X64960476Y-89859819D01*
X64960476Y-89859819D02*
X65579523Y-89859819D01*
X59474761Y-53334819D02*
X58998571Y-53334819D01*
X58998571Y-53334819D02*
X58998571Y-52334819D01*
X59808095Y-53334819D02*
X59808095Y-52334819D01*
X59808095Y-52334819D02*
X60141428Y-53049104D01*
X60141428Y-53049104D02*
X60474761Y-52334819D01*
X60474761Y-52334819D02*
X60474761Y-53334819D01*
X60903333Y-52430057D02*
X60950952Y-52382438D01*
X60950952Y-52382438D02*
X61046190Y-52334819D01*
X61046190Y-52334819D02*
X61284285Y-52334819D01*
X61284285Y-52334819D02*
X61379523Y-52382438D01*
X61379523Y-52382438D02*
X61427142Y-52430057D01*
X61427142Y-52430057D02*
X61474761Y-52525295D01*
X61474761Y-52525295D02*
X61474761Y-52620533D01*
X61474761Y-52620533D02*
X61427142Y-52763390D01*
X61427142Y-52763390D02*
X60855714Y-53334819D01*
X60855714Y-53334819D02*
X61474761Y-53334819D01*
X62379523Y-52334819D02*
X61903333Y-52334819D01*
X61903333Y-52334819D02*
X61855714Y-52811009D01*
X61855714Y-52811009D02*
X61903333Y-52763390D01*
X61903333Y-52763390D02*
X61998571Y-52715771D01*
X61998571Y-52715771D02*
X62236666Y-52715771D01*
X62236666Y-52715771D02*
X62331904Y-52763390D01*
X62331904Y-52763390D02*
X62379523Y-52811009D01*
X62379523Y-52811009D02*
X62427142Y-52906247D01*
X62427142Y-52906247D02*
X62427142Y-53144342D01*
X62427142Y-53144342D02*
X62379523Y-53239580D01*
X62379523Y-53239580D02*
X62331904Y-53287200D01*
X62331904Y-53287200D02*
X62236666Y-53334819D01*
X62236666Y-53334819D02*
X61998571Y-53334819D01*
X61998571Y-53334819D02*
X61903333Y-53287200D01*
X61903333Y-53287200D02*
X61855714Y-53239580D01*
X62760476Y-52334819D02*
X63427142Y-52334819D01*
X63427142Y-52334819D02*
X62998571Y-53334819D01*
X64284285Y-52334819D02*
X63808095Y-52334819D01*
X63808095Y-52334819D02*
X63760476Y-52811009D01*
X63760476Y-52811009D02*
X63808095Y-52763390D01*
X63808095Y-52763390D02*
X63903333Y-52715771D01*
X63903333Y-52715771D02*
X64141428Y-52715771D01*
X64141428Y-52715771D02*
X64236666Y-52763390D01*
X64236666Y-52763390D02*
X64284285Y-52811009D01*
X64284285Y-52811009D02*
X64331904Y-52906247D01*
X64331904Y-52906247D02*
X64331904Y-53144342D01*
X64331904Y-53144342D02*
X64284285Y-53239580D01*
X64284285Y-53239580D02*
X64236666Y-53287200D01*
X64236666Y-53287200D02*
X64141428Y-53334819D01*
X64141428Y-53334819D02*
X63903333Y-53334819D01*
X63903333Y-53334819D02*
X63808095Y-53287200D01*
X63808095Y-53287200D02*
X63760476Y-53239580D01*
X64760476Y-52953866D02*
X65522381Y-52953866D01*
X65950952Y-53049104D02*
X66427142Y-53049104D01*
X65855714Y-53334819D02*
X66189047Y-52334819D01*
X66189047Y-52334819D02*
X66522380Y-53334819D01*
X66855714Y-53334819D02*
X66855714Y-52334819D01*
X66855714Y-52334819D02*
X67093809Y-52334819D01*
X67093809Y-52334819D02*
X67236666Y-52382438D01*
X67236666Y-52382438D02*
X67331904Y-52477676D01*
X67331904Y-52477676D02*
X67379523Y-52572914D01*
X67379523Y-52572914D02*
X67427142Y-52763390D01*
X67427142Y-52763390D02*
X67427142Y-52906247D01*
X67427142Y-52906247D02*
X67379523Y-53096723D01*
X67379523Y-53096723D02*
X67331904Y-53191961D01*
X67331904Y-53191961D02*
X67236666Y-53287200D01*
X67236666Y-53287200D02*
X67093809Y-53334819D01*
X67093809Y-53334819D02*
X66855714Y-53334819D01*
X68141428Y-52334819D02*
X68141428Y-53049104D01*
X68141428Y-53049104D02*
X68093809Y-53191961D01*
X68093809Y-53191961D02*
X67998571Y-53287200D01*
X67998571Y-53287200D02*
X67855714Y-53334819D01*
X67855714Y-53334819D02*
X67760476Y-53334819D01*
X62808095Y-49184819D02*
X62808095Y-49994342D01*
X62808095Y-49994342D02*
X62855714Y-50089580D01*
X62855714Y-50089580D02*
X62903333Y-50137200D01*
X62903333Y-50137200D02*
X62998571Y-50184819D01*
X62998571Y-50184819D02*
X63189047Y-50184819D01*
X63189047Y-50184819D02*
X63284285Y-50137200D01*
X63284285Y-50137200D02*
X63331904Y-50089580D01*
X63331904Y-50089580D02*
X63379523Y-49994342D01*
X63379523Y-49994342D02*
X63379523Y-49184819D01*
X63808095Y-49280057D02*
X63855714Y-49232438D01*
X63855714Y-49232438D02*
X63950952Y-49184819D01*
X63950952Y-49184819D02*
X64189047Y-49184819D01*
X64189047Y-49184819D02*
X64284285Y-49232438D01*
X64284285Y-49232438D02*
X64331904Y-49280057D01*
X64331904Y-49280057D02*
X64379523Y-49375295D01*
X64379523Y-49375295D02*
X64379523Y-49470533D01*
X64379523Y-49470533D02*
X64331904Y-49613390D01*
X64331904Y-49613390D02*
X63760476Y-50184819D01*
X63760476Y-50184819D02*
X64379523Y-50184819D01*
X72198571Y-82354819D02*
X71627143Y-82354819D01*
X71912857Y-82354819D02*
X71912857Y-81354819D01*
X71912857Y-81354819D02*
X71817619Y-81497676D01*
X71817619Y-81497676D02*
X71722381Y-81592914D01*
X71722381Y-81592914D02*
X71627143Y-81640533D01*
X72627143Y-82354819D02*
X72627143Y-81354819D01*
X72722381Y-81973866D02*
X73008095Y-82354819D01*
X73008095Y-81688152D02*
X72627143Y-82069104D01*
X73627143Y-81354819D02*
X73722381Y-81354819D01*
X73722381Y-81354819D02*
X73817619Y-81402438D01*
X73817619Y-81402438D02*
X73865238Y-81450057D01*
X73865238Y-81450057D02*
X73912857Y-81545295D01*
X73912857Y-81545295D02*
X73960476Y-81735771D01*
X73960476Y-81735771D02*
X73960476Y-81973866D01*
X73960476Y-81973866D02*
X73912857Y-82164342D01*
X73912857Y-82164342D02*
X73865238Y-82259580D01*
X73865238Y-82259580D02*
X73817619Y-82307200D01*
X73817619Y-82307200D02*
X73722381Y-82354819D01*
X73722381Y-82354819D02*
X73627143Y-82354819D01*
X73627143Y-82354819D02*
X73531905Y-82307200D01*
X73531905Y-82307200D02*
X73484286Y-82259580D01*
X73484286Y-82259580D02*
X73436667Y-82164342D01*
X73436667Y-82164342D02*
X73389048Y-81973866D01*
X73389048Y-81973866D02*
X73389048Y-81735771D01*
X73389048Y-81735771D02*
X73436667Y-81545295D01*
X73436667Y-81545295D02*
X73484286Y-81450057D01*
X73484286Y-81450057D02*
X73531905Y-81402438D01*
X73531905Y-81402438D02*
X73627143Y-81354819D01*
X74579524Y-81354819D02*
X74674762Y-81354819D01*
X74674762Y-81354819D02*
X74770000Y-81402438D01*
X74770000Y-81402438D02*
X74817619Y-81450057D01*
X74817619Y-81450057D02*
X74865238Y-81545295D01*
X74865238Y-81545295D02*
X74912857Y-81735771D01*
X74912857Y-81735771D02*
X74912857Y-81973866D01*
X74912857Y-81973866D02*
X74865238Y-82164342D01*
X74865238Y-82164342D02*
X74817619Y-82259580D01*
X74817619Y-82259580D02*
X74770000Y-82307200D01*
X74770000Y-82307200D02*
X74674762Y-82354819D01*
X74674762Y-82354819D02*
X74579524Y-82354819D01*
X74579524Y-82354819D02*
X74484286Y-82307200D01*
X74484286Y-82307200D02*
X74436667Y-82259580D01*
X74436667Y-82259580D02*
X74389048Y-82164342D01*
X74389048Y-82164342D02*
X74341429Y-81973866D01*
X74341429Y-81973866D02*
X74341429Y-81735771D01*
X74341429Y-81735771D02*
X74389048Y-81545295D01*
X74389048Y-81545295D02*
X74436667Y-81450057D01*
X74436667Y-81450057D02*
X74484286Y-81402438D01*
X74484286Y-81402438D02*
X74579524Y-81354819D01*
X73103333Y-79984819D02*
X72770000Y-79508628D01*
X72531905Y-79984819D02*
X72531905Y-78984819D01*
X72531905Y-78984819D02*
X72912857Y-78984819D01*
X72912857Y-78984819D02*
X73008095Y-79032438D01*
X73008095Y-79032438D02*
X73055714Y-79080057D01*
X73055714Y-79080057D02*
X73103333Y-79175295D01*
X73103333Y-79175295D02*
X73103333Y-79318152D01*
X73103333Y-79318152D02*
X73055714Y-79413390D01*
X73055714Y-79413390D02*
X73008095Y-79461009D01*
X73008095Y-79461009D02*
X72912857Y-79508628D01*
X72912857Y-79508628D02*
X72531905Y-79508628D01*
X73674762Y-79413390D02*
X73579524Y-79365771D01*
X73579524Y-79365771D02*
X73531905Y-79318152D01*
X73531905Y-79318152D02*
X73484286Y-79222914D01*
X73484286Y-79222914D02*
X73484286Y-79175295D01*
X73484286Y-79175295D02*
X73531905Y-79080057D01*
X73531905Y-79080057D02*
X73579524Y-79032438D01*
X73579524Y-79032438D02*
X73674762Y-78984819D01*
X73674762Y-78984819D02*
X73865238Y-78984819D01*
X73865238Y-78984819D02*
X73960476Y-79032438D01*
X73960476Y-79032438D02*
X74008095Y-79080057D01*
X74008095Y-79080057D02*
X74055714Y-79175295D01*
X74055714Y-79175295D02*
X74055714Y-79222914D01*
X74055714Y-79222914D02*
X74008095Y-79318152D01*
X74008095Y-79318152D02*
X73960476Y-79365771D01*
X73960476Y-79365771D02*
X73865238Y-79413390D01*
X73865238Y-79413390D02*
X73674762Y-79413390D01*
X73674762Y-79413390D02*
X73579524Y-79461009D01*
X73579524Y-79461009D02*
X73531905Y-79508628D01*
X73531905Y-79508628D02*
X73484286Y-79603866D01*
X73484286Y-79603866D02*
X73484286Y-79794342D01*
X73484286Y-79794342D02*
X73531905Y-79889580D01*
X73531905Y-79889580D02*
X73579524Y-79937200D01*
X73579524Y-79937200D02*
X73674762Y-79984819D01*
X73674762Y-79984819D02*
X73865238Y-79984819D01*
X73865238Y-79984819D02*
X73960476Y-79937200D01*
X73960476Y-79937200D02*
X74008095Y-79889580D01*
X74008095Y-79889580D02*
X74055714Y-79794342D01*
X74055714Y-79794342D02*
X74055714Y-79603866D01*
X74055714Y-79603866D02*
X74008095Y-79508628D01*
X74008095Y-79508628D02*
X73960476Y-79461009D01*
X73960476Y-79461009D02*
X73865238Y-79413390D01*
X58979524Y-81354819D02*
X59598571Y-81354819D01*
X59598571Y-81354819D02*
X59265238Y-81735771D01*
X59265238Y-81735771D02*
X59408095Y-81735771D01*
X59408095Y-81735771D02*
X59503333Y-81783390D01*
X59503333Y-81783390D02*
X59550952Y-81831009D01*
X59550952Y-81831009D02*
X59598571Y-81926247D01*
X59598571Y-81926247D02*
X59598571Y-82164342D01*
X59598571Y-82164342D02*
X59550952Y-82259580D01*
X59550952Y-82259580D02*
X59503333Y-82307200D01*
X59503333Y-82307200D02*
X59408095Y-82354819D01*
X59408095Y-82354819D02*
X59122381Y-82354819D01*
X59122381Y-82354819D02*
X59027143Y-82307200D01*
X59027143Y-82307200D02*
X58979524Y-82259580D01*
X60027143Y-82354819D02*
X60027143Y-81354819D01*
X60122381Y-81973866D02*
X60408095Y-82354819D01*
X60408095Y-81688152D02*
X60027143Y-82069104D01*
X61027143Y-81354819D02*
X61122381Y-81354819D01*
X61122381Y-81354819D02*
X61217619Y-81402438D01*
X61217619Y-81402438D02*
X61265238Y-81450057D01*
X61265238Y-81450057D02*
X61312857Y-81545295D01*
X61312857Y-81545295D02*
X61360476Y-81735771D01*
X61360476Y-81735771D02*
X61360476Y-81973866D01*
X61360476Y-81973866D02*
X61312857Y-82164342D01*
X61312857Y-82164342D02*
X61265238Y-82259580D01*
X61265238Y-82259580D02*
X61217619Y-82307200D01*
X61217619Y-82307200D02*
X61122381Y-82354819D01*
X61122381Y-82354819D02*
X61027143Y-82354819D01*
X61027143Y-82354819D02*
X60931905Y-82307200D01*
X60931905Y-82307200D02*
X60884286Y-82259580D01*
X60884286Y-82259580D02*
X60836667Y-82164342D01*
X60836667Y-82164342D02*
X60789048Y-81973866D01*
X60789048Y-81973866D02*
X60789048Y-81735771D01*
X60789048Y-81735771D02*
X60836667Y-81545295D01*
X60836667Y-81545295D02*
X60884286Y-81450057D01*
X60884286Y-81450057D02*
X60931905Y-81402438D01*
X60931905Y-81402438D02*
X61027143Y-81354819D01*
X61836667Y-82354819D02*
X62027143Y-82354819D01*
X62027143Y-82354819D02*
X62122381Y-82307200D01*
X62122381Y-82307200D02*
X62170000Y-82259580D01*
X62170000Y-82259580D02*
X62265238Y-82116723D01*
X62265238Y-82116723D02*
X62312857Y-81926247D01*
X62312857Y-81926247D02*
X62312857Y-81545295D01*
X62312857Y-81545295D02*
X62265238Y-81450057D01*
X62265238Y-81450057D02*
X62217619Y-81402438D01*
X62217619Y-81402438D02*
X62122381Y-81354819D01*
X62122381Y-81354819D02*
X61931905Y-81354819D01*
X61931905Y-81354819D02*
X61836667Y-81402438D01*
X61836667Y-81402438D02*
X61789048Y-81450057D01*
X61789048Y-81450057D02*
X61741429Y-81545295D01*
X61741429Y-81545295D02*
X61741429Y-81783390D01*
X61741429Y-81783390D02*
X61789048Y-81878628D01*
X61789048Y-81878628D02*
X61836667Y-81926247D01*
X61836667Y-81926247D02*
X61931905Y-81973866D01*
X61931905Y-81973866D02*
X62122381Y-81973866D01*
X62122381Y-81973866D02*
X62217619Y-81926247D01*
X62217619Y-81926247D02*
X62265238Y-81878628D01*
X62265238Y-81878628D02*
X62312857Y-81783390D01*
X60503333Y-79984819D02*
X60170000Y-79508628D01*
X59931905Y-79984819D02*
X59931905Y-78984819D01*
X59931905Y-78984819D02*
X60312857Y-78984819D01*
X60312857Y-78984819D02*
X60408095Y-79032438D01*
X60408095Y-79032438D02*
X60455714Y-79080057D01*
X60455714Y-79080057D02*
X60503333Y-79175295D01*
X60503333Y-79175295D02*
X60503333Y-79318152D01*
X60503333Y-79318152D02*
X60455714Y-79413390D01*
X60455714Y-79413390D02*
X60408095Y-79461009D01*
X60408095Y-79461009D02*
X60312857Y-79508628D01*
X60312857Y-79508628D02*
X59931905Y-79508628D01*
X60836667Y-78984819D02*
X61503333Y-78984819D01*
X61503333Y-78984819D02*
X61074762Y-79984819D01*
X32570000Y-81481009D02*
X32903333Y-81481009D01*
X33046190Y-82004819D02*
X32570000Y-82004819D01*
X32570000Y-82004819D02*
X32570000Y-81004819D01*
X32570000Y-81004819D02*
X33046190Y-81004819D01*
X33427143Y-81957200D02*
X33570000Y-82004819D01*
X33570000Y-82004819D02*
X33808095Y-82004819D01*
X33808095Y-82004819D02*
X33903333Y-81957200D01*
X33903333Y-81957200D02*
X33950952Y-81909580D01*
X33950952Y-81909580D02*
X33998571Y-81814342D01*
X33998571Y-81814342D02*
X33998571Y-81719104D01*
X33998571Y-81719104D02*
X33950952Y-81623866D01*
X33950952Y-81623866D02*
X33903333Y-81576247D01*
X33903333Y-81576247D02*
X33808095Y-81528628D01*
X33808095Y-81528628D02*
X33617619Y-81481009D01*
X33617619Y-81481009D02*
X33522381Y-81433390D01*
X33522381Y-81433390D02*
X33474762Y-81385771D01*
X33474762Y-81385771D02*
X33427143Y-81290533D01*
X33427143Y-81290533D02*
X33427143Y-81195295D01*
X33427143Y-81195295D02*
X33474762Y-81100057D01*
X33474762Y-81100057D02*
X33522381Y-81052438D01*
X33522381Y-81052438D02*
X33617619Y-81004819D01*
X33617619Y-81004819D02*
X33855714Y-81004819D01*
X33855714Y-81004819D02*
X33998571Y-81052438D01*
X34427143Y-82004819D02*
X34427143Y-81004819D01*
X34427143Y-81004819D02*
X34808095Y-81004819D01*
X34808095Y-81004819D02*
X34903333Y-81052438D01*
X34903333Y-81052438D02*
X34950952Y-81100057D01*
X34950952Y-81100057D02*
X34998571Y-81195295D01*
X34998571Y-81195295D02*
X34998571Y-81338152D01*
X34998571Y-81338152D02*
X34950952Y-81433390D01*
X34950952Y-81433390D02*
X34903333Y-81481009D01*
X34903333Y-81481009D02*
X34808095Y-81528628D01*
X34808095Y-81528628D02*
X34427143Y-81528628D01*
X35331905Y-81004819D02*
X35950952Y-81004819D01*
X35950952Y-81004819D02*
X35617619Y-81385771D01*
X35617619Y-81385771D02*
X35760476Y-81385771D01*
X35760476Y-81385771D02*
X35855714Y-81433390D01*
X35855714Y-81433390D02*
X35903333Y-81481009D01*
X35903333Y-81481009D02*
X35950952Y-81576247D01*
X35950952Y-81576247D02*
X35950952Y-81814342D01*
X35950952Y-81814342D02*
X35903333Y-81909580D01*
X35903333Y-81909580D02*
X35855714Y-81957200D01*
X35855714Y-81957200D02*
X35760476Y-82004819D01*
X35760476Y-82004819D02*
X35474762Y-82004819D01*
X35474762Y-82004819D02*
X35379524Y-81957200D01*
X35379524Y-81957200D02*
X35331905Y-81909580D01*
X36331905Y-81100057D02*
X36379524Y-81052438D01*
X36379524Y-81052438D02*
X36474762Y-81004819D01*
X36474762Y-81004819D02*
X36712857Y-81004819D01*
X36712857Y-81004819D02*
X36808095Y-81052438D01*
X36808095Y-81052438D02*
X36855714Y-81100057D01*
X36855714Y-81100057D02*
X36903333Y-81195295D01*
X36903333Y-81195295D02*
X36903333Y-81290533D01*
X36903333Y-81290533D02*
X36855714Y-81433390D01*
X36855714Y-81433390D02*
X36284286Y-82004819D01*
X36284286Y-82004819D02*
X36903333Y-82004819D01*
X37331905Y-81623866D02*
X38093810Y-81623866D01*
X38570000Y-82004819D02*
X38570000Y-81004819D01*
X38570000Y-81004819D02*
X38808095Y-81004819D01*
X38808095Y-81004819D02*
X38950952Y-81052438D01*
X38950952Y-81052438D02*
X39046190Y-81147676D01*
X39046190Y-81147676D02*
X39093809Y-81242914D01*
X39093809Y-81242914D02*
X39141428Y-81433390D01*
X39141428Y-81433390D02*
X39141428Y-81576247D01*
X39141428Y-81576247D02*
X39093809Y-81766723D01*
X39093809Y-81766723D02*
X39046190Y-81861961D01*
X39046190Y-81861961D02*
X38950952Y-81957200D01*
X38950952Y-81957200D02*
X38808095Y-82004819D01*
X38808095Y-82004819D02*
X38570000Y-82004819D01*
X39950952Y-81957200D02*
X39855714Y-82004819D01*
X39855714Y-82004819D02*
X39665238Y-82004819D01*
X39665238Y-82004819D02*
X39570000Y-81957200D01*
X39570000Y-81957200D02*
X39522381Y-81861961D01*
X39522381Y-81861961D02*
X39522381Y-81481009D01*
X39522381Y-81481009D02*
X39570000Y-81385771D01*
X39570000Y-81385771D02*
X39665238Y-81338152D01*
X39665238Y-81338152D02*
X39855714Y-81338152D01*
X39855714Y-81338152D02*
X39950952Y-81385771D01*
X39950952Y-81385771D02*
X39998571Y-81481009D01*
X39998571Y-81481009D02*
X39998571Y-81576247D01*
X39998571Y-81576247D02*
X39522381Y-81671485D01*
X40331905Y-81338152D02*
X40570000Y-82004819D01*
X40570000Y-82004819D02*
X40808095Y-81338152D01*
X41189048Y-82004819D02*
X41189048Y-81004819D01*
X41760476Y-82004819D02*
X41331905Y-81433390D01*
X41760476Y-81004819D02*
X41189048Y-81576247D01*
X42189048Y-82004819D02*
X42189048Y-81338152D01*
X42189048Y-81004819D02*
X42141429Y-81052438D01*
X42141429Y-81052438D02*
X42189048Y-81100057D01*
X42189048Y-81100057D02*
X42236667Y-81052438D01*
X42236667Y-81052438D02*
X42189048Y-81004819D01*
X42189048Y-81004819D02*
X42189048Y-81100057D01*
X42522381Y-81338152D02*
X42903333Y-81338152D01*
X42665238Y-81004819D02*
X42665238Y-81861961D01*
X42665238Y-81861961D02*
X42712857Y-81957200D01*
X42712857Y-81957200D02*
X42808095Y-82004819D01*
X42808095Y-82004819D02*
X42903333Y-82004819D01*
X43093810Y-81004819D02*
X43427143Y-82004819D01*
X43427143Y-82004819D02*
X43760476Y-81004819D01*
X44617619Y-82004819D02*
X44046191Y-82004819D01*
X44331905Y-82004819D02*
X44331905Y-81004819D01*
X44331905Y-81004819D02*
X44236667Y-81147676D01*
X44236667Y-81147676D02*
X44141429Y-81242914D01*
X44141429Y-81242914D02*
X44046191Y-81290533D01*
%TO.C,Q1*%
D12*
X25370000Y-88200000D02*
X35370000Y-88200000D01*
X28520000Y-86930000D02*
X28520000Y-88200000D01*
X32220000Y-86930000D02*
X32220000Y-88200000D01*
X25370000Y-86930000D02*
X35370000Y-86930000D01*
X35370000Y-91330000D01*
X25370000Y-91330000D01*
X25370000Y-86930000D01*
%TO.C,SW2*%
X59970000Y-24230000D02*
X62970000Y-24230000D01*
X59970000Y-30230000D02*
X59970000Y-24230000D01*
X62970000Y-24230000D02*
X65970000Y-24230000D01*
X65970000Y-24230000D02*
X65970000Y-30230000D01*
X65970000Y-30230000D02*
X59970000Y-30230000D01*
X64985564Y-27230000D02*
G75*
G02*
X60954436Y-27230000I-2015564J0D01*
G01*
X60954436Y-27230000D02*
G75*
G02*
X64985564Y-27230000I2015564J0D01*
G01*
%TO.C,D1*%
X71265000Y-25160306D02*
X71265000Y-28099694D01*
X71265000Y-25160306D02*
G75*
G02*
X71265000Y-28099694I2500000J-1469694D01*
G01*
X76265000Y-26630000D02*
G75*
G02*
X71265000Y-26630000I-2500000J0D01*
G01*
X71265000Y-26630000D02*
G75*
G02*
X76265000Y-26630000I2500000J0D01*
G01*
%TO.C,R4*%
X26160000Y-96730000D02*
X26820000Y-96730000D01*
X33780000Y-96730000D02*
X33120000Y-96730000D01*
X26820000Y-95480000D02*
X33120000Y-95480000D01*
X33120000Y-97980000D01*
X26820000Y-97980000D01*
X26820000Y-95480000D01*
%TO.C,C5*%
X56070000Y-41680000D02*
X61070000Y-41680000D01*
X61070000Y-44180000D01*
X56070000Y-44180000D01*
X56070000Y-41680000D01*
%TO.C,D2*%
X104090000Y-66230000D02*
X106570000Y-66230000D01*
X107250000Y-64880000D02*
X107250000Y-67580000D01*
X107350000Y-64880000D02*
X107350000Y-67580000D01*
X107450000Y-64880000D02*
X107450000Y-67580000D01*
X114250000Y-66230000D02*
X111770000Y-66230000D01*
X106570000Y-64880000D02*
X111770000Y-64880000D01*
X111770000Y-67580000D01*
X106570000Y-67580000D01*
X106570000Y-64880000D01*
%TO.C,R13*%
X80860000Y-24930000D02*
X81520000Y-24930000D01*
X88480000Y-24930000D02*
X87820000Y-24930000D01*
X81520000Y-23680000D02*
X87820000Y-23680000D01*
X87820000Y-26180000D01*
X81520000Y-26180000D01*
X81520000Y-23680000D01*
%TO.C,C4*%
X89570000Y-78280000D02*
X94570000Y-78280000D01*
X94570000Y-80780000D01*
X89570000Y-80780000D01*
X89570000Y-78280000D01*
%TO.C,D3*%
X69150000Y-67530000D02*
X72020000Y-67530000D01*
X73345000Y-64930000D02*
X73345000Y-70130000D01*
X73445000Y-64930000D02*
X73445000Y-70130000D01*
X73545000Y-64930000D02*
X73545000Y-70130000D01*
X84390000Y-67530000D02*
X81520000Y-67530000D01*
X72020000Y-64930000D02*
X81520000Y-64930000D01*
X81520000Y-70130000D01*
X72020000Y-70130000D01*
X72020000Y-64930000D01*
%TO.C,C3*%
X81170000Y-78280000D02*
X86170000Y-78280000D01*
X86170000Y-80780000D01*
X81170000Y-80780000D01*
X81170000Y-78280000D01*
%TO.C,C7*%
X72770000Y-41680000D02*
X77770000Y-41680000D01*
X77770000Y-44180000D01*
X72770000Y-44180000D01*
X72770000Y-41680000D01*
%TO.C,L1*%
X87835000Y-47545000D02*
X89168500Y-61515000D01*
X90502000Y-47545000D02*
X91835500Y-61515000D01*
X93169000Y-47545000D02*
X94502500Y-61515000D01*
X95836000Y-47545000D02*
X97169500Y-61515000D01*
X98503000Y-47545000D02*
X99836500Y-61515000D01*
X101170000Y-47545000D02*
X102503500Y-61515000D01*
X103837000Y-47545000D02*
X105170500Y-61515000D01*
X106504000Y-47545000D02*
X107837500Y-61515000D01*
X109171000Y-47545000D02*
X110504500Y-61515000D01*
X111838000Y-47545000D02*
X113171500Y-61515000D01*
X87835000Y-47545000D02*
X114505000Y-47545000D01*
X114505000Y-61515000D01*
X87835000Y-61515000D01*
X87835000Y-47545000D01*
%TO.C,R2*%
X97760000Y-88130000D02*
X98420000Y-88130000D01*
X105380000Y-88130000D02*
X104720000Y-88130000D01*
X98420000Y-86880000D02*
X104720000Y-86880000D01*
X104720000Y-89380000D01*
X98420000Y-89380000D01*
X98420000Y-86880000D01*
%TO.C,R1*%
X85160000Y-88130000D02*
X85820000Y-88130000D01*
X92780000Y-88130000D02*
X92120000Y-88130000D01*
X85820000Y-86880000D02*
X92120000Y-86880000D01*
X92120000Y-89380000D01*
X85820000Y-89380000D01*
X85820000Y-86880000D01*
%TO.C,C1*%
X56840541Y-67182500D02*
X57640541Y-67182500D01*
X57240541Y-66782500D02*
X57240541Y-67582500D01*
X64267300Y-68930000D02*
G75*
G02*
X56267300Y-68930000I-4000000J0D01*
G01*
X56267300Y-68930000D02*
G75*
G02*
X64267300Y-68930000I4000000J0D01*
G01*
%TO.C,C2*%
X90413439Y-67742500D02*
X91413439Y-67742500D01*
X90913439Y-67242500D02*
X90913439Y-68242500D01*
X99702300Y-69930000D02*
G75*
G02*
X89702300Y-69930000I-5000000J0D01*
G01*
X89702300Y-69930000D02*
G75*
G02*
X99702300Y-69930000I5000000J0D01*
G01*
%TO.C,SW1*%
D11*
X40920000Y-25830000D02*
X41920000Y-24730000D01*
X40920000Y-36330000D02*
X40920000Y-25830000D01*
X41920000Y-24730000D02*
X52920000Y-24730000D01*
X43920000Y-30530000D02*
X49920000Y-30530000D01*
X46920000Y-27530000D02*
X46920000Y-33530000D01*
X52920000Y-24730000D02*
X52920000Y-36330000D01*
X52920000Y-36330000D02*
X40920000Y-36330000D01*
X49920000Y-30530000D02*
G75*
G02*
X43920000Y-30530000I-3000000J0D01*
G01*
X43920000Y-30530000D02*
G75*
G02*
X49920000Y-30530000I3000000J0D01*
G01*
%TO.C,R3*%
D12*
X110260000Y-88130000D02*
X110920000Y-88130000D01*
X117880000Y-88130000D02*
X117220000Y-88130000D01*
X110920000Y-86880000D02*
X117220000Y-86880000D01*
X117220000Y-89380000D01*
X110920000Y-89380000D01*
X110920000Y-86880000D01*
%TO.C,C8*%
X81070000Y-41680000D02*
X86070000Y-41680000D01*
X86070000Y-44180000D01*
X81070000Y-44180000D01*
X81070000Y-41680000D01*
%TO.C,J2*%
X36220000Y-101330000D02*
X36220000Y-111330000D01*
X36220000Y-111330000D02*
X43720000Y-111330000D01*
X42520000Y-111280000D02*
X42520000Y-101380000D01*
X43720000Y-101330000D02*
X36220000Y-101330000D01*
X43720000Y-111330000D02*
X43720000Y-101330000D01*
%TO.C,F1*%
X47070000Y-106730000D02*
X47070000Y-104330000D01*
X47070000Y-106730000D02*
X48810000Y-106730000D01*
X47070000Y-114930000D02*
X47070000Y-117330000D01*
X47070000Y-117330000D02*
X52070000Y-117330000D01*
X48810000Y-106730000D02*
X48810000Y-114930000D01*
X48810000Y-114930000D02*
X47070000Y-114930000D01*
X52070000Y-102810000D02*
X52070000Y-104330000D01*
X52070000Y-104330000D02*
X47070000Y-104330000D01*
X52070000Y-117330000D02*
X52070000Y-118850000D01*
X52070000Y-118850000D02*
X67470000Y-118850000D01*
X67470000Y-102280000D02*
X67470000Y-102810000D01*
X67470000Y-102810000D02*
X52070000Y-102810000D01*
X67470000Y-118850000D02*
X67470000Y-119380000D01*
X67470000Y-119380000D02*
X97870000Y-119380000D01*
X97870000Y-101330000D02*
X97870000Y-102280000D01*
X97870000Y-102280000D02*
X67470000Y-102280000D01*
X97870000Y-119380000D02*
X97870000Y-120330000D01*
X97870000Y-120330000D02*
X101870000Y-120330000D01*
X101870000Y-101330000D02*
X97870000Y-101330000D01*
X101870000Y-101330000D02*
X101870000Y-120330000D01*
%TO.C,C6*%
X64370000Y-41680000D02*
X69370000Y-41680000D01*
X69370000Y-44180000D01*
X64370000Y-44180000D01*
X64370000Y-41680000D01*
%TO.C,U3*%
X74470000Y-48800000D02*
X84470000Y-48800000D01*
X77620000Y-47530000D02*
X77620000Y-48800000D01*
X81320000Y-47530000D02*
X81320000Y-48800000D01*
X74470000Y-47530000D02*
X84470000Y-47530000D01*
X84470000Y-51930000D01*
X74470000Y-51930000D01*
X74470000Y-47530000D01*
%TO.C,D4*%
X40250000Y-89530000D02*
X43120000Y-89530000D01*
X44445000Y-86930000D02*
X44445000Y-92130000D01*
X44545000Y-86930000D02*
X44545000Y-92130000D01*
X44645000Y-86930000D02*
X44645000Y-92130000D01*
X55490000Y-89530000D02*
X52620000Y-89530000D01*
X43120000Y-86930000D02*
X52620000Y-86930000D01*
X52620000Y-92130000D01*
X43120000Y-92130000D01*
X43120000Y-86930000D01*
%TO.C,R5*%
X38760000Y-96730000D02*
X39420000Y-96730000D01*
X46380000Y-96730000D02*
X45720000Y-96730000D01*
X39420000Y-95480000D02*
X45720000Y-95480000D01*
X45720000Y-97980000D01*
X39420000Y-97980000D01*
X39420000Y-95480000D01*
%TO.C,R6*%
X51260000Y-96730000D02*
X51920000Y-96730000D01*
X58880000Y-96730000D02*
X58220000Y-96730000D01*
X51920000Y-95480000D02*
X58220000Y-95480000D01*
X58220000Y-97980000D01*
X51920000Y-97980000D01*
X51920000Y-95480000D01*
%TO.C,J1*%
X25320000Y-101330000D02*
X25320000Y-111330000D01*
X25320000Y-111330000D02*
X32820000Y-111330000D01*
X31620000Y-111280000D02*
X31620000Y-101380000D01*
X32820000Y-101330000D02*
X25320000Y-101330000D01*
X32820000Y-111330000D02*
X32820000Y-101330000D01*
%TO.C,U2*%
X56030000Y-48800000D02*
X71110000Y-48800000D01*
X56030000Y-47530000D02*
X71110000Y-47530000D01*
X71110000Y-51930000D01*
X56030000Y-51930000D01*
X56030000Y-47530000D01*
%TO.C,R8*%
X69460000Y-79530000D02*
X70120000Y-79530000D01*
X77080000Y-79530000D02*
X76420000Y-79530000D01*
X70120000Y-78280000D02*
X76420000Y-78280000D01*
X76420000Y-80780000D01*
X70120000Y-80780000D01*
X70120000Y-78280000D01*
%TO.C,R7*%
X56860000Y-79530000D02*
X57520000Y-79530000D01*
X64480000Y-79530000D02*
X63820000Y-79530000D01*
X57520000Y-78280000D02*
X63820000Y-78280000D01*
X63820000Y-80780000D01*
X57520000Y-80780000D01*
X57520000Y-78280000D01*
%TD*%
M02*
