M48
; DRILL file KiCad 10.0.4 date 2026-06-30T00:06:30
; FORMAT={-:-/ absolute / metric / decimal}
; #@! TF.CreationDate,2026-06-30T00:06:30+02:00
; #@! TF.GenerationSoftware,Kicad,Pcbnew,10.0.4
; #@! TF.FileFunction,MixedPlating,1,2
FMAT,2
METRIC
; #@! TA.AperFunction,Plated,PTH,ViaDrill
T1C0.400
; #@! TA.AperFunction,Plated,PTH,ComponentDrill
T2C0.800
; #@! TA.AperFunction,Plated,PTH,ComponentDrill
T3C0.900
; #@! TA.AperFunction,Plated,PTH,ComponentDrill
T4C1.000
; #@! TA.AperFunction,Plated,PTH,ComponentDrill
T5C1.100
; #@! TA.AperFunction,Plated,PTH,ComponentDrill
T6C1.300
; #@! TA.AperFunction,Plated,PTH,ComponentDrill
T7C1.500
; #@! TA.AperFunction,Plated,PTH,ComponentDrill
T8C1.520
; #@! TA.AperFunction,Plated,PTH,ComponentDrill
T9C1.600
; #@! TA.AperFunction,Plated,PTH,ComponentDrill
T10C1.800
; #@! TA.AperFunction,NonPlated,NPTH,ComponentDrill
T11C2.600
%
G90
G05
T1
X33.346Y-43.067
X33.766Y-79.246
X37.171Y-44.854
X56.416Y-37.118
X63.783Y-40.775
X91.349Y-75.806
T2
X26.16Y-96.73
X33.78Y-96.73
X38.76Y-96.73
X46.38Y-96.73
X51.26Y-96.73
X56.86Y-79.53
X57.32Y-42.93
X58.517Y-68.93
X58.88Y-96.73
X59.82Y-42.93
X62.017Y-68.93
X62.23Y-89.405
X64.48Y-79.53
X64.77Y-89.405
X65.62Y-42.93
X67.31Y-89.405
X68.12Y-42.93
X69.46Y-79.53
X74.02Y-42.93
X74.13Y-89.405
X76.52Y-42.93
X76.67Y-89.405
X77.08Y-79.53
X79.21Y-89.405
X80.86Y-24.93
X82.32Y-42.93
X82.42Y-79.53
X84.82Y-42.93
X84.92Y-79.53
X85.16Y-88.13
X88.48Y-24.93
X90.82Y-79.53
X92.78Y-88.13
X93.32Y-79.53
X97.76Y-88.13
X105.38Y-88.13
X110.26Y-88.13
X117.88Y-88.13
T3
X72.495Y-26.63
X75.035Y-26.63
T4
X26.87Y-25.21
X26.87Y-27.75
X26.87Y-30.29
X26.87Y-32.83
X27.14Y-43.45
X27.14Y-45.99
X27.14Y-48.53
X27.14Y-51.07
X27.14Y-53.61
X27.14Y-56.15
X27.14Y-58.69
X27.14Y-61.23
X27.14Y-63.77
X27.14Y-66.31
X27.14Y-68.85
X27.14Y-71.39
X27.14Y-73.93
X27.14Y-76.47
X27.14Y-79.01
X33.27Y-25.24
X33.27Y-27.78
X33.27Y-30.32
X33.27Y-32.86
X33.27Y-35.4
X39.42Y-28.03
X39.42Y-30.53
X39.42Y-33.03
X50.0Y-43.45
X50.0Y-45.99
X50.0Y-48.53
X50.0Y-51.07
X50.0Y-53.61
X50.0Y-56.15
X50.0Y-58.69
X50.0Y-61.23
X50.0Y-63.77
X50.0Y-66.31
X50.0Y-68.85
X50.0Y-71.39
X50.0Y-73.93
X50.0Y-76.47
X50.0Y-79.01
X53.92Y-28.03
X53.92Y-33.03
X92.202Y-69.93
X97.202Y-69.93
T5
X27.83Y-90.08
X30.37Y-90.08
X32.91Y-90.08
X58.49Y-50.68
X59.72Y-24.98
X59.72Y-29.48
X61.03Y-50.68
X63.57Y-50.68
X66.11Y-50.68
X66.22Y-24.98
X66.22Y-29.48
X68.65Y-50.68
X76.93Y-50.68
X79.47Y-50.68
X82.01Y-50.68
X104.09Y-66.23
X114.25Y-66.23
T6
X49.46Y-110.83
X59.62Y-103.21
X59.62Y-118.45
T8
X29.07Y-103.79
X29.07Y-108.87
X39.97Y-103.79
X39.97Y-108.87
T9
X40.25Y-89.53
X55.49Y-89.53
X69.15Y-67.53
X84.39Y-67.53
T10
X101.17Y-49.45
X101.17Y-59.61
T11
X90.1Y-110.83
T7
X46.27Y-24.93G85X47.57Y-24.93
G05
X46.27Y-36.13G85X47.57Y-36.13
G05
M30
