%TF.GenerationSoftware,KiCad,Pcbnew,10.0.4*%
%TF.CreationDate,2026-06-30T00:06:30+02:00*%
%TF.ProjectId,reflow,7265666c-6f77-42e6-9b69-6361645f7063,rev?*%
%TF.SameCoordinates,Original*%
%TF.FileFunction,Copper,L2,Bot*%
%TF.FilePolarity,Positive*%
%FSLAX46Y46*%
G04 Gerber Fmt 4.6, Leading zero omitted, Abs format (unit mm)*
G04 Created by KiCad (PCBNEW 10.0.4) date 2026-06-30 00:06:30*
%MOMM*%
%LPD*%
G01*
G04 APERTURE LIST*
G04 Aperture macros list*
%AMRoundRect*
0 Rectangle with rounded corners*
0 $1 Rounding radius*
0 $2 $3 $4 $5 $6 $7 $8 $9 X,Y pos of 4 corners*
0 Add a 4 corners polygon primitive as box body*
4,1,4,$2,$3,$4,$5,$6,$7,$8,$9,$2,$3,0*
0 Add four circle primitives for the rounded corners*
1,1,$1+$1,$2,$3*
1,1,$1+$1,$4,$5*
1,1,$1+$1,$6,$7*
1,1,$1+$1,$8,$9*
0 Add four rect primitives between the rounded corners*
20,1,$1+$1,$2,$3,$4,$5,0*
20,1,$1+$1,$4,$5,$6,$7,0*
20,1,$1+$1,$6,$7,$8,$9,0*
20,1,$1+$1,$8,$9,$2,$3,0*%
G04 Aperture macros list end*
%TA.AperFunction,ComponentPad*%
%ADD10R,1.700000X2.000000*%
%TD*%
%TA.AperFunction,ComponentPad*%
%ADD11O,1.700000X2.000000*%
%TD*%
%TA.AperFunction,ComponentPad*%
%ADD12C,2.000000*%
%TD*%
%TA.AperFunction,ComponentPad*%
%ADD13R,1.700000X1.700000*%
%TD*%
%TA.AperFunction,ComponentPad*%
%ADD14C,1.700000*%
%TD*%
%TA.AperFunction,ComponentPad*%
%ADD15R,1.800000X1.800000*%
%TD*%
%TA.AperFunction,ComponentPad*%
%ADD16C,1.800000*%
%TD*%
%TA.AperFunction,ComponentPad*%
%ADD17C,1.600000*%
%TD*%
%TA.AperFunction,ComponentPad*%
%ADD18RoundRect,0.249999X-0.850001X-0.850001X0.850001X-0.850001X0.850001X0.850001X-0.850001X0.850001X0*%
%TD*%
%TA.AperFunction,ComponentPad*%
%ADD19C,2.200000*%
%TD*%
%TA.AperFunction,ComponentPad*%
%ADD20RoundRect,0.250000X-1.350000X-1.350000X1.350000X-1.350000X1.350000X1.350000X-1.350000X1.350000X0*%
%TD*%
%TA.AperFunction,ComponentPad*%
%ADD21C,3.200000*%
%TD*%
%TA.AperFunction,ComponentPad*%
%ADD22O,1.700000X1.800000*%
%TD*%
%TA.AperFunction,ComponentPad*%
%ADD23R,1.700000X1.800000*%
%TD*%
%TA.AperFunction,ComponentPad*%
%ADD24C,3.600000*%
%TD*%
%TA.AperFunction,ComponentPad*%
%ADD25RoundRect,0.250000X-0.550000X-0.550000X0.550000X-0.550000X0.550000X0.550000X-0.550000X0.550000X0*%
%TD*%
%TA.AperFunction,ComponentPad*%
%ADD26RoundRect,0.250000X-0.750000X-0.750000X0.750000X-0.750000X0.750000X0.750000X-0.750000X0.750000X0*%
%TD*%
%TA.AperFunction,ComponentPad*%
%ADD27R,2.000000X2.000000*%
%TD*%
%TA.AperFunction,ComponentPad*%
%ADD28R,3.200000X2.000000*%
%TD*%
%TA.AperFunction,ComponentPad*%
%ADD29R,3.000000X3.000000*%
%TD*%
%TA.AperFunction,ComponentPad*%
%ADD30C,3.000000*%
%TD*%
%TA.AperFunction,ComponentPad*%
%ADD31R,4.000000X2.500000*%
%TD*%
%TA.AperFunction,ComponentPad*%
%ADD32O,4.000000X2.500000*%
%TD*%
%TA.AperFunction,ViaPad*%
%ADD33C,0.800000*%
%TD*%
%TA.AperFunction,Conductor*%
%ADD34C,1.000000*%
%TD*%
G04 APERTURE END LIST*
D10*
%TO.P,Q1,1*%
%TO.N,/Q1_GATE*%
X27830000Y-90080000D03*
D11*
%TO.P,Q1,2*%
%TO.N,/HEATER_RET*%
X30370000Y-90080000D03*
%TO.P,Q1,3*%
%TO.N,/GND*%
X32910000Y-90080000D03*
%TD*%
D12*
%TO.P,SW2,1*%
%TO.N,/GPIO26*%
X59720000Y-24980000D03*
X66220000Y-24980000D03*
%TO.P,SW2,2*%
%TO.N,/GND*%
X59720000Y-29480000D03*
X66220000Y-29480000D03*
%TD*%
D13*
%TO.P,J4,1*%
%TO.N,/+3V3*%
X26870000Y-25210000D03*
D14*
%TO.P,J4,2*%
%TO.N,/GND*%
X26870000Y-27750000D03*
%TO.P,J4,3*%
%TO.N,/GPIO22*%
X26870000Y-30290000D03*
%TO.P,J4,4*%
%TO.N,/GPIO21*%
X26870000Y-32830000D03*
%TD*%
D15*
%TO.P,D1,1*%
%TO.N,/GND*%
X72495000Y-26630000D03*
D16*
%TO.P,D1,2*%
%TO.N,/LED_ANODE*%
X75035000Y-26630000D03*
%TD*%
D17*
%TO.P,R4,1*%
%TO.N,/+12V*%
X26160000Y-96730000D03*
%TO.P,R4,2*%
%TO.N,/GATE_MAIN*%
X33780000Y-96730000D03*
%TD*%
%TO.P,C5,1*%
%TO.N,/+3V3*%
X57320000Y-42930000D03*
%TO.P,C5,2*%
%TO.N,/GND*%
X59820000Y-42930000D03*
%TD*%
D18*
%TO.P,D2,1*%
%TO.N,/SW_OUT*%
X104090000Y-66230000D03*
D19*
%TO.P,D2,2*%
%TO.N,/GND*%
X114250000Y-66230000D03*
%TD*%
D17*
%TO.P,R13,1*%
%TO.N,/GPIO4*%
X80860000Y-24930000D03*
%TO.P,R13,2*%
%TO.N,/LED_ANODE*%
X88480000Y-24930000D03*
%TD*%
%TO.P,C4,1*%
%TO.N,/+12V*%
X90820000Y-79530000D03*
%TO.P,C4,2*%
%TO.N,/GND*%
X93320000Y-79530000D03*
%TD*%
D20*
%TO.P,D3,1*%
%TO.N,/+24V*%
X69150000Y-67530000D03*
D21*
%TO.P,D3,2*%
%TO.N,/GND*%
X84390000Y-67530000D03*
%TD*%
D17*
%TO.P,C3,1*%
%TO.N,/+24V*%
X82420000Y-79530000D03*
%TO.P,C3,2*%
%TO.N,/GND*%
X84920000Y-79530000D03*
%TD*%
D22*
%TO.P,Q3,1*%
%TO.N,/GD_NODE1*%
X76670000Y-89405000D03*
D23*
%TO.P,Q3,2*%
%TO.N,/GATE_MAIN*%
X74130000Y-89405000D03*
D22*
%TO.P,Q3,3*%
%TO.N,/GND*%
X79210000Y-89405000D03*
%TD*%
D17*
%TO.P,C7,1*%
%TO.N,/GPIO32*%
X74020000Y-42930000D03*
%TO.P,C7,2*%
%TO.N,/GND*%
X76520000Y-42930000D03*
%TD*%
D13*
%TO.P,J3,1*%
%TO.N,/+3V3*%
X33270000Y-25240000D03*
D14*
%TO.P,J3,2*%
%TO.N,/GND*%
X33270000Y-27780000D03*
%TO.P,J3,3*%
%TO.N,/GPIO18*%
X33270000Y-30320000D03*
%TO.P,J3,4*%
%TO.N,/GPIO5*%
X33270000Y-32860000D03*
%TO.P,J3,5*%
%TO.N,/GPIO19*%
X33270000Y-35400000D03*
%TD*%
D24*
%TO.P,L1,1*%
%TO.N,/SW_OUT*%
X101170000Y-49450000D03*
%TO.P,L1,2*%
%TO.N,/+5V*%
X101170000Y-59610000D03*
%TD*%
D17*
%TO.P,R2,1*%
%TO.N,/GPIO25*%
X97760000Y-88130000D03*
%TO.P,R2,2*%
%TO.N,/Q2_GATE*%
X105380000Y-88130000D03*
%TD*%
%TO.P,R1,1*%
%TO.N,/Q2_GATE*%
X85160000Y-88130000D03*
%TO.P,R1,2*%
%TO.N,/GND*%
X92780000Y-88130000D03*
%TD*%
D25*
%TO.P,C1,1*%
%TO.N,/+24V*%
X58517300Y-68930000D03*
D17*
%TO.P,C1,2*%
%TO.N,/GND*%
X62017300Y-68930000D03*
%TD*%
D26*
%TO.P,C2,1*%
%TO.N,/+5V*%
X92202300Y-69930000D03*
D12*
%TO.P,C2,2*%
%TO.N,/GND*%
X97202300Y-69930000D03*
%TD*%
D27*
%TO.P,SW1,A*%
%TO.N,/GPIO32*%
X39420000Y-28030000D03*
D12*
%TO.P,SW1,B*%
%TO.N,/GPIO33*%
X39420000Y-33030000D03*
%TO.P,SW1,C*%
%TO.N,/GND*%
X39420000Y-30530000D03*
D28*
%TO.P,SW1,MP*%
%TO.N,N/C*%
X46920000Y-24930000D03*
X46920000Y-36130000D03*
D12*
%TO.P,SW1,S1*%
%TO.N,/GPIO27*%
X53920000Y-33030000D03*
%TO.P,SW1,S2*%
%TO.N,N/C*%
X53920000Y-28030000D03*
%TD*%
D17*
%TO.P,R3,1*%
%TO.N,/+12V*%
X110260000Y-88130000D03*
%TO.P,R3,2*%
%TO.N,/GD_NODE1*%
X117880000Y-88130000D03*
%TD*%
%TO.P,C8,1*%
%TO.N,/GPIO33*%
X82320000Y-42930000D03*
%TO.P,C8,2*%
%TO.N,/GND*%
X84820000Y-42930000D03*
%TD*%
D29*
%TO.P,J2,1*%
%TO.N,/+24V*%
X39970000Y-108870000D03*
D30*
%TO.P,J2,2*%
%TO.N,/HEATER_RET*%
X39970000Y-103790000D03*
%TD*%
D31*
%TO.P,F1,1*%
%TO.N,Net-(J1-Pin_1)*%
X49460000Y-110830000D03*
D32*
%TO.P,F1,2*%
%TO.N,/+24V*%
X59620000Y-103210000D03*
X59620000Y-118450000D03*
%TD*%
D17*
%TO.P,C6,1*%
%TO.N,/+3V3*%
X65620000Y-42930000D03*
%TO.P,C6,2*%
%TO.N,/GND*%
X68120000Y-42930000D03*
%TD*%
D10*
%TO.P,U3,1*%
%TO.N,/+24V*%
X76930000Y-50680000D03*
D11*
%TO.P,U3,2*%
%TO.N,/GND*%
X79470000Y-50680000D03*
%TO.P,U3,3*%
%TO.N,/+12V*%
X82010000Y-50680000D03*
%TD*%
D20*
%TO.P,D4,1*%
%TO.N,/HEATER_RET*%
X40250000Y-89530000D03*
D21*
%TO.P,D4,2*%
%TO.N,/GND*%
X55490000Y-89530000D03*
%TD*%
D17*
%TO.P,R5,1*%
%TO.N,/GATE_MAIN*%
X38760000Y-96730000D03*
%TO.P,R5,2*%
%TO.N,/Q1_GATE*%
X46380000Y-96730000D03*
%TD*%
%TO.P,R6,1*%
%TO.N,/Q1_GATE*%
X51260000Y-96730000D03*
%TO.P,R6,2*%
%TO.N,/GND*%
X58880000Y-96730000D03*
%TD*%
D29*
%TO.P,J1,1*%
%TO.N,Net-(J1-Pin_1)*%
X29070000Y-108870000D03*
D30*
%TO.P,J1,2*%
%TO.N,/GND*%
X29070000Y-103790000D03*
%TD*%
D22*
%TO.P,Q2,1*%
%TO.N,/Q2_GATE*%
X64770000Y-89405000D03*
D23*
%TO.P,Q2,2*%
%TO.N,/GD_NODE1*%
X62230000Y-89405000D03*
D22*
%TO.P,Q2,3*%
%TO.N,/GND*%
X67310000Y-89405000D03*
%TD*%
D10*
%TO.P,U2,1*%
%TO.N,/+24V*%
X58490000Y-50680000D03*
D11*
%TO.P,U2,2*%
%TO.N,/SW_OUT*%
X61030000Y-50680000D03*
%TO.P,U2,3*%
%TO.N,/GND*%
X63570000Y-50680000D03*
%TO.P,U2,4*%
%TO.N,/VFB*%
X66110000Y-50680000D03*
%TO.P,U2,5*%
%TO.N,/GND*%
X68650000Y-50680000D03*
%TD*%
D17*
%TO.P,R8,1*%
%TO.N,/VFB*%
X69460000Y-79530000D03*
%TO.P,R8,2*%
%TO.N,/GND*%
X77080000Y-79530000D03*
%TD*%
%TO.P,R7,1*%
%TO.N,/+5V*%
X56860000Y-79530000D03*
%TO.P,R7,2*%
%TO.N,/VFB*%
X64480000Y-79530000D03*
%TD*%
D13*
%TO.P,A1,1*%
%TO.N,N/C*%
X27140000Y-43450000D03*
D14*
%TO.P,A1,2*%
X27140000Y-45990000D03*
%TO.P,A1,3*%
X27140000Y-48530000D03*
%TO.P,A1,4*%
X27140000Y-51070000D03*
%TO.P,A1,5*%
X27140000Y-53610000D03*
%TO.P,A1,6*%
%TO.N,/GPIO32*%
X27140000Y-56150000D03*
%TO.P,A1,7*%
%TO.N,/GPIO33*%
X27140000Y-58690000D03*
%TO.P,A1,8*%
%TO.N,/GPIO25*%
X27140000Y-61230000D03*
%TO.P,A1,9*%
%TO.N,/GPIO26*%
X27140000Y-63770000D03*
%TO.P,A1,10*%
%TO.N,/GPIO27*%
X27140000Y-66310000D03*
%TO.P,A1,11*%
%TO.N,N/C*%
X27140000Y-68850000D03*
%TO.P,A1,12*%
X27140000Y-71390000D03*
%TO.P,A1,13*%
X27140000Y-73930000D03*
%TO.P,A1,14*%
%TO.N,/GND*%
X27140000Y-76470000D03*
%TO.P,A1,15*%
%TO.N,/+5V*%
X27140000Y-79010000D03*
%TO.P,A1,16*%
%TO.N,N/C*%
X50000000Y-43450000D03*
%TO.P,A1,17*%
%TO.N,/GPIO22*%
X50000000Y-45990000D03*
%TO.P,A1,18*%
%TO.N,N/C*%
X50000000Y-48530000D03*
%TO.P,A1,19*%
X50000000Y-51070000D03*
%TO.P,A1,20*%
%TO.N,/GPIO21*%
X50000000Y-53610000D03*
%TO.P,A1,21*%
%TO.N,/GPIO19*%
X50000000Y-56150000D03*
%TO.P,A1,22*%
%TO.N,/GPIO18*%
X50000000Y-58690000D03*
%TO.P,A1,23*%
%TO.N,/GPIO5*%
X50000000Y-61230000D03*
%TO.P,A1,24*%
%TO.N,N/C*%
X50000000Y-63770000D03*
%TO.P,A1,25*%
X50000000Y-66310000D03*
%TO.P,A1,26*%
%TO.N,/GPIO4*%
X50000000Y-68850000D03*
%TO.P,A1,27*%
%TO.N,N/C*%
X50000000Y-71390000D03*
%TO.P,A1,28*%
X50000000Y-73930000D03*
%TO.P,A1,29*%
X50000000Y-76470000D03*
%TO.P,A1,30*%
%TO.N,/+3V3*%
X50000000Y-79010000D03*
%TD*%
D33*
%TO.N,/GND*%
X63783000Y-40775200D03*
X56415600Y-37118000D03*
X33765800Y-79245800D03*
X91349300Y-75806500D03*
%TO.N,/GPIO21*%
X33346200Y-43067400D03*
%TO.N,/GPIO18*%
X37171300Y-44854300D03*
%TD*%
%TO.N,/Q1_GATE*%
D34*
X51260000Y-96730000D02*
X46380000Y-96730000D01*
X30010100Y-94561800D02*
X27830000Y-92381700D01*
X46380000Y-96730000D02*
X44211800Y-94561800D01*
X44211800Y-94561800D02*
X30010100Y-94561800D01*
X27830000Y-90080000D02*
X27830000Y-92381700D01*
%TO.N,/GND*%
X84920000Y-80034000D02*
X83315300Y-81638700D01*
X32910000Y-90080000D02*
X32910000Y-87778300D01*
X79188700Y-81638700D02*
X77080000Y-79530000D01*
X26870000Y-27750000D02*
X26900000Y-27780000D01*
X92780000Y-87642000D02*
X92780000Y-88130000D01*
X84390000Y-49813900D02*
X84390000Y-67530000D01*
X26413300Y-87778300D02*
X32910000Y-87778300D01*
X68650000Y-50680000D02*
X68650000Y-48378300D01*
X79470000Y-48378300D02*
X79470000Y-45880000D01*
X84390000Y-67530000D02*
X89102300Y-72242300D01*
X55490000Y-92435100D02*
X55490000Y-89530000D01*
X39420000Y-30530000D02*
X38002300Y-30530000D01*
X61957900Y-40792100D02*
X59820000Y-42930000D01*
X38002300Y-30530000D02*
X35252300Y-27780000D01*
X72617300Y-79530000D02*
X62017300Y-68930000D01*
X66783900Y-46512200D02*
X68120000Y-45176100D01*
X93320000Y-72242300D02*
X93320000Y-79530000D01*
X22329300Y-91862300D02*
X26413300Y-87778300D01*
X27652200Y-76470000D02*
X27140000Y-76470000D01*
X27223300Y-101943300D02*
X29070000Y-103790000D01*
X56415600Y-37118000D02*
X56415600Y-36182700D01*
X67443300Y-29480000D02*
X66220000Y-29480000D01*
X84920000Y-79782000D02*
X92780000Y-87642000D01*
X114250000Y-66230000D02*
X110550000Y-69930000D01*
X37416800Y-92435100D02*
X55490000Y-92435100D01*
X64917800Y-48378300D02*
X66783900Y-46512200D01*
X93320000Y-72242300D02*
X94890000Y-72242300D01*
X35252300Y-27780000D02*
X33270000Y-27780000D01*
X82954400Y-48378300D02*
X84390000Y-49813900D01*
X84920000Y-79530000D02*
X84920000Y-80034000D01*
X33985900Y-79465900D02*
X33765800Y-79245800D01*
X63799900Y-40792100D02*
X63783000Y-40775200D01*
X79210000Y-87203300D02*
X80313800Y-86099500D01*
X56415600Y-36182700D02*
X55320000Y-35087100D01*
X68120000Y-42930000D02*
X68120000Y-42395400D01*
X72495000Y-26630000D02*
X70293300Y-26630000D01*
X25700000Y-101943300D02*
X27223300Y-101943300D01*
X59720000Y-30687100D02*
X45601100Y-44806000D01*
X79210000Y-89405000D02*
X79210000Y-87203300D01*
X79470000Y-50680000D02*
X79470000Y-48378300D01*
X68120000Y-45176100D02*
X68120000Y-42930000D01*
X66220000Y-29480000D02*
X59720000Y-29480000D01*
X70293300Y-26630000D02*
X67443300Y-29480000D01*
X91349300Y-75806500D02*
X93320000Y-75806500D01*
X22329300Y-95060200D02*
X22329300Y-91862300D01*
X68650000Y-48378300D02*
X66783900Y-46512200D01*
X59720000Y-29480000D02*
X59720000Y-30687100D01*
X68120000Y-42395400D02*
X66516700Y-40792100D01*
X84820000Y-46512700D02*
X84820000Y-42930000D01*
X67310000Y-91606700D02*
X62186700Y-96730000D01*
X35061700Y-90080000D02*
X37416800Y-92435100D01*
X63570000Y-50680000D02*
X63570000Y-48378300D01*
X80313800Y-86099500D02*
X80313800Y-81638700D01*
X63570000Y-48378300D02*
X64917800Y-48378300D01*
X77080000Y-79530000D02*
X72617300Y-79530000D01*
X79470000Y-48378300D02*
X82954400Y-48378300D01*
X62186700Y-96730000D02*
X58880000Y-96730000D01*
X58880000Y-96730000D02*
X55490000Y-93340000D01*
X55490000Y-93340000D02*
X55490000Y-92435100D01*
X110550000Y-69930000D02*
X97202300Y-69930000D01*
X32910000Y-90080000D02*
X35061700Y-90080000D01*
X45601100Y-44806000D02*
X45601100Y-58521100D01*
X26900000Y-27780000D02*
X33270000Y-27780000D01*
X82954400Y-48378300D02*
X84820000Y-46512700D01*
X33985900Y-90080000D02*
X33985900Y-79465900D01*
X67310000Y-89405000D02*
X67310000Y-91606700D01*
X66516700Y-40792100D02*
X61957900Y-40792100D01*
X83315300Y-81638700D02*
X79188700Y-81638700D01*
X89102300Y-72242300D02*
X93320000Y-72242300D01*
X45601100Y-58521100D02*
X27652200Y-76470000D01*
X79470000Y-45880000D02*
X76520000Y-42930000D01*
X94890000Y-72242300D02*
X97202300Y-69930000D01*
%TO.N,/GPIO26*%
X66220000Y-24980000D02*
X59720000Y-24980000D01*
X27140000Y-63770000D02*
X27655300Y-63770000D01*
X27655300Y-63770000D02*
X41720200Y-49705100D01*
X41720200Y-36829800D02*
X53570000Y-24980000D01*
X41720200Y-49705100D02*
X41720200Y-36829800D01*
X53570000Y-24980000D02*
X59720000Y-24980000D01*
%TO.N,/+3V3*%
X63473200Y-45076800D02*
X58994200Y-45076800D01*
X27256200Y-25210000D02*
X26870000Y-25210000D01*
X56000000Y-45080000D02*
X60500000Y-45080000D01*
X27256200Y-25210000D02*
X29021700Y-25210000D01*
X65620000Y-42930000D02*
X63473200Y-45076800D01*
X29051700Y-25240000D02*
X29021700Y-25210000D01*
X54500000Y-66000000D02*
X54500000Y-54500000D01*
X54500000Y-54500000D02*
X54500000Y-46000000D01*
X57320000Y-43402600D02*
X57320000Y-42930000D01*
X52000000Y-78000000D02*
X54500000Y-66000000D01*
X31402500Y-25240000D02*
X31118300Y-25240000D01*
X31402500Y-25240000D02*
X33270000Y-25240000D01*
X58994200Y-45076800D02*
X57320000Y-43402600D01*
X54500000Y-46000000D02*
X56000000Y-45080000D01*
X50000000Y-79010000D02*
X52000000Y-78000000D01*
X31118300Y-25240000D02*
X29051700Y-25240000D01*
%TO.N,/GPIO22*%
X24705400Y-79626500D02*
X26296100Y-81217200D01*
X47625600Y-61650000D02*
X47625600Y-47821700D01*
X26361600Y-30290000D02*
X24705400Y-31946200D01*
X49457300Y-45990000D02*
X50000000Y-45990000D01*
X24705400Y-31946200D02*
X24705400Y-79626500D01*
X28058400Y-81217200D02*
X47625600Y-61650000D01*
X26296100Y-81217200D02*
X28058400Y-81217200D01*
X47625600Y-47821700D02*
X49457300Y-45990000D01*
X26870000Y-30290000D02*
X26361600Y-30290000D01*
%TO.N,/GPIO21*%
X26870000Y-36591200D02*
X33346200Y-43067400D01*
X26870000Y-32830000D02*
X26870000Y-36591200D01*
%TO.N,/+12V*%
X90820000Y-80073400D02*
X90820000Y-79530000D01*
X110260000Y-88130000D02*
X112373900Y-86016100D01*
X92410800Y-81664200D02*
X90820000Y-80073400D01*
X103794200Y-81664200D02*
X92410800Y-81664200D01*
X82010000Y-50680000D02*
X82010000Y-64240000D01*
X108337000Y-100658300D02*
X30088300Y-100658300D01*
X82010000Y-64240000D02*
X81449500Y-64800500D01*
X118786100Y-86016100D02*
X120002200Y-87232200D01*
X110260000Y-88130000D02*
X103794200Y-81664200D01*
X120002200Y-87232200D02*
X120002200Y-88993100D01*
X112373900Y-86016100D02*
X118786100Y-86016100D01*
X30088300Y-100658300D02*
X26160000Y-96730000D01*
X81449500Y-70159500D02*
X90820000Y-79530000D01*
X120002200Y-88993100D02*
X108337000Y-100658300D01*
X81449500Y-64800500D02*
X81449500Y-70159500D01*
%TO.N,/GATE_MAIN*%
X71978300Y-89405000D02*
X71978300Y-89564500D01*
X74130000Y-89405000D02*
X71978300Y-89405000D01*
X40873200Y-98843200D02*
X38760000Y-96730000D01*
X38760000Y-96730000D02*
X33780000Y-96730000D01*
X62699600Y-98843200D02*
X40873200Y-98843200D01*
X71978300Y-89564500D02*
X62699600Y-98843200D01*
%TO.N,/SW_OUT*%
X104276400Y-66043600D02*
X104276400Y-52556400D01*
X104090000Y-66230000D02*
X104276400Y-66043600D01*
X104276400Y-52556400D02*
X101170000Y-49450000D01*
%TO.N,/GPIO4*%
X52455200Y-66932400D02*
X50537600Y-68850000D01*
X52455200Y-44758400D02*
X52455200Y-66932400D01*
X50537600Y-68850000D02*
X50000000Y-68850000D01*
X64934300Y-32279300D02*
X52455200Y-44758400D01*
X73510700Y-32279300D02*
X64934300Y-32279300D01*
X80860000Y-24930000D02*
X73510700Y-32279300D01*
%TO.N,/+24V*%
X46150600Y-108670600D02*
X42971100Y-108670600D01*
X76930000Y-50680000D02*
X74778300Y-50680000D01*
X74778300Y-60414100D02*
X68406200Y-66786200D01*
X74778300Y-50680000D02*
X74778300Y-60414100D01*
X82420000Y-79530000D02*
X70420000Y-67530000D01*
X70420000Y-67530000D02*
X69150000Y-67530000D01*
X69150000Y-67530000D02*
X68406200Y-66786200D01*
X39970000Y-108870000D02*
X42771700Y-108870000D01*
X68406200Y-66786200D02*
X60661100Y-66786200D01*
X60661100Y-66786200D02*
X58517300Y-68930000D01*
X42971100Y-108670600D02*
X42771700Y-108870000D01*
%TO.N,/GD_NODE1*%
X76670000Y-89405000D02*
X76670000Y-87203300D01*
X76670000Y-90505800D02*
X76670000Y-89405000D01*
X76670000Y-90505800D02*
X76670000Y-91606700D01*
X113946900Y-92063100D02*
X77126400Y-92063100D01*
X117880000Y-88130000D02*
X113946900Y-92063100D01*
X77126400Y-92063100D02*
X76670000Y-91606700D01*
X62230000Y-89405000D02*
X62230000Y-87203300D01*
X62230000Y-87203300D02*
X76670000Y-87203300D01*
%TO.N,/GPIO32*%
X74020000Y-36957900D02*
X83001100Y-27976800D01*
X83001100Y-27976800D02*
X83001100Y-24074800D01*
X83001100Y-24074800D02*
X81499400Y-22573100D01*
X42575200Y-22573100D02*
X39420000Y-25728300D01*
X74020000Y-42930000D02*
X74020000Y-36957900D01*
X39420000Y-28030000D02*
X39420000Y-25728300D01*
X81499400Y-22573100D02*
X42575200Y-22573100D01*
%TO.N,/GPIO18*%
X37171300Y-44854300D02*
X37171300Y-44344600D01*
X31098300Y-31935000D02*
X32713300Y-30320000D01*
X31098300Y-38271600D02*
X31098300Y-31935000D01*
X37171300Y-44344600D02*
X31098300Y-38271600D01*
X32713300Y-30320000D02*
X33270000Y-30320000D01*
%TO.N,/+5V*%
X92202300Y-68577700D02*
X101170000Y-59610000D01*
X92202300Y-69930000D02*
X92202300Y-68577700D01*
%TO.N,/Q2_GATE*%
X87275900Y-90245900D02*
X103264100Y-90245900D01*
X85160000Y-88130000D02*
X87275900Y-90245900D01*
X103264100Y-90245900D02*
X105380000Y-88130000D01*
%TO.N,/GPIO33*%
X27676400Y-58690000D02*
X27140000Y-58690000D01*
X39420000Y-33030000D02*
X39420000Y-46946400D01*
X39420000Y-46946400D02*
X27676400Y-58690000D01*
%TO.N,/GPIO27*%
X43521900Y-50465700D02*
X43521900Y-44302100D01*
X27677600Y-66310000D02*
X43521900Y-50465700D01*
X27140000Y-66310000D02*
X27677600Y-66310000D01*
X53920000Y-33904000D02*
X53920000Y-33030000D01*
X43521900Y-44302100D02*
X53920000Y-33904000D01*
%TO.N,/VFB*%
X66110000Y-50680000D02*
X66110000Y-52981700D01*
X56413800Y-71463800D02*
X56413800Y-62677900D01*
X56413800Y-62677900D02*
X66110000Y-52981700D01*
X64480000Y-79530000D02*
X56413800Y-71463800D01*
X69460000Y-79530000D02*
X64480000Y-79530000D01*
%TD*%
%TA.AperFunction,NonConductor*%
G36*
X70865387Y-27971259D02*
G01*
X70874285Y-27970071D01*
X70908048Y-27980353D01*
X70909829Y-27981188D01*
X70912461Y-27983515D01*
X70916193Y-27984487D01*
X70916226Y-27984507D01*
X70919228Y-27986309D01*
X70917977Y-27988392D01*
X70962172Y-28027469D01*
X70965184Y-28032262D01*
X71092738Y-28159816D01*
X71245478Y-28255789D01*
X71375838Y-28301404D01*
X71375837Y-28301404D01*
X71415741Y-28315367D01*
X71415743Y-28315367D01*
X71415745Y-28315368D01*
X71415750Y-28315369D01*
X71415756Y-28315369D01*
X71415770Y-28315372D01*
X71463724Y-28320774D01*
X71506246Y-28325565D01*
X71547068Y-28330164D01*
X71549511Y-28330500D01*
X73439957Y-28330500D01*
X73449750Y-28330500D01*
X73457345Y-28328540D01*
X73507104Y-28322934D01*
X73567348Y-28316146D01*
X73570808Y-28315952D01*
X73570813Y-28315952D01*
X73573781Y-28315533D01*
X73574253Y-28315368D01*
X73574255Y-28315368D01*
X73744522Y-28255789D01*
X73897262Y-28159816D01*
X73958833Y-28098244D01*
X73987080Y-28077099D01*
X74000804Y-28069605D01*
X74069071Y-28054755D01*
X74069072Y-28054755D01*
X74077912Y-28055387D01*
X74131068Y-28071683D01*
X74281274Y-28158405D01*
X74487219Y-28243710D01*
X74702537Y-28301404D01*
X74923543Y-28330500D01*
X74923550Y-28330500D01*
X75146450Y-28330500D01*
X75146457Y-28330500D01*
X75312329Y-28308662D01*
X75347605Y-28309083D01*
X75358789Y-28310827D01*
X75421991Y-28340611D01*
X75459060Y-28399837D01*
X75458228Y-28469686D01*
X75458224Y-28469698D01*
X75458224Y-28469701D01*
X75458222Y-28469702D01*
X75457153Y-28473193D01*
X75426279Y-28524533D01*
X73020941Y-30929873D01*
X72992690Y-30951022D01*
X72969602Y-30963630D01*
X72910172Y-30978800D01*
X67839709Y-30978800D01*
X67816088Y-30975425D01*
X67816077Y-30975512D01*
X67813955Y-30975237D01*
X67813563Y-30975064D01*
X67804990Y-30973840D01*
X67795592Y-30971099D01*
X67775896Y-30958492D01*
X67750001Y-30947099D01*
X67744039Y-30938101D01*
X67736745Y-30933432D01*
X67727277Y-30912800D01*
X67711412Y-30888853D01*
X67711259Y-30877892D01*
X67707605Y-30869929D01*
X67710831Y-30847193D01*
X67710439Y-30818990D01*
X67716130Y-30809856D01*
X67717423Y-30800752D01*
X67733171Y-30782510D01*
X67747391Y-30759692D01*
X67760455Y-30750907D01*
X67763082Y-30747865D01*
X67766468Y-30746863D01*
X67775278Y-30740940D01*
X67775715Y-30740725D01*
X67791989Y-30734129D01*
X67836500Y-30719667D01*
X67877048Y-30706493D01*
X67942513Y-30685222D01*
X67942519Y-30685220D01*
X67959641Y-30676496D01*
X68040981Y-30635051D01*
X68124911Y-30592287D01*
X68290519Y-30471966D01*
X70751966Y-28010516D01*
X70780219Y-27989367D01*
X70784539Y-27987009D01*
X70784540Y-27987007D01*
X70790101Y-27983972D01*
X70791056Y-27985721D01*
X70801535Y-27982289D01*
X70805030Y-27979322D01*
X70814429Y-27978066D01*
X70848577Y-27966883D01*
X70865387Y-27971259D01*
G37*
%TD.AperFunction*%
%TA.AperFunction,NonConductor*%
G36*
X44412606Y-23878623D02*
G01*
X44427604Y-23883027D01*
X44442594Y-23892657D01*
X44459675Y-23897667D01*
X44486355Y-23920772D01*
X44487542Y-23922141D01*
X44515018Y-23977002D01*
X44516663Y-23984560D01*
X44519500Y-24010931D01*
X44519500Y-25974966D01*
X44534627Y-26109230D01*
X44534630Y-26109252D01*
X44534631Y-26109255D01*
X44594210Y-26279522D01*
X44594213Y-26279527D01*
X44640790Y-26353653D01*
X44640791Y-26353654D01*
X44676753Y-26410888D01*
X44690184Y-26432262D01*
X44817738Y-26559816D01*
X44874413Y-26595427D01*
X44970477Y-26655789D01*
X44970481Y-26655790D01*
X45056277Y-26685812D01*
X45056281Y-26685812D01*
X45064261Y-26688605D01*
X45140745Y-26715368D01*
X45140750Y-26715369D01*
X45217152Y-26723977D01*
X45275040Y-26730499D01*
X45275043Y-26730500D01*
X45275046Y-26730500D01*
X45276130Y-26730500D01*
X48564957Y-26730500D01*
X48574750Y-26730500D01*
X48582345Y-26728540D01*
X48632104Y-26722934D01*
X48692348Y-26716146D01*
X48695808Y-26715952D01*
X48695813Y-26715952D01*
X48698781Y-26715533D01*
X48699253Y-26715368D01*
X48699255Y-26715368D01*
X48869522Y-26655789D01*
X49022262Y-26559816D01*
X49149816Y-26432262D01*
X49245789Y-26279522D01*
X49305368Y-26109255D01*
X49308416Y-26082209D01*
X49320451Y-25975383D01*
X49320500Y-25974970D01*
X49320500Y-24015429D01*
X49321146Y-24010939D01*
X49325523Y-23980493D01*
X49327886Y-23972448D01*
X49329927Y-23965494D01*
X49367672Y-23906744D01*
X49367700Y-23906719D01*
X49367699Y-23906719D01*
X49369041Y-23905556D01*
X49423920Y-23878077D01*
X49431479Y-23876433D01*
X49457832Y-23873600D01*
X52520023Y-23873600D01*
X52554950Y-23878621D01*
X52565803Y-23881807D01*
X52624584Y-23919577D01*
X52653613Y-23983131D01*
X52643674Y-24052290D01*
X52643673Y-24052292D01*
X52640488Y-24059267D01*
X52615372Y-24095442D01*
X40944788Y-35766026D01*
X40916538Y-35787175D01*
X40906611Y-35792596D01*
X40889180Y-35796388D01*
X40873524Y-35804935D01*
X40855749Y-35803661D01*
X40838338Y-35807450D01*
X40821626Y-35801217D01*
X40803832Y-35799943D01*
X40789568Y-35789262D01*
X40772873Y-35783036D01*
X40762181Y-35768755D01*
X40747904Y-35758064D01*
X40731010Y-35727117D01*
X40731000Y-35727104D01*
X40728313Y-35719898D01*
X40720500Y-35676578D01*
X40720500Y-34344982D01*
X40725522Y-34310049D01*
X40725591Y-34309815D01*
X40732934Y-34284804D01*
X40764230Y-34232060D01*
X40776588Y-34219703D01*
X40776592Y-34219699D01*
X40778141Y-34217681D01*
X40825195Y-34156358D01*
X40920273Y-34032450D01*
X41038284Y-33828049D01*
X41128606Y-33609993D01*
X41189693Y-33382014D01*
X41220500Y-33148011D01*
X41220500Y-32911989D01*
X41189693Y-32677986D01*
X41128606Y-32450007D01*
X41038284Y-32231951D01*
X41038282Y-32231948D01*
X41038280Y-32231943D01*
X41038277Y-32231938D01*
X41038162Y-32231660D01*
X41037382Y-32230255D01*
X41036297Y-32228509D01*
X40996118Y-32158918D01*
X40920273Y-32027550D01*
X40920272Y-32027548D01*
X40860319Y-31949416D01*
X40799094Y-31869627D01*
X40781815Y-31838857D01*
X40779415Y-31832648D01*
X40776177Y-31824274D01*
X40770365Y-31754649D01*
X40772147Y-31745959D01*
X40795240Y-31695396D01*
X40835995Y-31642283D01*
X40920273Y-31532450D01*
X41038284Y-31328049D01*
X41128606Y-31109993D01*
X41189693Y-30882014D01*
X41220500Y-30648011D01*
X41220500Y-30411989D01*
X41189693Y-30177986D01*
X41128606Y-29950007D01*
X41038284Y-29731951D01*
X41025898Y-29710500D01*
X41012783Y-29677737D01*
X41009565Y-29664473D01*
X41009098Y-29662545D01*
X41012421Y-29592763D01*
X41015322Y-29584380D01*
X41044828Y-29537248D01*
X41049816Y-29532262D01*
X41049817Y-29532260D01*
X41049818Y-29532260D01*
X41145787Y-29379526D01*
X41145787Y-29379524D01*
X41145789Y-29379522D01*
X41205368Y-29209255D01*
X41205546Y-29207682D01*
X41216910Y-29106818D01*
X41220500Y-29074954D01*
X41220500Y-26985046D01*
X41205368Y-26850745D01*
X41205367Y-26850743D01*
X41205366Y-26850737D01*
X41157998Y-26715369D01*
X41145789Y-26680478D01*
X41141345Y-26673406D01*
X41137767Y-26667711D01*
X41094143Y-26598283D01*
X41094143Y-26598284D01*
X41049816Y-26527738D01*
X40922262Y-26400184D01*
X40922260Y-26400182D01*
X40863305Y-26363138D01*
X40836403Y-26340304D01*
X40827203Y-26329903D01*
X40797533Y-26266651D01*
X40806768Y-26197399D01*
X40810766Y-26188403D01*
X40836393Y-26151089D01*
X43064960Y-23922523D01*
X43093210Y-23901375D01*
X43116302Y-23888767D01*
X43175727Y-23873600D01*
X44377670Y-23873600D01*
X44412606Y-23878623D01*
G37*
%TD.AperFunction*%
%TA.AperFunction,NonConductor*%
G36*
X79405047Y-23876051D02*
G01*
X79406407Y-23875993D01*
X79412237Y-23876577D01*
X79417130Y-23877788D01*
X79422937Y-23878624D01*
X79428985Y-23880400D01*
X79428895Y-23880703D01*
X79446530Y-23885071D01*
X79448180Y-23885741D01*
X79462123Y-23896817D01*
X79476981Y-23902846D01*
X79486238Y-23915974D01*
X79502888Y-23929201D01*
X79509731Y-23949291D01*
X79517245Y-23959948D01*
X79517806Y-23972999D01*
X79525415Y-23995339D01*
X79525416Y-23995362D01*
X79525511Y-23997596D01*
X79519929Y-24022389D01*
X79520246Y-24029753D01*
X79517031Y-24035261D01*
X79511302Y-24060713D01*
X79510293Y-24062626D01*
X79500933Y-24077661D01*
X79491133Y-24091149D01*
X79491132Y-24091151D01*
X79491130Y-24091154D01*
X79491128Y-24091158D01*
X79376761Y-24315615D01*
X79298908Y-24555218D01*
X79289804Y-24612699D01*
X79289804Y-24612700D01*
X79279377Y-24646419D01*
X79266018Y-24674598D01*
X79241653Y-24709160D01*
X76934564Y-27016248D01*
X76906314Y-27037397D01*
X76896387Y-27042818D01*
X76828114Y-27057672D01*
X76762649Y-27033258D01*
X76720776Y-26977326D01*
X76720771Y-26977312D01*
X76719489Y-26973874D01*
X76712735Y-26914366D01*
X76735500Y-26741457D01*
X76735500Y-26518543D01*
X76706404Y-26297537D01*
X76648710Y-26082219D01*
X76563405Y-25876274D01*
X76451948Y-25683226D01*
X76324946Y-25517713D01*
X76324943Y-25517709D01*
X76316258Y-25506389D01*
X76316252Y-25506383D01*
X76316248Y-25506377D01*
X76316242Y-25506370D01*
X76158629Y-25348757D01*
X76158622Y-25348751D01*
X76158612Y-25348743D01*
X76158603Y-25348736D01*
X75983754Y-25214571D01*
X75983751Y-25214569D01*
X75981505Y-25212845D01*
X75980486Y-25212233D01*
X75978589Y-25211212D01*
X75788726Y-25101595D01*
X75788722Y-25101593D01*
X75586829Y-25017966D01*
X75582787Y-25016291D01*
X75368476Y-24958867D01*
X75368472Y-24958866D01*
X75367463Y-24958596D01*
X75367457Y-24958595D01*
X75367452Y-24958594D01*
X75148259Y-24929737D01*
X75148255Y-24929735D01*
X75146654Y-24929500D01*
X75146463Y-24929500D01*
X75146457Y-24929500D01*
X74923543Y-24929500D01*
X74923537Y-24929500D01*
X74923535Y-24929500D01*
X74918039Y-24930176D01*
X74917316Y-24930316D01*
X74916796Y-24930387D01*
X74702547Y-24958594D01*
X74702540Y-24958595D01*
X74702537Y-24958596D01*
X74691500Y-24961553D01*
X74691495Y-24961554D01*
X74577003Y-24992232D01*
X74532299Y-25004211D01*
X74487222Y-25016288D01*
X74487199Y-25016297D01*
X74281270Y-25101595D01*
X74281270Y-25101596D01*
X74281266Y-25101598D01*
X74240601Y-25125075D01*
X74136553Y-25185148D01*
X74103790Y-25198265D01*
X74095236Y-25200340D01*
X74088601Y-25201949D01*
X74018812Y-25198627D01*
X74018800Y-25198623D01*
X74010420Y-25195722D01*
X73963304Y-25166226D01*
X73897261Y-25100183D01*
X73744523Y-25004211D01*
X73744522Y-25004210D01*
X73574255Y-24944631D01*
X73574252Y-24944630D01*
X73574230Y-24944627D01*
X73439966Y-24929500D01*
X73439960Y-24929500D01*
X73439954Y-24929500D01*
X71550046Y-24929500D01*
X71550039Y-24929500D01*
X71550032Y-24929500D01*
X71415768Y-24944627D01*
X71415746Y-24944630D01*
X71415743Y-24944631D01*
X71245476Y-25004210D01*
X71245476Y-25004211D01*
X71092740Y-25100181D01*
X70965180Y-25227740D01*
X70947186Y-25256378D01*
X70927121Y-25280017D01*
X70924349Y-25283283D01*
X70909329Y-25296569D01*
X70854156Y-25324719D01*
X70846037Y-25326529D01*
X70819059Y-25329500D01*
X70190944Y-25329500D01*
X70137032Y-25338039D01*
X70123554Y-25340174D01*
X69988760Y-25361523D01*
X69794156Y-25424752D01*
X69794080Y-25424778D01*
X69685470Y-25480119D01*
X69685467Y-25480121D01*
X69649569Y-25498411D01*
X69636712Y-25504962D01*
X69630510Y-25508122D01*
X69612063Y-25517521D01*
X69611710Y-25517698D01*
X69611682Y-25517715D01*
X69446089Y-25638024D01*
X69446084Y-25638029D01*
X69301330Y-25782784D01*
X67227488Y-27856624D01*
X67227487Y-27856625D01*
X67199232Y-27877776D01*
X67185511Y-27885268D01*
X67117243Y-27900119D01*
X67117239Y-27900118D01*
X67117238Y-27900119D01*
X67117236Y-27900118D01*
X67108403Y-27899487D01*
X67055247Y-27883191D01*
X67030262Y-27868766D01*
X67018056Y-27861719D01*
X67018052Y-27861717D01*
X67018048Y-27861715D01*
X66799997Y-27771395D01*
X66572006Y-27710305D01*
X66339889Y-27679747D01*
X66338208Y-27679500D01*
X66338017Y-27679500D01*
X66338011Y-27679500D01*
X66101989Y-27679500D01*
X66101983Y-27679500D01*
X66101981Y-27679500D01*
X66095861Y-27680253D01*
X66094955Y-27680425D01*
X65867992Y-27710305D01*
X65640001Y-27771395D01*
X65421950Y-27861715D01*
X65421942Y-27861719D01*
X65217545Y-27979730D01*
X65217536Y-27979736D01*
X65030307Y-28123401D01*
X65030291Y-28123415D01*
X65030279Y-28123426D01*
X65023131Y-28130575D01*
X65008798Y-28141305D01*
X64994879Y-28151725D01*
X64971794Y-28164331D01*
X64912365Y-28179500D01*
X61034984Y-28179500D01*
X61000048Y-28174477D01*
X60974806Y-28167065D01*
X60922061Y-28135769D01*
X60909712Y-28123420D01*
X60909704Y-28123412D01*
X60909697Y-28123406D01*
X60909694Y-28123403D01*
X60909689Y-28123399D01*
X60730065Y-27985570D01*
X60730064Y-27985569D01*
X60722454Y-27979730D01*
X60722453Y-27979729D01*
X60722450Y-27979727D01*
X60605135Y-27911995D01*
X60604623Y-27911699D01*
X60604568Y-27911667D01*
X60518065Y-27861724D01*
X60518048Y-27861715D01*
X60299997Y-27771395D01*
X60072006Y-27710305D01*
X59839889Y-27679747D01*
X59838208Y-27679500D01*
X59838017Y-27679500D01*
X59838011Y-27679500D01*
X59601989Y-27679500D01*
X59601983Y-27679500D01*
X59601981Y-27679500D01*
X59595861Y-27680253D01*
X59594955Y-27680425D01*
X59367992Y-27710305D01*
X59140001Y-27771395D01*
X58921950Y-27861715D01*
X58921942Y-27861719D01*
X58717545Y-27979730D01*
X58717536Y-27979736D01*
X58530309Y-28123399D01*
X58530294Y-28123413D01*
X58530286Y-28123420D01*
X58363420Y-28290286D01*
X58363413Y-28290294D01*
X58363399Y-28290309D01*
X58219736Y-28477536D01*
X58219730Y-28477545D01*
X58101719Y-28681942D01*
X58101715Y-28681950D01*
X58011395Y-28900001D01*
X57950305Y-29127992D01*
X57923968Y-29328048D01*
X57919501Y-29361979D01*
X57919500Y-29361995D01*
X57919500Y-29598004D01*
X57919501Y-29598020D01*
X57919503Y-29598035D01*
X57950305Y-29832006D01*
X58011395Y-30059997D01*
X58101716Y-30278049D01*
X58101718Y-30278052D01*
X58114096Y-30299493D01*
X58127212Y-30332255D01*
X58130897Y-30347444D01*
X58127574Y-30417235D01*
X58127572Y-30417236D01*
X58124675Y-30425610D01*
X58095175Y-30472738D01*
X55896482Y-32671430D01*
X55868229Y-32692581D01*
X55856047Y-32699233D01*
X55838599Y-32703028D01*
X55822927Y-32711578D01*
X55805170Y-32710300D01*
X55787774Y-32714085D01*
X55771045Y-32707845D01*
X55753238Y-32706565D01*
X55722358Y-32689687D01*
X55722311Y-32689669D01*
X55720968Y-32688664D01*
X55683789Y-32643621D01*
X55681599Y-32639114D01*
X55679302Y-32632958D01*
X55679119Y-32632713D01*
X55679097Y-32632408D01*
X55673356Y-32617019D01*
X55628606Y-32450007D01*
X55538284Y-32231951D01*
X55538282Y-32231948D01*
X55538280Y-32231943D01*
X55538276Y-32231937D01*
X55538162Y-32231661D01*
X55537382Y-32230255D01*
X55536297Y-32228509D01*
X55496118Y-32158918D01*
X55420273Y-32027550D01*
X55420272Y-32027548D01*
X55285546Y-31851970D01*
X55285545Y-31851968D01*
X55276603Y-31840315D01*
X55276598Y-31840309D01*
X55276593Y-31840302D01*
X55276587Y-31840295D01*
X55109704Y-31673412D01*
X55109697Y-31673406D01*
X55109695Y-31673404D01*
X55109689Y-31673399D01*
X54929908Y-31535449D01*
X54929904Y-31535446D01*
X54922454Y-31529730D01*
X54922453Y-31529729D01*
X54922450Y-31529727D01*
X54840957Y-31482677D01*
X54840282Y-31482287D01*
X54840263Y-31482276D01*
X54718065Y-31411724D01*
X54718048Y-31411715D01*
X54499997Y-31321395D01*
X54421721Y-31300421D01*
X54279865Y-31262410D01*
X54272117Y-31259780D01*
X54263951Y-31259245D01*
X54039889Y-31229747D01*
X54038208Y-31229500D01*
X54038017Y-31229500D01*
X54038011Y-31229500D01*
X53801989Y-31229500D01*
X53801983Y-31229500D01*
X53801981Y-31229500D01*
X53795861Y-31230253D01*
X53794955Y-31230425D01*
X53567992Y-31260305D01*
X53340001Y-31321395D01*
X53121950Y-31411715D01*
X53121942Y-31411719D01*
X52917545Y-31529730D01*
X52917536Y-31529736D01*
X52730309Y-31673399D01*
X52730300Y-31673408D01*
X52730286Y-31673420D01*
X52563420Y-31840286D01*
X52563413Y-31840294D01*
X52563399Y-31840309D01*
X52419736Y-32027536D01*
X52419730Y-32027545D01*
X52301719Y-32231942D01*
X52301715Y-32231950D01*
X52211395Y-32450001D01*
X52150305Y-32677992D01*
X52119503Y-32911963D01*
X52119501Y-32911979D01*
X52119500Y-32911995D01*
X52119500Y-33148004D01*
X52119501Y-33148020D01*
X52132464Y-33246491D01*
X52135726Y-33271265D01*
X52150305Y-33382006D01*
X52150307Y-33382014D01*
X52180199Y-33493572D01*
X52211394Y-33609993D01*
X52220732Y-33632537D01*
X52229459Y-33666732D01*
X52231130Y-33682272D01*
X52218726Y-33751032D01*
X52218724Y-33751033D01*
X52212633Y-33763204D01*
X52189429Y-33795383D01*
X49544788Y-36440025D01*
X49516538Y-36461174D01*
X49506611Y-36466595D01*
X49489180Y-36470387D01*
X49473524Y-36478934D01*
X49455749Y-36477660D01*
X49438338Y-36481449D01*
X49421626Y-36475216D01*
X49403832Y-36473942D01*
X49389568Y-36463261D01*
X49372873Y-36457035D01*
X49362181Y-36442754D01*
X49347904Y-36432063D01*
X49331010Y-36401116D01*
X49331000Y-36401103D01*
X49328313Y-36393897D01*
X49320500Y-36350577D01*
X49320500Y-35085015D01*
X49320417Y-35084310D01*
X49305372Y-34950770D01*
X49305368Y-34950746D01*
X49305367Y-34950743D01*
X49245788Y-34780476D01*
X49245786Y-34780473D01*
X49149815Y-34627737D01*
X49022261Y-34500183D01*
X48869525Y-34404212D01*
X48869522Y-34404210D01*
X48699255Y-34344631D01*
X48699252Y-34344630D01*
X48699230Y-34344627D01*
X48564966Y-34329500D01*
X48564960Y-34329500D01*
X48564954Y-34329500D01*
X46376877Y-34329500D01*
X46341942Y-34324477D01*
X46331088Y-34321290D01*
X46272310Y-34283516D01*
X46243285Y-34219960D01*
X46243599Y-34217773D01*
X46253225Y-34150811D01*
X46256415Y-34143824D01*
X46281524Y-34107660D01*
X47689088Y-32700097D01*
X51955589Y-28433594D01*
X51983837Y-28412448D01*
X51996020Y-28405795D01*
X52064294Y-28390945D01*
X52129755Y-28415362D01*
X52130966Y-28416269D01*
X52131096Y-28416366D01*
X52168280Y-28461419D01*
X52170470Y-28465927D01*
X52178710Y-28488017D01*
X52211395Y-28609997D01*
X52301715Y-28828048D01*
X52301719Y-28828056D01*
X52368100Y-28943030D01*
X52368124Y-28943070D01*
X52368473Y-28943675D01*
X52419727Y-29032450D01*
X52419729Y-29032453D01*
X52419730Y-29032454D01*
X52425479Y-29039947D01*
X52425482Y-29039951D01*
X52563399Y-29219689D01*
X52563403Y-29219694D01*
X52563406Y-29219697D01*
X52563412Y-29219704D01*
X52563420Y-29219712D01*
X52730281Y-29386574D01*
X52730297Y-29386589D01*
X52730305Y-29386595D01*
X52917548Y-29530272D01*
X52920995Y-29532262D01*
X53034864Y-29598004D01*
X53081137Y-29624720D01*
X53118503Y-29646294D01*
X53120245Y-29647376D01*
X53121663Y-29648163D01*
X53121937Y-29648276D01*
X53121943Y-29648280D01*
X53121948Y-29648282D01*
X53121951Y-29648284D01*
X53340007Y-29738606D01*
X53567986Y-29799693D01*
X53801989Y-29830500D01*
X53801996Y-29830500D01*
X54038004Y-29830500D01*
X54038011Y-29830500D01*
X54272014Y-29799693D01*
X54499993Y-29738606D01*
X54718049Y-29648284D01*
X54922450Y-29530273D01*
X55109699Y-29386592D01*
X55276592Y-29219699D01*
X55420273Y-29032450D01*
X55538284Y-28828049D01*
X55628606Y-28609993D01*
X55689693Y-28382014D01*
X55720500Y-28148011D01*
X55720500Y-27911989D01*
X55689693Y-27677986D01*
X55628606Y-27450007D01*
X55538284Y-27231951D01*
X55538282Y-27231948D01*
X55538280Y-27231943D01*
X55538277Y-27231938D01*
X55538162Y-27231660D01*
X55537382Y-27230255D01*
X55536297Y-27228509D01*
X55496118Y-27158918D01*
X55420273Y-27027550D01*
X55420272Y-27027548D01*
X55276595Y-26840305D01*
X55276589Y-26840297D01*
X55276574Y-26840281D01*
X55109712Y-26673420D01*
X55109704Y-26673412D01*
X55109697Y-26673406D01*
X55109695Y-26673404D01*
X55109689Y-26673399D01*
X54983594Y-26576644D01*
X54961663Y-26559816D01*
X54922450Y-26529727D01*
X54916332Y-26526195D01*
X54906985Y-26520798D01*
X54895526Y-26509284D01*
X54882992Y-26502747D01*
X54879271Y-26499009D01*
X54871446Y-26490802D01*
X54865331Y-26478945D01*
X54861307Y-26474901D01*
X54856218Y-26465989D01*
X54854139Y-26457239D01*
X54839427Y-26428708D01*
X54841700Y-26404877D01*
X54840069Y-26398011D01*
X54843207Y-26389081D01*
X54846062Y-26359154D01*
X54859918Y-26341531D01*
X54863235Y-26332093D01*
X54873819Y-26323850D01*
X54889246Y-26304230D01*
X54889822Y-26303819D01*
X54910564Y-26295236D01*
X54918361Y-26289165D01*
X54927166Y-26288366D01*
X54941128Y-26282588D01*
X54943345Y-26282215D01*
X54963899Y-26280500D01*
X58405016Y-26280500D01*
X58439948Y-26285521D01*
X58465192Y-26292934D01*
X58517938Y-26324230D01*
X58530295Y-26336587D01*
X58530302Y-26336593D01*
X58530305Y-26336595D01*
X58530309Y-26336599D01*
X58603438Y-26392712D01*
X58717548Y-26480272D01*
X58731458Y-26488303D01*
X58848918Y-26556118D01*
X58918516Y-26596301D01*
X58920255Y-26597382D01*
X58921660Y-26598162D01*
X58921938Y-26598277D01*
X58921943Y-26598280D01*
X58921948Y-26598282D01*
X58921951Y-26598284D01*
X59140007Y-26688606D01*
X59367986Y-26749693D01*
X59601989Y-26780500D01*
X59601996Y-26780500D01*
X59838004Y-26780500D01*
X59838011Y-26780500D01*
X60072014Y-26749693D01*
X60299993Y-26688606D01*
X60518049Y-26598284D01*
X60722450Y-26480273D01*
X60887465Y-26353653D01*
X60909694Y-26336596D01*
X60909694Y-26336595D01*
X60909699Y-26336592D01*
X60916868Y-26329422D01*
X60945115Y-26308277D01*
X60968210Y-26295667D01*
X61027635Y-26280500D01*
X64905016Y-26280500D01*
X64939948Y-26285521D01*
X64965192Y-26292934D01*
X65017938Y-26324230D01*
X65030295Y-26336587D01*
X65030302Y-26336593D01*
X65030305Y-26336595D01*
X65030309Y-26336599D01*
X65103438Y-26392712D01*
X65217548Y-26480272D01*
X65231458Y-26488303D01*
X65348918Y-26556118D01*
X65418516Y-26596301D01*
X65420255Y-26597382D01*
X65421660Y-26598162D01*
X65421938Y-26598277D01*
X65421943Y-26598280D01*
X65421948Y-26598282D01*
X65421951Y-26598284D01*
X65640007Y-26688606D01*
X65867986Y-26749693D01*
X66101989Y-26780500D01*
X66101996Y-26780500D01*
X66338004Y-26780500D01*
X66338011Y-26780500D01*
X66572014Y-26749693D01*
X66799993Y-26688606D01*
X67018049Y-26598284D01*
X67222450Y-26480273D01*
X67409699Y-26336592D01*
X67576592Y-26169699D01*
X67720273Y-25982450D01*
X67838284Y-25778049D01*
X67928606Y-25559993D01*
X67989693Y-25332014D01*
X68020500Y-25098011D01*
X68020500Y-24861989D01*
X67989693Y-24627986D01*
X67928606Y-24400007D01*
X67838284Y-24181951D01*
X67838282Y-24181948D01*
X67838280Y-24181943D01*
X67838276Y-24181937D01*
X67838163Y-24181663D01*
X67837374Y-24180241D01*
X67836294Y-24178503D01*
X67778732Y-24078803D01*
X67776557Y-24075037D01*
X67763442Y-24042277D01*
X67763006Y-24040479D01*
X67760170Y-24028789D01*
X67763491Y-23959001D01*
X67777649Y-23939117D01*
X67804012Y-23902090D01*
X67805293Y-23901082D01*
X67858502Y-23876785D01*
X67863425Y-23875836D01*
X67886870Y-23873600D01*
X79388000Y-23873600D01*
X79405047Y-23876051D01*
G37*
%TD.AperFunction*%
%TA.AperFunction,NonConductor*%
G36*
X31842247Y-29085521D02*
G01*
X31853100Y-29088707D01*
X31868100Y-29098345D01*
X31885212Y-29103370D01*
X31896884Y-29116841D01*
X31911881Y-29126477D01*
X31919290Y-29142698D01*
X31930967Y-29156174D01*
X31933503Y-29173816D01*
X31940910Y-29190031D01*
X31938373Y-29207682D01*
X31940911Y-29225332D01*
X31930971Y-29259183D01*
X31930971Y-29259190D01*
X31930968Y-29259197D01*
X31929682Y-29262013D01*
X31889772Y-29310820D01*
X31866086Y-29328028D01*
X31866064Y-29328048D01*
X30106338Y-31087775D01*
X30106338Y-31087776D01*
X30106336Y-31087778D01*
X30098199Y-31098978D01*
X29986016Y-31253383D01*
X29986014Y-31253386D01*
X29968717Y-31287335D01*
X29962049Y-31300421D01*
X29892632Y-31436658D01*
X29891572Y-31440420D01*
X29888089Y-31451137D01*
X29888086Y-31451145D01*
X29829821Y-31630467D01*
X29822125Y-31679065D01*
X29822125Y-31679066D01*
X29797800Y-31832648D01*
X29797800Y-37362623D01*
X29797799Y-37362625D01*
X29797800Y-37362626D01*
X29796768Y-37369800D01*
X29792776Y-37397561D01*
X29789589Y-37408414D01*
X29751814Y-37467191D01*
X29688257Y-37496214D01*
X29619107Y-37486273D01*
X29612129Y-37483086D01*
X29575957Y-37457972D01*
X28219426Y-36101441D01*
X28198274Y-36073185D01*
X28185667Y-36050096D01*
X28170500Y-35990671D01*
X28170500Y-33906132D01*
X28175523Y-33871198D01*
X28184309Y-33841275D01*
X28202969Y-33803323D01*
X28259835Y-33725054D01*
X28281634Y-33695051D01*
X28399579Y-33463572D01*
X28479860Y-33216493D01*
X28515749Y-32989897D01*
X28520500Y-32959902D01*
X28520500Y-32700097D01*
X28484611Y-32473506D01*
X28484610Y-32473502D01*
X28480888Y-32450001D01*
X28479860Y-32443507D01*
X28399579Y-32196428D01*
X28399577Y-32196425D01*
X28399577Y-32196423D01*
X28397349Y-32192051D01*
X28397035Y-32191245D01*
X28396289Y-32189970D01*
X28356787Y-32112445D01*
X28356786Y-32112444D01*
X28281634Y-31964949D01*
X28128931Y-31754771D01*
X28034448Y-31660288D01*
X28013296Y-31632032D01*
X28005804Y-31618311D01*
X28005618Y-31617455D01*
X27990952Y-31550051D01*
X27991081Y-31548242D01*
X28010447Y-31490047D01*
X28014640Y-31483523D01*
X28031258Y-31462901D01*
X28058379Y-31435781D01*
X28128931Y-31365229D01*
X28281634Y-31155051D01*
X28399579Y-30923572D01*
X28479860Y-30676493D01*
X28502539Y-30533298D01*
X28520500Y-30419902D01*
X28520500Y-30160097D01*
X28498947Y-30024021D01*
X28479860Y-29903507D01*
X28399579Y-29656428D01*
X28399577Y-29656425D01*
X28399577Y-29656423D01*
X28397329Y-29652012D01*
X28397022Y-29651224D01*
X28396292Y-29649976D01*
X28336312Y-29532260D01*
X28335298Y-29530269D01*
X28281634Y-29424949D01*
X28194354Y-29304818D01*
X28184897Y-29291802D01*
X28184895Y-29291795D01*
X28168431Y-29260591D01*
X28164077Y-29248391D01*
X28163060Y-29230594D01*
X28161420Y-29225996D01*
X28162526Y-29221240D01*
X28160091Y-29178637D01*
X28194451Y-29117800D01*
X28251071Y-29086361D01*
X28258543Y-29084511D01*
X28260071Y-29084133D01*
X28289865Y-29080500D01*
X31807320Y-29080500D01*
X31842247Y-29085521D01*
G37*
%TD.AperFunction*%
%TA.AperFunction,NonConductor*%
G36*
X64561460Y-30783888D02*
G01*
X64561474Y-30783781D01*
X64563595Y-30784055D01*
X64564068Y-30784262D01*
X64572826Y-30785522D01*
X64580520Y-30787781D01*
X64579554Y-30791068D01*
X64627560Y-30812166D01*
X64666172Y-30870397D01*
X64667173Y-30940260D01*
X64630245Y-30999573D01*
X64602317Y-31018361D01*
X64601895Y-31018568D01*
X64585604Y-31025171D01*
X64435084Y-31074077D01*
X64252689Y-31167013D01*
X64252686Y-31167014D01*
X64252686Y-31167015D01*
X64138890Y-31249691D01*
X64092643Y-31283292D01*
X64092642Y-31283291D01*
X64087085Y-31287329D01*
X64087077Y-31287336D01*
X57916140Y-37458273D01*
X57900840Y-37466734D01*
X57889051Y-37478780D01*
X57887890Y-37479422D01*
X57877963Y-37484843D01*
X57861697Y-37488381D01*
X57856117Y-37491468D01*
X57845108Y-37493987D01*
X57837936Y-37493551D01*
X57809690Y-37499697D01*
X57784512Y-37490307D01*
X57775367Y-37489752D01*
X57767414Y-37483931D01*
X57744225Y-37475283D01*
X57730434Y-37456862D01*
X57718987Y-37448483D01*
X57713500Y-37434242D01*
X57702352Y-37419351D01*
X57701262Y-37416430D01*
X57699386Y-37397608D01*
X57693868Y-37383285D01*
X57696625Y-37369919D01*
X57694997Y-37353587D01*
X57695121Y-37352807D01*
X57702020Y-37309252D01*
X57716100Y-37220352D01*
X57716100Y-36080346D01*
X57711692Y-36052518D01*
X57711692Y-36052516D01*
X57708692Y-36033574D01*
X57684077Y-35878165D01*
X57626122Y-35699799D01*
X57620820Y-35683481D01*
X57620818Y-35683478D01*
X57620818Y-35683476D01*
X57618575Y-35679074D01*
X57618263Y-35678274D01*
X57617534Y-35677029D01*
X57584487Y-35612175D01*
X57542567Y-35529902D01*
X57527887Y-35501090D01*
X57520156Y-35490449D01*
X57407571Y-35335486D01*
X57259472Y-35187387D01*
X57238320Y-35159131D01*
X57230828Y-35145410D01*
X57215976Y-35077150D01*
X57216105Y-35075341D01*
X57235471Y-35017146D01*
X57239664Y-35010622D01*
X57256285Y-34989997D01*
X58864273Y-33382010D01*
X60560150Y-31686133D01*
X60560157Y-31686127D01*
X60567217Y-31679067D01*
X60567219Y-31679066D01*
X60711966Y-31534319D01*
X60783557Y-31435782D01*
X60832287Y-31368711D01*
X60887521Y-31260307D01*
X60925220Y-31186319D01*
X60982242Y-31010823D01*
X60982243Y-31010823D01*
X60982243Y-31010818D01*
X60988477Y-30991635D01*
X60991045Y-30975425D01*
X61002561Y-30902711D01*
X61012987Y-30868992D01*
X61019683Y-30854867D01*
X61066184Y-30802723D01*
X61071793Y-30799230D01*
X61137325Y-30780500D01*
X64537893Y-30780500D01*
X64561460Y-30783888D01*
G37*
%TD.AperFunction*%
%TA.AperFunction,NonConductor*%
G36*
X44467126Y-36076962D02*
G01*
X44508999Y-36132894D01*
X44509001Y-36132898D01*
X44511682Y-36140086D01*
X44519500Y-36183420D01*
X44519500Y-37174966D01*
X44534627Y-37309230D01*
X44534630Y-37309252D01*
X44534631Y-37309255D01*
X44594210Y-37479522D01*
X44594213Y-37479527D01*
X44637204Y-37547946D01*
X44637205Y-37547947D01*
X44690184Y-37632262D01*
X44817738Y-37759816D01*
X44852789Y-37781840D01*
X44970477Y-37855789D01*
X44970480Y-37855790D01*
X44998645Y-37865645D01*
X44998646Y-37865646D01*
X44998647Y-37865646D01*
X45027067Y-37875590D01*
X45140745Y-37915368D01*
X45140750Y-37915369D01*
X45140754Y-37915369D01*
X45140770Y-37915372D01*
X45188724Y-37920774D01*
X45231246Y-37925565D01*
X45272068Y-37930164D01*
X45274511Y-37930500D01*
X45275043Y-37930500D01*
X45275046Y-37930500D01*
X47737123Y-37930500D01*
X47772050Y-37935521D01*
X47782903Y-37938707D01*
X47841684Y-37976477D01*
X47870713Y-38040031D01*
X47860774Y-38109190D01*
X47860773Y-38109192D01*
X47857588Y-38116167D01*
X47832472Y-38152342D01*
X43244988Y-42739826D01*
X43216738Y-42760975D01*
X43206811Y-42766396D01*
X43189380Y-42770188D01*
X43173724Y-42778735D01*
X43155949Y-42777461D01*
X43138538Y-42781250D01*
X43121826Y-42775017D01*
X43104032Y-42773743D01*
X43089768Y-42763062D01*
X43073073Y-42756836D01*
X43062381Y-42742555D01*
X43048104Y-42731864D01*
X43031210Y-42700917D01*
X43031200Y-42700904D01*
X43028513Y-42693698D01*
X43020700Y-42650378D01*
X43020700Y-37437675D01*
X43025722Y-37402742D01*
X43026915Y-37398679D01*
X43033134Y-37377497D01*
X43064428Y-37324755D01*
X44295214Y-36093969D01*
X44323457Y-36072825D01*
X44333391Y-36067401D01*
X44401661Y-36052548D01*
X44467126Y-36076962D01*
G37*
%TD.AperFunction*%
%TA.AperFunction,NonConductor*%
G36*
X34693739Y-29089745D02*
G01*
X34704603Y-29092935D01*
X34757345Y-29124230D01*
X37155081Y-31521966D01*
X37320689Y-31642287D01*
X37381768Y-31673408D01*
X37503081Y-31735220D01*
X37563253Y-31754771D01*
X37697765Y-31798477D01*
X37697767Y-31798477D01*
X37697769Y-31798478D01*
X37752610Y-31807163D01*
X37828940Y-31819253D01*
X37862649Y-31829677D01*
X37872352Y-31834276D01*
X37875194Y-31835624D01*
X37927338Y-31882129D01*
X37946062Y-31949416D01*
X37946027Y-31951901D01*
X37932183Y-32007113D01*
X37930582Y-32010209D01*
X37921797Y-32024046D01*
X37921984Y-32024171D01*
X37919734Y-32027537D01*
X37801719Y-32231942D01*
X37801715Y-32231950D01*
X37711395Y-32450001D01*
X37650305Y-32677992D01*
X37619503Y-32911963D01*
X37619501Y-32911979D01*
X37619500Y-32911995D01*
X37619500Y-33148004D01*
X37619501Y-33148020D01*
X37635726Y-33271266D01*
X37650307Y-33382014D01*
X37672162Y-33463576D01*
X37680199Y-33493572D01*
X37711395Y-33609997D01*
X37798905Y-33821264D01*
X37801714Y-33828045D01*
X37801719Y-33828056D01*
X37872677Y-33950957D01*
X37919727Y-34032450D01*
X37919729Y-34032453D01*
X37919730Y-34032454D01*
X37925446Y-34039904D01*
X37925449Y-34039908D01*
X38063395Y-34219683D01*
X38063406Y-34219697D01*
X38063411Y-34219703D01*
X38070570Y-34226861D01*
X38070571Y-34226863D01*
X38070573Y-34226865D01*
X38074459Y-34232056D01*
X38091721Y-34255114D01*
X38104329Y-34278201D01*
X38119500Y-34337633D01*
X38119500Y-43136423D01*
X38114476Y-43171361D01*
X38111289Y-43182214D01*
X38073514Y-43240991D01*
X38009957Y-43270014D01*
X37940807Y-43260073D01*
X37933829Y-43256886D01*
X37897657Y-43231772D01*
X32447726Y-37781841D01*
X32447721Y-37781836D01*
X32426574Y-37753585D01*
X32413967Y-37730496D01*
X32398800Y-37671071D01*
X32398800Y-37028680D01*
X32403822Y-36993747D01*
X32407733Y-36980428D01*
X32417704Y-36964911D01*
X32418364Y-36960941D01*
X32424888Y-36953733D01*
X32445506Y-36921651D01*
X32459868Y-36915091D01*
X32465254Y-36909142D01*
X32483965Y-36904086D01*
X32509058Y-36892626D01*
X32512370Y-36892150D01*
X32524454Y-36893146D01*
X32532705Y-36890917D01*
X32567518Y-36896696D01*
X32569401Y-36897293D01*
X32588188Y-36905000D01*
X32636090Y-36929408D01*
X32636924Y-36929837D01*
X32637259Y-36930011D01*
X32641031Y-36931074D01*
X32883507Y-37009860D01*
X32966438Y-37022994D01*
X33015545Y-37030772D01*
X33015644Y-37030787D01*
X33015706Y-37030797D01*
X33140098Y-37050500D01*
X33140103Y-37050500D01*
X33399901Y-37050500D01*
X33399902Y-37050500D01*
X33513298Y-37032539D01*
X33656493Y-37009860D01*
X33903572Y-36929579D01*
X34135051Y-36811634D01*
X34345229Y-36658931D01*
X34528931Y-36475229D01*
X34681634Y-36265051D01*
X34799579Y-36033572D01*
X34879860Y-35786493D01*
X34891199Y-35714895D01*
X34902539Y-35643300D01*
X34902539Y-35643298D01*
X34920500Y-35529900D01*
X34920500Y-35270098D01*
X34895690Y-35113457D01*
X34895690Y-35113456D01*
X34884652Y-35043765D01*
X34879860Y-35013507D01*
X34872219Y-34989992D01*
X34804143Y-34780476D01*
X34799579Y-34766428D01*
X34799577Y-34766425D01*
X34799577Y-34766423D01*
X34797349Y-34762051D01*
X34797035Y-34761245D01*
X34796289Y-34759970D01*
X34756787Y-34682445D01*
X34756786Y-34682444D01*
X34681634Y-34534949D01*
X34528931Y-34324771D01*
X34434448Y-34230288D01*
X34431885Y-34226865D01*
X34413296Y-34202032D01*
X34405804Y-34188311D01*
X34390952Y-34120051D01*
X34391081Y-34118242D01*
X34410447Y-34060047D01*
X34414640Y-34053523D01*
X34431360Y-34032799D01*
X34431710Y-34032450D01*
X34528931Y-33935229D01*
X34681634Y-33725051D01*
X34799579Y-33493572D01*
X34879860Y-33246493D01*
X34891199Y-33174895D01*
X34902539Y-33103300D01*
X34902539Y-33103298D01*
X34920500Y-32989902D01*
X34920500Y-32730097D01*
X34898947Y-32594021D01*
X34879860Y-32473507D01*
X34799579Y-32226428D01*
X34799577Y-32226425D01*
X34799577Y-32226423D01*
X34797349Y-32222051D01*
X34797035Y-32221245D01*
X34796289Y-32219970D01*
X34756787Y-32142445D01*
X34756786Y-32142444D01*
X34741501Y-32112445D01*
X34681634Y-31994949D01*
X34528931Y-31784771D01*
X34434448Y-31690288D01*
X34432582Y-31687796D01*
X34413296Y-31662032D01*
X34405804Y-31648311D01*
X34390952Y-31580051D01*
X34391081Y-31578242D01*
X34410447Y-31520047D01*
X34414640Y-31513523D01*
X34431263Y-31492896D01*
X34451841Y-31472319D01*
X34528931Y-31395229D01*
X34681634Y-31185051D01*
X34799579Y-30953572D01*
X34879860Y-30706493D01*
X34884611Y-30676496D01*
X34917005Y-30471968D01*
X34917005Y-30471967D01*
X34920500Y-30449901D01*
X34920500Y-30190098D01*
X34918582Y-30177986D01*
X34882473Y-29950007D01*
X34879860Y-29933507D01*
X34870113Y-29903510D01*
X34802189Y-29694460D01*
X34802187Y-29694456D01*
X34799579Y-29686428D01*
X34799577Y-29686425D01*
X34799577Y-29686423D01*
X34797338Y-29682029D01*
X34797026Y-29681229D01*
X34796292Y-29679976D01*
X34784293Y-29656428D01*
X34754528Y-29598011D01*
X34681634Y-29454949D01*
X34614095Y-29361989D01*
X34563102Y-29291803D01*
X34554428Y-29275362D01*
X34554212Y-29275489D01*
X34551729Y-29271235D01*
X34551267Y-29269372D01*
X34546632Y-29260586D01*
X34544512Y-29254643D01*
X34547368Y-29253624D01*
X34534935Y-29203414D01*
X34557474Y-29137279D01*
X34612190Y-29093829D01*
X34681711Y-29086858D01*
X34693739Y-29089745D01*
G37*
%TD.AperFunction*%
%TA.AperFunction,NonConductor*%
G36*
X55091574Y-37310275D02*
G01*
X55131477Y-37361262D01*
X55135086Y-37369800D01*
X55143344Y-37398679D01*
X55147122Y-37422533D01*
X55210380Y-37617221D01*
X55210383Y-37617228D01*
X55256590Y-37707911D01*
X55256591Y-37707913D01*
X55292284Y-37777965D01*
X55297461Y-37788126D01*
X55303315Y-37799613D01*
X55423628Y-37965213D01*
X55568386Y-38109971D01*
X55723349Y-38222556D01*
X55733990Y-38230287D01*
X55850207Y-38289503D01*
X55910754Y-38320353D01*
X55911643Y-38320824D01*
X55911849Y-38321025D01*
X55915229Y-38322662D01*
X55917237Y-38323660D01*
X55921003Y-38324722D01*
X55961088Y-38337746D01*
X56020735Y-38357126D01*
X56020736Y-38357127D01*
X56064212Y-38371253D01*
X56111065Y-38386477D01*
X56212157Y-38402488D01*
X56313248Y-38418500D01*
X56313249Y-38418500D01*
X56517950Y-38418500D01*
X56517951Y-38418500D01*
X56517952Y-38418500D01*
X56643791Y-38398568D01*
X56661145Y-38400717D01*
X56677774Y-38397902D01*
X56679079Y-38398063D01*
X56690294Y-38399512D01*
X56705544Y-38406214D01*
X56711876Y-38406999D01*
X56722262Y-38411433D01*
X56727802Y-38415997D01*
X56754257Y-38427624D01*
X56769115Y-38450031D01*
X56776189Y-38455859D01*
X56779198Y-38465237D01*
X56792870Y-38485855D01*
X56793200Y-38508872D01*
X56797537Y-38522387D01*
X56793606Y-38537121D01*
X56793873Y-38555709D01*
X56793043Y-38558694D01*
X56783479Y-38575078D01*
X56779527Y-38589896D01*
X56769499Y-38599031D01*
X56761256Y-38613156D01*
X51874788Y-43499625D01*
X51846538Y-43520774D01*
X51836611Y-43526195D01*
X51768338Y-43541049D01*
X51702873Y-43516635D01*
X51661000Y-43460703D01*
X51658313Y-43453497D01*
X51650500Y-43410177D01*
X51650500Y-43320099D01*
X51648076Y-43304791D01*
X51624232Y-43154253D01*
X51623691Y-43150840D01*
X51619045Y-43121506D01*
X51609860Y-43063507D01*
X51607408Y-43055962D01*
X51532192Y-42824471D01*
X51529579Y-42816428D01*
X51529577Y-42816425D01*
X51529577Y-42816423D01*
X51527336Y-42812025D01*
X51527024Y-42811225D01*
X51526293Y-42809976D01*
X51466915Y-42693444D01*
X51466914Y-42693443D01*
X51452296Y-42664753D01*
X51411634Y-42584949D01*
X51258931Y-42374771D01*
X51075229Y-42191069D01*
X51056880Y-42177738D01*
X50946770Y-42097738D01*
X50875651Y-42046067D01*
X50875649Y-42046065D01*
X50865054Y-42038368D01*
X50865053Y-42038367D01*
X50865051Y-42038366D01*
X50783966Y-41997051D01*
X50783966Y-41997050D01*
X50783965Y-41997050D01*
X50633576Y-41920422D01*
X50633575Y-41920421D01*
X50633572Y-41920420D01*
X50618061Y-41915380D01*
X50610721Y-41912995D01*
X50579055Y-41897425D01*
X50567599Y-41889592D01*
X50523369Y-41835504D01*
X50515403Y-41766093D01*
X50515979Y-41762766D01*
X50537305Y-41711798D01*
X50538456Y-41710190D01*
X50551616Y-41694666D01*
X54918225Y-37328057D01*
X54946471Y-37306914D01*
X54957837Y-37300707D01*
X55026110Y-37285857D01*
X55091574Y-37310275D01*
G37*
%TD.AperFunction*%
%TA.AperFunction,NonConductor*%
G36*
X64065146Y-42097621D02*
G01*
X64078465Y-42101532D01*
X64093963Y-42111492D01*
X64097919Y-42112148D01*
X64105119Y-42118661D01*
X64137243Y-42139306D01*
X64143794Y-42153650D01*
X64149732Y-42159022D01*
X64154795Y-42177738D01*
X64166269Y-42202861D01*
X64166269Y-42202865D01*
X64166744Y-42206169D01*
X64165751Y-42218235D01*
X64167978Y-42226467D01*
X64162208Y-42261287D01*
X64161612Y-42263167D01*
X64153895Y-42281988D01*
X64136763Y-42315611D01*
X64136759Y-42315619D01*
X64058908Y-42555218D01*
X64049804Y-42612699D01*
X64049804Y-42612700D01*
X64039377Y-42646419D01*
X64026018Y-42674598D01*
X64001653Y-42709160D01*
X62983441Y-43727373D01*
X62955190Y-43748522D01*
X62932102Y-43761130D01*
X62872672Y-43776300D01*
X61405251Y-43776300D01*
X61405248Y-43776299D01*
X61405247Y-43776300D01*
X61370312Y-43771276D01*
X61356994Y-43767365D01*
X61298217Y-43729589D01*
X61269196Y-43666040D01*
X61268721Y-43662737D01*
X61273266Y-43607580D01*
X61273864Y-43605695D01*
X61281570Y-43586912D01*
X61299955Y-43550830D01*
X61302559Y-43545718D01*
X61303237Y-43544388D01*
X61303239Y-43544382D01*
X61303241Y-43544379D01*
X61381090Y-43304785D01*
X61390196Y-43247288D01*
X61400617Y-43213584D01*
X61413979Y-43185398D01*
X61438339Y-43150843D01*
X62447661Y-42141523D01*
X62475911Y-42120375D01*
X62499003Y-42107767D01*
X62558428Y-42092600D01*
X64030214Y-42092600D01*
X64065146Y-42097621D01*
G37*
%TD.AperFunction*%
%TA.AperFunction,NonConductor*%
G36*
X55774612Y-43433923D02*
G01*
X55777818Y-43436323D01*
X55814788Y-43480912D01*
X55814871Y-43481081D01*
X55821501Y-43497424D01*
X55837061Y-43545313D01*
X55838978Y-43548735D01*
X55864994Y-43599795D01*
X55876379Y-43633203D01*
X55878941Y-43646846D01*
X55877161Y-43664584D01*
X55877890Y-43668464D01*
X55876405Y-43672121D01*
X55871967Y-43716367D01*
X55828515Y-43771081D01*
X55828513Y-43771083D01*
X55820814Y-43776510D01*
X55778371Y-43795720D01*
X55773353Y-43796927D01*
X55773345Y-43796929D01*
X55773342Y-43796930D01*
X55764955Y-43798946D01*
X55752961Y-43801830D01*
X55748192Y-43802877D01*
X55743406Y-43803830D01*
X55738592Y-43804691D01*
X55710948Y-43809070D01*
X55695469Y-43811522D01*
X55695465Y-43811522D01*
X55695457Y-43811524D01*
X55695452Y-43811526D01*
X55653381Y-43825195D01*
X55648744Y-43826602D01*
X55644102Y-43827912D01*
X55639421Y-43829135D01*
X55596404Y-43839481D01*
X55596396Y-43839483D01*
X55556044Y-43856215D01*
X55551493Y-43857998D01*
X55546934Y-43859681D01*
X55542312Y-43861284D01*
X55530824Y-43865017D01*
X55496042Y-43871036D01*
X55485360Y-43871341D01*
X55417786Y-43853578D01*
X55370543Y-43802102D01*
X55358629Y-43733255D01*
X55378965Y-43678134D01*
X55381176Y-43674851D01*
X55396339Y-43656443D01*
X55600547Y-43452235D01*
X55611938Y-43442164D01*
X55614760Y-43439962D01*
X55619945Y-43437908D01*
X55629103Y-43431500D01*
X55628861Y-43431055D01*
X55630077Y-43430392D01*
X55630245Y-43430701D01*
X55636322Y-43426449D01*
X55645571Y-43421901D01*
X55671870Y-43417349D01*
X55679723Y-43414240D01*
X55684455Y-43415170D01*
X55714414Y-43409985D01*
X55774612Y-43433923D01*
G37*
%TD.AperFunction*%
%TA.AperFunction,NonConductor*%
G36*
X48362736Y-43969863D02*
G01*
X48370720Y-43969462D01*
X48387543Y-43979116D01*
X48413441Y-43988776D01*
X48416125Y-43990785D01*
X48423943Y-44000005D01*
X48431320Y-44004238D01*
X48451868Y-44032934D01*
X48452776Y-44034684D01*
X48460639Y-44053470D01*
X48470420Y-44083572D01*
X48519394Y-44179687D01*
X48580121Y-44298870D01*
X48588368Y-44315054D01*
X48588372Y-44315061D01*
X48741065Y-44525224D01*
X48741066Y-44525225D01*
X48741071Y-44525231D01*
X48835554Y-44619714D01*
X48849402Y-44636208D01*
X48854836Y-44643959D01*
X48855845Y-44646945D01*
X48856701Y-44647965D01*
X48858884Y-44651963D01*
X48858000Y-44652445D01*
X48866472Y-44666722D01*
X48867138Y-44666419D01*
X48868403Y-44669189D01*
X48868552Y-44670228D01*
X48869473Y-44671780D01*
X48870514Y-44674569D01*
X48869245Y-44675042D01*
X48871374Y-44689836D01*
X48876244Y-44698757D01*
X48875738Y-44705820D01*
X48877202Y-44710152D01*
X48875357Y-44717518D01*
X48877509Y-44732473D01*
X48878859Y-44732570D01*
X48878759Y-44733966D01*
X48878012Y-44735967D01*
X48878350Y-44738316D01*
X48877918Y-44741326D01*
X48876109Y-44741066D01*
X48872527Y-44750669D01*
X48871254Y-44768449D01*
X48854337Y-44799424D01*
X48853464Y-44800590D01*
X48841884Y-44813953D01*
X48794947Y-44860890D01*
X48787803Y-44867494D01*
X48780410Y-44873809D01*
X48772758Y-44879842D01*
X48610084Y-44998030D01*
X48610064Y-44998048D01*
X47125888Y-46482226D01*
X47100410Y-46501300D01*
X47097638Y-46503375D01*
X47087711Y-46508796D01*
X47019438Y-46523650D01*
X46953973Y-46499236D01*
X46912100Y-46443304D01*
X46909413Y-46436098D01*
X46901600Y-46392778D01*
X46901600Y-45413875D01*
X46906622Y-45378942D01*
X46914034Y-45353697D01*
X46945328Y-45300955D01*
X47593193Y-44653091D01*
X48239275Y-44007007D01*
X48267523Y-43985862D01*
X48279706Y-43979209D01*
X48297686Y-43975298D01*
X48300939Y-43972970D01*
X48310633Y-43972482D01*
X48347980Y-43964359D01*
X48362736Y-43969863D01*
G37*
%TD.AperFunction*%
%TA.AperFunction,NonConductor*%
G36*
X66795655Y-48408305D02*
G01*
X66809798Y-48413012D01*
X66821751Y-48413012D01*
X66853850Y-48427670D01*
X66860370Y-48431860D01*
X66881005Y-48448490D01*
X67300572Y-48868057D01*
X67321723Y-48896310D01*
X67327884Y-48907593D01*
X67329814Y-48910597D01*
X67349500Y-48977634D01*
X67349500Y-49129225D01*
X67349499Y-49129231D01*
X67349500Y-49129234D01*
X67345207Y-49159079D01*
X67344475Y-49164169D01*
X67340826Y-49176593D01*
X67303047Y-49235368D01*
X67239489Y-49264388D01*
X67175223Y-49256548D01*
X67166633Y-49253062D01*
X67140376Y-49238481D01*
X67036779Y-49163214D01*
X66982949Y-49124104D01*
X66982608Y-49123813D01*
X66975044Y-49118360D01*
X66974680Y-49118177D01*
X66902764Y-49081534D01*
X66902764Y-49081533D01*
X66902762Y-49081533D01*
X66743581Y-49000424D01*
X66743574Y-49000421D01*
X66498745Y-48920871D01*
X66483932Y-48914981D01*
X66466153Y-48906550D01*
X66414014Y-48860039D01*
X66395297Y-48792723D01*
X66413098Y-48730474D01*
X66417884Y-48722537D01*
X66436383Y-48698899D01*
X66683616Y-48451667D01*
X66711871Y-48430517D01*
X66725589Y-48423027D01*
X66741781Y-48419503D01*
X66751881Y-48413013D01*
X66771616Y-48413012D01*
X66793845Y-48408176D01*
X66795655Y-48408305D01*
G37*
%TD.AperFunction*%
%TA.AperFunction,NonConductor*%
G36*
X26184586Y-37759823D02*
G01*
X26191572Y-37763013D01*
X26227742Y-37788126D01*
X32498982Y-44059366D01*
X32664589Y-44179687D01*
X32846982Y-44272620D01*
X33041665Y-44335877D01*
X33243849Y-44367900D01*
X33243850Y-44367900D01*
X33448551Y-44367900D01*
X33448552Y-44367900D01*
X33650735Y-44335877D01*
X33845418Y-44272620D01*
X34027811Y-44179687D01*
X34193419Y-44059366D01*
X34338166Y-43914619D01*
X34458487Y-43749011D01*
X34466758Y-43732776D01*
X34487089Y-43703933D01*
X34489877Y-43700980D01*
X34496617Y-43693843D01*
X34556955Y-43658616D01*
X34626756Y-43661602D01*
X34633394Y-43663864D01*
X34681066Y-43693551D01*
X35821873Y-44834358D01*
X35843023Y-44862610D01*
X35855631Y-44885699D01*
X35870800Y-44945128D01*
X35870800Y-44956656D01*
X35902821Y-45158830D01*
X35902822Y-45158834D01*
X35930420Y-45243771D01*
X35966080Y-45353521D01*
X35966086Y-45353534D01*
X36059008Y-45535901D01*
X36059015Y-45535913D01*
X36179328Y-45701513D01*
X36324086Y-45846271D01*
X36478415Y-45958395D01*
X36489690Y-45966587D01*
X36587183Y-46016262D01*
X36665629Y-46056233D01*
X36667227Y-46057169D01*
X36670915Y-46058955D01*
X36672940Y-46059961D01*
X36676706Y-46061023D01*
X36719256Y-46074847D01*
X36776435Y-46093426D01*
X36776436Y-46093427D01*
X36819912Y-46107553D01*
X36866765Y-46122777D01*
X36967857Y-46138788D01*
X37068948Y-46154800D01*
X37068949Y-46154800D01*
X37273651Y-46154800D01*
X37273652Y-46154800D01*
X37475834Y-46122777D01*
X37670519Y-46059520D01*
X37852910Y-45966587D01*
X37889833Y-45939760D01*
X37906936Y-45927334D01*
X37906953Y-45927321D01*
X37907156Y-45927174D01*
X37908216Y-45926403D01*
X37939391Y-45909958D01*
X37951606Y-45905599D01*
X37969426Y-45904580D01*
X37974020Y-45902943D01*
X37978762Y-45904046D01*
X38021357Y-45901611D01*
X38082196Y-45935968D01*
X38113636Y-45992582D01*
X38115864Y-46001579D01*
X38119500Y-46031386D01*
X38119500Y-46338522D01*
X38119499Y-46338524D01*
X38119500Y-46338525D01*
X38114476Y-46373459D01*
X38107064Y-46398700D01*
X38075769Y-46451444D01*
X28908945Y-55618267D01*
X28880692Y-55639418D01*
X28868510Y-55646070D01*
X28850491Y-55649989D01*
X28847220Y-55652330D01*
X28837510Y-55652813D01*
X28800237Y-55660922D01*
X28785447Y-55655406D01*
X28777436Y-55655805D01*
X28760628Y-55646149D01*
X28734774Y-55636506D01*
X28732087Y-55634495D01*
X28724253Y-55625252D01*
X28716852Y-55621001D01*
X28696318Y-55592295D01*
X28695410Y-55590543D01*
X28687572Y-55571803D01*
X28669581Y-55516432D01*
X28669579Y-55516428D01*
X28551634Y-55284949D01*
X28398931Y-55074771D01*
X28304448Y-54980288D01*
X28283296Y-54952032D01*
X28275804Y-54938311D01*
X28260952Y-54870051D01*
X28261081Y-54868242D01*
X28280447Y-54810047D01*
X28284640Y-54803523D01*
X28301257Y-54782902D01*
X28398931Y-54685229D01*
X28551634Y-54475051D01*
X28669579Y-54243572D01*
X28749860Y-53996493D01*
X28776402Y-53828913D01*
X28790500Y-53739902D01*
X28790500Y-53480097D01*
X28759795Y-53286235D01*
X28749860Y-53223507D01*
X28669579Y-52976428D01*
X28669577Y-52976425D01*
X28669577Y-52976423D01*
X28667349Y-52972051D01*
X28667035Y-52971245D01*
X28666289Y-52969970D01*
X28620110Y-52879341D01*
X28620109Y-52879340D01*
X28617871Y-52874947D01*
X28551634Y-52744949D01*
X28398931Y-52534771D01*
X28304448Y-52440288D01*
X28304124Y-52439856D01*
X28283296Y-52412032D01*
X28275804Y-52398311D01*
X28260952Y-52330051D01*
X28261081Y-52328242D01*
X28280447Y-52270047D01*
X28284640Y-52263523D01*
X28301258Y-52242901D01*
X28334737Y-52209423D01*
X28398931Y-52145229D01*
X28551634Y-51935051D01*
X28669579Y-51703572D01*
X28749860Y-51456493D01*
X28787872Y-51216493D01*
X28787873Y-51216491D01*
X28790500Y-51199902D01*
X28790500Y-50940098D01*
X28768947Y-50804021D01*
X28768947Y-50804020D01*
X28764175Y-50773892D01*
X28749860Y-50683507D01*
X28669579Y-50436428D01*
X28669577Y-50436425D01*
X28669577Y-50436423D01*
X28667349Y-50432051D01*
X28667035Y-50431245D01*
X28666289Y-50429970D01*
X28626787Y-50352445D01*
X28626786Y-50352444D01*
X28551634Y-50204949D01*
X28398931Y-49994771D01*
X28304448Y-49900288D01*
X28297151Y-49890541D01*
X28283296Y-49872032D01*
X28275804Y-49858311D01*
X28260952Y-49790051D01*
X28261081Y-49788242D01*
X28280447Y-49730047D01*
X28284640Y-49723523D01*
X28301262Y-49702897D01*
X28339215Y-49664945D01*
X28398931Y-49605229D01*
X28551634Y-49395051D01*
X28669579Y-49163572D01*
X28749860Y-48916493D01*
X28779322Y-48730474D01*
X28782630Y-48709589D01*
X28782630Y-48709587D01*
X28790500Y-48659900D01*
X28790500Y-48400098D01*
X28785471Y-48368350D01*
X28768947Y-48264021D01*
X28749860Y-48143507D01*
X28684644Y-47942794D01*
X28672189Y-47904460D01*
X28672187Y-47904456D01*
X28669579Y-47896428D01*
X28669577Y-47896425D01*
X28669577Y-47896423D01*
X28667338Y-47892029D01*
X28667026Y-47891229D01*
X28666292Y-47889976D01*
X28660732Y-47879064D01*
X28617195Y-47793619D01*
X28551634Y-47664949D01*
X28398931Y-47454771D01*
X28304448Y-47360288D01*
X28283296Y-47332032D01*
X28275804Y-47318311D01*
X28274736Y-47313403D01*
X28260952Y-47250051D01*
X28261081Y-47248242D01*
X28280447Y-47190047D01*
X28284640Y-47183523D01*
X28301257Y-47162902D01*
X28398931Y-47065229D01*
X28551634Y-46855051D01*
X28669579Y-46623572D01*
X28749860Y-46376493D01*
X28761199Y-46304895D01*
X28772539Y-46233300D01*
X28772539Y-46233298D01*
X28790500Y-46119902D01*
X28790500Y-45860097D01*
X28765382Y-45701513D01*
X28749860Y-45603507D01*
X28743881Y-45585107D01*
X28672193Y-45364473D01*
X28672192Y-45364472D01*
X28669579Y-45356428D01*
X28669577Y-45356425D01*
X28669577Y-45356423D01*
X28667333Y-45352020D01*
X28667021Y-45351219D01*
X28666293Y-45349976D01*
X28551636Y-45124952D01*
X28517265Y-45077645D01*
X28500795Y-45046431D01*
X28495542Y-45031709D01*
X28493685Y-44999241D01*
X28491552Y-44961954D01*
X28493045Y-44955533D01*
X28526140Y-44895937D01*
X28557739Y-44864339D01*
X28619816Y-44802262D01*
X28715789Y-44649522D01*
X28775368Y-44479255D01*
X28790500Y-44344954D01*
X28790500Y-42555046D01*
X28775368Y-42420745D01*
X28775367Y-42420743D01*
X28775366Y-42420737D01*
X28738883Y-42316477D01*
X28715789Y-42250478D01*
X28705590Y-42234247D01*
X28705550Y-42234184D01*
X28658323Y-42159022D01*
X28619815Y-42097737D01*
X28492262Y-41970184D01*
X28492261Y-41970183D01*
X28339525Y-41874212D01*
X28339522Y-41874210D01*
X28169255Y-41814631D01*
X28169252Y-41814630D01*
X28169230Y-41814627D01*
X28034966Y-41799500D01*
X28034960Y-41799500D01*
X28034954Y-41799500D01*
X26245046Y-41799500D01*
X26245037Y-41799500D01*
X26245028Y-41799500D01*
X26161499Y-41808910D01*
X26161499Y-41808911D01*
X26161497Y-41808910D01*
X26161497Y-41808911D01*
X26126221Y-41807832D01*
X26111930Y-41805328D01*
X26049293Y-41774373D01*
X26013825Y-41716291D01*
X26010400Y-41703927D01*
X26005900Y-41670824D01*
X26005900Y-37883475D01*
X26010921Y-37848548D01*
X26014107Y-37837695D01*
X26051877Y-37778914D01*
X26115431Y-37749885D01*
X26184586Y-37759823D01*
G37*
%TD.AperFunction*%
%TA.AperFunction,NonConductor*%
G36*
X40367326Y-47993163D02*
G01*
X40409199Y-48049095D01*
X40409201Y-48049099D01*
X40411882Y-48056287D01*
X40419700Y-48099621D01*
X40419700Y-49097222D01*
X40414676Y-49132159D01*
X40407264Y-49157400D01*
X40375969Y-49210144D01*
X28903772Y-60682339D01*
X28903771Y-60682342D01*
X28875517Y-60703493D01*
X28863335Y-60710145D01*
X28795062Y-60724997D01*
X28729599Y-60700581D01*
X28726912Y-60698570D01*
X28691170Y-60656422D01*
X28691097Y-60656282D01*
X28690259Y-60654666D01*
X28682399Y-60635886D01*
X28669579Y-60596428D01*
X28669579Y-60596427D01*
X28628735Y-60516268D01*
X28551634Y-60364949D01*
X28398931Y-60154771D01*
X28304444Y-60060284D01*
X28290594Y-60043789D01*
X28285161Y-60036040D01*
X28284152Y-60033056D01*
X28283296Y-60032036D01*
X28281111Y-60028035D01*
X28282000Y-60027549D01*
X28273528Y-60013268D01*
X28272857Y-60013575D01*
X28271593Y-60010807D01*
X28271441Y-60009750D01*
X28270503Y-60008169D01*
X28269464Y-60005382D01*
X28270744Y-60004904D01*
X28268626Y-59990171D01*
X28263758Y-59981256D01*
X28264262Y-59974195D01*
X28262793Y-59969847D01*
X28264643Y-59962457D01*
X28262499Y-59947545D01*
X28261138Y-59947448D01*
X28261238Y-59946049D01*
X28261993Y-59944023D01*
X28261652Y-59941648D01*
X28261652Y-59941643D01*
X28262085Y-59938633D01*
X28263905Y-59938894D01*
X28267466Y-59929346D01*
X28268737Y-59911564D01*
X28285646Y-59880591D01*
X28286525Y-59879417D01*
X28298100Y-59866058D01*
X28361804Y-59802353D01*
X28368920Y-59795775D01*
X28376336Y-59789441D01*
X28383946Y-59783442D01*
X28523619Y-59681966D01*
X40195414Y-48010170D01*
X40223657Y-47989026D01*
X40233591Y-47983602D01*
X40301861Y-47968749D01*
X40367326Y-47993163D01*
G37*
%TD.AperFunction*%
%TA.AperFunction,NonConductor*%
G36*
X66782197Y-44199911D02*
G01*
X66813636Y-44256523D01*
X66815864Y-44265520D01*
X66819500Y-44295327D01*
X66819500Y-44568222D01*
X66814476Y-44603159D01*
X66807064Y-44628400D01*
X66775769Y-44681144D01*
X65919239Y-45537675D01*
X64428041Y-47028873D01*
X64410061Y-47042333D01*
X64399790Y-47050022D01*
X64376702Y-47062630D01*
X64317272Y-47077800D01*
X63467647Y-47077800D01*
X63443327Y-47081651D01*
X63443326Y-47081650D01*
X63265468Y-47109821D01*
X63070777Y-47173080D01*
X63070764Y-47173086D01*
X62888397Y-47266008D01*
X62888385Y-47266015D01*
X62722787Y-47386327D01*
X62722784Y-47386329D01*
X62578029Y-47531084D01*
X62578027Y-47531087D01*
X62457715Y-47696685D01*
X62457708Y-47696697D01*
X62364786Y-47879064D01*
X62364780Y-47879077D01*
X62301521Y-48073768D01*
X62269500Y-48275942D01*
X62269500Y-49129225D01*
X62269499Y-49129231D01*
X62269500Y-49129234D01*
X62265207Y-49159079D01*
X62264475Y-49164169D01*
X62260826Y-49176593D01*
X62223047Y-49235368D01*
X62159489Y-49264388D01*
X62095223Y-49256548D01*
X62086633Y-49253062D01*
X62060376Y-49238481D01*
X61956779Y-49163214D01*
X61902949Y-49124104D01*
X61902608Y-49123813D01*
X61895044Y-49118360D01*
X61894680Y-49118177D01*
X61822764Y-49081534D01*
X61822764Y-49081533D01*
X61822762Y-49081533D01*
X61663581Y-49000424D01*
X61663574Y-49000421D01*
X61416495Y-48920140D01*
X61224959Y-48889804D01*
X61159902Y-48879500D01*
X61159901Y-48879500D01*
X60900093Y-48879500D01*
X60643504Y-48920140D01*
X60643501Y-48920140D01*
X60396426Y-49000421D01*
X60396423Y-49000422D01*
X60298763Y-49050183D01*
X60164942Y-49118369D01*
X60117643Y-49152734D01*
X60117641Y-49152734D01*
X60117639Y-49152736D01*
X60117635Y-49152739D01*
X60086424Y-49169205D01*
X60079157Y-49171799D01*
X60071701Y-49174459D01*
X60001953Y-49178446D01*
X59995532Y-49176953D01*
X59935934Y-49143856D01*
X59842261Y-49050183D01*
X59689525Y-48954212D01*
X59689522Y-48954210D01*
X59519255Y-48894631D01*
X59519252Y-48894630D01*
X59519230Y-48894627D01*
X59384966Y-48879500D01*
X59384960Y-48879500D01*
X59384954Y-48879500D01*
X57595046Y-48879500D01*
X57595039Y-48879500D01*
X57595032Y-48879500D01*
X57460768Y-48894627D01*
X57460746Y-48894630D01*
X57460743Y-48894631D01*
X57290476Y-48954210D01*
X57290473Y-48954212D01*
X57137737Y-49050183D01*
X57010184Y-49177737D01*
X57010183Y-49177737D01*
X56914212Y-49330473D01*
X56914210Y-49330476D01*
X56854631Y-49500743D01*
X56854630Y-49500746D01*
X56854627Y-49500768D01*
X56839500Y-49635032D01*
X56839500Y-51724966D01*
X56854627Y-51859230D01*
X56854630Y-51859252D01*
X56854631Y-51859255D01*
X56914210Y-52029522D01*
X56914215Y-52029532D01*
X57001738Y-52168822D01*
X57001739Y-52168823D01*
X57010180Y-52182258D01*
X57010184Y-52182262D01*
X57137738Y-52309816D01*
X57203392Y-52351069D01*
X57267980Y-52391653D01*
X57290478Y-52405789D01*
X57396864Y-52443015D01*
X57460745Y-52465368D01*
X57460750Y-52465369D01*
X57460756Y-52465369D01*
X57460770Y-52465372D01*
X57508724Y-52470774D01*
X57551246Y-52475565D01*
X57592068Y-52480164D01*
X57594511Y-52480500D01*
X59384957Y-52480500D01*
X59394750Y-52480500D01*
X59402345Y-52478540D01*
X59452104Y-52472934D01*
X59512348Y-52466146D01*
X59515808Y-52465952D01*
X59515813Y-52465952D01*
X59518781Y-52465533D01*
X59519253Y-52465368D01*
X59519255Y-52465368D01*
X59689522Y-52405789D01*
X59842262Y-52309816D01*
X59930053Y-52222024D01*
X59958300Y-52200879D01*
X59972024Y-52193385D01*
X60040290Y-52178535D01*
X60040292Y-52178535D01*
X60046865Y-52179005D01*
X60110909Y-52202371D01*
X60164949Y-52241634D01*
X60220738Y-52270060D01*
X60396423Y-52359577D01*
X60397296Y-52360022D01*
X60401041Y-52361078D01*
X60643507Y-52439860D01*
X60762410Y-52458692D01*
X60900098Y-52480500D01*
X60900103Y-52480500D01*
X61159901Y-52480500D01*
X61159902Y-52480500D01*
X61273298Y-52462539D01*
X61416493Y-52439860D01*
X61663572Y-52359579D01*
X61895051Y-52241634D01*
X62105229Y-52088931D01*
X62199717Y-51994442D01*
X62227964Y-51973297D01*
X62241688Y-51965803D01*
X62309946Y-51950952D01*
X62311756Y-51951081D01*
X62369953Y-51970447D01*
X62376471Y-51974636D01*
X62397106Y-51991266D01*
X62494771Y-52088931D01*
X62704949Y-52241634D01*
X62812955Y-52296666D01*
X62929972Y-52356290D01*
X62929976Y-52356292D01*
X62931574Y-52357228D01*
X62935262Y-52359014D01*
X62937288Y-52360020D01*
X62941053Y-52361082D01*
X63183499Y-52439858D01*
X63183502Y-52439858D01*
X63183507Y-52439860D01*
X63302410Y-52458692D01*
X63440098Y-52480500D01*
X63440103Y-52480500D01*
X63699901Y-52480500D01*
X63699902Y-52480500D01*
X63813298Y-52462539D01*
X63956493Y-52439860D01*
X64203572Y-52359579D01*
X64435051Y-52241634D01*
X64598199Y-52123099D01*
X64619149Y-52110819D01*
X64624180Y-52108498D01*
X64624474Y-52108394D01*
X64624549Y-52108328D01*
X64630143Y-52105749D01*
X64633120Y-52105309D01*
X64635363Y-52104510D01*
X64635467Y-52104803D01*
X64652242Y-52097993D01*
X64653973Y-52097564D01*
X64678514Y-52098611D01*
X64699264Y-52095550D01*
X64708903Y-52099908D01*
X64723779Y-52100544D01*
X64747908Y-52117547D01*
X64762927Y-52124339D01*
X64767447Y-52131316D01*
X64780893Y-52140791D01*
X64780900Y-52140800D01*
X64782290Y-52142550D01*
X64797341Y-52177457D01*
X64800918Y-52182978D01*
X64800928Y-52185776D01*
X64807927Y-52202008D01*
X64808235Y-52204148D01*
X64809500Y-52221813D01*
X64809500Y-52373823D01*
X64809499Y-52373825D01*
X64809500Y-52373826D01*
X64804476Y-52408760D01*
X64797064Y-52434001D01*
X64765769Y-52486745D01*
X56024788Y-61227726D01*
X55996538Y-61248875D01*
X55986611Y-61254296D01*
X55918338Y-61269150D01*
X55852873Y-61244736D01*
X55811000Y-61188804D01*
X55808313Y-61181598D01*
X55800500Y-61138278D01*
X55800500Y-46815224D01*
X55805523Y-46780288D01*
X55811073Y-46761387D01*
X55843291Y-46707729D01*
X55849669Y-46701482D01*
X55871591Y-46684379D01*
X56322589Y-46407768D01*
X56353729Y-46394136D01*
X56385535Y-46385160D01*
X56419209Y-46380500D01*
X60602352Y-46380500D01*
X60608113Y-46379587D01*
X60617769Y-46378443D01*
X60627474Y-46377680D01*
X60637181Y-46377300D01*
X63575551Y-46377300D01*
X63575552Y-46377300D01*
X63777735Y-46345277D01*
X63875076Y-46313648D01*
X63972419Y-46282020D01*
X64063614Y-46235553D01*
X64154811Y-46189087D01*
X64320419Y-46068766D01*
X65838809Y-44550372D01*
X65867054Y-44529230D01*
X65894425Y-44514284D01*
X65934453Y-44500644D01*
X65994785Y-44491090D01*
X66234379Y-44413241D01*
X66458845Y-44298870D01*
X66564185Y-44222336D01*
X66608198Y-44190359D01*
X66639401Y-44173895D01*
X66651605Y-44169540D01*
X66721359Y-44165553D01*
X66782197Y-44199911D01*
G37*
%TD.AperFunction*%
%TA.AperFunction,NonConductor*%
G36*
X81569792Y-26385825D02*
G01*
X81573610Y-26384615D01*
X81582976Y-26387147D01*
X81620986Y-26390959D01*
X81633333Y-26400764D01*
X81641058Y-26402853D01*
X81654065Y-26417227D01*
X81675699Y-26434407D01*
X81675699Y-26434408D01*
X81675700Y-26434409D01*
X81675702Y-26434410D01*
X81675702Y-26434412D01*
X81677623Y-26437136D01*
X81682217Y-26448338D01*
X81687938Y-26454660D01*
X81698607Y-26488300D01*
X81698930Y-26490251D01*
X81700600Y-26510528D01*
X81700600Y-27368923D01*
X81695576Y-27403860D01*
X81688164Y-27429101D01*
X81656869Y-27481845D01*
X73028038Y-36110675D01*
X73028038Y-36110676D01*
X73028036Y-36110678D01*
X73006670Y-36140086D01*
X72907716Y-36276283D01*
X72907711Y-36276291D01*
X72881379Y-36327971D01*
X72881372Y-36327985D01*
X72880050Y-36330581D01*
X72814781Y-36458676D01*
X72797362Y-36512288D01*
X72795259Y-36518758D01*
X72795257Y-36518764D01*
X72751522Y-36653363D01*
X72751522Y-36653365D01*
X72739386Y-36729995D01*
X72739385Y-36729994D01*
X72739384Y-36730006D01*
X72726456Y-36811632D01*
X72726456Y-36811634D01*
X72719500Y-36855550D01*
X72719500Y-41938931D01*
X72719499Y-41938933D01*
X72719500Y-41938934D01*
X72714476Y-41973869D01*
X72705689Y-42003792D01*
X72687031Y-42041739D01*
X72651134Y-42091147D01*
X72651132Y-42091151D01*
X72536760Y-42315616D01*
X72536759Y-42315618D01*
X72536759Y-42315619D01*
X72458910Y-42555209D01*
X72458910Y-42555212D01*
X72419500Y-42804038D01*
X72419500Y-43055960D01*
X72458910Y-43304786D01*
X72458910Y-43304789D01*
X72536759Y-43544381D01*
X72536762Y-43544388D01*
X72590218Y-43649298D01*
X72590219Y-43649300D01*
X72642046Y-43751017D01*
X72644898Y-43756615D01*
X72651132Y-43768848D01*
X72799201Y-43972649D01*
X72799205Y-43972654D01*
X72799210Y-43972660D01*
X72977338Y-44150788D01*
X72977341Y-44150790D01*
X72977345Y-44150794D01*
X72977350Y-44150798D01*
X73017113Y-44179687D01*
X73145022Y-44272618D01*
X73145023Y-44272619D01*
X73181150Y-44298867D01*
X73181152Y-44298868D01*
X73181155Y-44298870D01*
X73316634Y-44367900D01*
X73399171Y-44409955D01*
X73399173Y-44409956D01*
X73406488Y-44413684D01*
X73410243Y-44414743D01*
X73534049Y-44454970D01*
X73645215Y-44491090D01*
X73894038Y-44530500D01*
X73894039Y-44530500D01*
X74145961Y-44530500D01*
X74145962Y-44530500D01*
X74394785Y-44491090D01*
X74634379Y-44413241D01*
X74858845Y-44298870D01*
X75062656Y-44150793D01*
X75169717Y-44043731D01*
X75197964Y-44022586D01*
X75211688Y-44015092D01*
X75213136Y-44014778D01*
X75279946Y-44000241D01*
X75281756Y-44000370D01*
X75339953Y-44019736D01*
X75346471Y-44023925D01*
X75367101Y-44040550D01*
X75477345Y-44150794D01*
X75477350Y-44150798D01*
X75517113Y-44179687D01*
X75645022Y-44272618D01*
X75645023Y-44272619D01*
X75681150Y-44298867D01*
X75681152Y-44298868D01*
X75681155Y-44298870D01*
X75816634Y-44367900D01*
X75905616Y-44413239D01*
X75906491Y-44413685D01*
X75910240Y-44414742D01*
X76034049Y-44454970D01*
X76145214Y-44491090D01*
X76184439Y-44497302D01*
X76202703Y-44500194D01*
X76236414Y-44510619D01*
X76264596Y-44523979D01*
X76299160Y-44548345D01*
X78120573Y-46369758D01*
X78141723Y-46398010D01*
X78154331Y-46421099D01*
X78169500Y-46480528D01*
X78169500Y-48775607D01*
X78169499Y-48775611D01*
X78169500Y-48775614D01*
X78164475Y-48810548D01*
X78160564Y-48823865D01*
X78122787Y-48882641D01*
X78059241Y-48911661D01*
X78059229Y-48911662D01*
X78059229Y-48911663D01*
X78059228Y-48911662D01*
X78052872Y-48912577D01*
X77994267Y-48906882D01*
X77959272Y-48894637D01*
X77959268Y-48894636D01*
X77959260Y-48894633D01*
X77959249Y-48894630D01*
X77959247Y-48894629D01*
X77824966Y-48879500D01*
X77824960Y-48879500D01*
X77824954Y-48879500D01*
X76035046Y-48879500D01*
X76035039Y-48879500D01*
X76035032Y-48879500D01*
X75900768Y-48894627D01*
X75900746Y-48894630D01*
X75900743Y-48894631D01*
X75730476Y-48954210D01*
X75730473Y-48954212D01*
X75577737Y-49050183D01*
X75450184Y-49177736D01*
X75450184Y-49177737D01*
X75406430Y-49247370D01*
X75406429Y-49247372D01*
X75406429Y-49247373D01*
X75398590Y-49259849D01*
X75369357Y-49306374D01*
X75346517Y-49333282D01*
X75331493Y-49346571D01*
X75276322Y-49374719D01*
X75268203Y-49376529D01*
X75241225Y-49379500D01*
X74675947Y-49379500D01*
X74651627Y-49383351D01*
X74651626Y-49383350D01*
X74473768Y-49411521D01*
X74279077Y-49474780D01*
X74279064Y-49474786D01*
X74096697Y-49567708D01*
X74096685Y-49567715D01*
X73931087Y-49688027D01*
X73931084Y-49688029D01*
X73786332Y-49832782D01*
X73786327Y-49832787D01*
X73666015Y-49998385D01*
X73666008Y-49998397D01*
X73573086Y-50180764D01*
X73573080Y-50180777D01*
X73509821Y-50375468D01*
X73477800Y-50577642D01*
X73477800Y-59806223D01*
X73477799Y-59806225D01*
X73477800Y-59806226D01*
X73472776Y-59841160D01*
X73465364Y-59866401D01*
X73434069Y-59919145D01*
X68272641Y-65080573D01*
X68244390Y-65101722D01*
X68221302Y-65114330D01*
X68161872Y-65129500D01*
X67748392Y-65129500D01*
X67710298Y-65133250D01*
X67710298Y-65133251D01*
X67698851Y-65134378D01*
X67594068Y-65144698D01*
X67396042Y-65204769D01*
X67339909Y-65234774D01*
X67339908Y-65234774D01*
X67215029Y-65301523D01*
X67213681Y-65302219D01*
X67211370Y-65303885D01*
X67208840Y-65306179D01*
X67053582Y-65433595D01*
X67052449Y-65434728D01*
X67034587Y-65449520D01*
X67013300Y-65464021D01*
X66962816Y-65484024D01*
X66961796Y-65484185D01*
X66947365Y-65485316D01*
X66946813Y-65485495D01*
X66946419Y-65485390D01*
X66942475Y-65485700D01*
X60558745Y-65485700D01*
X60523596Y-65491267D01*
X60511879Y-65493123D01*
X60366209Y-65516195D01*
X60366204Y-65516195D01*
X60358795Y-65517369D01*
X60356561Y-65517723D01*
X60214119Y-65564003D01*
X60214086Y-65564016D01*
X60161876Y-65580981D01*
X60089632Y-65617793D01*
X60086240Y-65619520D01*
X60086229Y-65619526D01*
X59979481Y-65673917D01*
X59892290Y-65737266D01*
X59813878Y-65794236D01*
X59813876Y-65794238D01*
X59813875Y-65794238D01*
X58327541Y-67280573D01*
X58304236Y-67298019D01*
X58299290Y-67301722D01*
X58276202Y-67314330D01*
X58216772Y-67329500D01*
X57915692Y-67329500D01*
X57910120Y-67330048D01*
X57898976Y-67331146D01*
X57898975Y-67331146D01*
X57868190Y-67334177D01*
X57832939Y-67332603D01*
X57818410Y-67329848D01*
X57802531Y-67321722D01*
X57799544Y-67321156D01*
X57797337Y-67319064D01*
X57756211Y-67298019D01*
X57721783Y-67240285D01*
X57718572Y-67228370D01*
X57714300Y-67196104D01*
X57714300Y-63285774D01*
X57719322Y-63250841D01*
X57726734Y-63225596D01*
X57758028Y-63172854D01*
X66946534Y-53984347D01*
X66946547Y-53984336D01*
X66950135Y-53980748D01*
X66950151Y-53980735D01*
X66950150Y-53980734D01*
X66957217Y-53973667D01*
X66957219Y-53973666D01*
X67101966Y-53828919D01*
X67101968Y-53828915D01*
X67101971Y-53828913D01*
X67151549Y-53760672D01*
X67166645Y-53739896D01*
X67178593Y-53723449D01*
X67222287Y-53663310D01*
X67280854Y-53548366D01*
X67315221Y-53480918D01*
X67378477Y-53286234D01*
X67410501Y-53084051D01*
X67410501Y-52879348D01*
X67410501Y-52874947D01*
X67410501Y-52872914D01*
X67410500Y-52872852D01*
X67410500Y-52230773D01*
X67415522Y-52195841D01*
X67419170Y-52183416D01*
X67456943Y-52124637D01*
X67520498Y-52095611D01*
X67584770Y-52103446D01*
X67593365Y-52106935D01*
X67619611Y-52121509D01*
X67784949Y-52241634D01*
X67840738Y-52270060D01*
X68016423Y-52359577D01*
X68017296Y-52360022D01*
X68021041Y-52361078D01*
X68263507Y-52439860D01*
X68382410Y-52458692D01*
X68520098Y-52480500D01*
X68520103Y-52480500D01*
X68779901Y-52480500D01*
X68779902Y-52480500D01*
X68893298Y-52462539D01*
X69036493Y-52439860D01*
X69283572Y-52359579D01*
X69515051Y-52241634D01*
X69725229Y-52088931D01*
X69908931Y-51905229D01*
X70061634Y-51695051D01*
X70179579Y-51463572D01*
X70233774Y-51296776D01*
X70259860Y-51216495D01*
X70259860Y-51216491D01*
X70262488Y-51199902D01*
X70282539Y-51073298D01*
X70300500Y-50959902D01*
X70300500Y-50400097D01*
X70269591Y-50204949D01*
X70269590Y-50204945D01*
X70259860Y-50143507D01*
X70259859Y-50143503D01*
X70182191Y-49904467D01*
X70179579Y-49896428D01*
X70179577Y-49896425D01*
X70179577Y-49896423D01*
X70177335Y-49892024D01*
X70177023Y-49891223D01*
X70176293Y-49889976D01*
X70108366Y-49756666D01*
X70108365Y-49756664D01*
X70061634Y-49664949D01*
X70027872Y-49618480D01*
X70018245Y-49605229D01*
X69984658Y-49558999D01*
X69968189Y-49527785D01*
X69957711Y-49498417D01*
X69950500Y-49456749D01*
X69950500Y-48275949D01*
X69936904Y-48190109D01*
X69929523Y-48143507D01*
X69922572Y-48099621D01*
X69918477Y-48073765D01*
X69886848Y-47976423D01*
X69866727Y-47914498D01*
X69855221Y-47879083D01*
X69855220Y-47879080D01*
X69775142Y-47721920D01*
X69774305Y-47720138D01*
X69774253Y-47719806D01*
X69771966Y-47714844D01*
X69768794Y-47707186D01*
X69764915Y-47701847D01*
X69762287Y-47696689D01*
X69641966Y-47531081D01*
X68723372Y-46612487D01*
X68702220Y-46584231D01*
X68694728Y-46570510D01*
X68679876Y-46502250D01*
X68679944Y-46501300D01*
X68680005Y-46500441D01*
X68699371Y-46442246D01*
X68703564Y-46435722D01*
X68720181Y-46415101D01*
X68821635Y-46313648D01*
X68960150Y-46175133D01*
X68960157Y-46175127D01*
X68967217Y-46168067D01*
X68967219Y-46168066D01*
X69111199Y-46024085D01*
X69111925Y-46023374D01*
X69111963Y-46023321D01*
X69111966Y-46023319D01*
X69111968Y-46023315D01*
X69111971Y-46023313D01*
X69181832Y-45927156D01*
X69230549Y-45860103D01*
X69230554Y-45860094D01*
X69232287Y-45857710D01*
X69246106Y-45830589D01*
X69325221Y-45675318D01*
X69388477Y-45480634D01*
X69408149Y-45356428D01*
X69410009Y-45344686D01*
X69410009Y-45344684D01*
X69415758Y-45308390D01*
X69420500Y-45278453D01*
X69420500Y-43921066D01*
X69425522Y-43886133D01*
X69434310Y-43856203D01*
X69452967Y-43818258D01*
X69488870Y-43768845D01*
X69603241Y-43544379D01*
X69681090Y-43304785D01*
X69720500Y-43055962D01*
X69720500Y-42804038D01*
X69681090Y-42555215D01*
X69681089Y-42555211D01*
X69681089Y-42555210D01*
X69605853Y-42323659D01*
X69605851Y-42323654D01*
X69603241Y-42315621D01*
X69603239Y-42315618D01*
X69603239Y-42315616D01*
X69600999Y-42311220D01*
X69600689Y-42310425D01*
X69599956Y-42309173D01*
X69575557Y-42261287D01*
X69561747Y-42234183D01*
X69561747Y-42234184D01*
X69488870Y-42091155D01*
X69400980Y-41970184D01*
X69340798Y-41887350D01*
X69340794Y-41887345D01*
X69314793Y-41861344D01*
X69310318Y-41855684D01*
X69310119Y-41855192D01*
X69308514Y-41853344D01*
X69299164Y-41840921D01*
X69287756Y-41822654D01*
X69232287Y-41713790D01*
X69215649Y-41690890D01*
X69111966Y-41548181D01*
X68967219Y-41403434D01*
X68967218Y-41403433D01*
X68964107Y-41400322D01*
X68964092Y-41400308D01*
X67363921Y-39800136D01*
X67363920Y-39800135D01*
X67363919Y-39800134D01*
X67198311Y-39679813D01*
X67107114Y-39633346D01*
X67107112Y-39633345D01*
X67015923Y-39586881D01*
X66969215Y-39571704D01*
X66918576Y-39555251D01*
X66913950Y-39553748D01*
X66913948Y-39553747D01*
X66894703Y-39547494D01*
X66894703Y-39547493D01*
X66838174Y-39529126D01*
X66821235Y-39523622D01*
X66821233Y-39523621D01*
X66821231Y-39523621D01*
X66821230Y-39523620D01*
X66646695Y-39495978D01*
X66630109Y-39493351D01*
X66619054Y-39491600D01*
X66619052Y-39491600D01*
X66619051Y-39491600D01*
X64006688Y-39491600D01*
X63996951Y-39491217D01*
X63987252Y-39490453D01*
X63977592Y-39489309D01*
X63885352Y-39474700D01*
X63680648Y-39474700D01*
X63588407Y-39489309D01*
X63578748Y-39490453D01*
X63569050Y-39491217D01*
X63559312Y-39491600D01*
X61855544Y-39491600D01*
X61788153Y-39502274D01*
X61653361Y-39523623D01*
X61524289Y-39565560D01*
X61524274Y-39565566D01*
X61503252Y-39572397D01*
X61458674Y-39586882D01*
X61367484Y-39633345D01*
X61367485Y-39633346D01*
X61308714Y-39663290D01*
X61308668Y-39663312D01*
X61276290Y-39679811D01*
X61110675Y-39800138D01*
X59601197Y-41309615D01*
X59592999Y-41315752D01*
X59572944Y-41330766D01*
X59545573Y-41345712D01*
X59505545Y-41359353D01*
X59445219Y-41368908D01*
X59205615Y-41446761D01*
X58981147Y-41561134D01*
X58777367Y-41709188D01*
X58777346Y-41709204D01*
X58670285Y-41816265D01*
X58661756Y-41822649D01*
X58642027Y-41837417D01*
X58628309Y-41844907D01*
X58560051Y-41859758D01*
X58560036Y-41859756D01*
X58560036Y-41859757D01*
X58560035Y-41859756D01*
X58558245Y-41859629D01*
X58500044Y-41840261D01*
X58493529Y-41836074D01*
X58472897Y-41819448D01*
X58362654Y-41709205D01*
X58362649Y-41709201D01*
X58264183Y-41637662D01*
X58169445Y-41568831D01*
X58169443Y-41568830D01*
X58158848Y-41561132D01*
X58158847Y-41561131D01*
X58158845Y-41561130D01*
X58086931Y-41524488D01*
X57934379Y-41446758D01*
X57922713Y-41442967D01*
X57895947Y-41434270D01*
X57864280Y-41418700D01*
X57852824Y-41410867D01*
X57808594Y-41356779D01*
X57800628Y-41287365D01*
X57801203Y-41284043D01*
X57822530Y-41233073D01*
X57822557Y-41233034D01*
X57823679Y-41231466D01*
X57836841Y-41215941D01*
X65424066Y-33628718D01*
X65452311Y-33607575D01*
X65475403Y-33594967D01*
X65534828Y-33579800D01*
X73613051Y-33579800D01*
X73613052Y-33579800D01*
X73815235Y-33547777D01*
X73912576Y-33516148D01*
X74009919Y-33484520D01*
X74101114Y-33438053D01*
X74192311Y-33391587D01*
X74357919Y-33271266D01*
X81078808Y-26550373D01*
X81107054Y-26529230D01*
X81134425Y-26514284D01*
X81174453Y-26500644D01*
X81234785Y-26491090D01*
X81474379Y-26413241D01*
X81490794Y-26404877D01*
X81504416Y-26397936D01*
X81504417Y-26397935D01*
X81537824Y-26386550D01*
X81551465Y-26383988D01*
X81569792Y-26385825D01*
G37*
%TD.AperFunction*%
%TA.AperFunction,NonConductor*%
G36*
X52496219Y-68885476D02*
G01*
X52538090Y-68941410D01*
X52538097Y-68941429D01*
X52538856Y-68943465D01*
X52544061Y-69012069D01*
X51691622Y-73103777D01*
X51679582Y-73136947D01*
X51674251Y-73146919D01*
X51661758Y-73159634D01*
X51653356Y-73175355D01*
X51637784Y-73184038D01*
X51625286Y-73196761D01*
X51607899Y-73200704D01*
X51592334Y-73209385D01*
X51574540Y-73208271D01*
X51557147Y-73212217D01*
X51540386Y-73206134D01*
X51522601Y-73205022D01*
X51491474Y-73188385D01*
X51488090Y-73185897D01*
X51451030Y-73142268D01*
X51440310Y-73121229D01*
X51411634Y-73064949D01*
X51258931Y-72854771D01*
X51164448Y-72760288D01*
X51143296Y-72732032D01*
X51135804Y-72718311D01*
X51120952Y-72650051D01*
X51121081Y-72648242D01*
X51140447Y-72590047D01*
X51144640Y-72583523D01*
X51161257Y-72562902D01*
X51258931Y-72465229D01*
X51411634Y-72255051D01*
X51529579Y-72023572D01*
X51609860Y-71776493D01*
X51622024Y-71699690D01*
X51632539Y-71633300D01*
X51632539Y-71633298D01*
X51650500Y-71519902D01*
X51650500Y-71260097D01*
X51622601Y-71083953D01*
X51609860Y-71003507D01*
X51587377Y-70934313D01*
X51564682Y-70864463D01*
X51529579Y-70756428D01*
X51529577Y-70756425D01*
X51529577Y-70756423D01*
X51527349Y-70752051D01*
X51527035Y-70751245D01*
X51526289Y-70749970D01*
X51486787Y-70672445D01*
X51486786Y-70672444D01*
X51479795Y-70658723D01*
X51411634Y-70524949D01*
X51258931Y-70314771D01*
X51164443Y-70220283D01*
X51150594Y-70203789D01*
X51145161Y-70196040D01*
X51144152Y-70193056D01*
X51143296Y-70192036D01*
X51141111Y-70188035D01*
X51142000Y-70187549D01*
X51133528Y-70173268D01*
X51132857Y-70173575D01*
X51131593Y-70170807D01*
X51131441Y-70169750D01*
X51130503Y-70168169D01*
X51129464Y-70165382D01*
X51130744Y-70164904D01*
X51128628Y-70150181D01*
X51123761Y-70141272D01*
X51124265Y-70134203D01*
X51122793Y-70129847D01*
X51124643Y-70122457D01*
X51122499Y-70107545D01*
X51121138Y-70107448D01*
X51121238Y-70106049D01*
X51121993Y-70104022D01*
X51121652Y-70101648D01*
X51121652Y-70101643D01*
X51122085Y-70098633D01*
X51123905Y-70098894D01*
X51127464Y-70089348D01*
X51128732Y-70071579D01*
X51145637Y-70040603D01*
X51146520Y-70039424D01*
X51158105Y-70026052D01*
X51218610Y-69965547D01*
X51225725Y-69958968D01*
X51233148Y-69952629D01*
X51240758Y-69946630D01*
X51384819Y-69841966D01*
X52324303Y-68902479D01*
X52352549Y-68881334D01*
X52362484Y-68875909D01*
X52430755Y-68861059D01*
X52496219Y-68885476D01*
G37*
%TD.AperFunction*%
%TA.AperFunction,NonConductor*%
G36*
X44248226Y-51733463D02*
G01*
X44290099Y-51789395D01*
X44290101Y-51789399D01*
X44292782Y-51796587D01*
X44300600Y-51839921D01*
X44300600Y-57913222D01*
X44300599Y-57913224D01*
X44300600Y-57913225D01*
X44295576Y-57948159D01*
X44288164Y-57973400D01*
X44256869Y-58026144D01*
X28903010Y-73380002D01*
X28874757Y-73401153D01*
X28862575Y-73407805D01*
X28844574Y-73411720D01*
X28841310Y-73414057D01*
X28831603Y-73414542D01*
X28794302Y-73422657D01*
X28779528Y-73417146D01*
X28771528Y-73417547D01*
X28754712Y-73407891D01*
X28728839Y-73398241D01*
X28726152Y-73396230D01*
X28718324Y-73386997D01*
X28710936Y-73382755D01*
X28690395Y-73354054D01*
X28689486Y-73352301D01*
X28681635Y-73333535D01*
X28669579Y-73296428D01*
X28669577Y-73296423D01*
X28607889Y-73175355D01*
X28551634Y-73064949D01*
X28398931Y-72854771D01*
X28304448Y-72760288D01*
X28283296Y-72732032D01*
X28275804Y-72718311D01*
X28260952Y-72650051D01*
X28261081Y-72648242D01*
X28280447Y-72590047D01*
X28284640Y-72583523D01*
X28301257Y-72562902D01*
X28398931Y-72465229D01*
X28551634Y-72255051D01*
X28669579Y-72023572D01*
X28749860Y-71776493D01*
X28762024Y-71699690D01*
X28772539Y-71633300D01*
X28772539Y-71633298D01*
X28790500Y-71519902D01*
X28790500Y-71260097D01*
X28762601Y-71083953D01*
X28749860Y-71003507D01*
X28727377Y-70934313D01*
X28704682Y-70864463D01*
X28669579Y-70756428D01*
X28669577Y-70756425D01*
X28669577Y-70756423D01*
X28667349Y-70752051D01*
X28667035Y-70751245D01*
X28666289Y-70749970D01*
X28626787Y-70672445D01*
X28626786Y-70672444D01*
X28619795Y-70658723D01*
X28551634Y-70524949D01*
X28398931Y-70314771D01*
X28304446Y-70220286D01*
X28304444Y-70220283D01*
X28304443Y-70220283D01*
X28283293Y-70192028D01*
X28280847Y-70187549D01*
X28275803Y-70178310D01*
X28260952Y-70110057D01*
X28261081Y-70108250D01*
X28280447Y-70050047D01*
X28284640Y-70043523D01*
X28301257Y-70022902D01*
X28398931Y-69925229D01*
X28551634Y-69715051D01*
X28669579Y-69483572D01*
X28749860Y-69236493D01*
X28767392Y-69125800D01*
X28773706Y-69085933D01*
X28773706Y-69085932D01*
X28774671Y-69079842D01*
X28790500Y-68979902D01*
X28790500Y-68720097D01*
X28764385Y-68555215D01*
X28749860Y-68463507D01*
X28749859Y-68463503D01*
X28749859Y-68463502D01*
X28701807Y-68315616D01*
X28669579Y-68216428D01*
X28669577Y-68216425D01*
X28669577Y-68216423D01*
X28667338Y-68212028D01*
X28667026Y-68211229D01*
X28666292Y-68209976D01*
X28660017Y-68197660D01*
X28599291Y-68078481D01*
X28551634Y-67984949D01*
X28398931Y-67774771D01*
X28304444Y-67680284D01*
X28290594Y-67663789D01*
X28285161Y-67656040D01*
X28284152Y-67653056D01*
X28283296Y-67652036D01*
X28281111Y-67648035D01*
X28282000Y-67647549D01*
X28273528Y-67633268D01*
X28272857Y-67633575D01*
X28271593Y-67630807D01*
X28271441Y-67629750D01*
X28270503Y-67628169D01*
X28269464Y-67625382D01*
X28270744Y-67624904D01*
X28268628Y-67610181D01*
X28263761Y-67601272D01*
X28264265Y-67594203D01*
X28262793Y-67589847D01*
X28264643Y-67582457D01*
X28262499Y-67567545D01*
X28261138Y-67567448D01*
X28261238Y-67566049D01*
X28261993Y-67564022D01*
X28261652Y-67561648D01*
X28261652Y-67561643D01*
X28262085Y-67558633D01*
X28263905Y-67558894D01*
X28267464Y-67549348D01*
X28268732Y-67531579D01*
X28285637Y-67500603D01*
X28286520Y-67499424D01*
X28298105Y-67486052D01*
X28358610Y-67425547D01*
X28365725Y-67418968D01*
X28373148Y-67412629D01*
X28380758Y-67406630D01*
X28524819Y-67301966D01*
X44076314Y-51750470D01*
X44104557Y-51729326D01*
X44114491Y-51723902D01*
X44182761Y-51709049D01*
X44248226Y-51733463D01*
G37*
%TD.AperFunction*%
%TA.AperFunction,NonConductor*%
G36*
X60380000Y-69062055D02*
G01*
X60419906Y-69113053D01*
X60423513Y-69121589D01*
X60431764Y-69150448D01*
X60434653Y-69168680D01*
X60434652Y-69168680D01*
X60434654Y-69168688D01*
X60456210Y-69304786D01*
X60456210Y-69304789D01*
X60534061Y-69544385D01*
X60589340Y-69652877D01*
X60591510Y-69657134D01*
X60639473Y-69751267D01*
X60642743Y-69757683D01*
X60648430Y-69768844D01*
X60648436Y-69768855D01*
X60762347Y-69925640D01*
X60796501Y-69972649D01*
X60796505Y-69972654D01*
X60796510Y-69972660D01*
X60974638Y-70150788D01*
X60974642Y-70150791D01*
X60974645Y-70150794D01*
X60974650Y-70150798D01*
X61127504Y-70261852D01*
X61178455Y-70298870D01*
X61293886Y-70357685D01*
X61402916Y-70413239D01*
X61403791Y-70413685D01*
X61407540Y-70414742D01*
X61531349Y-70454970D01*
X61642514Y-70491090D01*
X61681739Y-70497302D01*
X61700003Y-70500194D01*
X61733714Y-70510619D01*
X61761896Y-70523979D01*
X61796460Y-70548345D01*
X69029010Y-77780894D01*
X69050160Y-77809146D01*
X69053784Y-77815783D01*
X69056813Y-77821329D01*
X69060603Y-77838751D01*
X69069147Y-77854399D01*
X69067875Y-77872181D01*
X69071665Y-77889602D01*
X69065434Y-77906306D01*
X69064163Y-77924091D01*
X69047248Y-77955068D01*
X69045247Y-77957741D01*
X69003041Y-77993521D01*
X69001293Y-77994427D01*
X68989839Y-77999217D01*
X68989313Y-77999612D01*
X68988811Y-77999647D01*
X68982550Y-78002267D01*
X68845618Y-78046758D01*
X68621149Y-78161132D01*
X68582802Y-78188994D01*
X68582793Y-78189001D01*
X68574061Y-78195344D01*
X68542859Y-78211807D01*
X68513491Y-78222287D01*
X68471816Y-78229500D01*
X65471068Y-78229500D01*
X65436132Y-78224477D01*
X65406211Y-78215691D01*
X65368264Y-78197034D01*
X65344214Y-78179561D01*
X65318845Y-78161130D01*
X65094379Y-78046759D01*
X65039614Y-78028964D01*
X64951321Y-78000276D01*
X64951312Y-78000273D01*
X64947743Y-77999114D01*
X64854783Y-77968909D01*
X64791405Y-77958870D01*
X64785617Y-77957372D01*
X64781529Y-77954927D01*
X64763579Y-77949377D01*
X64735400Y-77936018D01*
X64700838Y-77911653D01*
X57763225Y-70974040D01*
X57742073Y-70945784D01*
X57735917Y-70934509D01*
X57735916Y-70934508D01*
X57733983Y-70931500D01*
X57714300Y-70864463D01*
X57714300Y-70665306D01*
X57719323Y-70630372D01*
X57723490Y-70616180D01*
X57761263Y-70557402D01*
X57822081Y-70528801D01*
X57834256Y-70526772D01*
X57866788Y-70525683D01*
X57915692Y-70530500D01*
X57915696Y-70530500D01*
X59118905Y-70530500D01*
X59118908Y-70530500D01*
X59273234Y-70515300D01*
X59471254Y-70455232D01*
X59653750Y-70357685D01*
X59813710Y-70226410D01*
X59944985Y-70066450D01*
X60042532Y-69883954D01*
X60102600Y-69685934D01*
X60117800Y-69531608D01*
X60117800Y-69237875D01*
X60122064Y-69205638D01*
X60122432Y-69204269D01*
X60126443Y-69190610D01*
X60127844Y-69184167D01*
X60128633Y-69181239D01*
X60145332Y-69153914D01*
X60160679Y-69125804D01*
X60206644Y-69079839D01*
X60234896Y-69058690D01*
X60246263Y-69052483D01*
X60314537Y-69037635D01*
X60380000Y-69062055D01*
G37*
%TD.AperFunction*%
%TA.AperFunction,NonConductor*%
G36*
X82926617Y-69442364D02*
G01*
X82936134Y-69446478D01*
X82964240Y-69463348D01*
X82998711Y-69490838D01*
X83227003Y-69634284D01*
X83469921Y-69751267D01*
X83520165Y-69768848D01*
X83643424Y-69811979D01*
X83643425Y-69811979D01*
X83714537Y-69836862D01*
X83715659Y-69837261D01*
X83724169Y-69840331D01*
X83727109Y-69840933D01*
X83949545Y-69891702D01*
X83987268Y-69900312D01*
X83987272Y-69900312D01*
X83987281Y-69900314D01*
X84116150Y-69914833D01*
X84237790Y-69928538D01*
X84245393Y-69930500D01*
X84524812Y-69930500D01*
X84550310Y-69930500D01*
X84555444Y-69927696D01*
X84567914Y-69925642D01*
X84792732Y-69900312D01*
X84792733Y-69900312D01*
X84803323Y-69897894D01*
X84813069Y-69895670D01*
X84848244Y-69892792D01*
X84868265Y-69894018D01*
X84927186Y-69913130D01*
X84934210Y-69917593D01*
X84955378Y-69934563D01*
X88105682Y-73084866D01*
X88105701Y-73084886D01*
X88107217Y-73086402D01*
X88107222Y-73086407D01*
X88110333Y-73089518D01*
X88110334Y-73089519D01*
X88191936Y-73171121D01*
X88255183Y-73234368D01*
X88255401Y-73234550D01*
X88257085Y-73235723D01*
X88340632Y-73296423D01*
X88391714Y-73333535D01*
X88420690Y-73354587D01*
X88507535Y-73398837D01*
X88603081Y-73447521D01*
X88603084Y-73447522D01*
X88700421Y-73479148D01*
X88797766Y-73510777D01*
X88999948Y-73542800D01*
X88999949Y-73542800D01*
X89204652Y-73542800D01*
X91877671Y-73542800D01*
X91912606Y-73547823D01*
X91927604Y-73552227D01*
X91986355Y-73589972D01*
X91986379Y-73590000D01*
X91986382Y-73590002D01*
X91986383Y-73590004D01*
X91987542Y-73591341D01*
X92015018Y-73646202D01*
X92016663Y-73653760D01*
X92019500Y-73680131D01*
X92019500Y-74364170D01*
X92019499Y-74364176D01*
X92019500Y-74364179D01*
X92014475Y-74399114D01*
X92010070Y-74414112D01*
X91972327Y-74472855D01*
X91972292Y-74472885D01*
X91972291Y-74472887D01*
X91972289Y-74472887D01*
X91970958Y-74474042D01*
X91916097Y-74501518D01*
X91908539Y-74503163D01*
X91882168Y-74506000D01*
X91246947Y-74506000D01*
X91222627Y-74509851D01*
X91222626Y-74509850D01*
X91044768Y-74538021D01*
X90850077Y-74601280D01*
X90850064Y-74601286D01*
X90667697Y-74694208D01*
X90667685Y-74694215D01*
X90502087Y-74814527D01*
X90502084Y-74814529D01*
X90357329Y-74959284D01*
X90357327Y-74959287D01*
X90237015Y-75124885D01*
X90237008Y-75124897D01*
X90144086Y-75307264D01*
X90144080Y-75307277D01*
X90080821Y-75501968D01*
X90048800Y-75704142D01*
X90048800Y-75908856D01*
X90080821Y-76111030D01*
X90144080Y-76305721D01*
X90144086Y-76305734D01*
X90237008Y-76488101D01*
X90237015Y-76488113D01*
X90357328Y-76653713D01*
X90502086Y-76798471D01*
X90657049Y-76911056D01*
X90667690Y-76918787D01*
X90783907Y-76978003D01*
X90844454Y-77008853D01*
X90845343Y-77009324D01*
X90845549Y-77009525D01*
X90848929Y-77011162D01*
X90850937Y-77012160D01*
X90854703Y-77013222D01*
X90894788Y-77026246D01*
X90954435Y-77045626D01*
X90954436Y-77045627D01*
X90997912Y-77059753D01*
X91044765Y-77074977D01*
X91145857Y-77090988D01*
X91246948Y-77107000D01*
X91877671Y-77107000D01*
X91912606Y-77112023D01*
X91927604Y-77116427D01*
X91986355Y-77154172D01*
X91986379Y-77154200D01*
X91986382Y-77154202D01*
X91986383Y-77154204D01*
X91987542Y-77155541D01*
X92015018Y-77210402D01*
X92016663Y-77217960D01*
X92019500Y-77244331D01*
X92019500Y-78161966D01*
X92019499Y-78161972D01*
X92019500Y-78161975D01*
X92014700Y-78195344D01*
X92014475Y-78196908D01*
X92013352Y-78200732D01*
X92010826Y-78209334D01*
X91973047Y-78268109D01*
X91909489Y-78297129D01*
X91845218Y-78289287D01*
X91836629Y-78285801D01*
X91810377Y-78271222D01*
X91658852Y-78161134D01*
X91658851Y-78161133D01*
X91658849Y-78161132D01*
X91553421Y-78107413D01*
X91456212Y-78057883D01*
X91456207Y-78057881D01*
X91434381Y-78046760D01*
X91434380Y-78046759D01*
X91434379Y-78046759D01*
X91411079Y-78039188D01*
X91411071Y-78039185D01*
X91287743Y-77999114D01*
X91287742Y-77999113D01*
X91194780Y-77968908D01*
X91194781Y-77968908D01*
X91137299Y-77959804D01*
X91137298Y-77959803D01*
X91137298Y-77959804D01*
X91103579Y-77949377D01*
X91075400Y-77936018D01*
X91040838Y-77911653D01*
X82798923Y-69669738D01*
X82789204Y-69656754D01*
X82788986Y-69656938D01*
X82785577Y-69652877D01*
X82783398Y-69648999D01*
X82777772Y-69641483D01*
X82775127Y-69636639D01*
X82776143Y-69636084D01*
X82773024Y-69630532D01*
X82771368Y-69629097D01*
X82770437Y-69625927D01*
X82768078Y-69621727D01*
X82767923Y-69621795D01*
X82767230Y-69622175D01*
X82767196Y-69622113D01*
X82766765Y-69622303D01*
X82762433Y-69612410D01*
X82762864Y-69612221D01*
X82762856Y-69612197D01*
X82763132Y-69612103D01*
X82764683Y-69611424D01*
X82760345Y-69591546D01*
X82751688Y-69562056D01*
X82752569Y-69555925D01*
X82751998Y-69553306D01*
X82756711Y-69527129D01*
X82758440Y-69521239D01*
X82796219Y-69462466D01*
X82859777Y-69433446D01*
X82926617Y-69442364D01*
G37*
%TD.AperFunction*%
%TA.AperFunction,NonConductor*%
G36*
X46272730Y-59843565D02*
G01*
X46314600Y-59899497D01*
X46317282Y-59906686D01*
X46325100Y-59950020D01*
X46325100Y-61042122D01*
X46325099Y-61042124D01*
X46325100Y-61042125D01*
X46320076Y-61077059D01*
X46312664Y-61102300D01*
X46281369Y-61155044D01*
X28921010Y-78515402D01*
X28892757Y-78536553D01*
X28880575Y-78543205D01*
X28862574Y-78547120D01*
X28859312Y-78549456D01*
X28849608Y-78549941D01*
X28812302Y-78558057D01*
X28797528Y-78552546D01*
X28789530Y-78552947D01*
X28772715Y-78543292D01*
X28746839Y-78533641D01*
X28744152Y-78531630D01*
X28736326Y-78522399D01*
X28728937Y-78518157D01*
X28708396Y-78489456D01*
X28707488Y-78487705D01*
X28699637Y-78468939D01*
X28669581Y-78376433D01*
X28669579Y-78376427D01*
X28620504Y-78280114D01*
X28551634Y-78144949D01*
X28398931Y-77934771D01*
X28304448Y-77840288D01*
X28291110Y-77824517D01*
X28286026Y-77817375D01*
X28284786Y-77813792D01*
X28283292Y-77812025D01*
X28281331Y-77808433D01*
X28282149Y-77807986D01*
X28273491Y-77793759D01*
X28273123Y-77793931D01*
X28272041Y-77791608D01*
X28271993Y-77791297D01*
X28271519Y-77790517D01*
X28270002Y-77786627D01*
X28271215Y-77786153D01*
X28268972Y-77771348D01*
X28263945Y-77762302D01*
X28264418Y-77754911D01*
X28263184Y-77751344D01*
X28264883Y-77744344D01*
X28262411Y-77728020D01*
X28261104Y-77727928D01*
X28261223Y-77726253D01*
X28261875Y-77724482D01*
X28261579Y-77722526D01*
X28261583Y-77722496D01*
X28261929Y-77719959D01*
X28263464Y-77720168D01*
X28267310Y-77709731D01*
X28268409Y-77692575D01*
X28285089Y-77661478D01*
X28286304Y-77659829D01*
X28298436Y-77645723D01*
X28304451Y-77639708D01*
X28398931Y-77545229D01*
X28398942Y-77545213D01*
X28402092Y-77541527D01*
X28402150Y-77541576D01*
X28413242Y-77528859D01*
X28418896Y-77523434D01*
X28419433Y-77523131D01*
X28424612Y-77517951D01*
X28425533Y-77517068D01*
X28426221Y-77516710D01*
X28438485Y-77506235D01*
X28499419Y-77461966D01*
X46100817Y-59860565D01*
X46129060Y-59839423D01*
X46138995Y-59833998D01*
X46207266Y-59819148D01*
X46272730Y-59843565D01*
G37*
%TD.AperFunction*%
%TA.AperFunction,NonConductor*%
G36*
X66642606Y-68091723D02*
G01*
X66657604Y-68096127D01*
X66716355Y-68133872D01*
X66717542Y-68135241D01*
X66745018Y-68190102D01*
X66746663Y-68197660D01*
X66749500Y-68224031D01*
X66749500Y-68931604D01*
X66762858Y-69067234D01*
X66764699Y-69085932D01*
X66787355Y-69160619D01*
X66787355Y-69160621D01*
X66787356Y-69160621D01*
X66824769Y-69283957D01*
X66860071Y-69350001D01*
X66922315Y-69466450D01*
X66922316Y-69466451D01*
X66922318Y-69466454D01*
X66924130Y-69468898D01*
X66926182Y-69471162D01*
X67053589Y-69626410D01*
X67106386Y-69669738D01*
X67150209Y-69705702D01*
X67150210Y-69705703D01*
X67205729Y-69751267D01*
X67213550Y-69757685D01*
X67396046Y-69855232D01*
X67501463Y-69887209D01*
X67535529Y-69909534D01*
X67594065Y-69915299D01*
X67594066Y-69915300D01*
X67594065Y-69915300D01*
X67632647Y-69919100D01*
X67748392Y-69930500D01*
X67748395Y-69930500D01*
X70551605Y-69930500D01*
X70551608Y-69930500D01*
X70705934Y-69915300D01*
X70817375Y-69881494D01*
X70852258Y-69876159D01*
X70869987Y-69876001D01*
X70933894Y-69893073D01*
X70944445Y-69899270D01*
X70969326Y-69918510D01*
X80799615Y-79748799D01*
X80820765Y-79777051D01*
X80820767Y-79777055D01*
X80835712Y-79804423D01*
X80849353Y-79844452D01*
X80858908Y-79904779D01*
X80936760Y-80144384D01*
X80938624Y-80148883D01*
X80937985Y-80149147D01*
X80946942Y-80175431D01*
X80949503Y-80189069D01*
X80942529Y-80258590D01*
X80899077Y-80313304D01*
X80899066Y-80313311D01*
X80896336Y-80315235D01*
X80845217Y-80336202D01*
X80843268Y-80336525D01*
X80822964Y-80338200D01*
X79796577Y-80338200D01*
X79796576Y-80338199D01*
X79796576Y-80338200D01*
X79761641Y-80333177D01*
X79736399Y-80325765D01*
X79683654Y-80294469D01*
X78700382Y-79311197D01*
X78679232Y-79282945D01*
X78664284Y-79255570D01*
X78650645Y-79215549D01*
X78641090Y-79155214D01*
X78579830Y-78966676D01*
X78563241Y-78915621D01*
X78563239Y-78915618D01*
X78563239Y-78915616D01*
X78560984Y-78911191D01*
X78560680Y-78910411D01*
X78559959Y-78909179D01*
X78503084Y-78797556D01*
X78448870Y-78691155D01*
X78356624Y-78564189D01*
X78356623Y-78564187D01*
X78356622Y-78564185D01*
X78300812Y-78487369D01*
X78300794Y-78487345D01*
X78300786Y-78487336D01*
X78122660Y-78309210D01*
X78122655Y-78309206D01*
X78122654Y-78309205D01*
X78122649Y-78309201D01*
X77980362Y-78205824D01*
X77929445Y-78168831D01*
X77929443Y-78168830D01*
X77918848Y-78161132D01*
X77918847Y-78161131D01*
X77918845Y-78161130D01*
X77848747Y-78125413D01*
X77694383Y-78046760D01*
X77454785Y-77968910D01*
X77454779Y-77968909D01*
X77454782Y-77968909D01*
X77454729Y-77968900D01*
X77226911Y-77932818D01*
X77205962Y-77929500D01*
X77205961Y-77929500D01*
X76954039Y-77929500D01*
X76954038Y-77929500D01*
X76920866Y-77934754D01*
X76920740Y-77934774D01*
X76705212Y-77968910D01*
X76705209Y-77968910D01*
X76465613Y-78046761D01*
X76241149Y-78161132D01*
X76202802Y-78188994D01*
X76202793Y-78189001D01*
X76194061Y-78195344D01*
X76162859Y-78211807D01*
X76133491Y-78222287D01*
X76091816Y-78229500D01*
X73225176Y-78229500D01*
X73190240Y-78224477D01*
X73164998Y-78217065D01*
X73112253Y-78185769D01*
X68374006Y-73447522D01*
X63637682Y-68711197D01*
X63616532Y-68682945D01*
X63601584Y-68655570D01*
X63587945Y-68615549D01*
X63578390Y-68555214D01*
X63500539Y-68315616D01*
X63483855Y-68282872D01*
X63472475Y-68249477D01*
X63469912Y-68235829D01*
X63476886Y-68166310D01*
X63520336Y-68111596D01*
X63523067Y-68109671D01*
X63574255Y-68088687D01*
X63576202Y-68088364D01*
X63596455Y-68086700D01*
X66607670Y-68086700D01*
X66642606Y-68091723D01*
G37*
%TD.AperFunction*%
%TA.AperFunction,NonConductor*%
G36*
X80672196Y-52132651D02*
G01*
X80703634Y-52189261D01*
X80705863Y-52198261D01*
X80709500Y-52228071D01*
X80709500Y-63632123D01*
X80704476Y-63667060D01*
X80697064Y-63692301D01*
X80665769Y-63745045D01*
X80457538Y-63953275D01*
X80457538Y-63953276D01*
X80457536Y-63953278D01*
X80422390Y-64001651D01*
X80342039Y-64112244D01*
X80342034Y-64112251D01*
X80337216Y-64118884D01*
X80337213Y-64118888D01*
X80327654Y-64137650D01*
X80326519Y-64139875D01*
X80326499Y-64139913D01*
X80243837Y-64302145D01*
X80243830Y-64302161D01*
X80243431Y-64303580D01*
X80242014Y-64308251D01*
X80181022Y-64495966D01*
X80173330Y-64544533D01*
X80149000Y-64698143D01*
X80149000Y-70261852D01*
X80148999Y-70261854D01*
X80173215Y-70414742D01*
X80181022Y-70464031D01*
X80181023Y-70464036D01*
X80181024Y-70464040D01*
X80181025Y-70464043D01*
X80207104Y-70544308D01*
X80207112Y-70544328D01*
X80244281Y-70658723D01*
X80281417Y-70731605D01*
X80281419Y-70731608D01*
X80337213Y-70841111D01*
X80457534Y-71006719D01*
X80457536Y-71006721D01*
X89199618Y-79748803D01*
X89220767Y-79777055D01*
X89235713Y-79804427D01*
X89249353Y-79844454D01*
X89258908Y-79904781D01*
X89261537Y-79912870D01*
X89266239Y-79927342D01*
X89267437Y-79931027D01*
X89267438Y-79931031D01*
X89336757Y-80144376D01*
X89435515Y-80338200D01*
X89448508Y-80363700D01*
X89451132Y-80368848D01*
X89599201Y-80572649D01*
X89599205Y-80572654D01*
X89610212Y-80583661D01*
X89622840Y-80598446D01*
X89634179Y-80614053D01*
X89644340Y-80630634D01*
X89707713Y-80755011D01*
X89828034Y-80920619D01*
X91563581Y-82656166D01*
X91729189Y-82776487D01*
X91820385Y-82822953D01*
X91911581Y-82869420D01*
X92008923Y-82901048D01*
X92106265Y-82932677D01*
X92308448Y-82964700D01*
X103186323Y-82964700D01*
X103221255Y-82969721D01*
X103246499Y-82977134D01*
X103299245Y-83008430D01*
X108639615Y-88348800D01*
X108660767Y-88377055D01*
X108675713Y-88404427D01*
X108689353Y-88444454D01*
X108698908Y-88504780D01*
X108733071Y-88609922D01*
X108776757Y-88744376D01*
X108807011Y-88803753D01*
X108890957Y-88968506D01*
X108891130Y-88968845D01*
X108891134Y-88968851D01*
X108891134Y-88968852D01*
X109006228Y-89127265D01*
X109039201Y-89172649D01*
X109039205Y-89172654D01*
X109039210Y-89172660D01*
X109217338Y-89350788D01*
X109217342Y-89350791D01*
X109217345Y-89350794D01*
X109217350Y-89350798D01*
X109395117Y-89479952D01*
X109421155Y-89498870D01*
X109564184Y-89571747D01*
X109564183Y-89571747D01*
X109589998Y-89584900D01*
X109642775Y-89611791D01*
X109646488Y-89613684D01*
X109650243Y-89614743D01*
X109804337Y-89664811D01*
X109885215Y-89691090D01*
X110134038Y-89730500D01*
X110134039Y-89730500D01*
X110385961Y-89730500D01*
X110385962Y-89730500D01*
X110634785Y-89691090D01*
X110874379Y-89613241D01*
X111098845Y-89498870D01*
X111302656Y-89350793D01*
X111480793Y-89172656D01*
X111628870Y-88968845D01*
X111743241Y-88744379D01*
X111821090Y-88504785D01*
X111830196Y-88447288D01*
X111831073Y-88444454D01*
X111840617Y-88413584D01*
X111853979Y-88385398D01*
X111878339Y-88350843D01*
X112863661Y-87365523D01*
X112891911Y-87344375D01*
X112915003Y-87331767D01*
X112974428Y-87316600D01*
X116277985Y-87316600D01*
X116312917Y-87321621D01*
X116326236Y-87325532D01*
X116385014Y-87363306D01*
X116414040Y-87426861D01*
X116414041Y-87426870D01*
X116414516Y-87430175D01*
X116409987Y-87485264D01*
X116409393Y-87487139D01*
X116401668Y-87505984D01*
X116396764Y-87515608D01*
X116396760Y-87515616D01*
X116318908Y-87755220D01*
X116309804Y-87812698D01*
X116309804Y-87812699D01*
X116299377Y-87846418D01*
X116286018Y-87874597D01*
X116261653Y-87909159D01*
X113457141Y-90713673D01*
X113428890Y-90734822D01*
X113405802Y-90747430D01*
X113346372Y-90762600D01*
X104903777Y-90762600D01*
X104868842Y-90757577D01*
X104857988Y-90754390D01*
X104799210Y-90716616D01*
X104770185Y-90653060D01*
X104771498Y-90643927D01*
X104780125Y-90583911D01*
X104783315Y-90576924D01*
X104808424Y-90540760D01*
X104999231Y-90349954D01*
X105598810Y-89750372D01*
X105627055Y-89729230D01*
X105654426Y-89714284D01*
X105694450Y-89700645D01*
X105754785Y-89691090D01*
X105994379Y-89613241D01*
X106218845Y-89498870D01*
X106422656Y-89350793D01*
X106600793Y-89172656D01*
X106748870Y-88968845D01*
X106863241Y-88744379D01*
X106941090Y-88504785D01*
X106980500Y-88255962D01*
X106980500Y-88004038D01*
X106941090Y-87755215D01*
X106941089Y-87755211D01*
X106941089Y-87755210D01*
X106865853Y-87523659D01*
X106865851Y-87523654D01*
X106863241Y-87515621D01*
X106863239Y-87515618D01*
X106863239Y-87515616D01*
X106861000Y-87511222D01*
X106860690Y-87510427D01*
X106859956Y-87509172D01*
X106780340Y-87352919D01*
X106748870Y-87291155D01*
X106696946Y-87219687D01*
X106600798Y-87087350D01*
X106600793Y-87087344D01*
X106600789Y-87087340D01*
X106600780Y-87087330D01*
X106422660Y-86909210D01*
X106422655Y-86909206D01*
X106422654Y-86909205D01*
X106422649Y-86909201D01*
X106218848Y-86761132D01*
X106218847Y-86761131D01*
X106218845Y-86761130D01*
X106163599Y-86732981D01*
X106106880Y-86704081D01*
X105994383Y-86646760D01*
X105894731Y-86614381D01*
X105754787Y-86568910D01*
X105584776Y-86541983D01*
X105505962Y-86529500D01*
X105505961Y-86529500D01*
X105254039Y-86529500D01*
X105254038Y-86529500D01*
X105175224Y-86541983D01*
X105005212Y-86568910D01*
X105005209Y-86568910D01*
X104768746Y-86645743D01*
X104765616Y-86646760D01*
X104653119Y-86704081D01*
X104541147Y-86761134D01*
X104337367Y-86909188D01*
X104337341Y-86909208D01*
X104159207Y-87087344D01*
X104159199Y-87087351D01*
X104159195Y-87087355D01*
X104011134Y-87291147D01*
X103896761Y-87515615D01*
X103818908Y-87755220D01*
X103809804Y-87812698D01*
X103809804Y-87812699D01*
X103799377Y-87846418D01*
X103786018Y-87874597D01*
X103761653Y-87909159D01*
X102774341Y-88896473D01*
X102746090Y-88917622D01*
X102723002Y-88930230D01*
X102663572Y-88945400D01*
X99360996Y-88945400D01*
X99360993Y-88945399D01*
X99360992Y-88945400D01*
X99326057Y-88940376D01*
X99312739Y-88936465D01*
X99253962Y-88898689D01*
X99224940Y-88835132D01*
X99224939Y-88835129D01*
X99224744Y-88833775D01*
X99224464Y-88831822D01*
X99229005Y-88776699D01*
X99229599Y-88774826D01*
X99237313Y-88756014D01*
X99243238Y-88744386D01*
X99243240Y-88744381D01*
X99243241Y-88744379D01*
X99321090Y-88504785D01*
X99360500Y-88255962D01*
X99360500Y-88004038D01*
X99321090Y-87755215D01*
X99321089Y-87755211D01*
X99321089Y-87755210D01*
X99245853Y-87523659D01*
X99245851Y-87523654D01*
X99243241Y-87515621D01*
X99243239Y-87515618D01*
X99243239Y-87515616D01*
X99241000Y-87511222D01*
X99240690Y-87510427D01*
X99239956Y-87509172D01*
X99160340Y-87352919D01*
X99128870Y-87291155D01*
X99076946Y-87219687D01*
X98980798Y-87087350D01*
X98980793Y-87087344D01*
X98980789Y-87087340D01*
X98980780Y-87087330D01*
X98802660Y-86909210D01*
X98802655Y-86909206D01*
X98802654Y-86909205D01*
X98802649Y-86909201D01*
X98598848Y-86761132D01*
X98598847Y-86761131D01*
X98598845Y-86761130D01*
X98543599Y-86732981D01*
X98486880Y-86704081D01*
X98374383Y-86646760D01*
X98274731Y-86614381D01*
X98134787Y-86568910D01*
X97964776Y-86541983D01*
X97885962Y-86529500D01*
X97885961Y-86529500D01*
X97634039Y-86529500D01*
X97634038Y-86529500D01*
X97555224Y-86541983D01*
X97385212Y-86568910D01*
X97385209Y-86568910D01*
X97148746Y-86645743D01*
X97145616Y-86646760D01*
X97033119Y-86704081D01*
X96921147Y-86761134D01*
X96717367Y-86909188D01*
X96717341Y-86909208D01*
X96539207Y-87087344D01*
X96539199Y-87087351D01*
X96539195Y-87087355D01*
X96391134Y-87291147D01*
X96391132Y-87291151D01*
X96276760Y-87515616D01*
X96276759Y-87515618D01*
X96276759Y-87515619D01*
X96198910Y-87755209D01*
X96198909Y-87755213D01*
X96195904Y-87774190D01*
X96195611Y-87776043D01*
X96159500Y-88004038D01*
X96159500Y-88255962D01*
X96176204Y-88361426D01*
X96180714Y-88389898D01*
X96180714Y-88389899D01*
X96198909Y-88504785D01*
X96276761Y-88744387D01*
X96276764Y-88744394D01*
X96279220Y-88749214D01*
X96279222Y-88749216D01*
X96290608Y-88782623D01*
X96293170Y-88796262D01*
X96286200Y-88865783D01*
X96242751Y-88920500D01*
X96242744Y-88920504D01*
X96240016Y-88922427D01*
X96188887Y-88943402D01*
X96186942Y-88943725D01*
X96166628Y-88945400D01*
X94380996Y-88945400D01*
X94380993Y-88945399D01*
X94380992Y-88945400D01*
X94346057Y-88940376D01*
X94332739Y-88936465D01*
X94273962Y-88898689D01*
X94244940Y-88835132D01*
X94244939Y-88835129D01*
X94244744Y-88833775D01*
X94244464Y-88831822D01*
X94249005Y-88776699D01*
X94249599Y-88774826D01*
X94257313Y-88756014D01*
X94263238Y-88744386D01*
X94263240Y-88744381D01*
X94263241Y-88744379D01*
X94341090Y-88504785D01*
X94380500Y-88255962D01*
X94380500Y-88004038D01*
X94341090Y-87755215D01*
X94341089Y-87755211D01*
X94341089Y-87755210D01*
X94265853Y-87523659D01*
X94265851Y-87523654D01*
X94263241Y-87515621D01*
X94263239Y-87515618D01*
X94263239Y-87515616D01*
X94261000Y-87511222D01*
X94260690Y-87510427D01*
X94259956Y-87509172D01*
X94180340Y-87352919D01*
X94148870Y-87291155D01*
X94096946Y-87219687D01*
X94000798Y-87087350D01*
X94000793Y-87087344D01*
X94000789Y-87087340D01*
X94000780Y-87087330D01*
X93932241Y-87018791D01*
X93919606Y-87003998D01*
X93908272Y-86988399D01*
X93898105Y-86971809D01*
X93895226Y-86966159D01*
X93893562Y-86962143D01*
X93773415Y-86796773D01*
X93773410Y-86796767D01*
X93771970Y-86794785D01*
X93710166Y-86732981D01*
X93627219Y-86650034D01*
X93627218Y-86650033D01*
X93624107Y-86646922D01*
X93624102Y-86646917D01*
X93622586Y-86645401D01*
X93622566Y-86645382D01*
X86569426Y-79592241D01*
X86569425Y-79592240D01*
X86569421Y-79592236D01*
X86548274Y-79563985D01*
X86535667Y-79540896D01*
X86520500Y-79481471D01*
X86520500Y-79404038D01*
X86511648Y-79348150D01*
X86496985Y-79255575D01*
X86481090Y-79155215D01*
X86481089Y-79155211D01*
X86481089Y-79155210D01*
X86405853Y-78923659D01*
X86405851Y-78923654D01*
X86403241Y-78915621D01*
X86403239Y-78915618D01*
X86403239Y-78915616D01*
X86400999Y-78911220D01*
X86400689Y-78910425D01*
X86399956Y-78909172D01*
X86355364Y-78821656D01*
X86343084Y-78797555D01*
X86343084Y-78797556D01*
X86288870Y-78691155D01*
X86196624Y-78564189D01*
X86196623Y-78564187D01*
X86196622Y-78564185D01*
X86140812Y-78487369D01*
X86140794Y-78487345D01*
X86140786Y-78487336D01*
X85962660Y-78309210D01*
X85962655Y-78309206D01*
X85962654Y-78309205D01*
X85962649Y-78309201D01*
X85820362Y-78205824D01*
X85769445Y-78168831D01*
X85769443Y-78168830D01*
X85758848Y-78161132D01*
X85758847Y-78161131D01*
X85758845Y-78161130D01*
X85688747Y-78125413D01*
X85534383Y-78046760D01*
X85294785Y-77968910D01*
X85294779Y-77968909D01*
X85294782Y-77968909D01*
X85294729Y-77968900D01*
X85066911Y-77932818D01*
X85045962Y-77929500D01*
X85045961Y-77929500D01*
X84794039Y-77929500D01*
X84794038Y-77929500D01*
X84760866Y-77934754D01*
X84760740Y-77934774D01*
X84545212Y-77968910D01*
X84545209Y-77968910D01*
X84328929Y-78039185D01*
X84305616Y-78046760D01*
X84151253Y-78125413D01*
X84081147Y-78161134D01*
X83877367Y-78309188D01*
X83877346Y-78309204D01*
X83770285Y-78416265D01*
X83744804Y-78435338D01*
X83742027Y-78437417D01*
X83728309Y-78444907D01*
X83660051Y-78459758D01*
X83660036Y-78459756D01*
X83660036Y-78459757D01*
X83660035Y-78459756D01*
X83658245Y-78459629D01*
X83600044Y-78440261D01*
X83593529Y-78436074D01*
X83572897Y-78419448D01*
X83462654Y-78309205D01*
X83462649Y-78309201D01*
X83320362Y-78205824D01*
X83269445Y-78168831D01*
X83269443Y-78168830D01*
X83258848Y-78161132D01*
X83258847Y-78161131D01*
X83258845Y-78161130D01*
X83204649Y-78133516D01*
X83034381Y-78046760D01*
X83034380Y-78046759D01*
X83034379Y-78046759D01*
X82834201Y-77981717D01*
X82810860Y-77974133D01*
X82810859Y-77974132D01*
X82794785Y-77968910D01*
X82794783Y-77968909D01*
X82735221Y-77959475D01*
X82733105Y-77959065D01*
X82730416Y-77957675D01*
X82703581Y-77949378D01*
X82675404Y-77936021D01*
X82640838Y-77911654D01*
X71599426Y-66870241D01*
X71578274Y-66841985D01*
X71565667Y-66818896D01*
X71550500Y-66759471D01*
X71550500Y-66128398D01*
X71550500Y-66128395D01*
X71535300Y-65974067D01*
X71519963Y-65923507D01*
X71475232Y-65776046D01*
X71450458Y-65729698D01*
X71438423Y-65696530D01*
X71435236Y-65681220D01*
X71440840Y-65611587D01*
X71444346Y-65602437D01*
X71472452Y-65559130D01*
X75770266Y-61261319D01*
X75890587Y-61095711D01*
X75955460Y-60968389D01*
X75983520Y-60913319D01*
X76019436Y-60802781D01*
X76046777Y-60718635D01*
X76078800Y-60516452D01*
X76078800Y-60311749D01*
X76078800Y-52622329D01*
X76083823Y-52587393D01*
X76088227Y-52572395D01*
X76125972Y-52513644D01*
X76126000Y-52513619D01*
X76125999Y-52513619D01*
X76127341Y-52512456D01*
X76182220Y-52484977D01*
X76189779Y-52483333D01*
X76216132Y-52480500D01*
X77834750Y-52480500D01*
X77842345Y-52478540D01*
X77892104Y-52472934D01*
X77952348Y-52466146D01*
X77955808Y-52465952D01*
X77955813Y-52465952D01*
X77958781Y-52465533D01*
X77959253Y-52465368D01*
X77959255Y-52465368D01*
X78129522Y-52405789D01*
X78282262Y-52309816D01*
X78370053Y-52222024D01*
X78398300Y-52200879D01*
X78412024Y-52193385D01*
X78480290Y-52178535D01*
X78480292Y-52178535D01*
X78486865Y-52179005D01*
X78550909Y-52202371D01*
X78604949Y-52241634D01*
X78660738Y-52270060D01*
X78836423Y-52359577D01*
X78837296Y-52360022D01*
X78841041Y-52361078D01*
X79083507Y-52439860D01*
X79202410Y-52458692D01*
X79340098Y-52480500D01*
X79340103Y-52480500D01*
X79599901Y-52480500D01*
X79599902Y-52480500D01*
X79713298Y-52462539D01*
X79856493Y-52439860D01*
X80103572Y-52359579D01*
X80335051Y-52241634D01*
X80498198Y-52123099D01*
X80529407Y-52106633D01*
X80541603Y-52102281D01*
X80611357Y-52098294D01*
X80672196Y-52132651D01*
G37*
%TD.AperFunction*%
%TA.AperFunction,NonConductor*%
G36*
X85057761Y-81804106D02*
G01*
X85115955Y-81823473D01*
X85122468Y-81827659D01*
X85143108Y-81844292D01*
X91139081Y-87840265D01*
X91160232Y-87868520D01*
X91170907Y-87888070D01*
X91174397Y-87900968D01*
X91180000Y-87909159D01*
X91186024Y-87943935D01*
X91186152Y-87948390D01*
X91184677Y-87971345D01*
X91179706Y-88002737D01*
X91179500Y-88004038D01*
X91179500Y-88255962D01*
X91196204Y-88361426D01*
X91200714Y-88389898D01*
X91200714Y-88389899D01*
X91218909Y-88504785D01*
X91296761Y-88744387D01*
X91296764Y-88744394D01*
X91299220Y-88749214D01*
X91299222Y-88749216D01*
X91310608Y-88782623D01*
X91313170Y-88796262D01*
X91306200Y-88865783D01*
X91262751Y-88920500D01*
X91262744Y-88920504D01*
X91260016Y-88922427D01*
X91208887Y-88943402D01*
X91206942Y-88943725D01*
X91186628Y-88945400D01*
X87883777Y-88945400D01*
X87883776Y-88945399D01*
X87883776Y-88945400D01*
X87848841Y-88940377D01*
X87823599Y-88932965D01*
X87770854Y-88901669D01*
X86780382Y-87911197D01*
X86759232Y-87882945D01*
X86754994Y-87875184D01*
X86744284Y-87855570D01*
X86730645Y-87815549D01*
X86721090Y-87755214D01*
X86668561Y-87593547D01*
X86643241Y-87515621D01*
X86643239Y-87515618D01*
X86643239Y-87515616D01*
X86640985Y-87511193D01*
X86640681Y-87510413D01*
X86639959Y-87509179D01*
X86560340Y-87352919D01*
X86528870Y-87291155D01*
X86476946Y-87219687D01*
X86380798Y-87087350D01*
X86380793Y-87087344D01*
X86380789Y-87087340D01*
X86380780Y-87087330D01*
X86202660Y-86909210D01*
X86202655Y-86909206D01*
X86202654Y-86909205D01*
X86202649Y-86909201D01*
X85998848Y-86761132D01*
X85998847Y-86761131D01*
X85998845Y-86761130D01*
X85943599Y-86732981D01*
X85886880Y-86704081D01*
X85774383Y-86646760D01*
X85674731Y-86614381D01*
X85534787Y-86568910D01*
X85364776Y-86541983D01*
X85285962Y-86529500D01*
X85285961Y-86529500D01*
X85034039Y-86529500D01*
X85034038Y-86529500D01*
X84955224Y-86541983D01*
X84785212Y-86568910D01*
X84785209Y-86568910D01*
X84548746Y-86645743D01*
X84545616Y-86646760D01*
X84433119Y-86704081D01*
X84321147Y-86761134D01*
X84117367Y-86909188D01*
X84117341Y-86909208D01*
X83939207Y-87087344D01*
X83939199Y-87087351D01*
X83939195Y-87087355D01*
X83791134Y-87291147D01*
X83791132Y-87291151D01*
X83676760Y-87515616D01*
X83676759Y-87515618D01*
X83676759Y-87515619D01*
X83598910Y-87755209D01*
X83598909Y-87755213D01*
X83595904Y-87774190D01*
X83595611Y-87776043D01*
X83559500Y-88004038D01*
X83559500Y-88255962D01*
X83576204Y-88361426D01*
X83580714Y-88389898D01*
X83580714Y-88389899D01*
X83598909Y-88504785D01*
X83669301Y-88721426D01*
X83676760Y-88744383D01*
X83743202Y-88874781D01*
X83790957Y-88968506D01*
X83791130Y-88968845D01*
X83791134Y-88968851D01*
X83791134Y-88968852D01*
X83906228Y-89127265D01*
X83939201Y-89172649D01*
X83939205Y-89172654D01*
X83939210Y-89172660D01*
X84117338Y-89350788D01*
X84117342Y-89350791D01*
X84117345Y-89350794D01*
X84117350Y-89350798D01*
X84295117Y-89479952D01*
X84321155Y-89498870D01*
X84464184Y-89571747D01*
X84464183Y-89571747D01*
X84489998Y-89584900D01*
X84545616Y-89613239D01*
X84545617Y-89613239D01*
X84546492Y-89613685D01*
X84550240Y-89614742D01*
X84674049Y-89654970D01*
X84785214Y-89691090D01*
X84824439Y-89697302D01*
X84842703Y-89700194D01*
X84876414Y-89710619D01*
X84904596Y-89723979D01*
X84939160Y-89748345D01*
X85729126Y-90538311D01*
X85750275Y-90566561D01*
X85755696Y-90576488D01*
X85759486Y-90593911D01*
X85768032Y-90609561D01*
X85766760Y-90627342D01*
X85770550Y-90644761D01*
X85764319Y-90661466D01*
X85763048Y-90679252D01*
X85752365Y-90693522D01*
X85746136Y-90710226D01*
X85731862Y-90720911D01*
X85721177Y-90735186D01*
X85690200Y-90752101D01*
X85683012Y-90754782D01*
X85639678Y-90762600D01*
X80553752Y-90762600D01*
X80518817Y-90757577D01*
X80507963Y-90754390D01*
X80449185Y-90716616D01*
X80420160Y-90653060D01*
X80430100Y-90583911D01*
X80433290Y-90576924D01*
X80458402Y-90540757D01*
X80468931Y-90530229D01*
X80621634Y-90320051D01*
X80739579Y-90088572D01*
X80819860Y-89841493D01*
X80837439Y-89730500D01*
X80847843Y-89664813D01*
X80847843Y-89664811D01*
X80855773Y-89614743D01*
X80860500Y-89584902D01*
X80860500Y-89225097D01*
X80838791Y-89088034D01*
X80819860Y-88968507D01*
X80739579Y-88721428D01*
X80739577Y-88721425D01*
X80739577Y-88721423D01*
X80737337Y-88717027D01*
X80737027Y-88716232D01*
X80736294Y-88714979D01*
X80671976Y-88588750D01*
X80621634Y-88489949D01*
X80597216Y-88456340D01*
X80572799Y-88422732D01*
X80548944Y-88389899D01*
X80544658Y-88383999D01*
X80537299Y-88370053D01*
X80528191Y-88352790D01*
X80517709Y-88323413D01*
X80510500Y-88281749D01*
X80510500Y-87811176D01*
X80515522Y-87776243D01*
X80521695Y-87755220D01*
X80522934Y-87750998D01*
X80554228Y-87698256D01*
X80916200Y-87336285D01*
X81305766Y-86946719D01*
X81426087Y-86781111D01*
X81484732Y-86666013D01*
X81519020Y-86598719D01*
X81582277Y-86404034D01*
X81595487Y-86320634D01*
X81609205Y-86234022D01*
X81609583Y-86231637D01*
X81609583Y-86231635D01*
X81614300Y-86201857D01*
X81614300Y-83081029D01*
X81618356Y-83052822D01*
X81619323Y-83046093D01*
X81620221Y-83043037D01*
X81623727Y-83031094D01*
X81661472Y-82972344D01*
X81661500Y-82972319D01*
X81661499Y-82972319D01*
X81662841Y-82971156D01*
X81717720Y-82943677D01*
X81725279Y-82942033D01*
X81751632Y-82939200D01*
X83417651Y-82939200D01*
X83417652Y-82939200D01*
X83619835Y-82907177D01*
X83736038Y-82869420D01*
X83814519Y-82843920D01*
X83946864Y-82776487D01*
X83996911Y-82750987D01*
X84162519Y-82630666D01*
X84945714Y-81847468D01*
X84973965Y-81826320D01*
X84987691Y-81818825D01*
X85005108Y-81815036D01*
X85020748Y-81806496D01*
X85055947Y-81803976D01*
X85057761Y-81804106D01*
G37*
%TD.AperFunction*%
%TA.AperFunction,NonConductor*%
G36*
X70782756Y-88506443D02*
G01*
X70782782Y-88506194D01*
X70788559Y-88506773D01*
X70788565Y-88506773D01*
X70788606Y-88506778D01*
X70793492Y-88507987D01*
X70799294Y-88508821D01*
X70805340Y-88510596D01*
X70805251Y-88510896D01*
X70822825Y-88515245D01*
X70824480Y-88515916D01*
X70879211Y-88559347D01*
X70901773Y-88625473D01*
X70901775Y-88625509D01*
X70901871Y-88627744D01*
X70887659Y-88690924D01*
X70886654Y-88692829D01*
X70877298Y-88707856D01*
X70866014Y-88723386D01*
X70866009Y-88723394D01*
X70773105Y-88905729D01*
X70773069Y-88905802D01*
X70772004Y-88908401D01*
X70762999Y-88926154D01*
X70747783Y-88950984D01*
X70729737Y-88973875D01*
X68834788Y-90868825D01*
X68806538Y-90889974D01*
X68796611Y-90895395D01*
X68728338Y-90910249D01*
X68662873Y-90885835D01*
X68621000Y-90829903D01*
X68618313Y-90822697D01*
X68610500Y-90779377D01*
X68610500Y-90531132D01*
X68615523Y-90496198D01*
X68624309Y-90466275D01*
X68642969Y-90428323D01*
X68721631Y-90320055D01*
X68721632Y-90320054D01*
X68721634Y-90320051D01*
X68839579Y-90088572D01*
X68919860Y-89841493D01*
X68937439Y-89730500D01*
X68947843Y-89664813D01*
X68947843Y-89664811D01*
X68955773Y-89614743D01*
X68960500Y-89584902D01*
X68960500Y-89225097D01*
X68938791Y-89088034D01*
X68919860Y-88968507D01*
X68839579Y-88721428D01*
X68836931Y-88716232D01*
X68828650Y-88699979D01*
X68828649Y-88699977D01*
X68828648Y-88699976D01*
X68817264Y-88666568D01*
X68814703Y-88652930D01*
X68821677Y-88583409D01*
X68865127Y-88528696D01*
X68867858Y-88526771D01*
X68919046Y-88505787D01*
X68920993Y-88505464D01*
X68941246Y-88503800D01*
X70764364Y-88503800D01*
X70782756Y-88506443D01*
G37*
%TD.AperFunction*%
%TA.AperFunction,NonConductor*%
G36*
X48597030Y-62618839D02*
G01*
X48598499Y-62618946D01*
X48599670Y-62619824D01*
X48634736Y-62632909D01*
X48676600Y-62688848D01*
X48681575Y-62758541D01*
X48681553Y-62758639D01*
X48681461Y-62759060D01*
X48660638Y-62805472D01*
X48588370Y-62904941D01*
X48588368Y-62904945D01*
X48470422Y-63136423D01*
X48470421Y-63136425D01*
X48470421Y-63136426D01*
X48390140Y-63383501D01*
X48390140Y-63383504D01*
X48390140Y-63383506D01*
X48349500Y-63640097D01*
X48349500Y-63899902D01*
X48357954Y-63953276D01*
X48390140Y-64156494D01*
X48390140Y-64156497D01*
X48470421Y-64403574D01*
X48470424Y-64403581D01*
X48541828Y-64543715D01*
X48541828Y-64543717D01*
X48541829Y-64543717D01*
X48587609Y-64633566D01*
X48588366Y-64635052D01*
X48741065Y-64845224D01*
X48741083Y-64845244D01*
X48835547Y-64939708D01*
X48835550Y-64939710D01*
X48856701Y-64967964D01*
X48864193Y-64981684D01*
X48879047Y-65049948D01*
X48878918Y-65051754D01*
X48859550Y-65109956D01*
X48855371Y-65116459D01*
X48838735Y-65137103D01*
X48741083Y-65234754D01*
X48741065Y-65234774D01*
X48588370Y-65444941D01*
X48588368Y-65444945D01*
X48470422Y-65676423D01*
X48470421Y-65676425D01*
X48470421Y-65676426D01*
X48390140Y-65923501D01*
X48390140Y-65923504D01*
X48349500Y-66180097D01*
X48349500Y-66439901D01*
X48390140Y-66696494D01*
X48390140Y-66696497D01*
X48429911Y-66818896D01*
X48470422Y-66943576D01*
X48536050Y-67072376D01*
X48536050Y-67072378D01*
X48564024Y-67127279D01*
X48564025Y-67127280D01*
X48566229Y-67131605D01*
X48588371Y-67175059D01*
X48741065Y-67385224D01*
X48741083Y-67385244D01*
X48835547Y-67479708D01*
X48835550Y-67479710D01*
X48856701Y-67507964D01*
X48864193Y-67521684D01*
X48879047Y-67589948D01*
X48878918Y-67591754D01*
X48859550Y-67649956D01*
X48855371Y-67656459D01*
X48838735Y-67677103D01*
X48741083Y-67774754D01*
X48741065Y-67774774D01*
X48588370Y-67984941D01*
X48588368Y-67984945D01*
X48470422Y-68216423D01*
X48470421Y-68216425D01*
X48470421Y-68216426D01*
X48390140Y-68463501D01*
X48390140Y-68463504D01*
X48349500Y-68720097D01*
X48349500Y-68979896D01*
X48349499Y-68979899D01*
X48390140Y-69236494D01*
X48390140Y-69236497D01*
X48452120Y-69427248D01*
X48470422Y-69483576D01*
X48588368Y-69715054D01*
X48588370Y-69715057D01*
X48741065Y-69925224D01*
X48741083Y-69925244D01*
X48835547Y-70019708D01*
X48835550Y-70019710D01*
X48856701Y-70047964D01*
X48864193Y-70061684D01*
X48879047Y-70129948D01*
X48878918Y-70131754D01*
X48859550Y-70189956D01*
X48855371Y-70196459D01*
X48838735Y-70217103D01*
X48741083Y-70314754D01*
X48741065Y-70314774D01*
X48588370Y-70524941D01*
X48588368Y-70524945D01*
X48470422Y-70756423D01*
X48470421Y-70756425D01*
X48470421Y-70756426D01*
X48390140Y-71003501D01*
X48390140Y-71003504D01*
X48365470Y-71159265D01*
X48349500Y-71260097D01*
X48349500Y-71519902D01*
X48356826Y-71566157D01*
X48390140Y-71776494D01*
X48390140Y-71776497D01*
X48455378Y-71977276D01*
X48470422Y-72023576D01*
X48588368Y-72255054D01*
X48588370Y-72255057D01*
X48741065Y-72465224D01*
X48741083Y-72465244D01*
X48835547Y-72559708D01*
X48835550Y-72559710D01*
X48856701Y-72587964D01*
X48864193Y-72601684D01*
X48879047Y-72669948D01*
X48878918Y-72671754D01*
X48859550Y-72729956D01*
X48855371Y-72736459D01*
X48838735Y-72757103D01*
X48741083Y-72854754D01*
X48741065Y-72854774D01*
X48588370Y-73064941D01*
X48588368Y-73064945D01*
X48470422Y-73296423D01*
X48458364Y-73333535D01*
X48390140Y-73543501D01*
X48390140Y-73543504D01*
X48349500Y-73800097D01*
X48349500Y-74059901D01*
X48390140Y-74316494D01*
X48390140Y-74316497D01*
X48448073Y-74494794D01*
X48470422Y-74563576D01*
X48588368Y-74795054D01*
X48588370Y-74795057D01*
X48741065Y-75005224D01*
X48741083Y-75005244D01*
X48835547Y-75099708D01*
X48835550Y-75099710D01*
X48856701Y-75127964D01*
X48864193Y-75141684D01*
X48879047Y-75209948D01*
X48878918Y-75211754D01*
X48859550Y-75269956D01*
X48855371Y-75276459D01*
X48838735Y-75297103D01*
X48741083Y-75394754D01*
X48741065Y-75394774D01*
X48588370Y-75604941D01*
X48588368Y-75604945D01*
X48470422Y-75836423D01*
X48470421Y-75836425D01*
X48470421Y-75836426D01*
X48390140Y-76083501D01*
X48390140Y-76083504D01*
X48349500Y-76340097D01*
X48349500Y-76599901D01*
X48390140Y-76856494D01*
X48390140Y-76856497D01*
X48440576Y-77011720D01*
X48470422Y-77103576D01*
X48542142Y-77244331D01*
X48588370Y-77335057D01*
X48741065Y-77545224D01*
X48741083Y-77545244D01*
X48835547Y-77639708D01*
X48835550Y-77639710D01*
X48856701Y-77667964D01*
X48864193Y-77681684D01*
X48879047Y-77749948D01*
X48878918Y-77751754D01*
X48859550Y-77809956D01*
X48855371Y-77816459D01*
X48838735Y-77837103D01*
X48741083Y-77934754D01*
X48741065Y-77934774D01*
X48588370Y-78144941D01*
X48588368Y-78144945D01*
X48470422Y-78376423D01*
X48470421Y-78376425D01*
X48470421Y-78376426D01*
X48390140Y-78623501D01*
X48390140Y-78623504D01*
X48362623Y-78797240D01*
X48349500Y-78880097D01*
X48349500Y-79139902D01*
X48352900Y-79161368D01*
X48390140Y-79396494D01*
X48390140Y-79396497D01*
X48437059Y-79540896D01*
X48470422Y-79643576D01*
X48588368Y-79875054D01*
X48678354Y-79998909D01*
X48741069Y-80085229D01*
X48924771Y-80268931D01*
X49134949Y-80421634D01*
X49282445Y-80496787D01*
X49359977Y-80536292D01*
X49361583Y-80537233D01*
X49365306Y-80539036D01*
X49367281Y-80540017D01*
X49371041Y-80541077D01*
X49613507Y-80619860D01*
X49681235Y-80630586D01*
X49745545Y-80640772D01*
X49745644Y-80640787D01*
X49745706Y-80640797D01*
X49870098Y-80660500D01*
X49870103Y-80660500D01*
X50129901Y-80660500D01*
X50129902Y-80660500D01*
X50244898Y-80642286D01*
X50386493Y-80619860D01*
X50633572Y-80539579D01*
X50865051Y-80421634D01*
X51075229Y-80268931D01*
X51258931Y-80085229D01*
X51411634Y-79875051D01*
X51468156Y-79764117D01*
X51488484Y-79735282D01*
X51509791Y-79712722D01*
X51544039Y-79687181D01*
X52104720Y-79404038D01*
X55259500Y-79404038D01*
X55259500Y-79655962D01*
X55271045Y-79728852D01*
X55285914Y-79822730D01*
X55285914Y-79822731D01*
X55298909Y-79904785D01*
X55338469Y-80026536D01*
X55376759Y-80144381D01*
X55376761Y-80144385D01*
X55455413Y-80298747D01*
X55455413Y-80298748D01*
X55475515Y-80338200D01*
X55488508Y-80363700D01*
X55491132Y-80368848D01*
X55639201Y-80572649D01*
X55639205Y-80572654D01*
X55639210Y-80572660D01*
X55817338Y-80750788D01*
X55817342Y-80750791D01*
X55817345Y-80750794D01*
X55817350Y-80750798D01*
X55959647Y-80854182D01*
X56021155Y-80898870D01*
X56164184Y-80971747D01*
X56164183Y-80971747D01*
X56200752Y-80990379D01*
X56242775Y-81011791D01*
X56246488Y-81013684D01*
X56250243Y-81014743D01*
X56374049Y-81054970D01*
X56485215Y-81091090D01*
X56734038Y-81130500D01*
X56734039Y-81130500D01*
X56985961Y-81130500D01*
X56985962Y-81130500D01*
X57234785Y-81091090D01*
X57474379Y-81013241D01*
X57698845Y-80898870D01*
X57902656Y-80750793D01*
X58080793Y-80572656D01*
X58228870Y-80368845D01*
X58343241Y-80144379D01*
X58421090Y-79904785D01*
X58460500Y-79655962D01*
X58460500Y-79404038D01*
X58421090Y-79155215D01*
X58421089Y-79155211D01*
X58421089Y-79155210D01*
X58345853Y-78923659D01*
X58345851Y-78923654D01*
X58343241Y-78915621D01*
X58343239Y-78915618D01*
X58343239Y-78915616D01*
X58340999Y-78911220D01*
X58340689Y-78910425D01*
X58339956Y-78909172D01*
X58295364Y-78821656D01*
X58283084Y-78797555D01*
X58283084Y-78797556D01*
X58228870Y-78691155D01*
X58136624Y-78564189D01*
X58136623Y-78564187D01*
X58136622Y-78564185D01*
X58080812Y-78487369D01*
X58080794Y-78487345D01*
X58080786Y-78487336D01*
X57902660Y-78309210D01*
X57902655Y-78309206D01*
X57902654Y-78309205D01*
X57902649Y-78309201D01*
X57760362Y-78205824D01*
X57709445Y-78168831D01*
X57709443Y-78168830D01*
X57698848Y-78161132D01*
X57698847Y-78161131D01*
X57698845Y-78161130D01*
X57628747Y-78125413D01*
X57474383Y-78046760D01*
X57234785Y-77968910D01*
X57234779Y-77968909D01*
X57234782Y-77968909D01*
X57234729Y-77968900D01*
X57006911Y-77932818D01*
X56985962Y-77929500D01*
X56985961Y-77929500D01*
X56734039Y-77929500D01*
X56734038Y-77929500D01*
X56700866Y-77934754D01*
X56700740Y-77934774D01*
X56485212Y-77968910D01*
X56485209Y-77968910D01*
X56268929Y-78039185D01*
X56245616Y-78046760D01*
X56091253Y-78125413D01*
X56021147Y-78161134D01*
X55817367Y-78309188D01*
X55817338Y-78309210D01*
X55639210Y-78487338D01*
X55639188Y-78487367D01*
X55491134Y-78691147D01*
X55376759Y-78915618D01*
X55298910Y-79155210D01*
X55297492Y-79164169D01*
X55297491Y-79164172D01*
X55265913Y-79363548D01*
X55259500Y-79404038D01*
X52104720Y-79404038D01*
X52560284Y-79173979D01*
X52627095Y-79143909D01*
X52651529Y-79127900D01*
X52677603Y-79114733D01*
X52733757Y-79074241D01*
X52735842Y-79072772D01*
X52738270Y-79071102D01*
X52740383Y-79069683D01*
X52798321Y-79031726D01*
X52814790Y-79016774D01*
X52825609Y-79008011D01*
X52843642Y-78995009D01*
X52894014Y-78944997D01*
X52895780Y-78943256D01*
X52949890Y-78894139D01*
X52963821Y-78876790D01*
X52970815Y-78869018D01*
X52975607Y-78863988D01*
X52988906Y-78850787D01*
X52988906Y-78850786D01*
X52988910Y-78850783D01*
X53030568Y-78793876D01*
X53033902Y-78789528D01*
X53078069Y-78734535D01*
X53089110Y-78715228D01*
X53096685Y-78703559D01*
X53109826Y-78685610D01*
X53143327Y-78620440D01*
X53179703Y-78556844D01*
X53190059Y-78529534D01*
X53203416Y-78503553D01*
X53226308Y-78433950D01*
X53252289Y-78365443D01*
X53258246Y-78336844D01*
X53267373Y-78309098D01*
X53278440Y-78240806D01*
X53278905Y-78238129D01*
X53279398Y-78235466D01*
X53279922Y-78232794D01*
X54864271Y-70627924D01*
X54876317Y-70594745D01*
X54879199Y-70589357D01*
X54928173Y-70539524D01*
X54996314Y-70524080D01*
X55061988Y-70547927D01*
X55104337Y-70603476D01*
X55105094Y-70605452D01*
X55113300Y-70649812D01*
X55113300Y-71566157D01*
X55134450Y-71699690D01*
X55137493Y-71718903D01*
X55139330Y-71730500D01*
X55145323Y-71768334D01*
X55208580Y-71963019D01*
X55255046Y-72054214D01*
X55301513Y-72145411D01*
X55421834Y-72311019D01*
X55421836Y-72311021D01*
X62859618Y-79748803D01*
X62880767Y-79777055D01*
X62895713Y-79804427D01*
X62909353Y-79844454D01*
X62918908Y-79904781D01*
X62921537Y-79912870D01*
X62926239Y-79927342D01*
X62927437Y-79931027D01*
X62927438Y-79931031D01*
X62996757Y-80144376D01*
X63095515Y-80338200D01*
X63108508Y-80363700D01*
X63111132Y-80368848D01*
X63259201Y-80572649D01*
X63259205Y-80572654D01*
X63259210Y-80572660D01*
X63437338Y-80750788D01*
X63437342Y-80750791D01*
X63437345Y-80750794D01*
X63437350Y-80750798D01*
X63579647Y-80854182D01*
X63641155Y-80898870D01*
X63784184Y-80971747D01*
X63784183Y-80971747D01*
X63820752Y-80990379D01*
X63862775Y-81011791D01*
X63866488Y-81013684D01*
X63870243Y-81014743D01*
X63994049Y-81054970D01*
X64105215Y-81091090D01*
X64354038Y-81130500D01*
X64354039Y-81130500D01*
X64605961Y-81130500D01*
X64605962Y-81130500D01*
X64854785Y-81091090D01*
X65094379Y-81013241D01*
X65318845Y-80898870D01*
X65365933Y-80864657D01*
X65397145Y-80848190D01*
X65426516Y-80837711D01*
X65468184Y-80830500D01*
X68468932Y-80830500D01*
X68503866Y-80835523D01*
X68533789Y-80844309D01*
X68571738Y-80862967D01*
X68621155Y-80898870D01*
X68663840Y-80920619D01*
X68845616Y-81013239D01*
X68845617Y-81013239D01*
X68846492Y-81013685D01*
X68850243Y-81014743D01*
X68974049Y-81054970D01*
X69085215Y-81091090D01*
X69334038Y-81130500D01*
X69334039Y-81130500D01*
X69585961Y-81130500D01*
X69585962Y-81130500D01*
X69834785Y-81091090D01*
X70074379Y-81013241D01*
X70298845Y-80898870D01*
X70502656Y-80750793D01*
X70680793Y-80572656D01*
X70828870Y-80368845D01*
X70943241Y-80144379D01*
X70985377Y-80014696D01*
X71000948Y-79983026D01*
X71008783Y-79971567D01*
X71062872Y-79927342D01*
X71132271Y-79919376D01*
X71135561Y-79919945D01*
X71186586Y-79941288D01*
X71188189Y-79942435D01*
X71203713Y-79955597D01*
X71622208Y-80374092D01*
X71622222Y-80374107D01*
X71625333Y-80377218D01*
X71625334Y-80377219D01*
X71770081Y-80521966D01*
X71770084Y-80521968D01*
X71770087Y-80521971D01*
X71770093Y-80521975D01*
X71770577Y-80522372D01*
X71772059Y-80523404D01*
X71794323Y-80539579D01*
X71847462Y-80578186D01*
X71847463Y-80578187D01*
X71875357Y-80598453D01*
X71935690Y-80642287D01*
X71971435Y-80660500D01*
X72118081Y-80735221D01*
X72118087Y-80735223D01*
X72118096Y-80735226D01*
X72118110Y-80735231D01*
X72215497Y-80766873D01*
X72312286Y-80798321D01*
X72312746Y-80798472D01*
X72312751Y-80798473D01*
X72312760Y-80798476D01*
X72312765Y-80798476D01*
X72312766Y-80798477D01*
X72514948Y-80830500D01*
X72514949Y-80830500D01*
X72719652Y-80830500D01*
X76088932Y-80830500D01*
X76111347Y-80833723D01*
X76123866Y-80835523D01*
X76153789Y-80844309D01*
X76191738Y-80862967D01*
X76241155Y-80898870D01*
X76283840Y-80920619D01*
X76465616Y-81013239D01*
X76465617Y-81013239D01*
X76466492Y-81013685D01*
X76470240Y-81014742D01*
X76594049Y-81054970D01*
X76705214Y-81091090D01*
X76744439Y-81097302D01*
X76762703Y-81100194D01*
X76796414Y-81110619D01*
X76824596Y-81123979D01*
X76859160Y-81148345D01*
X78341481Y-82630666D01*
X78507089Y-82750987D01*
X78557136Y-82776487D01*
X78689481Y-82843920D01*
X78767962Y-82869420D01*
X78884165Y-82907177D01*
X78891085Y-82908272D01*
X78891090Y-82908274D01*
X78891092Y-82908274D01*
X78891097Y-82908274D01*
X78924810Y-82918699D01*
X78938934Y-82925395D01*
X78991072Y-82971890D01*
X78994557Y-82977486D01*
X79013300Y-83043037D01*
X79013300Y-85491623D01*
X79008276Y-85526560D01*
X79000864Y-85551801D01*
X78969569Y-85604545D01*
X78218038Y-86356075D01*
X78218038Y-86356076D01*
X78218036Y-86356078D01*
X78153681Y-86444655D01*
X78097718Y-86521681D01*
X78097714Y-86521688D01*
X78097708Y-86521697D01*
X78073652Y-86568910D01*
X78073651Y-86568912D01*
X78058575Y-86598497D01*
X78038239Y-86627344D01*
X78029346Y-86636759D01*
X78013951Y-86645743D01*
X78010603Y-86649289D01*
X78005868Y-86650461D01*
X77969002Y-86671978D01*
X77899196Y-86668982D01*
X77867079Y-86647353D01*
X77864978Y-86646736D01*
X77863129Y-86644693D01*
X77845483Y-86632809D01*
X77839413Y-86625803D01*
X77822640Y-86600888D01*
X77821534Y-86598717D01*
X77821532Y-86598715D01*
X77821419Y-86598494D01*
X77782287Y-86521690D01*
X77782285Y-86521687D01*
X77782284Y-86521685D01*
X77781933Y-86521202D01*
X77781931Y-86521198D01*
X77661974Y-86356089D01*
X77517211Y-86211326D01*
X77362209Y-86098713D01*
X77362205Y-86098710D01*
X77351613Y-86091015D01*
X77351612Y-86091014D01*
X77351610Y-86091013D01*
X77323171Y-86076522D01*
X77294654Y-86061991D01*
X77294653Y-86061991D01*
X77169223Y-85998081D01*
X76974534Y-85934822D01*
X76974532Y-85934821D01*
X76974530Y-85934821D01*
X76974529Y-85934820D01*
X76799995Y-85907178D01*
X76783409Y-85904551D01*
X76772354Y-85902800D01*
X76772352Y-85902800D01*
X62332352Y-85902800D01*
X62127648Y-85902800D01*
X62127647Y-85902800D01*
X62103327Y-85906651D01*
X62103326Y-85906650D01*
X61925468Y-85934821D01*
X61730777Y-85998080D01*
X61730764Y-85998086D01*
X61548397Y-86091008D01*
X61548385Y-86091015D01*
X61382787Y-86211327D01*
X61382784Y-86211329D01*
X61238029Y-86356084D01*
X61238027Y-86356087D01*
X61117715Y-86521685D01*
X61117708Y-86521697D01*
X61024786Y-86704064D01*
X61024780Y-86704077D01*
X60961521Y-86898768D01*
X60929500Y-87100942D01*
X60929500Y-87756361D01*
X60924477Y-87791296D01*
X60917788Y-87814076D01*
X60890813Y-87862276D01*
X60889519Y-87863708D01*
X60880160Y-87873018D01*
X60877736Y-87875184D01*
X60750184Y-88002737D01*
X60750183Y-88002737D01*
X60654212Y-88155473D01*
X60654210Y-88155476D01*
X60594631Y-88325743D01*
X60594630Y-88325746D01*
X60594627Y-88325768D01*
X60579500Y-88460032D01*
X60579500Y-90349966D01*
X60594627Y-90484230D01*
X60594630Y-90484252D01*
X60594631Y-90484255D01*
X60654210Y-90654522D01*
X60654212Y-90654525D01*
X60741695Y-90793752D01*
X60741695Y-90793753D01*
X60750180Y-90807258D01*
X60750184Y-90807262D01*
X60877738Y-90934816D01*
X60956932Y-90984577D01*
X61007980Y-91016653D01*
X61030478Y-91030789D01*
X61155457Y-91074521D01*
X61200745Y-91090368D01*
X61200750Y-91090369D01*
X61200756Y-91090369D01*
X61200770Y-91090372D01*
X61248724Y-91095774D01*
X61291246Y-91100565D01*
X61332068Y-91105164D01*
X61334511Y-91105500D01*
X63124957Y-91105500D01*
X63134750Y-91105500D01*
X63142345Y-91103540D01*
X63192104Y-91097934D01*
X63252348Y-91091146D01*
X63255808Y-91090952D01*
X63255813Y-91090952D01*
X63258781Y-91090533D01*
X63259253Y-91090368D01*
X63259255Y-91090368D01*
X63429522Y-91030789D01*
X63582262Y-90934816D01*
X63670053Y-90847024D01*
X63698300Y-90825879D01*
X63712024Y-90818385D01*
X63780289Y-90803535D01*
X63780292Y-90803535D01*
X63786865Y-90804005D01*
X63850908Y-90827370D01*
X63904949Y-90866634D01*
X63933991Y-90881431D01*
X63933993Y-90881433D01*
X63933994Y-90881433D01*
X64127795Y-90980181D01*
X64129976Y-90981292D01*
X64129979Y-90981294D01*
X64137296Y-90985022D01*
X64141053Y-90986082D01*
X64383499Y-91064858D01*
X64383502Y-91064858D01*
X64383507Y-91064860D01*
X64502410Y-91083692D01*
X64640098Y-91105500D01*
X64640103Y-91105500D01*
X64899901Y-91105500D01*
X64899902Y-91105500D01*
X65023434Y-91085934D01*
X65156493Y-91064860D01*
X65403572Y-90984579D01*
X65635051Y-90866634D01*
X65798199Y-90748099D01*
X65819149Y-90735819D01*
X65824180Y-90733498D01*
X65824474Y-90733394D01*
X65824549Y-90733328D01*
X65830143Y-90730749D01*
X65833120Y-90730309D01*
X65835363Y-90729510D01*
X65835467Y-90729803D01*
X65852242Y-90722993D01*
X65853973Y-90722564D01*
X65878514Y-90723611D01*
X65899264Y-90720550D01*
X65908903Y-90724908D01*
X65923779Y-90725544D01*
X65947908Y-90742547D01*
X65962927Y-90749339D01*
X65967447Y-90756316D01*
X65980893Y-90765791D01*
X65980900Y-90765800D01*
X65982290Y-90767550D01*
X65997341Y-90802457D01*
X66000918Y-90807978D01*
X66000928Y-90810776D01*
X66007927Y-90827008D01*
X66008235Y-90829148D01*
X66009500Y-90846813D01*
X66009500Y-90998823D01*
X66009499Y-90998825D01*
X66009500Y-90998826D01*
X66004476Y-91033760D01*
X65997064Y-91059001D01*
X65965769Y-91111745D01*
X61696941Y-95380573D01*
X61668690Y-95401722D01*
X61645602Y-95414330D01*
X61586172Y-95429500D01*
X59871068Y-95429500D01*
X59871066Y-95429499D01*
X59871066Y-95429500D01*
X59836132Y-95424477D01*
X59806211Y-95415691D01*
X59768264Y-95397034D01*
X59744214Y-95379561D01*
X59718845Y-95361130D01*
X59712763Y-95358031D01*
X59494383Y-95246760D01*
X59436901Y-95228083D01*
X59374582Y-95207834D01*
X59314682Y-95188371D01*
X59254784Y-95168909D01*
X59197299Y-95159804D01*
X59197298Y-95159803D01*
X59197298Y-95159804D01*
X59163579Y-95149377D01*
X59135400Y-95136018D01*
X59100838Y-95111653D01*
X56839426Y-92850241D01*
X56818274Y-92821985D01*
X56805667Y-92798896D01*
X56790500Y-92739471D01*
X56790500Y-91634245D01*
X56795523Y-91599309D01*
X56800529Y-91582262D01*
X56801174Y-91580063D01*
X56832911Y-91526880D01*
X56838820Y-91521031D01*
X56860082Y-91504162D01*
X56881289Y-91490838D01*
X57092085Y-91322734D01*
X57282734Y-91132085D01*
X57450838Y-90921289D01*
X57594284Y-90692997D01*
X57711267Y-90450079D01*
X57800316Y-90195591D01*
X57860312Y-89932732D01*
X57884925Y-89714285D01*
X57890500Y-89664811D01*
X57890500Y-89395192D01*
X57890498Y-89395168D01*
X57885500Y-89350810D01*
X57860510Y-89129031D01*
X57860381Y-89127713D01*
X57860312Y-89127268D01*
X57824076Y-88968507D01*
X57800316Y-88864409D01*
X57711267Y-88609921D01*
X57594284Y-88367003D01*
X57450838Y-88138711D01*
X57282734Y-87927915D01*
X57092085Y-87737266D01*
X56881289Y-87569162D01*
X56704770Y-87458247D01*
X56654409Y-87426603D01*
X56653350Y-87425917D01*
X56652992Y-87425713D01*
X56410089Y-87308737D01*
X56410075Y-87308731D01*
X56163237Y-87222358D01*
X56163231Y-87222356D01*
X56155602Y-87219687D01*
X56155594Y-87219684D01*
X55958446Y-87174687D01*
X55958304Y-87174654D01*
X55958164Y-87174622D01*
X55893981Y-87159973D01*
X55892947Y-87159725D01*
X55892737Y-87159688D01*
X55892719Y-87159686D01*
X55892719Y-87159684D01*
X55892638Y-87159670D01*
X55892528Y-87159664D01*
X55624817Y-87129500D01*
X55624813Y-87129500D01*
X55624809Y-87129500D01*
X55355191Y-87129500D01*
X55355186Y-87129500D01*
X55355181Y-87129500D01*
X55087292Y-87159683D01*
X55087265Y-87159688D01*
X54824412Y-87219681D01*
X54824137Y-87219764D01*
X54823084Y-87220146D01*
X54569923Y-87308731D01*
X54569901Y-87308740D01*
X54327010Y-87425710D01*
X54098709Y-87569162D01*
X54098707Y-87569163D01*
X53887921Y-87737258D01*
X53697258Y-87927921D01*
X53529163Y-88138707D01*
X53529162Y-88138709D01*
X53385710Y-88367010D01*
X53268740Y-88609901D01*
X53268738Y-88609907D01*
X53268735Y-88609913D01*
X53268734Y-88609917D01*
X53180118Y-88863163D01*
X53179760Y-88864152D01*
X53179681Y-88864412D01*
X53119688Y-89127265D01*
X53119683Y-89127294D01*
X53089502Y-89395161D01*
X53089500Y-89395192D01*
X53089500Y-89664813D01*
X53119683Y-89932706D01*
X53119688Y-89932733D01*
X53179681Y-90195586D01*
X53179763Y-90195859D01*
X53180146Y-90196914D01*
X53268731Y-90450075D01*
X53268740Y-90450097D01*
X53385710Y-90692988D01*
X53529161Y-90921288D01*
X53531172Y-90924122D01*
X53530640Y-90924498D01*
X53545470Y-90949797D01*
X53550051Y-90961019D01*
X53557163Y-91030525D01*
X53525568Y-91092843D01*
X53467755Y-91127546D01*
X53457745Y-91130264D01*
X53425246Y-91134600D01*
X45929500Y-91134600D01*
X45862461Y-91114915D01*
X45816706Y-91062111D01*
X45805500Y-91010600D01*
X45805500Y-86124008D01*
X45805499Y-86123991D01*
X45802781Y-86098713D01*
X45787090Y-85952772D01*
X45775884Y-85901261D01*
X45766134Y-85861365D01*
X45699665Y-85693684D01*
X45597550Y-85544998D01*
X45551795Y-85492194D01*
X45482842Y-85421820D01*
X45336270Y-85316692D01*
X45169981Y-85246815D01*
X45169982Y-85246815D01*
X45169979Y-85246814D01*
X45102924Y-85227124D01*
X45055247Y-85214696D01*
X44876004Y-85194500D01*
X44876000Y-85194500D01*
X35410400Y-85194500D01*
X35343361Y-85174815D01*
X35297606Y-85122011D01*
X35286400Y-85070500D01*
X35286400Y-79363548D01*
X35278108Y-79311197D01*
X35254377Y-79161365D01*
X35191118Y-78966676D01*
X35142552Y-78871361D01*
X35098187Y-78784290D01*
X35070791Y-78746582D01*
X34977871Y-78618686D01*
X34613021Y-78253836D01*
X34613019Y-78253834D01*
X34447411Y-78133513D01*
X34388887Y-78103694D01*
X34265022Y-78040581D01*
X34083861Y-77981717D01*
X34083850Y-77981714D01*
X34070335Y-77977323D01*
X34070333Y-77977322D01*
X34070331Y-77977322D01*
X34055934Y-77975041D01*
X34055927Y-77975040D01*
X33929164Y-77954963D01*
X33868156Y-77945300D01*
X33868152Y-77945300D01*
X33663448Y-77945300D01*
X33558653Y-77961898D01*
X33558652Y-77961898D01*
X33475959Y-77974995D01*
X33450358Y-77976366D01*
X33433572Y-77975525D01*
X33367603Y-77952511D01*
X33324548Y-77897483D01*
X33318078Y-77827915D01*
X33318363Y-77826453D01*
X33339989Y-77777015D01*
X33340409Y-77776441D01*
X33352794Y-77761989D01*
X48466913Y-62647869D01*
X48467458Y-62647326D01*
X48467594Y-62647251D01*
X48487166Y-62632597D01*
X48486853Y-62632104D01*
X48486864Y-62632097D01*
X48487177Y-62632589D01*
X48495647Y-62626248D01*
X48501000Y-62623326D01*
X48518484Y-62619524D01*
X48528812Y-62613898D01*
X48540479Y-62614743D01*
X48569275Y-62608483D01*
X48597030Y-62618839D01*
G37*
%TD.AperFunction*%
%TA.AperFunction,NonConductor*%
G36*
X54178128Y-93740623D02*
G01*
X54186932Y-93743208D01*
X54186481Y-93744742D01*
X54193777Y-93748120D01*
X54211408Y-93750748D01*
X54241001Y-93769982D01*
X54245051Y-93773528D01*
X54281297Y-93828501D01*
X54284778Y-93839216D01*
X54300894Y-93870844D01*
X54305656Y-93880190D01*
X54377713Y-94021611D01*
X54498034Y-94187219D01*
X54498036Y-94187221D01*
X57259618Y-96948803D01*
X57280767Y-96977055D01*
X57295713Y-97004427D01*
X57309353Y-97044454D01*
X57318908Y-97104780D01*
X57318909Y-97104782D01*
X57318909Y-97104783D01*
X57396759Y-97344380D01*
X57397848Y-97346518D01*
X57397849Y-97346520D01*
X57397851Y-97346522D01*
X57409235Y-97379930D01*
X57411796Y-97393568D01*
X57404822Y-97463089D01*
X57361384Y-97517793D01*
X57358654Y-97519718D01*
X57307510Y-97540702D01*
X57305561Y-97541025D01*
X57285257Y-97542700D01*
X52862371Y-97542700D01*
X52862368Y-97542699D01*
X52862367Y-97542700D01*
X52827432Y-97537676D01*
X52814114Y-97533765D01*
X52755337Y-97495989D01*
X52726315Y-97432432D01*
X52726314Y-97432429D01*
X52725839Y-97429124D01*
X52730374Y-97374017D01*
X52730973Y-97372128D01*
X52738688Y-97353313D01*
X52743241Y-97344379D01*
X52821090Y-97104785D01*
X52860500Y-96855962D01*
X52860500Y-96604038D01*
X52821090Y-96355215D01*
X52821089Y-96355211D01*
X52821089Y-96355210D01*
X52745855Y-96123665D01*
X52745852Y-96123659D01*
X52743241Y-96115621D01*
X52743239Y-96115618D01*
X52743239Y-96115616D01*
X52740998Y-96111218D01*
X52740686Y-96110418D01*
X52739954Y-96109169D01*
X52714125Y-96058478D01*
X52686340Y-96003947D01*
X52628870Y-95891155D01*
X52561659Y-95798647D01*
X52561658Y-95798645D01*
X52561657Y-95798643D01*
X52480798Y-95687350D01*
X52480780Y-95687330D01*
X52302660Y-95509210D01*
X52302655Y-95509206D01*
X52302654Y-95509205D01*
X52302649Y-95509201D01*
X52192671Y-95429298D01*
X52109445Y-95368831D01*
X52109443Y-95368830D01*
X52098848Y-95361132D01*
X52098847Y-95361131D01*
X52098845Y-95361130D01*
X52028747Y-95325413D01*
X51874383Y-95246760D01*
X51754581Y-95207834D01*
X51634787Y-95168910D01*
X51594636Y-95162551D01*
X51536720Y-95153378D01*
X51385962Y-95129500D01*
X51385961Y-95129500D01*
X51134039Y-95129500D01*
X51134038Y-95129500D01*
X51051096Y-95142636D01*
X50885212Y-95168910D01*
X50885209Y-95168910D01*
X50645613Y-95246761D01*
X50421149Y-95361132D01*
X50382802Y-95388994D01*
X50382793Y-95389001D01*
X50374061Y-95395344D01*
X50342859Y-95411807D01*
X50313491Y-95422287D01*
X50271816Y-95429500D01*
X47371068Y-95429500D01*
X47336132Y-95424477D01*
X47306211Y-95415691D01*
X47268264Y-95397034D01*
X47244214Y-95379561D01*
X47218845Y-95361130D01*
X46994379Y-95246759D01*
X46754785Y-95168910D01*
X46754783Y-95168909D01*
X46695221Y-95159475D01*
X46693105Y-95159065D01*
X46690416Y-95157675D01*
X46663581Y-95149378D01*
X46635404Y-95136021D01*
X46600838Y-95111654D01*
X45449073Y-93959888D01*
X45427924Y-93931638D01*
X45422502Y-93921708D01*
X45418710Y-93904279D01*
X45410162Y-93888618D01*
X45411436Y-93870844D01*
X45407649Y-93853438D01*
X45413882Y-93836724D01*
X45415158Y-93818927D01*
X45425837Y-93804665D01*
X45432063Y-93787973D01*
X45446345Y-93777280D01*
X45457039Y-93763001D01*
X45487974Y-93746115D01*
X45487992Y-93746101D01*
X45491872Y-93744654D01*
X45495208Y-93743411D01*
X45538522Y-93735600D01*
X54143194Y-93735600D01*
X54178128Y-93740623D01*
G37*
%TD.AperFunction*%
%TA.AperFunction,NonConductor*%
G36*
X43638855Y-95867321D02*
G01*
X43664099Y-95874734D01*
X43716845Y-95906030D01*
X44759615Y-96948799D01*
X44780765Y-96977051D01*
X44780767Y-96977055D01*
X44795712Y-97004423D01*
X44809353Y-97044452D01*
X44818908Y-97104779D01*
X44818909Y-97104782D01*
X44896759Y-97344380D01*
X44897848Y-97346518D01*
X44897849Y-97346520D01*
X44897851Y-97346522D01*
X44909235Y-97379930D01*
X44911796Y-97393568D01*
X44904822Y-97463089D01*
X44861384Y-97517793D01*
X44858654Y-97519718D01*
X44807510Y-97540702D01*
X44805561Y-97541025D01*
X44785257Y-97542700D01*
X41481077Y-97542700D01*
X41481076Y-97542699D01*
X41481076Y-97542700D01*
X41446141Y-97537677D01*
X41420899Y-97530265D01*
X41368154Y-97498969D01*
X40380382Y-96511197D01*
X40359232Y-96482945D01*
X40344284Y-96455570D01*
X40330645Y-96415549D01*
X40321090Y-96355214D01*
X40291913Y-96265418D01*
X40243241Y-96115621D01*
X40243238Y-96115616D01*
X40243237Y-96115611D01*
X40214126Y-96058478D01*
X40202743Y-96025077D01*
X40200179Y-96011428D01*
X40202018Y-95993093D01*
X40200806Y-95989269D01*
X40203342Y-95979896D01*
X40207152Y-95941911D01*
X40216962Y-95929557D01*
X40219055Y-95921825D01*
X40233430Y-95908821D01*
X40250602Y-95887197D01*
X40253353Y-95885258D01*
X40264553Y-95880668D01*
X40270871Y-95874953D01*
X40304515Y-95864289D01*
X40306459Y-95863967D01*
X40326722Y-95862300D01*
X43603923Y-95862300D01*
X43638855Y-95867321D01*
G37*
%TD.AperFunction*%
%TA.AperFunction,NonConductor*%
G36*
X72624209Y-90826452D02*
G01*
X72682406Y-90845818D01*
X72688924Y-90850007D01*
X72709559Y-90866637D01*
X72777738Y-90934816D01*
X72856932Y-90984577D01*
X72856933Y-90984577D01*
X72859327Y-90986082D01*
X72907977Y-91016652D01*
X72907978Y-91016652D01*
X72930480Y-91030790D01*
X73046197Y-91071281D01*
X73046198Y-91071281D01*
X73055457Y-91074521D01*
X73100745Y-91090368D01*
X73100750Y-91090369D01*
X73191246Y-91100565D01*
X73235040Y-91105499D01*
X73235043Y-91105500D01*
X73235046Y-91105500D01*
X73235461Y-91105500D01*
X75024957Y-91105500D01*
X75034750Y-91105500D01*
X75042345Y-91103540D01*
X75092104Y-91097934D01*
X75152348Y-91091146D01*
X75158046Y-91090827D01*
X75161231Y-91089785D01*
X75169111Y-91087383D01*
X75169169Y-91087382D01*
X75169348Y-91087311D01*
X75170483Y-91086967D01*
X75174036Y-91085196D01*
X75187726Y-91080405D01*
X75222349Y-91073611D01*
X75233844Y-91073024D01*
X75236215Y-91072904D01*
X75304171Y-91089148D01*
X75352544Y-91139530D01*
X75355512Y-91145237D01*
X75369500Y-91202450D01*
X75369500Y-91709052D01*
X75369618Y-91709797D01*
X75369621Y-91709816D01*
X75401520Y-91911228D01*
X75401521Y-91911233D01*
X75431927Y-92004811D01*
X75431932Y-92004824D01*
X75433151Y-92008575D01*
X75464780Y-92105920D01*
X75479667Y-92135137D01*
X75495114Y-92165452D01*
X75557713Y-92288311D01*
X75678034Y-92453919D01*
X76279181Y-93055066D01*
X76444789Y-93175387D01*
X76535985Y-93221853D01*
X76627181Y-93268320D01*
X76724523Y-93299948D01*
X76821865Y-93331577D01*
X77024048Y-93363600D01*
X77228752Y-93363600D01*
X113475323Y-93363600D01*
X113510250Y-93368621D01*
X113521103Y-93371807D01*
X113579884Y-93409577D01*
X113608913Y-93473131D01*
X113598974Y-93542290D01*
X113598973Y-93542292D01*
X113595788Y-93549267D01*
X113570672Y-93585442D01*
X107847241Y-99308873D01*
X107818990Y-99330022D01*
X107795902Y-99342630D01*
X107736472Y-99357800D01*
X64341377Y-99357800D01*
X64306442Y-99352777D01*
X64295588Y-99349590D01*
X64236810Y-99311816D01*
X64207785Y-99248260D01*
X64208978Y-99239961D01*
X64217725Y-99179111D01*
X64220915Y-99172124D01*
X64246024Y-99135960D01*
X72512167Y-90869816D01*
X72540417Y-90848668D01*
X72554141Y-90841174D01*
X72571558Y-90837385D01*
X72587197Y-90828844D01*
X72622398Y-90826323D01*
X72624209Y-90826452D01*
G37*
%TD.AperFunction*%
%TA.AperFunction,NonConductor*%
G36*
X26127126Y-90058563D02*
G01*
X26168999Y-90114495D01*
X26169001Y-90114499D01*
X26171682Y-90121687D01*
X26179500Y-90165021D01*
X26179500Y-91124966D01*
X26194627Y-91259230D01*
X26194630Y-91259252D01*
X26194631Y-91259255D01*
X26254210Y-91429522D01*
X26254213Y-91429527D01*
X26314635Y-91525687D01*
X26334793Y-91557768D01*
X26350184Y-91582262D01*
X26476974Y-91709052D01*
X26477613Y-91709691D01*
X26491421Y-91726128D01*
X26506689Y-91747878D01*
X26527549Y-91798963D01*
X26527851Y-91800798D01*
X26528885Y-91813435D01*
X26529096Y-91814058D01*
X26528975Y-91814539D01*
X26529500Y-91820949D01*
X26529500Y-92484056D01*
X26561521Y-92686230D01*
X26561522Y-92686234D01*
X26598915Y-92801315D01*
X26624780Y-92880919D01*
X26638171Y-92907200D01*
X26717713Y-93063311D01*
X26838034Y-93228919D01*
X29162881Y-95553766D01*
X29328489Y-95674087D01*
X29354508Y-95687344D01*
X29510880Y-95767020D01*
X29510886Y-95767022D01*
X29561247Y-95783384D01*
X29608221Y-95798647D01*
X29608222Y-95798648D01*
X29632558Y-95806555D01*
X29705565Y-95830277D01*
X29907748Y-95862300D01*
X32205653Y-95862300D01*
X32240585Y-95867321D01*
X32253904Y-95871232D01*
X32312682Y-95909006D01*
X32341708Y-95972561D01*
X32341707Y-95972563D01*
X32342182Y-95975862D01*
X32337630Y-96031040D01*
X32337034Y-96032917D01*
X32329334Y-96051684D01*
X32296765Y-96115604D01*
X32296762Y-96115609D01*
X32296762Y-96115611D01*
X32296760Y-96115618D01*
X32218910Y-96355213D01*
X32179500Y-96604038D01*
X32179500Y-96855960D01*
X32218910Y-97104786D01*
X32218910Y-97104789D01*
X32280237Y-97293533D01*
X32296759Y-97344381D01*
X32296761Y-97344385D01*
X32373917Y-97495812D01*
X32385117Y-97517793D01*
X32397808Y-97542700D01*
X32411132Y-97568848D01*
X32559201Y-97772649D01*
X32559205Y-97772654D01*
X32559210Y-97772660D01*
X32737338Y-97950788D01*
X32737342Y-97950791D01*
X32737345Y-97950794D01*
X32737350Y-97950798D01*
X32879647Y-98054182D01*
X32941155Y-98098870D01*
X33084184Y-98171747D01*
X33084183Y-98171747D01*
X33120752Y-98190379D01*
X33162775Y-98211791D01*
X33166488Y-98213684D01*
X33170243Y-98214743D01*
X33294049Y-98254970D01*
X33405215Y-98291090D01*
X33654038Y-98330500D01*
X33654039Y-98330500D01*
X33905961Y-98330500D01*
X33905962Y-98330500D01*
X34154785Y-98291090D01*
X34394379Y-98213241D01*
X34618845Y-98098870D01*
X34665933Y-98064657D01*
X34697145Y-98048190D01*
X34726516Y-98037711D01*
X34768184Y-98030500D01*
X37768932Y-98030500D01*
X37803866Y-98035523D01*
X37833789Y-98044309D01*
X37871738Y-98062967D01*
X37921155Y-98098870D01*
X38027206Y-98152905D01*
X38112999Y-98196619D01*
X38139170Y-98209955D01*
X38139171Y-98209956D01*
X38140767Y-98210890D01*
X38144470Y-98212684D01*
X38146474Y-98213680D01*
X38150242Y-98214743D01*
X38274049Y-98254970D01*
X38385214Y-98291090D01*
X38424439Y-98297302D01*
X38442703Y-98300194D01*
X38476414Y-98310619D01*
X38504596Y-98323979D01*
X38539160Y-98348345D01*
X39324326Y-99133511D01*
X39345475Y-99161761D01*
X39350896Y-99171688D01*
X39354686Y-99189111D01*
X39363232Y-99204761D01*
X39361960Y-99222542D01*
X39365750Y-99239961D01*
X39359519Y-99256666D01*
X39358248Y-99274452D01*
X39347565Y-99288722D01*
X39341336Y-99305426D01*
X39327062Y-99316111D01*
X39316377Y-99330386D01*
X39285400Y-99347301D01*
X39278212Y-99349982D01*
X39234878Y-99357800D01*
X30696177Y-99357800D01*
X30661241Y-99352777D01*
X30635999Y-99345365D01*
X30583254Y-99314069D01*
X27780382Y-96511197D01*
X27759232Y-96482945D01*
X27744284Y-96455570D01*
X27730645Y-96415549D01*
X27721090Y-96355214D01*
X27643239Y-96115616D01*
X27586340Y-96003947D01*
X27528870Y-95891155D01*
X27461659Y-95798647D01*
X27461658Y-95798645D01*
X27461657Y-95798643D01*
X27380798Y-95687350D01*
X27380780Y-95687330D01*
X27202660Y-95509210D01*
X27202655Y-95509206D01*
X27202654Y-95509205D01*
X27202649Y-95509201D01*
X27092671Y-95429298D01*
X27009445Y-95368831D01*
X27009443Y-95368830D01*
X26998848Y-95361132D01*
X26998847Y-95361131D01*
X26998845Y-95361130D01*
X26928747Y-95325413D01*
X26774383Y-95246760D01*
X26723533Y-95230237D01*
X26534789Y-95168910D01*
X26530057Y-95167775D01*
X26530447Y-95166147D01*
X26473886Y-95139335D01*
X26436955Y-95080023D01*
X26432943Y-95058174D01*
X26422521Y-94945056D01*
X26366419Y-94773627D01*
X26337389Y-94710073D01*
X26291041Y-94623113D01*
X26180011Y-94480960D01*
X26040132Y-94367078D01*
X26000122Y-94341370D01*
X25981519Y-94328008D01*
X25969591Y-94322252D01*
X25963868Y-94318817D01*
X25963848Y-94318805D01*
X25939060Y-94303929D01*
X25939052Y-94303925D01*
X25884567Y-94281039D01*
X25878700Y-94278394D01*
X25851978Y-94265500D01*
X25838596Y-94253399D01*
X25772827Y-94234095D01*
X25772827Y-94234094D01*
X25769217Y-94233035D01*
X25769217Y-94233034D01*
X25769206Y-94233032D01*
X25766111Y-94232124D01*
X25766106Y-94232123D01*
X25766103Y-94232122D01*
X25653857Y-94207713D01*
X25625978Y-94203706D01*
X25618935Y-94202694D01*
X25618932Y-94202693D01*
X25618927Y-94202693D01*
X25504338Y-94194500D01*
X25504333Y-94194500D01*
X23753800Y-94194500D01*
X23686761Y-94174815D01*
X23641006Y-94122011D01*
X23629800Y-94070500D01*
X23629800Y-92470176D01*
X23634822Y-92435243D01*
X23642234Y-92409998D01*
X23673528Y-92357256D01*
X25955214Y-90075570D01*
X25983457Y-90054426D01*
X25993391Y-90049002D01*
X26061661Y-90034149D01*
X26127126Y-90058563D01*
G37*
%TD.AperFunction*%
%TA.AperFunction,NonConductor*%
G36*
X28010703Y-100420334D02*
G01*
X28017181Y-100426366D01*
X28871164Y-101280349D01*
X28883737Y-101297145D01*
X28883892Y-101297022D01*
X28888012Y-101302197D01*
X28888094Y-101302338D01*
X28888163Y-101302387D01*
X28889925Y-101305412D01*
X28892316Y-101308605D01*
X28895715Y-101314830D01*
X28895486Y-101314954D01*
X28905933Y-101332881D01*
X28906046Y-101333160D01*
X28912968Y-101402686D01*
X28881417Y-101464688D01*
X28881202Y-101464915D01*
X28881202Y-101464917D01*
X28881200Y-101464917D01*
X28880539Y-101465621D01*
X28854465Y-101486712D01*
X28853451Y-101487326D01*
X28822731Y-101500643D01*
X28820807Y-101501183D01*
X28803485Y-101504735D01*
X28723113Y-101515316D01*
X28723113Y-101515317D01*
X28723112Y-101515316D01*
X28723112Y-101515317D01*
X28687822Y-101514897D01*
X28664972Y-101511334D01*
X28612731Y-101490234D01*
X28610320Y-101488538D01*
X28602339Y-101481826D01*
X28601765Y-101481556D01*
X28601483Y-101481106D01*
X28593987Y-101474802D01*
X28070521Y-100951336D01*
X28070519Y-100951334D01*
X27904911Y-100831013D01*
X27873205Y-100814858D01*
X27822409Y-100766883D01*
X27805500Y-100704373D01*
X27805500Y-100514047D01*
X27825185Y-100447008D01*
X27877989Y-100401253D01*
X27947147Y-100391309D01*
X28010703Y-100420334D01*
G37*
%TD.AperFunction*%
%TA.AperFunction,Conductor*%
%TO.N,/GND*%
G36*
X25539258Y-95005020D02*
G01*
X25542355Y-95005929D01*
X25545926Y-95006977D01*
X25549695Y-95009399D01*
X25552436Y-95009710D01*
X25560833Y-95016556D01*
X25604706Y-95044746D01*
X25633736Y-95108300D01*
X25623799Y-95177459D01*
X25597057Y-95208775D01*
X25590024Y-95220477D01*
X25584061Y-95223993D01*
X25579532Y-95229298D01*
X25574577Y-95232584D01*
X25563893Y-95235888D01*
X25549619Y-95244307D01*
X25549896Y-95244968D01*
X25545626Y-95246755D01*
X25321147Y-95361134D01*
X25117367Y-95509188D01*
X25117338Y-95509210D01*
X24939210Y-95687338D01*
X24939188Y-95687367D01*
X24791134Y-95891147D01*
X24791132Y-95891151D01*
X24676760Y-96115616D01*
X24676759Y-96115618D01*
X24676759Y-96115619D01*
X24598910Y-96355209D01*
X24598910Y-96355212D01*
X24559500Y-96604038D01*
X24559500Y-96855960D01*
X24598910Y-97104786D01*
X24598910Y-97104789D01*
X24660237Y-97293533D01*
X24676760Y-97344383D01*
X24755413Y-97498747D01*
X24777808Y-97542700D01*
X24791132Y-97568848D01*
X24939201Y-97772649D01*
X24939205Y-97772654D01*
X24939210Y-97772660D01*
X25117338Y-97950788D01*
X25117342Y-97950791D01*
X25117345Y-97950794D01*
X25117350Y-97950798D01*
X25295117Y-98079952D01*
X25321155Y-98098870D01*
X25444250Y-98161590D01*
X25545616Y-98213239D01*
X25546491Y-98213685D01*
X25550240Y-98214742D01*
X25674049Y-98254970D01*
X25785214Y-98291090D01*
X25824439Y-98297302D01*
X25842703Y-98300194D01*
X25876414Y-98310619D01*
X25904596Y-98323979D01*
X25939160Y-98348345D01*
X26951073Y-99360258D01*
X26972223Y-99388510D01*
X26984831Y-99411599D01*
X27000000Y-99471028D01*
X27000000Y-104216812D01*
X26980315Y-104283851D01*
X26927511Y-104329606D01*
X26901123Y-104338240D01*
X26861363Y-104346465D01*
X26861363Y-104346466D01*
X26693688Y-104412933D01*
X26693686Y-104412934D01*
X26693684Y-104412935D01*
X26633146Y-104454511D01*
X26544998Y-104515049D01*
X26544994Y-104515053D01*
X26492196Y-104560802D01*
X26492192Y-104560806D01*
X26421823Y-104629754D01*
X26316692Y-104776330D01*
X26246814Y-104942620D01*
X26227124Y-105009675D01*
X26214696Y-105057352D01*
X26194500Y-105236595D01*
X26194500Y-106558382D01*
X26212043Y-106725585D01*
X26212044Y-106725588D01*
X26222721Y-106775910D01*
X26231236Y-106811938D01*
X26295991Y-106980282D01*
X26295992Y-106980284D01*
X26396586Y-107130003D01*
X26396588Y-107130005D01*
X26396588Y-107130006D01*
X26441786Y-107183254D01*
X26441805Y-107183275D01*
X26510027Y-107254339D01*
X26510030Y-107254341D01*
X26655515Y-107360955D01*
X26655517Y-107360956D01*
X26694700Y-107377893D01*
X26748426Y-107422560D01*
X26769474Y-107489184D01*
X26769500Y-107491714D01*
X26769500Y-110414966D01*
X26784627Y-110549230D01*
X26784630Y-110549252D01*
X26784631Y-110549255D01*
X26844210Y-110719522D01*
X26844211Y-110719523D01*
X26940184Y-110872262D01*
X27067738Y-110999816D01*
X27220478Y-111095789D01*
X27390745Y-111155368D01*
X27390750Y-111155369D01*
X27390759Y-111155370D01*
X27390770Y-111155372D01*
X27438724Y-111160774D01*
X27481246Y-111165565D01*
X27522068Y-111170164D01*
X27524511Y-111170500D01*
X30614957Y-111170500D01*
X30624750Y-111170500D01*
X30632345Y-111168540D01*
X30682104Y-111162934D01*
X30742348Y-111156146D01*
X30745808Y-111155952D01*
X30745813Y-111155952D01*
X30748781Y-111155533D01*
X30749253Y-111155368D01*
X30749255Y-111155368D01*
X30919522Y-111095789D01*
X31072262Y-110999816D01*
X31199816Y-110872262D01*
X31295789Y-110719522D01*
X31355368Y-110549255D01*
X31370500Y-110414954D01*
X31370500Y-108141829D01*
X31375523Y-108106893D01*
X31379927Y-108091895D01*
X31417672Y-108033144D01*
X31417700Y-108033119D01*
X31417699Y-108033119D01*
X31419041Y-108031956D01*
X31473920Y-108004477D01*
X31481479Y-108002833D01*
X31507832Y-108000000D01*
X37527671Y-108000000D01*
X37562606Y-108005023D01*
X37577604Y-108009427D01*
X37636355Y-108047172D01*
X37636379Y-108047200D01*
X37636382Y-108047202D01*
X37636383Y-108047204D01*
X37637542Y-108048541D01*
X37665018Y-108103402D01*
X37666663Y-108110960D01*
X37669500Y-108137331D01*
X37669500Y-110414966D01*
X37684627Y-110549230D01*
X37684630Y-110549252D01*
X37684631Y-110549255D01*
X37744210Y-110719522D01*
X37744211Y-110719523D01*
X37840184Y-110872262D01*
X37967738Y-110999816D01*
X38120478Y-111095789D01*
X38290745Y-111155368D01*
X38290750Y-111155369D01*
X38290759Y-111155370D01*
X38290770Y-111155372D01*
X38338724Y-111160774D01*
X38381246Y-111165565D01*
X38422068Y-111170164D01*
X38424511Y-111170500D01*
X41514957Y-111170500D01*
X41524750Y-111170500D01*
X41532345Y-111168540D01*
X41582104Y-111162934D01*
X41642348Y-111156146D01*
X41645808Y-111155952D01*
X41645813Y-111155952D01*
X41648781Y-111155533D01*
X41649253Y-111155368D01*
X41649255Y-111155368D01*
X41819522Y-111095789D01*
X41972262Y-110999816D01*
X42099816Y-110872262D01*
X42195789Y-110719522D01*
X42255368Y-110549255D01*
X42270500Y-110414954D01*
X42270500Y-110312329D01*
X42275523Y-110277393D01*
X42279927Y-110262395D01*
X42281345Y-110260188D01*
X42317672Y-110203644D01*
X42317700Y-110203619D01*
X42317699Y-110203619D01*
X42319041Y-110202456D01*
X42373920Y-110174977D01*
X42381479Y-110173333D01*
X42407832Y-110170500D01*
X42874051Y-110170500D01*
X42874052Y-110170500D01*
X43076235Y-110138477D01*
X43173576Y-110106848D01*
X43270919Y-110075220D01*
X43362114Y-110028753D01*
X43431702Y-109993296D01*
X43435683Y-109991267D01*
X43463005Y-109981190D01*
X43490771Y-109974524D01*
X43519712Y-109971100D01*
X44858170Y-109971100D01*
X44893106Y-109976123D01*
X44908104Y-109980527D01*
X44923094Y-109990157D01*
X44940175Y-109995167D01*
X44966855Y-110018272D01*
X44968042Y-110019641D01*
X44995518Y-110074502D01*
X44997163Y-110082060D01*
X45000000Y-110108431D01*
X45000000Y-121858170D01*
X44994975Y-121893114D01*
X44990570Y-121908112D01*
X44980939Y-121923101D01*
X44975932Y-121940175D01*
X44952827Y-121966855D01*
X44951458Y-121968042D01*
X44896597Y-121995518D01*
X44889039Y-121997163D01*
X44862668Y-122000000D01*
X21141830Y-122000000D01*
X21106889Y-121994975D01*
X21091890Y-121990570D01*
X21076902Y-121980940D01*
X21059824Y-121975932D01*
X21033144Y-121952827D01*
X21031957Y-121951458D01*
X21004477Y-121896583D01*
X21002832Y-121889021D01*
X21000000Y-121862668D01*
X21000000Y-95141829D01*
X21005023Y-95106893D01*
X21009427Y-95091895D01*
X21047172Y-95033144D01*
X21048541Y-95031957D01*
X21103420Y-95004477D01*
X21110979Y-95002833D01*
X21137332Y-95000000D01*
X25504333Y-95000000D01*
X25539258Y-95005020D01*
G37*
%TD.AperFunction*%
%TD*%
%TA.AperFunction,Conductor*%
%TO.N,/+24V*%
G36*
X69893106Y-101963823D02*
G01*
X69908104Y-101968227D01*
X69923094Y-101977857D01*
X69940175Y-101982867D01*
X69966855Y-102005972D01*
X69968042Y-102007341D01*
X69995518Y-102062202D01*
X69997163Y-102069760D01*
X70000000Y-102096131D01*
X70000000Y-121858170D01*
X69994975Y-121893114D01*
X69990570Y-121908112D01*
X69980939Y-121923101D01*
X69975932Y-121940175D01*
X69952827Y-121966855D01*
X69951458Y-121968042D01*
X69896597Y-121995518D01*
X69889039Y-121997163D01*
X69862668Y-122000000D01*
X46141830Y-122000000D01*
X46106889Y-121994975D01*
X46091890Y-121990570D01*
X46076902Y-121980940D01*
X46059824Y-121975932D01*
X46033144Y-121952827D01*
X46031957Y-121951458D01*
X46004477Y-121896583D01*
X46002832Y-121889021D01*
X46000000Y-121862668D01*
X46000000Y-109535032D01*
X46659500Y-109535032D01*
X46659500Y-112124966D01*
X46674627Y-112259230D01*
X46674630Y-112259252D01*
X46674631Y-112259255D01*
X46734210Y-112429522D01*
X46734211Y-112429523D01*
X46830184Y-112582262D01*
X46957738Y-112709816D01*
X47110478Y-112805789D01*
X47280745Y-112865368D01*
X47280750Y-112865369D01*
X47280759Y-112865370D01*
X47280770Y-112865372D01*
X47328724Y-112870774D01*
X47371246Y-112875565D01*
X47412068Y-112880164D01*
X47414511Y-112880500D01*
X51504957Y-112880500D01*
X51514750Y-112880500D01*
X51522345Y-112878540D01*
X51572104Y-112872934D01*
X51632348Y-112866146D01*
X51635808Y-112865952D01*
X51635813Y-112865952D01*
X51638781Y-112865533D01*
X51639253Y-112865368D01*
X51639255Y-112865368D01*
X51809522Y-112805789D01*
X51962262Y-112709816D01*
X52089816Y-112582262D01*
X52185789Y-112429522D01*
X52245368Y-112259255D01*
X52260500Y-112124954D01*
X52260500Y-109535046D01*
X52245368Y-109400745D01*
X52185789Y-109230478D01*
X52089816Y-109077738D01*
X51962262Y-108950184D01*
X51962261Y-108950183D01*
X51809525Y-108854212D01*
X51809522Y-108854210D01*
X51639255Y-108794631D01*
X51639252Y-108794630D01*
X51639230Y-108794627D01*
X51504966Y-108779500D01*
X51504960Y-108779500D01*
X51504954Y-108779500D01*
X47415046Y-108779500D01*
X47415039Y-108779500D01*
X47415032Y-108779500D01*
X47280768Y-108794627D01*
X47280746Y-108794630D01*
X47280743Y-108794631D01*
X47110476Y-108854210D01*
X47110473Y-108854212D01*
X46957737Y-108950183D01*
X46830183Y-109077737D01*
X46734212Y-109230473D01*
X46734210Y-109230476D01*
X46674631Y-109400743D01*
X46674630Y-109400746D01*
X46674627Y-109400768D01*
X46659500Y-109535032D01*
X46000000Y-109535032D01*
X46000000Y-102100629D01*
X46005023Y-102065693D01*
X46009427Y-102050695D01*
X46047172Y-101991944D01*
X46047200Y-101991919D01*
X46047199Y-101991919D01*
X46048541Y-101990756D01*
X46103420Y-101963277D01*
X46110979Y-101961633D01*
X46137332Y-101958800D01*
X69858170Y-101958800D01*
X69893106Y-101963823D01*
G37*
%TD.AperFunction*%
%TD*%
%TA.AperFunction,Conductor*%
%TO.N,/HEATER_RET*%
G36*
X44943039Y-101978485D02*
G01*
X44988794Y-102031289D01*
X45000000Y-102082800D01*
X45000000Y-106876000D01*
X44980315Y-106943039D01*
X44927511Y-106988794D01*
X44876000Y-107000000D01*
X42251454Y-107000000D01*
X42184415Y-106980315D01*
X42146460Y-106941972D01*
X42099815Y-106867737D01*
X41972262Y-106740184D01*
X41819523Y-106644211D01*
X41649254Y-106584631D01*
X41649249Y-106584630D01*
X41514960Y-106569500D01*
X41514954Y-106569500D01*
X38425046Y-106569500D01*
X38425039Y-106569500D01*
X38290750Y-106584630D01*
X38290745Y-106584631D01*
X38120476Y-106644211D01*
X37967737Y-106740184D01*
X37840184Y-106867737D01*
X37793540Y-106941972D01*
X37741205Y-106988263D01*
X37688546Y-107000000D01*
X31351454Y-107000000D01*
X31284415Y-106980315D01*
X31246460Y-106941972D01*
X31199815Y-106867737D01*
X31072262Y-106740184D01*
X30919523Y-106644211D01*
X30749254Y-106584631D01*
X30749249Y-106584630D01*
X30614960Y-106569500D01*
X30614954Y-106569500D01*
X27525046Y-106569500D01*
X27525039Y-106569500D01*
X27390750Y-106584630D01*
X27390745Y-106584631D01*
X27220476Y-106644211D01*
X27189972Y-106663379D01*
X27122735Y-106682379D01*
X27055900Y-106662011D01*
X27010686Y-106608744D01*
X27000000Y-106558385D01*
X27000000Y-105236600D01*
X27019685Y-105169561D01*
X27072489Y-105123806D01*
X27141647Y-105113862D01*
X27205203Y-105142887D01*
X27222374Y-105161111D01*
X27271731Y-105225435D01*
X27336679Y-105310078D01*
X27336685Y-105310085D01*
X27549914Y-105523314D01*
X27549921Y-105523320D01*
X27789168Y-105706900D01*
X28050328Y-105857681D01*
X28050329Y-105857681D01*
X28050332Y-105857683D01*
X28236072Y-105934619D01*
X28328939Y-105973086D01*
X28328940Y-105973086D01*
X28328942Y-105973087D01*
X28620232Y-106051138D01*
X28919217Y-106090500D01*
X28919224Y-106090500D01*
X29220776Y-106090500D01*
X29220783Y-106090500D01*
X29519768Y-106051138D01*
X29811058Y-105973087D01*
X30089668Y-105857683D01*
X30350832Y-105706900D01*
X30590080Y-105523319D01*
X30803319Y-105310080D01*
X30986900Y-105070832D01*
X31137683Y-104809668D01*
X31253087Y-104531058D01*
X31331138Y-104239768D01*
X31370500Y-103940783D01*
X31370500Y-103639217D01*
X31331138Y-103340232D01*
X31253087Y-103048942D01*
X31137683Y-102770332D01*
X30986900Y-102509168D01*
X30803319Y-102269920D01*
X30803314Y-102269914D01*
X30703881Y-102170481D01*
X30670396Y-102109158D01*
X30675380Y-102039466D01*
X30717252Y-101983533D01*
X30782716Y-101959116D01*
X30791562Y-101958800D01*
X44876000Y-101958800D01*
X44943039Y-101978485D01*
G37*
%TD.AperFunction*%
%TA.AperFunction,Conductor*%
G36*
X31355998Y-89098485D02*
G01*
X31401753Y-89151289D01*
X31411697Y-89220447D01*
X31399445Y-89259091D01*
X31380421Y-89296428D01*
X31380421Y-89296429D01*
X31300140Y-89543506D01*
X31259500Y-89800097D01*
X31259500Y-90359902D01*
X31300140Y-90616493D01*
X31380422Y-90863576D01*
X31498368Y-91095054D01*
X31596325Y-91229880D01*
X31651069Y-91305229D01*
X31834771Y-91488931D01*
X32044949Y-91641634D01*
X32178763Y-91709816D01*
X32276423Y-91759577D01*
X32276425Y-91759577D01*
X32276428Y-91759579D01*
X32523507Y-91839860D01*
X32655706Y-91860797D01*
X32780098Y-91880500D01*
X32780103Y-91880500D01*
X33039902Y-91880500D01*
X33153298Y-91862539D01*
X33296493Y-91839860D01*
X33543572Y-91759579D01*
X33775051Y-91641634D01*
X33985229Y-91488931D01*
X34057341Y-91416819D01*
X34118664Y-91383334D01*
X34145022Y-91380500D01*
X34471653Y-91380500D01*
X34538692Y-91400185D01*
X34559334Y-91416819D01*
X36192134Y-93049619D01*
X36225619Y-93110942D01*
X36220635Y-93180634D01*
X36178763Y-93236567D01*
X36113299Y-93260984D01*
X36104453Y-93261300D01*
X30600147Y-93261300D01*
X30533108Y-93241615D01*
X30512466Y-93224981D01*
X29177462Y-91889977D01*
X29143977Y-91828654D01*
X29148961Y-91758962D01*
X29177462Y-91714614D01*
X29182256Y-91709819D01*
X29182262Y-91709816D01*
X29309816Y-91582262D01*
X29405789Y-91429522D01*
X29465368Y-91259255D01*
X29480500Y-91124954D01*
X29480500Y-89202800D01*
X29500185Y-89135761D01*
X29552989Y-89090006D01*
X29604500Y-89078800D01*
X31288959Y-89078800D01*
X31355998Y-89098485D01*
G37*
%TD.AperFunction*%
%TA.AperFunction,Conductor*%
G36*
X44943039Y-86019685D02*
G01*
X44988794Y-86072489D01*
X45000000Y-86124000D01*
X45000000Y-91010600D01*
X44980315Y-91077639D01*
X44927511Y-91123394D01*
X44876000Y-91134600D01*
X38006847Y-91134600D01*
X37939808Y-91114915D01*
X37919166Y-91098281D01*
X35908921Y-89088036D01*
X35908919Y-89088034D01*
X35743311Y-88967713D01*
X35611878Y-88900745D01*
X35560923Y-88874781D01*
X35514215Y-88859604D01*
X35463576Y-88843151D01*
X35463575Y-88843150D01*
X35392589Y-88820086D01*
X35372081Y-88813422D01*
X35314407Y-88773986D01*
X35287208Y-88709627D01*
X35286400Y-88695492D01*
X35286400Y-86124000D01*
X35306085Y-86056961D01*
X35358889Y-86011206D01*
X35410400Y-86000000D01*
X44876000Y-86000000D01*
X44943039Y-86019685D01*
G37*
%TD.AperFunction*%
%TD*%
M02*
